<svg width="1349" height="255" viewBox="0 0 1349 255" fill="none" xmlns="http://www.w3.org/2000/svg">
<path d="M119 94.25L118.875 93.766L118.886 94.7368L119 94.25ZM143.75 109.75L143.349 110.049L143.356 110.058L143.75 109.75ZM137.25 172.5L137.567 172.887L137.568 172.886L137.25 172.5ZM0.5 185H1.86265e-07V185.5H0.5V185ZM0.5 8V7.5H1.86265e-07V8H0.5ZM140.5 80.25L140.103 79.9456L140.102 79.947L140.5 80.25ZM56 77H55.5V77.5H56V77ZM88.5 74L88.1877 73.6096L88.181 73.6148L88.1746 73.6204L88.5 74ZM88.5 55.25L88.1598 55.6164L88.1733 55.6289L88.1877 55.6404L88.5 55.25ZM56 52V51.5H55.5V52H56ZM92.25 137.75L92.5589 138.143L92.5624 138.14L92.25 137.75ZM56 115.5V115H55.5V115.5H56ZM56 140.5H55.5V141H56V140.5ZM118.886 94.7368C129.453 97.2134 137.595 102.321 143.349 110.049L144.151 109.451C138.239 101.512 129.881 96.2866 119.114 93.7632L118.886 94.7368ZM143.356 110.058C149.284 117.633 152.25 126.44 152.25 136.5H153.25C153.25 126.227 150.216 117.201 144.144 109.442L143.356 110.058ZM152.25 136.5C152.25 151.877 147.131 163.724 136.932 172.114L137.568 172.886C148.035 164.276 153.25 152.123 153.25 136.5H152.25ZM136.933 172.113C126.889 180.346 112.353 184.5 93.25 184.5V185.5C112.481 185.5 127.278 181.32 137.567 172.887L136.933 172.113ZM93.25 184.5H0.5V185.5H93.25V184.5ZM1 185V8H1.86265e-07V185H1ZM0.5 8.5H90.75V7.5H0.5V8.5ZM90.75 8.5C108.682 8.5 122.73 12.4023 132.948 20.1484L133.552 19.3515C123.104 11.431 108.818 7.5 90.75 7.5V8.5ZM132.948 20.1484C143.136 27.8716 148.25 39.1286 148.25 54H149.25C149.25 38.8714 144.031 27.295 133.552 19.3515L132.948 20.1484ZM148.25 54C148.25 64.2398 145.527 72.8785 140.103 79.9456L140.897 80.5544C146.473 73.2881 149.25 64.4268 149.25 54H148.25ZM140.102 79.947C134.841 86.8526 127.773 91.4591 118.875 93.766L119.125 94.734C128.227 92.3743 135.492 87.6474 140.898 80.553L140.102 79.947ZM56 77.5H77.5V76.5H56V77.5ZM77.5 77.5C82.5494 77.5 86.3596 76.4931 88.8254 74.3796L88.1746 73.6204C85.9737 75.5069 82.4506 76.5 77.5 76.5V77.5ZM88.8123 74.3904C91.4649 72.2684 92.75 69.019 92.75 64.75H91.75C91.75 68.8143 90.5351 71.7316 88.1877 73.6096L88.8123 74.3904ZM92.75 64.75C92.75 60.322 91.4694 56.9852 88.8124 54.8596L88.1877 55.6404C90.5306 57.5148 91.75 60.5113 91.75 64.75H92.75ZM88.8402 54.8836C86.3739 52.5934 82.5572 51.5 77.5 51.5V52.5C82.4428 52.5 85.9594 53.5732 88.1598 55.6164L88.8402 54.8836ZM77.5 51.5H56V52.5H77.5V51.5ZM55.5 52V77H56.5V52H55.5ZM81.25 141C86.2921 141 90.0949 140.079 92.5589 138.143L91.9411 137.357C89.7384 139.088 86.2079 140 81.25 140V141ZM92.5624 138.14C95.2194 136.015 96.5 132.678 96.5 128.25H95.5C95.5 132.489 94.2806 135.485 91.9377 137.36L92.5624 138.14ZM96.5 128.25C96.5 123.902 95.2392 120.556 92.6395 118.309C90.0537 116.074 86.2273 115 81.25 115V116C86.106 116 89.6547 117.051 91.9855 119.066C94.3025 121.069 95.5 124.098 95.5 128.25H96.5ZM81.25 115H56V116H81.25V115ZM55.5 115.5V140.5H56.5V115.5H55.5ZM56 141H81.25V140H56V141ZM171.398 76L170.946 75.7874L170.944 75.7905L171.398 76ZM192.398 51L192.668 51.4209L192.674 51.4172L192.398 51ZM245.898 48L245.649 48.4335L245.657 48.4381L245.898 48ZM261.148 63.25L260.708 63.487L261.648 63.25H261.148ZM261.148 44V43.5H260.648V44H261.148ZM316.398 44H316.898V43.5H316.398V44ZM316.398 185V185.5H316.898V185H316.398ZM261.148 185H260.648V185.5H261.148V185ZM261.148 165.75H261.648L260.708 165.513L261.148 165.75ZM245.898 181.25L246.139 181.688L246.148 181.683L245.898 181.25ZM192.398 178.25L192.123 178.667L192.128 178.671L192.398 178.25ZM171.398 153.25L170.943 153.457L170.947 153.465L171.398 153.25ZM255.398 97L255.766 96.6615L255.766 96.6615L255.398 97ZM225.898 97L225.53 96.6615L225.53 96.6615L225.898 97ZM164.398 114.5C164.398 99.7219 166.889 86.9632 171.852 76.2095L170.944 75.7905C165.908 86.7034 163.398 99.6114 163.398 114.5H164.398ZM171.851 76.2126C176.984 65.2841 183.926 57.029 192.668 51.4208L192.128 50.5791C183.204 56.3043 176.146 64.7159 170.946 75.7874L171.851 76.2126ZM192.674 51.4172C201.422 45.6401 211.242 42.75 222.148 42.75V41.75C211.055 41.75 201.041 44.6932 192.123 50.5828L192.674 51.4172ZM222.148 42.75C231.244 42.75 239.072 44.6514 245.649 48.4334L246.148 47.5665C239.392 43.6819 231.386 41.75 222.148 41.75V42.75ZM245.657 48.4381C252.242 52.0598 257.255 57.0746 260.708 63.487L261.589 63.0129C258.042 56.4254 252.888 51.2735 246.139 47.5619L245.657 48.4381ZM261.648 63.25V44H260.648V63.25H261.648ZM261.148 44.5H316.398V43.5H261.148V44.5ZM315.898 44V185H316.898V44H315.898ZM316.398 184.5H261.148V185.5H316.398V184.5ZM261.648 185V165.75H260.648V185H261.648ZM260.708 165.513C257.254 171.927 252.239 177.028 245.649 180.817L246.148 181.683C252.892 177.806 258.043 172.573 261.589 165.987L260.708 165.513ZM245.657 180.812C239.078 184.43 231.248 186.25 222.148 186.25V187.25C231.382 187.25 239.385 185.403 246.139 181.688L245.657 180.812ZM222.148 186.25C211.239 186.25 201.417 183.442 192.668 177.829L192.128 178.671C201.046 184.392 211.058 187.25 222.148 187.25V186.25ZM192.674 177.833C183.926 172.056 176.983 163.797 171.85 153.035L170.947 153.465C176.148 164.369 183.204 172.777 192.123 178.667L192.674 177.833ZM171.854 153.043C166.889 142.121 164.398 129.278 164.398 114.5H163.398C163.398 129.389 165.908 142.379 170.943 153.457L171.854 153.043ZM261.648 114.5C261.648 106.916 259.709 100.947 255.766 96.6615L255.03 97.3385C258.754 101.386 260.648 107.084 260.648 114.5H261.648ZM255.766 96.6615C251.832 92.3852 246.779 90.25 240.648 90.25V91.25C246.518 91.25 251.298 93.2815 255.03 97.3385L255.766 96.6615ZM240.648 90.25C234.518 90.25 229.465 92.3852 225.53 96.6615L226.266 97.3385C229.999 93.2815 234.779 91.25 240.648 91.25V90.25ZM225.53 96.6615C221.588 100.947 219.648 106.916 219.648 114.5H220.648C220.648 107.084 222.542 101.386 226.266 97.3385L225.53 96.6615ZM219.648 114.5C219.648 122.084 221.588 128.053 225.53 132.339L226.266 131.661C222.542 127.614 220.648 121.916 220.648 114.5H219.648ZM225.53 132.339C229.465 136.615 234.518 138.75 240.648 138.75V137.75C234.779 137.75 229.999 135.719 226.266 131.661L225.53 132.339ZM240.648 138.75C246.779 138.75 251.832 136.615 255.766 132.339L255.03 131.661C251.298 135.719 246.518 137.75 240.648 137.75V138.75ZM255.766 132.339C259.709 128.053 261.648 122.084 261.648 114.5H260.648C260.648 121.916 258.754 127.614 255.03 131.661L255.766 132.339ZM477.82 59.25L477.436 59.5695L477.439 59.573L477.82 59.25ZM491.57 185V185.5H492.07V185H491.57ZM436.32 185H435.82V185.5H436.32V185ZM430.82 94.5L430.444 94.8292L430.451 94.8376L430.459 94.8456L430.82 94.5ZM402.07 94.5L402.44 94.8372L402.447 94.8292L402.07 94.5ZM396.82 185V185.5H397.32V185H396.82ZM341.32 185H340.82V185.5H341.32V185ZM341.32 44V43.5H340.82V44H341.32ZM396.82 44H397.32V43.5H396.82V44ZM396.82 65.5H396.32V67.1867L397.24 65.7725L396.82 65.5ZM414.07 49.25L413.823 48.8152L413.819 48.8177L414.07 49.25ZM440.07 43.5C456.113 43.5 468.545 48.8682 477.436 59.5695L478.205 58.9305C469.095 47.9651 456.361 42.5 440.07 42.5V43.5ZM477.439 59.573C486.508 70.2916 491.07 84.8318 491.07 103.25H492.07C492.07 84.6682 487.466 69.8751 478.202 58.927L477.439 59.573ZM491.07 103.25V185H492.07V103.25H491.07ZM491.57 184.5H436.32V185.5H491.57V184.5ZM436.82 185V110.25H435.82V185H436.82ZM436.82 110.25C436.82 103.489 434.959 98.1031 431.182 94.1544L430.459 94.8456C434.015 98.5636 435.82 103.677 435.82 110.25H436.82ZM431.197 94.1707C427.589 90.0476 422.694 88 416.57 88V89C422.447 89 427.052 90.9524 430.444 94.8292L431.197 94.1707ZM416.57 88C410.285 88 405.305 90.0444 401.694 94.1707L402.447 94.8292C405.836 90.9556 410.522 89 416.57 89V88ZM401.701 94.1629C398.095 98.1122 396.32 103.495 396.32 110.25H397.32C397.32 103.671 399.045 98.5545 402.44 94.8371L401.701 94.1629ZM396.32 110.25V185H397.32V110.25H396.32ZM396.82 184.5H341.32V185.5H396.82V184.5ZM341.82 185V44H340.82V185H341.82ZM341.32 44.5H396.82V43.5H341.32V44.5ZM396.32 44V65.5H397.32V44H396.32ZM397.24 65.7725C401.528 59.1743 407.22 53.8113 414.322 49.6822L413.819 48.8177C406.588 53.022 400.779 58.4923 396.401 65.2275L397.24 65.7725ZM414.317 49.6847C421.562 45.5682 430.141 43.5 440.07 43.5V42.5C430 42.5 421.245 44.5985 413.823 48.8153L414.317 49.6847ZM590.137 48L589.887 48.4335L589.896 48.4381L590.137 48ZM605.387 63.25L604.946 63.487L605.887 63.25H605.387ZM605.387 44V43.5H604.887V44H605.387ZM660.637 44H661.137V43.5H660.637V44ZM653.387 218.5L652.93 218.296L652.93 218.296L653.387 218.5ZM629.887 244.5L629.629 244.071L629.627 244.073L629.887 244.5ZM534.637 238.25L534.949 237.86L534.948 237.859L534.637 238.25ZM512.137 195.25V194.75H511.584L511.639 195.3L512.137 195.25ZM566.637 195.25L567.127 195.15L567.045 194.75H566.637V195.25ZM599.887 201.25L600.223 201.62L600.223 201.62L599.887 201.25ZM605.387 165.75H605.887L604.946 165.513L605.387 165.75ZM590.137 181.25L590.378 181.688L590.386 181.683L590.137 181.25ZM536.637 178.25L536.361 178.667L536.367 178.671L536.637 178.25ZM515.637 153.25L515.181 153.457L515.185 153.465L515.637 153.25ZM515.637 76L515.184 75.7874L515.183 75.7905L515.637 76ZM536.637 51L536.907 51.4209L536.912 51.4172L536.637 51ZM599.637 97L600.005 96.6615L600.005 96.6615L599.637 97ZM570.137 97L569.769 96.6615L569.769 96.6615L570.137 97ZM566.387 42.75C575.483 42.75 583.31 44.6514 589.887 48.4334L590.386 47.5665C583.63 43.6819 575.624 41.75 566.387 41.75V42.75ZM589.896 48.4381C596.481 52.0598 601.494 57.0746 604.946 63.487L605.827 63.0129C602.28 56.4254 597.126 51.2735 590.378 47.5619L589.896 48.4381ZM605.887 63.25V44H604.887V63.25H605.887ZM605.387 44.5H660.637V43.5H605.387V44.5ZM660.137 44V182.5H661.137V44H660.137ZM660.137 182.5C660.137 195.604 657.732 207.534 652.93 218.296L653.843 218.704C658.708 207.8 661.137 195.729 661.137 182.5H660.137ZM652.93 218.296C648.141 229.03 640.381 237.62 629.629 244.071L630.144 244.929C641.059 238.38 648.965 229.637 653.843 218.704L652.93 218.296ZM629.627 244.073C619.061 250.511 605.409 253.75 588.637 253.75V254.75C605.531 254.75 619.379 251.489 630.147 244.927L629.627 244.073ZM588.637 253.75C566.046 253.75 548.168 248.435 534.949 237.86L534.324 238.64C547.772 249.398 565.894 254.75 588.637 254.75V253.75ZM534.948 237.859C521.896 227.451 514.455 213.245 512.634 195.2L511.639 195.3C513.485 213.588 521.044 228.049 534.325 238.641L534.948 237.859ZM512.137 195.75H566.637V194.75H512.137V195.75ZM566.147 195.35C566.923 199.143 568.874 202.016 572.001 203.927C575.109 205.826 579.337 206.75 584.637 206.75V205.75C579.436 205.75 575.414 204.841 572.522 203.073C569.649 201.317 567.851 198.69 567.127 195.15L566.147 195.35ZM584.637 206.75C591.221 206.75 596.439 205.06 600.223 201.62L599.55 200.88C596.001 204.106 591.052 205.75 584.637 205.75V206.75ZM600.223 201.62C604.054 198.137 605.887 191.698 605.887 182.5H604.887C604.887 191.635 603.053 197.696 599.55 200.88L600.223 201.62ZM605.887 182.5V165.75H604.887V182.5H605.887ZM604.946 165.513C601.493 171.927 596.477 177.028 589.887 180.817L590.386 181.683C597.13 177.806 602.281 172.573 605.827 165.987L604.946 165.513ZM589.896 180.812C583.317 184.43 575.486 186.25 566.387 186.25V187.25C575.62 187.25 583.623 185.403 590.378 181.688L589.896 180.812ZM566.387 186.25C555.478 186.25 545.655 183.442 536.907 177.829L536.367 178.671C545.285 184.392 555.296 187.25 566.387 187.25V186.25ZM536.912 177.833C528.165 172.056 521.221 163.797 516.088 153.035L515.185 153.465C520.386 164.369 527.442 172.777 536.361 178.667L536.912 177.833ZM516.092 153.043C511.127 142.121 508.637 129.278 508.637 114.5H507.637C507.637 129.389 510.146 142.379 515.182 153.457L516.092 153.043ZM508.637 114.5C508.637 99.7219 511.127 86.9632 516.091 76.2095L515.183 75.7905C510.146 86.7034 507.637 99.6114 507.637 114.5H508.637ZM516.089 76.2126C521.222 65.2841 528.164 57.029 536.907 51.4208L536.367 50.5791C527.442 56.3043 520.384 64.7159 515.184 75.7874L516.089 76.2126ZM536.912 51.4172C545.661 45.6401 555.481 42.75 566.387 42.75V41.75C555.293 41.75 545.28 44.6932 536.361 50.5828L536.912 51.4172ZM605.887 114.5C605.887 106.916 603.947 100.947 600.005 96.6615L599.269 97.3385C602.993 101.386 604.887 107.084 604.887 114.5H605.887ZM600.005 96.6615C596.07 92.3852 591.017 90.25 584.887 90.25V91.25C590.756 91.25 595.536 93.2815 599.269 97.3385L600.005 96.6615ZM584.887 90.25C578.756 90.25 573.703 92.3852 569.769 96.6615L570.505 97.3385C574.237 93.2815 579.017 91.25 584.887 91.25V90.25ZM569.769 96.6615C565.826 100.947 563.887 106.916 563.887 114.5H564.887C564.887 107.084 566.781 101.386 570.505 97.3385L569.769 96.6615ZM563.887 114.5C563.887 122.084 565.826 128.053 569.769 132.339L570.505 131.661C566.781 127.614 564.887 121.916 564.887 114.5H563.887ZM569.769 132.339C573.703 136.615 578.756 138.75 584.887 138.75V137.75C579.017 137.75 574.237 135.719 570.505 131.661L569.769 132.339ZM584.887 138.75C591.017 138.75 596.07 136.615 600.005 132.339L599.269 131.661C595.536 135.719 590.756 137.75 584.887 137.75V138.75ZM600.005 132.339C603.947 128.053 605.887 122.084 605.887 114.5H604.887C604.887 121.916 602.993 127.614 599.269 131.661L600.005 132.339ZM685.559 76L685.106 75.7874L685.105 75.7905L685.559 76ZM706.559 51L706.829 51.4209L706.834 51.4172L706.559 51ZM760.059 48L759.809 48.4335L759.818 48.4381L760.059 48ZM775.309 63.25L774.868 63.487L775.809 63.25H775.309ZM775.309 44V43.5H774.809V44H775.309ZM830.559 44H831.059V43.5H830.559V44ZM830.559 185V185.5H831.059V185H830.559ZM775.309 185H774.809V185.5H775.309V185ZM775.309 165.75H775.809L774.868 165.513L775.309 165.75ZM760.059 181.25L760.3 181.688L760.308 181.683L760.059 181.25ZM706.559 178.25L706.283 178.667L706.289 178.671L706.559 178.25ZM685.559 153.25L685.103 153.457L685.107 153.465L685.559 153.25ZM769.559 97L769.927 96.6615L769.927 96.6615L769.559 97ZM740.059 97L739.691 96.6615L739.691 96.6615L740.059 97ZM678.559 114.5C678.559 99.7219 681.049 86.9632 686.013 76.2095L685.105 75.7905C680.068 86.7034 677.559 99.6114 677.559 114.5H678.559ZM686.011 76.2126C691.144 65.2841 698.086 57.029 706.829 51.4208L706.289 50.5791C697.364 56.3043 690.306 64.7159 685.106 75.7874L686.011 76.2126ZM706.834 51.4172C715.582 45.6401 725.403 42.75 736.309 42.75V41.75C725.215 41.75 715.201 44.6932 706.283 50.5828L706.834 51.4172ZM736.309 42.75C745.405 42.75 753.232 44.6514 759.809 48.4334L760.308 47.5665C753.552 43.6819 745.546 41.75 736.309 41.75V42.75ZM759.818 48.4381C766.403 52.0598 771.415 57.0746 774.868 63.487L775.749 63.0129C772.202 56.4254 767.048 51.2735 760.3 47.5619L759.818 48.4381ZM775.809 63.25V44H774.809V63.25H775.809ZM775.309 44.5H830.559V43.5H775.309V44.5ZM830.059 44V185H831.059V44H830.059ZM830.559 184.5H775.309V185.5H830.559V184.5ZM775.809 185V165.75H774.809V185H775.809ZM774.868 165.513C771.414 171.927 766.399 177.028 759.809 180.817L760.308 181.683C767.052 177.806 772.203 172.573 775.749 165.987L774.868 165.513ZM759.818 180.812C753.239 184.43 745.408 186.25 736.309 186.25V187.25C745.542 187.25 753.545 185.403 760.3 181.688L759.818 180.812ZM736.309 186.25C725.399 186.25 715.577 183.442 706.829 177.829L706.289 178.671C715.206 184.392 725.218 187.25 736.309 187.25V186.25ZM706.834 177.833C698.086 172.056 691.143 163.797 686.01 153.035L685.107 153.465C690.308 164.369 697.364 172.777 706.283 178.667L706.834 177.833ZM686.014 153.043C681.049 142.121 678.559 129.278 678.559 114.5H677.559C677.559 129.389 680.068 142.379 685.103 153.457L686.014 153.043ZM775.809 114.5C775.809 106.916 773.869 100.947 769.927 96.6615L769.191 97.3385C772.915 101.386 774.809 107.084 774.809 114.5H775.809ZM769.927 96.6615C765.992 92.3852 760.939 90.25 754.809 90.25V91.25C760.678 91.25 765.458 93.2815 769.191 97.3385L769.927 96.6615ZM754.809 90.25C748.678 90.25 743.625 92.3852 739.691 96.6615L740.427 97.3385C744.159 93.2815 748.939 91.25 754.809 91.25V90.25ZM739.691 96.6615C735.748 100.947 733.809 106.916 733.809 114.5H734.809C734.809 107.084 736.703 101.386 740.427 97.3385L739.691 96.6615ZM733.809 114.5C733.809 122.084 735.748 128.053 739.691 132.339L740.427 131.661C736.703 127.614 734.809 121.916 734.809 114.5H733.809ZM739.691 132.339C743.625 136.615 748.678 138.75 754.809 138.75V137.75C748.939 137.75 744.159 135.719 740.427 131.661L739.691 132.339ZM754.809 138.75C760.939 138.75 765.992 136.615 769.927 132.339L769.191 131.661C765.458 135.719 760.678 137.75 754.809 137.75V138.75ZM769.927 132.339C773.869 128.053 775.809 122.084 775.809 114.5H774.809C774.809 121.916 772.915 127.614 769.191 131.661L769.927 132.339ZM910.98 -2.38419e-06H911.48V-0.500002H910.98V-2.38419e-06ZM910.98 185V185.5H911.48V185H910.98ZM855.48 185H854.98V185.5H855.48V185ZM855.48 -2.38419e-06V-0.500002H854.98V-2.38419e-06H855.48ZM910.48 -2.38419e-06V185H911.48V-2.38419e-06H910.48ZM910.98 184.5H855.48V185.5H910.98V184.5ZM855.98 185V-2.38419e-06H854.98V185H855.98ZM855.48 0.499998H910.98V-0.500002H855.48V0.499998ZM964.797 178L965.026 177.555L964.797 178ZM938.047 153L937.613 153.25L937.618 153.257L938.047 153ZM938.047 76.25L937.616 75.9956L937.615 75.9976L938.047 76.25ZM964.797 51L965.026 51.4446L965.026 51.4446L964.797 51ZM1041.3 51L1041.07 51.4446L1041.07 51.4446L1041.3 51ZM1067.8 76.25L1067.36 76.4995L1067.37 76.5072L1067.8 76.25ZM1067.8 153L1067.37 152.746L1067.37 152.748L1067.8 153ZM1041.3 178L1041.07 177.555L1041.07 177.555L1041.3 178ZM1016.05 132.75L1016.42 133.079L1016.43 133.072L1016.05 132.75ZM1016.05 96.5L1015.66 96.8217L1015.67 96.8293L1016.05 96.5ZM990.047 96.5L990.423 96.8293L990.43 96.8216L990.047 96.5ZM989.797 132.75L989.406 133.062L989.413 133.071L989.421 133.079L989.797 132.75ZM1003.05 186.25C988.951 186.25 976.281 183.348 965.026 177.555L964.568 178.445C975.98 184.318 988.81 187.25 1003.05 187.25V186.25ZM965.026 177.555C953.774 171.764 944.927 163.495 938.476 152.743L937.618 153.257C944.166 164.171 953.153 172.569 964.568 178.445L965.026 177.555ZM938.48 152.751C932.197 141.838 929.047 129.093 929.047 114.5H928.047C928.047 129.24 931.23 142.162 937.614 153.249L938.48 152.751ZM929.047 114.5C929.047 99.9069 932.197 87.247 938.479 76.5023L937.615 75.9976C931.23 86.9196 928.047 99.7598 928.047 114.5H929.047ZM938.477 76.5044C944.93 65.5853 953.776 57.2347 965.026 51.4446L964.568 50.5554C953.151 56.432 944.164 64.9147 937.616 75.9956L938.477 76.5044ZM965.026 51.4446C976.281 45.6516 988.951 42.75 1003.05 42.75V41.75C988.81 41.75 975.98 44.6818 964.568 50.5554L965.026 51.4446ZM1003.05 42.75C1017.14 42.75 1029.81 45.6516 1041.07 51.4446L1041.53 50.5554C1030.11 44.6818 1017.28 41.75 1003.05 41.75V42.75ZM1041.07 51.4446C1052.32 57.2341 1061.08 65.5832 1067.36 76.4995L1068.23 76.0005C1061.85 64.9168 1052.94 56.4326 1041.53 50.5554L1041.07 51.4446ZM1067.37 76.5072C1073.81 87.2511 1077.05 99.9092 1077.05 114.5H1078.05C1078.05 99.7575 1074.78 86.9156 1068.23 75.9927L1067.37 76.5072ZM1077.05 114.5C1077.05 129.091 1073.81 141.833 1067.37 152.746L1068.23 153.254C1074.78 142.167 1078.05 129.243 1078.05 114.5H1077.05ZM1067.37 152.748C1061.08 163.498 1052.32 171.765 1041.07 177.555L1041.53 178.445C1052.94 172.568 1061.85 164.169 1068.23 153.252L1067.37 152.748ZM1041.07 177.555C1029.81 183.348 1017.14 186.25 1003.05 186.25V187.25C1017.28 187.25 1030.11 184.318 1041.53 178.445L1041.07 177.555ZM1003.05 139.25C1008.36 139.25 1012.83 137.184 1016.42 133.079L1015.67 132.421C1012.26 136.316 1008.06 138.25 1003.05 138.25V139.25ZM1016.43 133.072C1020.03 128.781 1021.8 122.564 1021.8 114.5H1020.8C1020.8 122.436 1019.06 128.386 1015.66 132.428L1016.43 133.072ZM1021.8 114.5C1021.8 106.438 1020.03 100.298 1016.42 96.1707L1015.67 96.8293C1019.06 100.702 1020.8 106.562 1020.8 114.5H1021.8ZM1016.43 96.1784C1012.84 91.9055 1008.37 89.75 1003.05 89.75V90.75C1008.06 90.75 1012.25 92.7611 1015.66 96.8216L1016.43 96.1784ZM1003.05 89.75C997.724 89.75 993.253 91.9055 989.664 96.1784L990.43 96.8216C993.841 92.7611 998.037 90.75 1003.05 90.75V89.75ZM989.671 96.1707C986.059 100.298 984.297 106.438 984.297 114.5H985.297C985.297 106.562 987.035 100.702 990.423 96.8293L989.671 96.1707ZM984.297 114.5C984.297 122.559 985.974 128.772 989.406 133.062L990.187 132.438C986.953 128.394 985.297 122.441 985.297 114.5H984.297ZM989.421 133.079C993.016 137.188 997.57 139.25 1003.05 139.25V138.25C997.857 138.25 993.578 136.312 990.173 132.421L989.421 133.079ZM1150.48 70H1149.98V71.5977L1150.89 70.285L1150.48 70ZM1171.23 50.5L1171.49 50.9303L1171.49 50.9264L1171.23 50.5ZM1196.73 43H1197.23V42.5H1196.73V43ZM1196.73 102.25V102.75H1197.23V102.25H1196.73ZM1157.73 107.75L1157.44 107.347L1157.43 107.352L1157.73 107.75ZM1150.48 185V185.5H1150.98V185H1150.48ZM1094.98 185H1094.48V185.5H1094.98V185ZM1094.98 44V43.5H1094.48V44H1094.98ZM1150.48 44H1150.98V43.5H1150.48V44ZM1150.89 70.285C1156.52 62.1746 1163.39 55.7253 1171.49 50.9303L1170.98 50.0697C1162.75 54.9414 1155.78 61.4921 1150.07 69.715L1150.89 70.285ZM1171.49 50.9264C1179.59 45.9703 1188 43.5 1196.73 43.5V42.5C1187.8 42.5 1179.21 45.0296 1170.97 50.0736L1171.49 50.9264ZM1196.23 43V102.25H1197.23V43H1196.23ZM1196.73 101.75H1180.98V102.75H1196.73V101.75ZM1180.98 101.75C1170.44 101.75 1162.56 103.587 1157.44 107.347L1158.03 108.153C1162.9 104.58 1170.52 102.75 1180.98 102.75V101.75ZM1157.43 107.352C1152.42 111.155 1149.98 117.846 1149.98 127.25H1150.98C1150.98 117.987 1153.38 111.678 1158.03 108.148L1157.43 107.352ZM1149.98 127.25V185H1150.98V127.25H1149.98ZM1150.48 184.5H1094.98V185.5H1150.48V184.5ZM1095.48 185V44H1094.48V185H1095.48ZM1094.98 44.5H1150.48V43.5H1094.98V44.5ZM1149.98 44V70H1150.98V44H1149.98ZM1347.43 124.25V124.75H1347.87L1347.93 124.321L1347.43 124.25ZM1258.18 124.25V123.75H1257.65L1257.68 124.284L1258.18 124.25ZM1286.43 134.25V133.75H1286.12L1285.98 134.032L1286.43 134.25ZM1345.18 134.25L1345.67 134.348L1345.79 133.75H1345.18V134.25ZM1332.43 161.25L1332.04 160.935L1332.04 160.936L1332.43 161.25ZM1308.18 180L1308.39 180.453L1308.4 180.452L1308.18 180ZM1238.68 178L1238.44 178.44L1238.45 178.442L1238.68 178ZM1213.18 153L1212.74 153.239L1212.75 153.247L1213.18 153ZM1213.18 76.25L1212.75 76.0055L1212.74 76.0077L1213.18 76.25ZM1238.68 51L1238.45 50.5583L1238.44 50.5598L1238.68 51ZM1313.43 51L1313.19 51.4403L1313.2 51.4445L1313.43 51ZM1338.93 75.5L1338.5 75.7451L1338.5 75.7502L1338.93 75.5ZM1291.93 100V100.5H1292.43V100H1291.93ZM1287.43 89.5L1287.11 89.8841L1287.12 89.8895L1287.12 89.8947L1287.43 89.5ZM1258.93 100L1258.44 99.9136L1258.34 100.5H1258.93V100ZM1347.68 113.25C1347.68 117.062 1347.43 120.705 1346.94 124.179L1347.93 124.321C1348.43 120.795 1348.68 117.105 1348.68 113.25H1347.68ZM1347.43 123.75H1258.18V124.75H1347.43V123.75ZM1257.68 124.284C1258.1 130.42 1259.6 135.102 1262.24 138.258C1264.89 141.434 1268.65 143 1273.43 143V142C1268.88 142 1265.43 140.524 1263 137.617C1260.56 134.689 1259.09 130.247 1258.68 124.216L1257.68 124.284ZM1273.43 143C1276.51 143 1279.19 142.294 1281.45 140.86C1283.71 139.426 1285.52 137.286 1286.88 134.468L1285.98 134.032C1284.68 136.714 1282.99 138.699 1280.91 140.015C1278.84 141.331 1276.35 142 1273.43 142V143ZM1286.43 134.75H1345.18V133.75H1286.43V134.75ZM1344.69 134.152C1342.71 144.071 1338.49 152.997 1332.04 160.935L1332.82 161.565C1339.37 153.503 1343.66 144.429 1345.67 134.348L1344.69 134.152ZM1332.04 160.936C1325.76 168.706 1317.74 174.911 1307.97 179.548L1308.4 180.452C1318.29 175.756 1326.44 169.461 1332.82 161.564L1332.04 160.936ZM1307.97 179.547C1298.38 184.013 1287.78 186.25 1276.18 186.25V187.25C1287.91 187.25 1298.65 184.987 1308.39 180.453L1307.97 179.547ZM1276.18 186.25C1262.25 186.25 1249.84 183.349 1238.92 177.558L1238.45 178.442C1249.53 184.318 1262.11 187.25 1276.18 187.25V186.25ZM1238.92 177.56C1228.17 171.772 1219.74 163.506 1213.62 152.753L1212.75 153.247C1218.96 164.161 1227.53 172.562 1238.44 178.44L1238.92 177.56ZM1213.62 152.761C1207.67 141.846 1204.68 129.097 1204.68 114.5H1203.68C1203.68 129.236 1206.7 142.154 1212.74 153.239L1213.62 152.761ZM1204.68 114.5C1204.68 99.9024 1207.67 87.2389 1213.62 76.4922L1212.74 76.0077C1206.7 86.9278 1203.68 99.7642 1203.68 114.5H1204.68ZM1213.62 76.4945C1219.74 65.5751 1228.17 57.2274 1238.92 51.4402L1238.44 50.5598C1227.53 56.4393 1218.96 64.9248 1212.75 76.0055L1213.62 76.4945ZM1238.92 51.4417C1249.84 45.6512 1262.25 42.75 1276.18 42.75V41.75C1262.11 41.75 1249.53 44.6821 1238.45 50.5583L1238.92 51.4417ZM1276.18 42.75C1290.11 42.75 1302.44 45.6513 1313.19 51.4402L1313.67 50.5598C1302.75 44.6821 1290.25 41.75 1276.18 41.75V42.75ZM1313.2 51.4445C1324.12 57.0669 1332.54 65.1647 1338.5 75.7451L1339.37 75.2549C1333.32 64.5019 1324.75 56.2664 1313.66 50.5555L1313.2 51.4445ZM1338.5 75.7502C1344.61 86.3284 1347.68 98.8222 1347.68 113.25H1348.68C1348.68 98.6778 1345.58 86.005 1339.36 75.2497L1338.5 75.7502ZM1292.43 100C1292.43 95.218 1290.89 91.555 1287.74 89.1053L1287.12 89.8947C1289.98 92.1117 1291.43 95.4486 1291.43 100H1292.43ZM1287.75 89.1159C1284.65 86.5298 1280.78 85.25 1276.18 85.25V86.25C1280.58 86.25 1284.21 87.4702 1287.11 89.8841L1287.75 89.1159ZM1276.18 85.25C1271.19 85.25 1267.17 86.4573 1264.18 88.927C1261.18 91.3978 1259.29 95.0814 1258.44 99.9136L1259.42 100.086C1260.24 95.4186 1262.05 91.9772 1264.81 89.698C1267.57 87.4177 1271.34 86.25 1276.18 86.25V85.25ZM1258.93 100.5H1291.93V99.5H1258.93V100.5Z" fill="black"/>
</svg>
