<svg width="1349" height="255" viewBox="0 0 1349 255" fill="none" xmlns="http://www.w3.org/2000/svg">
<mask id="path-1-inside-1_8741_4451" fill="white">
<path d="M119 94.25C129.667 96.75 137.917 101.917 143.75 109.75C149.75 117.417 152.75 126.333 152.75 136.5C152.75 152 147.583 164 137.25 172.5C127.083 180.833 112.417 185 93.25 185H0.5V8H90.75C108.75 8 122.917 11.9167 133.25 19.75C143.583 27.5833 148.75 39 148.75 54C148.75 64.3333 146 73.0833 140.5 80.25C135.167 87.25 128 91.9167 119 94.25ZM56 77H77.5C82.5 77 86.1667 76 88.5 74C91 72 92.25 68.9167 92.25 64.75C92.25 60.4167 91 57.25 88.5 55.25C86.1667 53.0833 82.5 52 77.5 52H56V77ZM81.25 140.5C86.25 140.5 89.9167 139.583 92.25 137.75C94.75 135.75 96 132.583 96 128.25C96 119.75 91.0833 115.5 81.25 115.5H56V140.5H81.25ZM163.898 114.5C163.898 99.6667 166.398 86.8333 171.398 76C176.565 65 183.565 56.6667 192.398 51C201.232 45.1667 211.148 42.25 222.148 42.25C231.315 42.25 239.232 44.1667 245.898 48C252.565 51.6667 257.648 56.75 261.148 63.25V44H316.398V185H261.148V165.75C257.648 172.25 252.565 177.417 245.898 181.25C239.232 184.917 231.315 186.75 222.148 186.75C211.148 186.75 201.232 183.917 192.398 178.25C183.565 172.417 176.565 164.083 171.398 153.25C166.398 142.25 163.898 129.333 163.898 114.5ZM261.148 114.5C261.148 107 259.232 101.167 255.398 97C251.565 92.8333 246.648 90.75 240.648 90.75C234.648 90.75 229.732 92.8333 225.898 97C222.065 101.167 220.148 107 220.148 114.5C220.148 122 222.065 127.833 225.898 132C229.732 136.167 234.648 138.25 240.648 138.25C246.648 138.25 251.565 136.167 255.398 132C259.232 127.833 261.148 122 261.148 114.5ZM440.07 43C456.237 43 468.82 48.4167 477.82 59.25C486.987 70.0833 491.57 84.75 491.57 103.25V185H436.32V110.25C436.32 103.583 434.487 98.3333 430.82 94.5C427.32 90.5 422.57 88.5 416.57 88.5C410.404 88.5 405.57 90.5 402.07 94.5C398.57 98.3333 396.82 103.583 396.82 110.25V185H341.32V44H396.82V65.5C401.154 58.8333 406.904 53.4167 414.07 49.25C421.404 45.0833 430.07 43 440.07 43ZM566.387 42.25C575.553 42.25 583.47 44.1667 590.137 48C596.803 51.6667 601.887 56.75 605.387 63.25V44H660.637V182.5C660.637 195.667 658.22 207.667 653.387 218.5C648.553 229.333 640.72 238 629.887 244.5C619.22 251 605.47 254.25 588.637 254.25C565.97 254.25 547.97 248.917 534.637 238.25C521.47 227.75 513.97 213.417 512.137 195.25H566.637C568.137 202.583 574.137 206.25 584.637 206.25C591.137 206.25 596.22 204.583 599.887 201.25C603.553 197.917 605.387 191.667 605.387 182.5V165.75C601.887 172.25 596.803 177.417 590.137 181.25C583.47 184.917 575.553 186.75 566.387 186.75C555.387 186.75 545.47 183.917 536.637 178.25C527.803 172.417 520.803 164.083 515.637 153.25C510.637 142.25 508.137 129.333 508.137 114.5C508.137 99.6667 510.637 86.8333 515.637 76C520.803 65 527.803 56.6667 536.637 51C545.47 45.1667 555.387 42.25 566.387 42.25ZM605.387 114.5C605.387 107 603.47 101.167 599.637 97C595.803 92.8333 590.887 90.75 584.887 90.75C578.887 90.75 573.97 92.8333 570.137 97C566.303 101.167 564.387 107 564.387 114.5C564.387 122 566.303 127.833 570.137 132C573.97 136.167 578.887 138.25 584.887 138.25C590.887 138.25 595.803 136.167 599.637 132C603.47 127.833 605.387 122 605.387 114.5ZM678.059 114.5C678.059 99.6667 680.559 86.8333 685.559 76C690.725 65 697.725 56.6667 706.559 51C715.392 45.1667 725.309 42.25 736.309 42.25C745.475 42.25 753.392 44.1667 760.059 48C766.725 51.6667 771.809 56.75 775.309 63.25V44H830.559V185H775.309V165.75C771.809 172.25 766.725 177.417 760.059 181.25C753.392 184.917 745.475 186.75 736.309 186.75C725.309 186.75 715.392 183.917 706.559 178.25C697.725 172.417 690.725 164.083 685.559 153.25C680.559 142.25 678.059 129.333 678.059 114.5ZM775.309 114.5C775.309 107 773.392 101.167 769.559 97C765.725 92.8333 760.809 90.75 754.809 90.75C748.809 90.75 743.892 92.8333 740.059 97C736.225 101.167 734.309 107 734.309 114.5C734.309 122 736.225 127.833 740.059 132C743.892 136.167 748.809 138.25 754.809 138.25C760.809 138.25 765.725 136.167 769.559 132C773.392 127.833 775.309 122 775.309 114.5ZM910.98 -2.38419e-06V185H855.48V-2.38419e-06H910.98ZM1003.05 186.75C988.88 186.75 976.13 183.833 964.797 178C953.464 172.167 944.547 163.833 938.047 153C931.714 142 928.547 129.167 928.547 114.5C928.547 99.8333 931.714 87.0833 938.047 76.25C944.547 65.25 953.464 56.8333 964.797 51C976.13 45.1667 988.88 42.25 1003.05 42.25C1017.21 42.25 1029.96 45.1667 1041.3 51C1052.63 56.8333 1061.46 65.25 1067.8 76.25C1074.3 87.0833 1077.55 99.8333 1077.55 114.5C1077.55 129.167 1074.3 142 1067.8 153C1061.46 163.833 1052.63 172.167 1041.3 178C1029.96 183.833 1017.21 186.75 1003.05 186.75ZM1003.05 138.75C1008.21 138.75 1012.55 136.75 1016.05 132.75C1019.55 128.583 1021.3 122.5 1021.3 114.5C1021.3 106.5 1019.55 100.5 1016.05 96.5C1012.55 92.3333 1008.21 90.25 1003.05 90.25C997.88 90.25 993.547 92.3333 990.047 96.5C986.547 100.5 984.797 106.5 984.797 114.5C984.797 122.5 986.464 128.583 989.797 132.75C993.297 136.75 997.714 138.75 1003.05 138.75ZM1150.48 70C1156.15 61.8333 1163.07 55.3333 1171.23 50.5C1179.4 45.5 1187.9 43 1196.73 43V102.25H1180.98C1170.48 102.25 1162.73 104.083 1157.73 107.75C1152.9 111.417 1150.48 117.917 1150.48 127.25V185H1094.98V44H1150.48V70ZM1348.18 113.25C1348.18 117.083 1347.93 120.75 1347.43 124.25H1258.18C1259.01 136.417 1264.1 142.5 1273.43 142.5C1279.43 142.5 1283.76 139.75 1286.43 134.25H1345.18C1343.18 144.25 1338.93 153.25 1332.43 161.25C1326.1 169.083 1318.01 175.333 1308.18 180C1298.51 184.5 1287.85 186.75 1276.18 186.75C1262.18 186.75 1249.68 183.833 1238.68 178C1227.85 172.167 1219.35 163.833 1213.18 153C1207.18 142 1204.18 129.167 1204.18 114.5C1204.18 99.8333 1207.18 87.0833 1213.18 76.25C1219.35 65.25 1227.85 56.8333 1238.68 51C1249.68 45.1667 1262.18 42.25 1276.18 42.25C1290.18 42.25 1302.6 45.1667 1313.43 51C1324.43 56.6667 1332.93 64.8333 1338.93 75.5C1345.1 86.1667 1348.18 98.75 1348.18 113.25ZM1291.93 100C1291.93 95.3333 1290.43 91.8333 1287.43 89.5C1284.43 87 1280.68 85.75 1276.18 85.75C1266.35 85.75 1260.6 90.5 1258.93 100H1291.93Z"/>
</mask>
<path d="M119 94.25L118.498 92.314L118.544 96.1972L119 94.25ZM143.75 109.75L142.146 110.945L142.16 110.964L142.175 110.983L143.75 109.75ZM137.25 172.5L138.518 174.047L138.521 174.045L137.25 172.5ZM0.5 185H-1.5V187H0.5V185ZM0.5 8V6H-1.5V8H0.5ZM140.5 80.25L138.913 79.0323L138.909 79.0379L140.5 80.25ZM56 77H54V79H56V77ZM88.5 74L87.2506 72.4383L87.2241 72.4594L87.1984 72.4815L88.5 74ZM88.5 55.25L87.1391 56.7156L87.1931 56.7657L87.2506 56.8117L88.5 55.25ZM56 52V50H54V52H56ZM92.25 137.75L93.4857 139.323L93.4925 139.317L93.4994 139.312L92.25 137.75ZM56 115.5V113.5H54V115.5H56ZM56 140.5H54V142.5H56V140.5ZM118.544 96.1972C128.81 98.6035 136.629 103.536 142.146 110.945L145.354 108.555C139.204 100.297 130.523 94.8965 119.456 92.3028L118.544 96.1972ZM142.175 110.983C147.887 118.281 150.75 126.759 150.75 136.5H154.75C154.75 125.908 151.613 116.552 145.325 108.517L142.175 110.983ZM150.75 136.5C150.75 151.508 145.775 162.898 135.979 170.955L138.521 174.045C149.392 165.102 154.75 152.492 154.75 136.5H150.75ZM135.982 170.953C126.305 178.885 112.16 183 93.25 183V187C112.673 187 127.862 182.781 138.518 174.047L135.982 170.953ZM93.25 183H0.5V187H93.25V183ZM2.5 185V8H-1.5V185H2.5ZM0.5 10H90.75V6H0.5V10ZM90.75 10C108.48 10 122.169 13.8592 132.042 21.3438L134.458 18.1562C123.665 9.97411 109.02 6 90.75 6V10ZM132.042 21.3438C141.794 28.7365 146.75 39.5145 146.75 54H150.75C150.75 38.4855 145.373 26.4302 134.458 18.1562L132.042 21.3438ZM146.75 54C146.75 63.9593 144.108 72.2642 138.913 79.0324L142.087 81.4676C147.892 73.9025 150.75 64.7074 150.75 54H146.75ZM138.909 79.0379C133.863 85.6604 127.091 90.0863 118.498 92.314L119.502 96.186C128.909 93.747 136.47 88.8396 142.091 81.4621L138.909 79.0379ZM56 79H77.5V75H56V79ZM77.5 79C82.6976 79 86.9385 77.9726 89.8016 75.5185L87.1984 72.4815C85.3948 74.0274 82.3024 75 77.5 75V79ZM89.7494 75.5617C92.8595 73.0737 94.25 69.3262 94.25 64.75H90.25C90.25 68.5071 89.1405 70.9263 87.2506 72.4383L89.7494 75.5617ZM94.25 64.75C94.25 60.0381 92.8777 56.1909 89.7494 53.6882L87.2506 56.8117C89.1223 58.3091 90.25 60.7952 90.25 64.75H94.25ZM89.8609 53.7844C86.9956 51.1238 82.7286 50 77.5 50V54C82.2714 54 85.3377 55.0429 87.1391 56.7156L89.8609 53.7844ZM77.5 50H56V54H77.5V50ZM54 52V77H58V52H54ZM81.25 142.5C86.4186 142.5 90.6298 141.567 93.4857 139.323L91.0144 136.177C89.2036 137.6 86.0815 138.5 81.25 138.5V142.5ZM93.4994 139.312C96.6277 136.809 98 132.962 98 128.25H94C94 132.205 92.8723 134.691 91.0006 136.188L93.4994 139.312ZM98 128.25C98 123.61 96.6444 119.788 93.6204 117.174C90.6522 114.609 86.4093 113.5 81.25 113.5V117.5C85.924 117.5 89.0561 118.516 91.0046 120.201C92.8973 121.837 94 124.39 94 128.25H98ZM81.25 113.5H56V117.5H81.25V113.5ZM54 115.5V140.5H58V115.5H54ZM56 142.5H81.25V138.5H56V142.5ZM171.398 76L169.588 75.1497L169.583 75.1619L171.398 76ZM192.398 51L193.478 52.6834L193.49 52.6762L193.501 52.6689L192.398 51ZM245.898 48L244.901 49.7338L244.918 49.7433L244.935 49.7524L245.898 48ZM261.148 63.25L259.387 64.1982L263.148 63.25H261.148ZM261.148 44V42H259.148V44H261.148ZM316.398 44H318.398V42H316.398V44ZM316.398 185V187H318.398V185H316.398ZM261.148 185H259.148V187H261.148V185ZM261.148 165.75H263.148L259.387 164.802L261.148 165.75ZM245.898 181.25L246.862 183.002L246.879 182.993L246.895 182.984L245.898 181.25ZM192.398 178.25L191.296 179.919L191.307 179.926L191.319 179.933L192.398 178.25ZM171.398 153.25L169.578 154.078L169.585 154.094L169.593 154.111L171.398 153.25ZM255.398 97L256.87 95.6459L256.87 95.6459L255.398 97ZM225.898 97L224.427 95.6459L224.427 95.6459L225.898 97ZM165.898 114.5C165.898 99.8875 168.361 87.3529 173.214 76.8381L169.583 75.1619C164.435 86.3138 161.898 99.4458 161.898 114.5H165.898ZM173.209 76.8503C178.241 66.1363 185.01 58.1162 193.478 52.6834L191.319 49.3166C182.121 55.2171 174.889 63.8637 169.588 75.1497L173.209 76.8503ZM193.501 52.6689C201.994 47.0603 211.524 44.25 222.148 44.25V40.25C210.773 40.25 200.47 43.273 191.296 49.3311L193.501 52.6689ZM222.148 44.25C231.033 44.25 238.592 46.1056 244.901 49.7338L246.895 46.2662C239.872 42.2277 231.598 40.25 222.148 40.25V44.25ZM244.935 49.7524C251.275 53.2394 256.076 58.0483 259.387 64.1982L262.909 62.3018C259.221 55.4517 253.856 50.0939 246.862 46.2476L244.935 49.7524ZM263.148 63.25V44H259.148V63.25H263.148ZM261.148 46H316.398V42H261.148V46ZM314.398 44V185H318.398V44H314.398ZM316.398 183H261.148V187H316.398V183ZM263.148 185V165.75H259.148V185H263.148ZM259.387 164.802C256.072 170.96 251.259 175.86 244.901 179.516L246.895 182.984C253.871 178.973 259.225 173.54 262.909 166.698L259.387 164.802ZM244.935 179.498C238.618 182.972 231.047 184.75 222.148 184.75V188.75C231.583 188.75 239.845 186.862 246.862 183.002L244.935 179.498ZM222.148 184.75C211.512 184.75 201.974 182.016 193.478 176.567L191.319 179.933C200.49 185.817 210.785 188.75 222.148 188.75V184.75ZM193.501 176.581C185.01 170.974 178.235 162.939 173.204 152.389L169.593 154.111C174.895 165.228 182.121 173.859 191.296 179.919L193.501 176.581ZM173.219 152.422C168.361 141.734 165.898 129.111 165.898 114.5H161.898C161.898 129.555 164.436 142.766 169.578 154.078L173.219 152.422ZM263.148 114.5C263.148 106.665 261.141 100.288 256.87 95.6459L253.927 98.3541C257.322 102.045 259.148 107.335 259.148 114.5H263.148ZM256.87 95.6459C252.634 91.0407 247.17 88.75 240.648 88.75V92.75C246.127 92.75 250.497 94.626 253.927 98.3541L256.87 95.6459ZM240.648 88.75C234.127 88.75 228.663 91.0407 224.427 95.6459L227.37 98.3541C230.8 94.626 235.17 92.75 240.648 92.75V88.75ZM224.427 95.6459C220.156 100.288 218.148 106.665 218.148 114.5H222.148C222.148 107.335 223.975 102.045 227.37 98.3541L224.427 95.6459ZM218.148 114.5C218.148 122.335 220.156 128.712 224.427 133.354L227.37 130.646C223.975 126.955 222.148 121.665 222.148 114.5H218.148ZM224.427 133.354C228.663 137.959 234.127 140.25 240.648 140.25V136.25C235.17 136.25 230.8 134.374 227.37 130.646L224.427 133.354ZM240.648 140.25C247.17 140.25 252.634 137.959 256.87 133.354L253.927 130.646C250.497 134.374 246.127 136.25 240.648 136.25V140.25ZM256.87 133.354C261.141 128.712 263.148 122.335 263.148 114.5H259.148C259.148 121.665 257.322 126.955 253.927 130.646L256.87 133.354ZM477.82 59.25L476.282 60.528L476.288 60.535L476.294 60.5419L477.82 59.25ZM491.57 185V187H493.57V185H491.57ZM436.32 185H434.32V187H436.32V185ZM430.82 94.5L429.315 95.817L429.344 95.8504L429.375 95.8824L430.82 94.5ZM402.07 94.5L403.547 95.8485L403.562 95.8329L403.575 95.817L402.07 94.5ZM396.82 185V187H398.82V185H396.82ZM341.32 185H339.32V187H341.32V185ZM341.32 44V42H339.32V44H341.32ZM396.82 44H398.82V42H396.82V44ZM396.82 65.5H394.82V72.2467L398.497 66.59L396.82 65.5ZM414.07 49.25L413.082 47.5111L413.074 47.516L413.065 47.521L414.07 49.25ZM440.07 45C455.741 45 467.721 50.2227 476.282 60.528L479.359 57.972C469.92 46.6106 456.733 41 440.07 41V45ZM476.294 60.5419C485.072 70.9164 489.57 85.0771 489.57 103.25H493.57C493.57 84.4229 488.902 69.2502 479.347 57.9581L476.294 60.5419ZM489.57 103.25V185H493.57V103.25H489.57ZM491.57 183H436.32V187H491.57V183ZM438.32 185V110.25H434.32V185H438.32ZM438.32 110.25C438.32 103.207 436.374 97.4124 432.266 93.1176L429.375 95.8824C432.6 99.2543 434.32 103.96 434.32 110.25H438.32ZM432.325 93.183C428.394 88.6903 423.064 86.5 416.57 86.5V90.5C422.076 90.5 426.246 92.3097 429.315 95.817L432.325 93.183ZM416.57 86.5C409.929 86.5 404.507 88.6776 400.565 93.183L403.575 95.817C406.633 92.3224 410.878 90.5 416.57 90.5V86.5ZM400.593 93.1515C396.67 97.4488 394.82 103.231 394.82 110.25H398.82C398.82 103.936 400.471 99.2178 403.547 95.8485L400.593 93.1515ZM394.82 110.25V185H398.82V110.25H394.82ZM396.82 183H341.32V187H396.82V183ZM343.32 185V44H339.32V185H343.32ZM341.32 46H396.82V42H341.32V46ZM394.82 44V65.5H398.82V44H394.82ZM398.497 66.59C402.652 60.1973 408.168 54.9951 415.076 50.979L413.065 47.521C405.639 51.8382 399.655 57.4694 395.143 64.41L398.497 66.59ZM415.058 50.9889C422.039 47.0226 430.352 45 440.07 45V41C429.788 41 420.768 43.144 413.082 47.5111L415.058 50.9889ZM590.137 48L589.14 49.7338L589.156 49.7433L589.173 49.7524L590.137 48ZM605.387 63.25L603.626 64.1982L607.387 63.25H605.387ZM605.387 44V42H603.387V44H605.387ZM660.637 44H662.637V42H660.637V44ZM653.387 218.5L651.56 217.685L651.56 217.685L653.387 218.5ZM629.887 244.5L628.858 242.785L628.846 242.792L629.887 244.5ZM534.637 238.25L535.886 236.688L535.884 236.686L534.637 238.25ZM512.137 195.25V193.25H509.925L510.147 195.451L512.137 195.25ZM566.637 195.25L568.596 194.849L568.269 193.25H566.637V195.25ZM599.887 201.25L601.232 202.73L601.232 202.73L599.887 201.25ZM605.387 165.75H607.387L603.626 164.802L605.387 165.75ZM590.137 181.25L591.101 183.002L591.117 182.993L591.134 182.984L590.137 181.25ZM536.637 178.25L535.535 179.919L535.546 179.926L535.557 179.933L536.637 178.25ZM515.637 153.25L513.816 154.078L513.824 154.094L513.832 154.111L515.637 153.25ZM515.637 76L513.826 75.1497L513.821 75.1619L515.637 76ZM536.637 51L537.717 52.6834L537.728 52.6762L537.739 52.6689L536.637 51ZM599.637 97L601.109 95.6459L601.109 95.6459L599.637 97ZM570.137 97L568.665 95.6459L568.665 95.6459L570.137 97ZM566.387 44.25C575.271 44.25 582.83 46.1056 589.14 49.7338L591.134 46.2662C584.11 42.2277 575.836 40.25 566.387 40.25V44.25ZM589.173 49.7524C595.513 53.2394 600.314 58.0483 603.626 64.1982L607.148 62.3018C603.459 55.4517 598.094 50.0939 591.101 46.2476L589.173 49.7524ZM607.387 63.25V44H603.387V63.25H607.387ZM605.387 46H660.637V42H605.387V46ZM658.637 44V182.5H662.637V44H658.637ZM658.637 182.5C658.637 195.417 656.267 207.135 651.56 217.685L655.213 219.315C660.173 208.198 662.637 195.916 662.637 182.5H658.637ZM651.56 217.685C646.905 228.119 639.363 236.482 628.858 242.785L630.916 246.215C642.077 239.518 650.202 230.548 655.213 219.315L651.56 217.685ZM628.846 242.792C618.584 249.046 605.226 252.25 588.637 252.25V256.25C605.714 256.25 619.856 252.954 630.927 246.208L628.846 242.792ZM588.637 252.25C566.275 252.25 548.764 246.99 535.886 236.688L533.387 239.812C547.176 250.843 565.665 256.25 588.637 256.25V252.25ZM535.884 236.686C523.176 226.552 515.911 212.73 514.127 195.049L510.147 195.451C512.029 214.103 519.764 228.948 533.39 239.814L535.884 236.686ZM512.137 197.25H566.637V193.25H512.137V197.25ZM564.677 195.651C565.53 199.822 567.712 203.064 571.219 205.207C574.651 207.304 579.188 208.25 584.637 208.25V204.25C579.586 204.25 575.872 203.363 573.305 201.793C570.811 200.27 569.243 198.012 568.596 194.849L564.677 195.651ZM584.637 208.25C591.475 208.25 597.095 206.491 601.232 202.73L598.541 199.77C595.346 202.675 590.798 204.25 584.637 204.25V208.25ZM601.232 202.73C605.556 198.799 607.387 191.792 607.387 182.5H603.387C603.387 191.541 601.551 197.034 598.541 199.77L601.232 202.73ZM607.387 182.5V165.75H603.387V182.5H607.387ZM603.626 164.802C600.31 170.96 595.498 175.86 589.14 179.516L591.134 182.984C598.109 178.973 603.464 173.54 607.148 166.698L603.626 164.802ZM589.173 179.498C582.856 182.972 575.285 184.75 566.387 184.75V188.75C575.822 188.75 584.084 186.862 591.101 183.002L589.173 179.498ZM566.387 184.75C555.75 184.75 546.212 182.016 537.717 176.567L535.557 179.933C544.728 185.817 555.023 188.75 566.387 188.75V184.75ZM537.739 176.581C529.248 170.974 522.473 162.939 517.442 152.389L513.832 154.111C519.133 165.228 526.359 173.859 535.535 179.919L537.739 176.581ZM517.457 152.422C512.599 141.734 510.137 129.111 510.137 114.5H506.137C506.137 129.555 508.674 142.766 513.816 154.078L517.457 152.422ZM510.137 114.5C510.137 99.8875 512.6 87.3529 517.453 76.8381L513.821 75.1619C508.674 86.3138 506.137 99.4458 506.137 114.5H510.137ZM517.447 76.8503C522.479 66.1363 529.248 58.1162 537.717 52.6834L535.557 49.3166C526.359 55.2171 519.127 63.8637 513.826 75.1497L517.447 76.8503ZM537.739 52.6689C546.232 47.0603 555.762 44.25 566.387 44.25V40.25C555.011 40.25 544.708 43.273 535.535 49.3311L537.739 52.6689ZM607.387 114.5C607.387 106.665 605.38 100.288 601.109 95.6459L598.165 98.3541C601.561 102.045 603.387 107.335 603.387 114.5H607.387ZM601.109 95.6459C596.872 91.0407 591.408 88.75 584.887 88.75V92.75C590.365 92.75 594.735 94.626 598.165 98.3541L601.109 95.6459ZM584.887 88.75C578.365 88.75 572.902 91.0407 568.665 95.6459L571.609 98.3541C575.038 94.626 579.408 92.75 584.887 92.75V88.75ZM568.665 95.6459C564.394 100.288 562.387 106.665 562.387 114.5H566.387C566.387 107.335 568.213 102.045 571.609 98.3541L568.665 95.6459ZM562.387 114.5C562.387 122.335 564.394 128.712 568.665 133.354L571.609 130.646C568.213 126.955 566.387 121.665 566.387 114.5H562.387ZM568.665 133.354C572.902 137.959 578.365 140.25 584.887 140.25V136.25C579.408 136.25 575.038 134.374 571.609 130.646L568.665 133.354ZM584.887 140.25C591.408 140.25 596.872 137.959 601.109 133.354L598.165 130.646C594.735 134.374 590.365 136.25 584.887 136.25V140.25ZM601.109 133.354C605.38 128.712 607.387 122.335 607.387 114.5H603.387C603.387 121.665 601.561 126.955 598.165 130.646L601.109 133.354ZM685.559 76L683.748 75.1497L683.743 75.1619L685.559 76ZM706.559 51L707.639 52.6834L707.65 52.6762L707.661 52.6689L706.559 51ZM760.059 48L759.062 49.7338L759.078 49.7433L759.095 49.7524L760.059 48ZM775.309 63.25L773.548 64.1982L777.309 63.25H775.309ZM775.309 44V42H773.309V44H775.309ZM830.559 44H832.559V42H830.559V44ZM830.559 185V187H832.559V185H830.559ZM775.309 185H773.309V187H775.309V185ZM775.309 165.75H777.309L773.548 164.802L775.309 165.75ZM760.059 181.25L761.022 183.002L761.039 182.993L761.056 182.984L760.059 181.25ZM706.559 178.25L705.456 179.919L705.468 179.926L705.479 179.933L706.559 178.25ZM685.559 153.25L683.738 154.078L683.745 154.094L683.753 154.111L685.559 153.25ZM769.559 97L771.03 95.6459L771.03 95.6459L769.559 97ZM740.059 97L738.587 95.6459L738.587 95.6459L740.059 97ZM680.059 114.5C680.059 99.8875 682.522 87.3529 687.375 76.8381L683.743 75.1619C678.596 86.3138 676.059 99.4458 676.059 114.5H680.059ZM687.369 76.8503C692.401 66.1363 699.17 58.1162 707.639 52.6834L705.479 49.3166C696.281 55.2171 689.049 63.8637 683.748 75.1497L687.369 76.8503ZM707.661 52.6689C716.154 47.0603 725.684 44.25 736.309 44.25V40.25C724.933 40.25 714.63 43.273 705.456 49.3311L707.661 52.6689ZM736.309 44.25C745.193 44.25 752.752 46.1056 759.062 49.7338L761.056 46.2662C754.032 42.2277 745.758 40.25 736.309 40.25V44.25ZM759.095 49.7524C765.435 53.2394 770.236 58.0483 773.548 64.1982L777.07 62.3018C773.381 55.4517 768.016 50.0939 761.022 46.2476L759.095 49.7524ZM777.309 63.25V44H773.309V63.25H777.309ZM775.309 46H830.559V42H775.309V46ZM828.559 44V185H832.559V44H828.559ZM830.559 183H775.309V187H830.559V183ZM777.309 185V165.75H773.309V185H777.309ZM773.548 164.802C770.232 170.96 765.42 175.86 759.062 179.516L761.056 182.984C768.031 178.973 773.385 173.54 777.07 166.698L773.548 164.802ZM759.095 179.498C752.778 182.972 745.207 184.75 736.309 184.75V188.75C745.744 188.75 754.006 186.862 761.022 183.002L759.095 179.498ZM736.309 184.75C725.672 184.75 716.134 182.016 707.639 176.567L705.479 179.933C714.65 185.817 724.945 188.75 736.309 188.75V184.75ZM707.661 176.581C699.17 170.974 692.395 162.939 687.364 152.389L683.753 154.111C689.055 165.228 696.281 173.859 705.456 179.919L707.661 176.581ZM687.379 152.422C682.521 141.734 680.059 129.111 680.059 114.5H676.059C676.059 129.555 678.596 142.766 683.738 154.078L687.379 152.422ZM777.309 114.5C777.309 106.665 775.301 100.288 771.03 95.6459L768.087 98.3541C771.482 102.045 773.309 107.335 773.309 114.5H777.309ZM771.03 95.6459C766.794 91.0407 761.33 88.75 754.809 88.75V92.75C760.287 92.75 764.657 94.626 768.087 98.3541L771.03 95.6459ZM754.809 88.75C748.287 88.75 742.824 91.0407 738.587 95.6459L741.53 98.3541C744.96 94.626 749.33 92.75 754.809 92.75V88.75ZM738.587 95.6459C734.316 100.288 732.309 106.665 732.309 114.5H736.309C736.309 107.335 738.135 102.045 741.53 98.3541L738.587 95.6459ZM732.309 114.5C732.309 122.335 734.316 128.712 738.587 133.354L741.53 130.646C738.135 126.955 736.309 121.665 736.309 114.5H732.309ZM738.587 133.354C742.824 137.959 748.287 140.25 754.809 140.25V136.25C749.33 136.25 744.96 134.374 741.53 130.646L738.587 133.354ZM754.809 140.25C761.33 140.25 766.794 137.959 771.03 133.354L768.087 130.646C764.657 134.374 760.287 136.25 754.809 136.25V140.25ZM771.03 133.354C775.301 128.712 777.309 122.335 777.309 114.5H773.309C773.309 121.665 771.482 126.955 768.087 130.646L771.03 133.354ZM910.98 -2.38419e-06H912.98V-2H910.98V-2.38419e-06ZM910.98 185V187H912.98V185H910.98ZM855.48 185H853.48V187H855.48V185ZM855.48 -2.38419e-06V-2H853.48V-2.38419e-06H855.48ZM908.98 -2.38419e-06V185H912.98V-2.38419e-06H908.98ZM910.98 183H855.48V187H910.98V183ZM857.48 185V-2.38419e-06H853.48V185H857.48ZM855.48 2H910.98V-2H855.48V2ZM964.797 178L965.712 176.222L964.797 178ZM938.047 153L936.314 153.998L936.323 154.014L936.332 154.029L938.047 153ZM938.047 76.25L936.325 75.2325L936.32 75.2406L938.047 76.25ZM964.797 51L965.712 52.7783L965.712 52.7783L964.797 51ZM1041.3 51L1040.38 52.7783L1040.38 52.7783L1041.3 51ZM1067.8 76.25L1066.06 77.2479L1066.07 77.2635L1066.08 77.279L1067.8 76.25ZM1067.8 153L1066.08 151.983L1066.07 151.991L1067.8 153ZM1041.3 178L1040.38 176.222L1040.38 176.222L1041.3 178ZM1016.05 132.75L1017.55 134.067L1017.57 134.052L1017.58 134.036L1016.05 132.75ZM1016.05 96.5L1014.52 97.7864L1014.53 97.8018L1014.54 97.817L1016.05 96.5ZM990.047 96.5L991.552 97.817L991.565 97.8018L991.578 97.7864L990.047 96.5ZM989.797 132.75L988.235 133.999L988.263 134.034L988.292 134.067L989.797 132.75ZM1003.05 184.75C989.163 184.75 976.732 181.894 965.712 176.222L963.882 179.778C975.528 185.773 988.598 188.75 1003.05 188.75V184.75ZM965.712 176.222C954.707 170.557 946.068 162.482 939.762 151.971L936.332 154.029C943.025 165.185 952.22 173.776 963.882 179.778L965.712 176.222ZM939.78 152.002C933.647 141.35 930.547 128.872 930.547 114.5H926.547C926.547 129.462 929.78 142.65 936.314 153.998L939.78 152.002ZM930.547 114.5C930.547 100.128 933.647 87.7382 939.773 77.2594L936.32 75.2406C929.78 86.4285 926.547 99.5391 926.547 114.5H930.547ZM939.769 77.2675C946.077 66.5912 954.715 58.4386 965.712 52.7783L963.882 49.2217C952.212 55.228 943.016 63.9088 936.325 75.2325L939.769 77.2675ZM965.712 52.7783C976.732 47.1063 989.163 44.25 1003.05 44.25V40.25C988.598 40.25 975.528 43.227 963.882 49.2217L965.712 52.7783ZM1003.05 44.25C1016.93 44.25 1029.36 47.1063 1040.38 52.7783L1042.21 49.2217C1030.57 43.227 1017.5 40.25 1003.05 40.25V44.25ZM1040.38 52.7783C1051.37 58.4363 1059.92 66.5828 1066.06 77.2479L1069.53 75.2521C1063 63.9172 1053.89 55.2303 1042.21 49.2217L1040.38 52.7783ZM1066.08 77.279C1072.37 87.7544 1075.55 100.137 1075.55 114.5H1079.55C1079.55 99.53 1076.23 86.4123 1069.51 75.221L1066.08 77.279ZM1075.55 114.5C1075.55 128.863 1072.37 141.334 1066.08 151.983L1069.52 154.017C1076.23 142.666 1079.55 129.471 1079.55 114.5H1075.55ZM1066.07 151.991C1059.93 162.49 1051.38 170.559 1040.38 176.222L1042.21 179.778C1053.88 173.774 1063 165.176 1069.52 154.009L1066.07 151.991ZM1040.38 176.222C1029.36 181.894 1016.93 184.75 1003.05 184.75V188.75C1017.5 188.75 1030.57 185.773 1042.21 179.778L1040.38 176.222ZM1003.05 140.75C1008.81 140.75 1013.68 138.487 1017.55 134.067L1014.54 131.433C1011.41 135.013 1007.62 136.75 1003.05 136.75V140.75ZM1017.58 134.036C1021.5 129.373 1023.3 122.756 1023.3 114.5H1019.3C1019.3 122.244 1017.6 127.793 1014.52 131.464L1017.58 134.036ZM1023.3 114.5C1023.3 106.252 1021.5 99.6932 1017.55 95.183L1014.54 97.817C1017.6 101.307 1019.3 106.748 1019.3 114.5H1023.3ZM1017.58 95.2136C1013.72 90.6221 1008.84 88.25 1003.05 88.25V92.25C1007.59 92.25 1011.37 94.0445 1014.52 97.7864L1017.58 95.2136ZM1003.05 88.25C997.254 88.25 992.372 90.6221 988.515 95.2136L991.578 97.7864C994.721 94.0446 998.506 92.25 1003.05 92.25V88.25ZM988.542 95.183C984.595 99.6932 982.797 106.252 982.797 114.5H986.797C986.797 106.748 988.498 101.307 991.552 97.817L988.542 95.183ZM982.797 114.5C982.797 122.737 984.507 129.339 988.235 133.999L991.359 131.501C988.42 127.827 986.797 122.263 986.797 114.5H982.797ZM988.292 134.067C992.173 138.503 997.139 140.75 1003.05 140.75V136.75C998.288 136.75 994.421 134.997 991.302 131.433L988.292 134.067ZM1150.48 70H1148.48V76.3906L1152.13 71.1402L1150.48 70ZM1171.23 50.5L1172.25 52.2211L1172.26 52.2135L1172.28 52.2057L1171.23 50.5ZM1196.73 43H1198.73V41H1196.73V43ZM1196.73 102.25V104.25H1198.73V102.25H1196.73ZM1157.73 107.75L1156.55 106.137L1156.54 106.147L1156.52 106.157L1157.73 107.75ZM1150.48 185V187H1152.48V185H1150.48ZM1094.98 185H1092.98V187H1094.98V185ZM1094.98 44V42H1092.98V44H1094.98ZM1150.48 44H1152.48V42H1150.48V44ZM1152.13 71.1402C1157.64 63.1983 1164.34 56.901 1172.25 52.2211L1170.21 48.7788C1161.79 53.7656 1154.66 60.4683 1148.84 68.8598L1152.13 71.1402ZM1172.28 52.2057C1180.16 47.3814 1188.3 45 1196.73 45V41C1187.5 41 1178.64 43.6186 1170.19 48.7943L1172.28 52.2057ZM1194.73 43V102.25H1198.73V43H1194.73ZM1196.73 100.25H1180.98V104.25H1196.73V100.25ZM1180.98 100.25C1170.32 100.25 1162.06 102.098 1156.55 106.137L1158.92 109.363C1163.41 106.069 1170.64 104.25 1180.98 104.25V100.25ZM1156.52 106.157C1150.97 110.37 1148.48 117.636 1148.48 127.25H1152.48C1152.48 118.197 1154.83 112.463 1158.94 109.343L1156.52 106.157ZM1148.48 127.25V185H1152.48V127.25H1148.48ZM1150.48 183H1094.98V187H1150.48V183ZM1096.98 185V44H1092.98V185H1096.98ZM1094.98 46H1150.48V42H1094.98V46ZM1148.48 44V70H1152.48V44H1148.48ZM1347.43 124.25V126.25H1349.17L1349.41 124.533L1347.43 124.25ZM1258.18 124.25V122.25H1256.04L1256.19 124.387L1258.18 124.25ZM1286.43 134.25V132.25H1285.18L1284.63 133.377L1286.43 134.25ZM1345.18 134.25L1347.14 134.642L1347.62 132.25H1345.18V134.25ZM1332.43 161.25L1330.88 159.989L1330.88 159.993L1332.43 161.25ZM1308.18 180L1309.03 181.813L1309.03 181.81L1309.04 181.807L1308.18 180ZM1238.68 178L1237.73 179.761L1237.74 179.767L1238.68 178ZM1213.18 153L1211.43 153.958L1211.43 153.974L1211.44 153.989L1213.18 153ZM1213.18 76.25L1211.44 75.272L1211.43 75.281L1213.18 76.25ZM1238.68 51L1237.74 49.233L1237.73 49.2391L1238.68 51ZM1313.43 51L1312.48 52.7609L1312.5 52.7696L1312.52 52.7779L1313.43 51ZM1338.93 75.5L1337.19 76.4805L1337.19 76.4908L1337.2 76.501L1338.93 75.5ZM1291.93 100V102H1293.93V100H1291.93ZM1287.43 89.5L1286.15 91.0364L1286.18 91.058L1286.2 91.0787L1287.43 89.5ZM1258.93 100L1256.96 99.6544L1256.55 102H1258.93V100ZM1346.18 113.25C1346.18 116.997 1345.94 120.568 1345.45 123.967L1349.41 124.533C1349.93 120.932 1350.18 117.17 1350.18 113.25H1346.18ZM1347.43 122.25H1258.18V126.25H1347.43V122.25ZM1256.19 124.387C1256.62 130.679 1258.16 135.722 1261.08 139.22C1264.07 142.799 1268.29 144.5 1273.43 144.5V140.5C1269.24 140.5 1266.25 139.16 1264.15 136.655C1261.99 134.069 1260.58 129.988 1260.18 124.113L1256.19 124.387ZM1273.43 144.5C1276.75 144.5 1279.72 143.737 1282.25 142.126C1284.79 140.517 1286.77 138.142 1288.23 135.123L1284.63 133.377C1283.43 135.858 1281.91 137.608 1280.11 138.749C1278.31 139.888 1276.12 140.5 1273.43 140.5V144.5ZM1286.43 136.25H1345.18V132.25H1286.43V136.25ZM1343.22 133.858C1341.28 143.536 1337.18 152.238 1330.88 159.989L1333.98 162.511C1340.69 154.262 1345.08 144.964 1347.14 134.642L1343.22 133.858ZM1330.88 159.993C1324.75 167.574 1316.91 173.644 1307.32 178.193L1309.04 181.807C1319.12 177.022 1327.45 170.592 1333.99 162.507L1330.88 159.993ZM1307.34 178.187C1297.96 182.553 1287.58 184.75 1276.18 184.75V188.75C1288.11 188.75 1299.07 186.447 1309.03 181.813L1307.34 178.187ZM1276.18 184.75C1262.47 184.75 1250.3 181.895 1239.62 176.233L1237.74 179.767C1249.07 185.772 1261.9 188.75 1276.18 188.75V184.75ZM1239.63 176.239C1229.13 170.586 1220.9 162.522 1214.92 152.011L1211.44 153.989C1217.79 165.144 1226.57 173.747 1237.73 179.761L1239.63 176.239ZM1214.94 152.042C1209.12 141.383 1206.18 128.889 1206.18 114.5H1202.18C1202.18 129.444 1205.24 142.617 1211.43 153.958L1214.94 152.042ZM1206.18 114.5C1206.18 100.11 1209.12 87.7055 1214.93 77.219L1211.43 75.281C1205.24 86.4612 1202.18 99.5569 1202.18 114.5H1206.18ZM1214.93 77.228C1220.91 66.5506 1229.14 58.4095 1239.63 52.7609L1237.73 49.2391C1226.56 55.2571 1217.78 63.9494 1211.44 75.272L1214.93 77.228ZM1239.62 52.7669C1250.3 47.1048 1262.47 44.25 1276.18 44.25V40.25C1261.9 40.25 1249.07 43.2285 1237.74 49.2331L1239.62 52.7669ZM1276.18 44.25C1289.9 44.25 1301.98 47.105 1312.48 52.7609L1314.38 49.2391C1303.22 43.2283 1290.47 40.25 1276.18 40.25V44.25ZM1312.52 52.7779C1323.17 58.2675 1331.38 66.1588 1337.19 76.4805L1340.67 74.5195C1334.48 63.5078 1325.69 55.0658 1314.35 49.222L1312.52 52.7779ZM1337.2 76.501C1343.16 86.8134 1346.18 99.0389 1346.18 113.25H1350.18C1350.18 98.4611 1347.03 85.5199 1340.66 74.499L1337.2 76.501ZM1293.93 100C1293.93 94.872 1292.26 90.7199 1288.66 87.9213L1286.2 91.0787C1288.61 92.9467 1289.93 95.7946 1289.93 100H1293.93ZM1288.71 87.9635C1285.3 85.1192 1281.07 83.75 1276.18 83.75V87.75C1280.29 87.75 1283.56 88.8808 1286.15 91.0364L1288.71 87.9635ZM1276.18 83.75C1270.95 83.75 1266.55 85.0165 1263.22 87.7706C1259.88 90.5286 1257.85 94.5758 1256.96 99.6544L1260.9 100.346C1261.68 95.9242 1263.36 92.8464 1265.77 90.8544C1268.18 88.8585 1271.58 87.75 1276.18 87.75V83.75ZM1258.93 102H1291.93V98H1258.93V102Z" fill="black" mask="url(#path-1-inside-1_8741_4451)"/>
</svg>
