<svg width="857" height="507" viewBox="0 0 857 507" fill="none" xmlns="http://www.w3.org/2000/svg">
<mask id="path-1-inside-1_10210_4507" fill="white">
<path d="M314.4 207.2C340 213.2 359.8 225.6 373.8 244.4C388.2 262.8 395.4 284.2 395.4 308.6C395.4 345.8 383 374.6 358.2 395C333.8 415 298.6 425 252.6 425H30V0.199997H246.6C289.8 0.199997 323.8 9.6 348.6 28.4C373.4 47.2 385.8 74.6 385.8 110.6C385.8 135.4 379.2 156.4 366 173.6C353.2 190.4 336 201.6 314.4 207.2ZM163.2 165.8H214.8C226.8 165.8 235.6 163.4 241.2 158.6C247.2 153.8 250.2 146.4 250.2 136.4C250.2 126 247.2 118.4 241.2 113.6C235.6 108.4 226.8 105.8 214.8 105.8H163.2V165.8ZM223.8 318.2C235.8 318.2 244.6 316 250.2 311.6C256.2 306.8 259.2 299.2 259.2 288.8C259.2 268.4 247.4 258.2 223.8 258.2H163.2V318.2H223.8ZM617.156 0.199997C661.556 0.199997 700.356 9.19999 733.556 27.2C767.156 45.2 792.956 70.2 810.956 102.2C828.956 134.2 837.956 170.6 837.956 211.4C837.956 251.8 828.956 288.2 810.956 320.6C792.956 353 767.156 378.6 733.556 397.4C700.356 415.8 661.556 425 617.156 425H440.156V0.199997H617.156ZM605.156 306.2C635.156 306.2 658.956 298 676.556 281.6C694.156 265.2 702.956 241.8 702.956 211.4C702.956 181 694.156 157.6 676.556 141.2C658.956 124.8 635.156 116.6 605.156 116.6H573.356V306.2H605.156Z"/>
</mask>
<path d="M314.4 207.2L313.898 205.264L313.944 209.147L314.4 207.2ZM373.8 244.4L372.196 245.595L372.21 245.614L372.225 245.633L373.8 244.4ZM358.2 395L359.468 396.547L359.471 396.545L358.2 395ZM30 425H28V427H30V425ZM30 0.199997V-1.8H28V0.199997H30ZM366 173.6L364.413 172.382L364.409 172.388L366 173.6ZM163.2 165.8H161.2V167.8H163.2V165.8ZM241.2 158.6L239.951 157.038L239.924 157.059L239.898 157.081L241.2 158.6ZM241.2 113.6L239.839 115.066L239.893 115.116L239.951 115.162L241.2 113.6ZM163.2 105.8V103.8H161.2V105.8H163.2ZM250.2 311.6L251.436 313.173L251.443 313.167L251.449 313.162L250.2 311.6ZM163.2 258.2V256.2H161.2V258.2H163.2ZM163.2 318.2H161.2V320.2H163.2V318.2ZM313.944 209.147C339.144 215.054 358.512 227.219 372.196 245.595L375.404 243.205C361.088 223.981 340.856 211.346 314.856 205.253L313.944 209.147ZM372.225 245.633C386.337 263.664 393.4 284.625 393.4 308.6H397.4C397.4 283.774 390.063 261.936 375.375 243.167L372.225 245.633ZM393.4 308.6C393.4 345.308 381.192 373.498 356.929 393.455L359.471 396.545C384.808 375.702 397.4 346.292 397.4 308.6H393.4ZM356.932 393.453C333.022 413.052 298.343 423 252.6 423V427C298.857 427 334.578 416.948 359.468 396.547L356.932 393.453ZM252.6 423H30V427H252.6V423ZM32 425V0.199997H28V425H32ZM30 2.2H246.6V-1.8H30V2.2ZM246.6 2.2C289.53 2.2 323.052 11.5425 347.392 29.9938L349.808 26.8062C324.548 7.65744 290.07 -1.8 246.6 -1.8V2.2ZM347.392 29.9938C371.61 48.3531 383.8 75.1145 383.8 110.6H387.8C387.8 74.0855 375.19 46.0469 349.808 26.8062L347.392 29.9938ZM383.8 110.6C383.8 135.026 377.308 155.581 364.413 172.382L367.587 174.818C381.092 157.219 387.8 135.774 387.8 110.6H383.8ZM364.409 172.388C351.897 188.81 335.091 199.77 313.898 205.264L314.902 209.136C336.909 203.43 354.503 191.99 367.591 174.812L364.409 172.388ZM163.2 167.8H214.8V163.8H163.2V167.8ZM214.8 167.8C226.998 167.8 236.372 165.373 242.502 160.118L239.898 157.081C234.828 161.427 226.602 163.8 214.8 163.8V167.8ZM242.449 160.162C249.059 154.874 252.2 146.809 252.2 136.4H248.2C248.2 145.99 245.341 152.726 239.951 157.038L242.449 160.162ZM252.2 136.4C252.2 125.621 249.078 117.341 242.449 112.038L239.951 115.162C245.322 119.459 248.2 126.379 248.2 136.4H252.2ZM242.561 112.134C236.429 106.44 227.029 103.8 214.8 103.8V107.8C226.571 107.8 234.771 110.36 239.839 115.066L242.561 112.134ZM214.8 103.8H163.2V107.8H214.8V103.8ZM161.2 105.8V165.8H165.2V105.8H161.2ZM223.8 320.2C235.969 320.2 245.313 317.983 251.436 313.173L248.964 310.027C243.887 314.017 235.631 316.2 223.8 316.2V320.2ZM251.449 313.162C258.078 307.859 261.2 299.579 261.2 288.8H257.2C257.2 298.821 254.322 305.741 248.951 310.038L251.449 313.162ZM261.2 288.8C261.2 278.21 258.124 269.926 251.658 264.337C245.248 258.796 235.843 256.2 223.8 256.2V260.2C235.357 260.2 243.652 262.704 249.042 267.363C254.376 271.974 257.2 278.99 257.2 288.8H261.2ZM223.8 256.2H163.2V260.2H223.8V256.2ZM161.2 258.2V318.2H165.2V258.2H161.2ZM163.2 320.2H223.8V316.2H163.2V320.2ZM733.556 27.2L732.603 28.9582L732.612 28.9629L733.556 27.2ZM810.956 102.2L812.699 101.219L810.956 102.2ZM810.956 320.6L812.705 321.571L810.956 320.6ZM733.556 397.4L734.526 399.149L734.533 399.145L733.556 397.4ZM440.156 425H438.156V427H440.156V425ZM440.156 0.199997V-1.8H438.156V0.199997H440.156ZM676.556 281.6L677.92 283.063L676.556 281.6ZM676.556 141.2L677.92 139.737L676.556 141.2ZM573.356 116.6V114.6H571.356V116.6H573.356ZM573.356 306.2H571.356V308.2H573.356V306.2ZM617.156 2.2C661.282 2.2 699.743 11.1426 732.603 28.9582L734.51 25.4418C700.969 7.25733 661.831 -1.8 617.156 -1.8V2.2ZM732.612 28.9629C765.89 46.7906 791.407 71.525 809.213 103.18L812.699 101.219C794.506 68.8749 768.422 43.6094 734.501 25.437L732.612 28.9629ZM809.213 103.18C827.027 134.849 835.956 170.904 835.956 211.4H839.956C839.956 170.296 830.886 133.551 812.699 101.219L809.213 103.18ZM835.956 211.4C835.956 251.492 827.028 287.552 809.208 319.629L812.705 321.571C830.884 288.848 839.956 252.108 839.956 211.4H835.956ZM809.208 319.629C791.396 351.691 765.869 377.029 732.58 395.655L734.533 399.145C768.444 380.171 794.517 354.309 812.705 321.571L809.208 319.629ZM732.587 395.651C699.73 413.86 661.275 423 617.156 423V427C661.838 427 700.982 417.74 734.526 399.149L732.587 395.651ZM617.156 423H440.156V427H617.156V423ZM442.156 425V0.199997H438.156V425H442.156ZM440.156 2.2H617.156V-1.8H440.156V2.2ZM605.156 308.2C635.532 308.2 659.864 299.888 677.92 283.063L675.193 280.137C658.049 296.112 634.781 304.2 605.156 304.2V308.2ZM677.92 283.063C696.027 266.19 704.956 242.199 704.956 211.4H700.956C700.956 241.401 692.285 264.21 675.193 280.137L677.92 283.063ZM704.956 211.4C704.956 180.601 696.027 156.61 677.92 139.737L675.193 142.663C692.285 158.59 700.956 181.399 700.956 211.4H704.956ZM677.92 139.737C659.864 122.912 635.532 114.6 605.156 114.6V118.6C634.781 118.6 658.049 126.688 675.193 142.663L677.92 139.737ZM605.156 114.6H573.356V118.6H605.156V114.6ZM571.356 116.6V306.2H575.356V116.6H571.356ZM573.356 308.2H605.156V304.2H573.356V308.2Z" fill="white" mask="url(#path-1-inside-1_10210_4507)"/>
</svg>
