<svg width="808" height="384" viewBox="0 0 808 384" fill="none" xmlns="http://www.w3.org/2000/svg">
<mask id="path-1-inside-1_7601_2742" fill="white">
<path d="M284.4 166.2C310 172.2 329.8 184.6 343.8 203.4C358.2 221.8 365.4 243.2 365.4 267.6C365.4 304.8 353 333.6 328.2 354C303.8 374 268.6 384 222.6 384H4.47035e-07V-40.8H216.6C259.8 -40.8 293.8 -31.4 318.6 -12.6C343.4 6.19999 355.8 33.6 355.8 69.6C355.8 94.4 349.2 115.4 336 132.6C323.2 149.4 306 160.6 284.4 166.2ZM133.2 124.8H184.8C196.8 124.8 205.6 122.4 211.2 117.6C217.2 112.8 220.2 105.4 220.2 95.4C220.2 85 217.2 77.4 211.2 72.6C205.6 67.4 196.8 64.8 184.8 64.8H133.2V124.8ZM193.8 277.2C205.8 277.2 214.6 275 220.2 270.6C226.2 265.8 229.2 258.2 229.2 247.8C229.2 227.4 217.4 217.2 193.8 217.2H133.2V277.2H193.8ZM587.156 -40.8C631.556 -40.8 670.356 -31.8 703.556 -13.8C737.156 4.19998 762.956 29.2 780.956 61.2C798.956 93.2 807.956 129.6 807.956 170.4C807.956 210.8 798.956 247.2 780.956 279.6C762.956 312 737.156 337.6 703.556 356.4C670.356 374.8 631.556 384 587.156 384H410.156V-40.8H587.156ZM575.156 265.2C605.156 265.2 628.956 257 646.556 240.6C664.156 224.2 672.956 200.8 672.956 170.4C672.956 140 664.156 116.6 646.556 100.2C628.956 83.8 605.156 75.6 575.156 75.6H543.356V265.2H575.156Z"/>
</mask>
<path d="M284.4 166.2L283.898 164.264L283.944 168.147L284.4 166.2ZM343.8 203.4L342.196 204.595L342.21 204.614L342.225 204.633L343.8 203.4ZM328.2 354L329.468 355.547L329.471 355.545L328.2 354ZM0 384H-2V386H0V384ZM0 -40.8V-42.8H-2V-40.8H0ZM336 132.6L334.413 131.382L334.409 131.388L336 132.6ZM133.2 124.8H131.2V126.8H133.2V124.8ZM211.2 117.6L209.951 116.038L209.924 116.059L209.898 116.081L211.2 117.6ZM211.2 72.6L209.839 74.0656L209.893 74.1157L209.951 74.1617L211.2 72.6ZM133.2 64.8V62.8H131.2V64.8H133.2ZM220.2 270.6L221.436 272.173L221.443 272.167L221.449 272.162L220.2 270.6ZM133.2 217.2V215.2H131.2V217.2H133.2ZM133.2 277.2H131.2V279.2H133.2V277.2ZM283.944 168.147C309.144 174.054 328.512 186.219 342.196 204.595L345.404 202.205C331.088 182.981 310.856 170.346 284.856 164.253L283.944 168.147ZM342.225 204.633C356.337 222.664 363.4 243.625 363.4 267.6H367.4C367.4 242.774 360.063 220.936 345.375 202.167L342.225 204.633ZM363.4 267.6C363.4 304.308 351.192 332.498 326.929 352.455L329.471 355.545C354.808 334.702 367.4 305.292 367.4 267.6H363.4ZM326.932 352.453C303.022 372.052 268.343 382 222.6 382V386C268.857 386 304.578 375.948 329.468 355.547L326.932 352.453ZM222.6 382H0V386H222.6V382ZM2 384V-40.8H-2V384H2ZM0 -38.8H216.6V-42.8H0V-38.8ZM216.6 -38.8C259.53 -38.8 293.052 -29.4575 317.392 -11.0062L319.808 -14.1938C294.548 -33.3426 260.07 -42.8 216.6 -42.8V-38.8ZM317.392 -11.0062C341.61 7.35313 353.8 34.1145 353.8 69.6H357.8C357.8 33.0855 345.19 5.04685 319.808 -14.1938L317.392 -11.0062ZM353.8 69.6C353.8 94.0259 347.308 114.581 334.413 131.382L337.587 133.818C351.092 116.219 357.8 94.774 357.8 69.6H353.8ZM334.409 131.388C321.897 147.81 305.091 158.77 283.898 164.264L284.902 168.136C306.909 162.43 324.503 150.99 337.591 133.812L334.409 131.388ZM133.2 126.8H184.8V122.8H133.2V126.8ZM184.8 126.8C196.998 126.8 206.372 124.373 212.502 119.118L209.898 116.081C204.828 120.427 196.602 122.8 184.8 122.8V126.8ZM212.449 119.162C219.059 113.874 222.2 105.809 222.2 95.4H218.2C218.2 104.99 215.341 111.726 209.951 116.038L212.449 119.162ZM222.2 95.4C222.2 84.6214 219.078 76.3409 212.449 71.0382L209.951 74.1617C215.322 78.4591 218.2 85.3785 218.2 95.4H222.2ZM212.561 71.1344C206.429 65.4404 197.029 62.8 184.8 62.8V66.8C196.571 66.8 204.771 69.3596 209.839 74.0656L212.561 71.1344ZM184.8 62.8H133.2V66.8H184.8V62.8ZM131.2 64.8V124.8H135.2V64.8H131.2ZM193.8 279.2C205.969 279.2 215.313 276.983 221.436 272.173L218.964 269.027C213.887 273.017 205.631 275.2 193.8 275.2V279.2ZM221.449 272.162C228.078 266.859 231.2 258.579 231.2 247.8H227.2C227.2 257.821 224.322 264.741 218.951 269.038L221.449 272.162ZM231.2 247.8C231.2 237.21 228.124 228.926 221.658 223.337C215.248 217.796 205.843 215.2 193.8 215.2V219.2C205.357 219.2 213.652 221.704 219.042 226.363C224.376 230.974 227.2 237.99 227.2 247.8H231.2ZM193.8 215.2H133.2V219.2H193.8V215.2ZM131.2 217.2V277.2H135.2V217.2H131.2ZM133.2 279.2H193.8V275.2H133.2V279.2ZM703.556 -13.8L702.603 -12.0418L702.612 -12.0371L703.556 -13.8ZM780.956 61.2L782.699 60.2194L780.956 61.2ZM780.956 279.6L782.705 280.571L780.956 279.6ZM703.556 356.4L704.526 358.149L704.533 358.145L703.556 356.4ZM410.156 384H408.156V386H410.156V384ZM410.156 -40.8V-42.8H408.156V-40.8H410.156ZM646.556 240.6L647.92 242.063L646.556 240.6ZM646.556 100.2L647.92 98.7368L646.556 100.2ZM543.356 75.6V73.6H541.356V75.6H543.356ZM543.356 265.2H541.356V267.2H543.356V265.2ZM587.156 -38.8C631.282 -38.8 669.743 -29.8574 702.603 -12.0418L704.51 -15.5582C670.969 -33.7427 631.831 -42.8 587.156 -42.8V-38.8ZM702.612 -12.0371C735.89 5.79059 761.407 30.525 779.213 62.1805L782.699 60.2194C764.506 27.8749 738.422 2.60937 704.501 -15.563L702.612 -12.0371ZM779.213 62.1805C797.027 93.8488 805.956 129.904 805.956 170.4H809.956C809.956 129.296 800.886 92.5511 782.699 60.2194L779.213 62.1805ZM805.956 170.4C805.956 210.492 797.028 246.552 779.208 278.629L782.705 280.571C800.884 247.848 809.956 211.108 809.956 170.4H805.956ZM779.208 278.629C761.396 310.691 735.869 336.029 702.58 354.655L704.533 358.145C738.444 339.171 764.517 313.309 782.705 280.571L779.208 278.629ZM702.587 354.651C669.73 372.86 631.275 382 587.156 382V386C631.838 386 670.982 376.74 704.526 358.149L702.587 354.651ZM587.156 382H410.156V386H587.156V382ZM412.156 384V-40.8H408.156V384H412.156ZM410.156 -38.8H587.156V-42.8H410.156V-38.8ZM575.156 267.2C605.532 267.2 629.864 258.888 647.92 242.063L645.193 239.137C628.049 255.112 604.781 263.2 575.156 263.2V267.2ZM647.92 242.063C666.027 225.19 674.956 201.199 674.956 170.4H670.956C670.956 200.401 662.285 223.21 645.193 239.137L647.92 242.063ZM674.956 170.4C674.956 139.601 666.027 115.61 647.92 98.7368L645.193 101.663C662.285 117.59 670.956 140.399 670.956 170.4H674.956ZM647.92 98.7368C629.864 81.912 605.532 73.6 575.156 73.6V77.6C604.781 77.6 628.049 85.688 645.193 101.663L647.92 98.7368ZM575.156 73.6H543.356V77.6H575.156V73.6ZM541.356 75.6V265.2H545.356V75.6H541.356ZM543.356 267.2H575.156V263.2H543.356V267.2Z" fill="white" mask="url(#path-1-inside-1_7601_2742)"/>
</svg>
