<svg width="19" height="16" viewBox="0 0 19 16" fill="none" xmlns="http://www.w3.org/2000/svg">
<path d="M14.9754 14.6604C15.0121 14.8807 14.983 15.1062 14.8912 15.3122C14.7994 15.5183 14.6484 15.6971 14.4547 15.8292C14.2515 15.941 14.0196 16 13.7833 16C13.547 16 13.3151 15.941 13.1119 15.8292L9.49438 14.1522C9.31699 14.0655 9.11944 14.0201 8.91887 14.0201C8.7183 14.0201 8.52076 14.0655 8.34336 14.1522L4.69847 15.8037C4.49527 15.9156 4.26333 15.9746 4.02704 15.9746C3.79074 15.9746 3.55882 15.9156 3.35562 15.8037C3.16838 15.6664 3.02221 15.4868 2.93105 15.2822C2.8399 15.0776 2.8068 14.8548 2.83492 14.635L3.46524 10.9508C3.49129 10.7636 3.47288 10.5733 3.41134 10.3934C3.3498 10.2135 3.2466 10.0482 3.10896 9.90909L0.368445 7.24128C0.201724 7.07828 0.0856845 6.87644 0.0326128 6.65726C-0.020459 6.43808 -0.00858701 6.20967 0.0669863 5.99624C0.141862 5.78889 0.275507 5.60403 0.453898 5.46099C0.63229 5.31795 0.848874 5.22204 1.08099 5.18324L5.08214 4.59883C5.27869 4.56401 5.46436 4.48891 5.62557 4.37901C5.78679 4.26911 5.91948 4.12719 6.01393 3.96363L7.90487 0.635199C8.01778 0.44345 8.18417 0.283333 8.38665 0.171594C8.58912 0.0598544 8.82025 0.000595516 9.05588 0C9.29497 0.000224508 9.52928 0.0621336 9.73257 0.178805C9.93585 0.295476 10.1001 0.462329 10.2069 0.660632L12.0705 3.98907C12.1649 4.15262 12.2976 4.29454 12.4588 4.40444C12.62 4.51434 12.8057 4.58944 13.0022 4.62427L17.0308 5.31025C17.2679 5.34482 17.4902 5.43887 17.6738 5.58218C17.8573 5.72549 17.9951 5.91263 18.0722 6.12333C18.1451 6.33486 18.153 6.561 18.0949 6.77644C18.0368 6.99187 17.9151 7.18803 17.7433 7.34286L15.0028 10.0107C14.8658 10.145 14.7627 10.3058 14.7011 10.4816C14.6395 10.6574 14.6208 10.8437 14.6465 11.027L14.9754 14.6604Z" fill="url(#paint0_angular_11708_6780)"/>
<path d="M14.9754 14.6604C15.0121 14.8807 14.983 15.1062 14.8912 15.3122C14.7994 15.5183 14.6484 15.6971 14.4547 15.8292C14.2515 15.941 14.0196 16 13.7833 16C13.547 16 13.3151 15.941 13.1119 15.8292L9.49438 14.1522C9.31699 14.0655 9.11944 14.0201 8.91887 14.0201C8.7183 14.0201 8.52076 14.0655 8.34336 14.1522L4.69847 15.8037C4.49527 15.9156 4.26333 15.9746 4.02704 15.9746C3.79074 15.9746 3.55882 15.9156 3.35562 15.8037C3.16838 15.6664 3.02221 15.4868 2.93105 15.2822C2.8399 15.0776 2.8068 14.8548 2.83492 14.635L3.46524 10.9508C3.49129 10.7636 3.47288 10.5733 3.41134 10.3934C3.3498 10.2135 3.2466 10.0482 3.10896 9.90909L0.368445 7.24128C0.201724 7.07828 0.0856845 6.87644 0.0326128 6.65726C-0.020459 6.43808 -0.00858701 6.20967 0.0669863 5.99624C0.141862 5.78889 0.275507 5.60403 0.453898 5.46099C0.63229 5.31795 0.848874 5.22204 1.08099 5.18324L5.08214 4.59883C5.27869 4.56401 5.46436 4.48891 5.62557 4.37901C5.78679 4.26911 5.91948 4.12719 6.01393 3.96363L7.90487 0.635199C8.01778 0.44345 8.18417 0.283333 8.38665 0.171594C8.58912 0.0598544 8.82025 0.000595516 9.05588 0C9.29497 0.000224508 9.52928 0.0621336 9.73257 0.178805C9.93585 0.295476 10.1001 0.462329 10.2069 0.660632L12.0705 3.98907C12.1649 4.15262 12.2976 4.29454 12.4588 4.40444C12.62 4.51434 12.8057 4.58944 13.0022 4.62427L17.0308 5.31025C17.2679 5.34482 17.4902 5.43887 17.6738 5.58218C17.8573 5.72549 17.9951 5.91263 18.0722 6.12333C18.1451 6.33486 18.153 6.561 18.0949 6.77644C18.0368 6.99187 17.9151 7.18803 17.7433 7.34286L15.0028 10.0107C14.8658 10.145 14.7627 10.3058 14.7011 10.4816C14.6395 10.6574 14.6208 10.8437 14.6465 11.027L14.9754 14.6604Z" fill="white" fill-opacity="0.5"/>
<defs>
<radialGradient id="paint0_angular_11708_6780" cx="0" cy="0" r="1" gradientUnits="userSpaceOnUse" gradientTransform="translate(26.4747 16) rotate(180) scale(17.408 14.9411)">
<stop stop-color="#FF0000"/>
<stop offset="0.161458" stop-color="#FAFF00"/>
<stop offset="0.322917" stop-color="#05FB00"/>
<stop offset="0.515625" stop-color="#00FFE0"/>
<stop offset="0.6875" stop-color="#0029FF"/>
<stop offset="0.848958" stop-color="#FF00D6"/>
<stop offset="1" stop-color="#FF0000"/>
</radialGradient>
</defs>
</svg>
