<svg width="18" height="16" viewBox="0 0 18 16" fill="none" xmlns="http://www.w3.org/2000/svg">
<path d="M14.1806 14.6694C14.2071 14.8878 14.1759 15.1093 14.0898 15.3126C14.0036 15.5159 13.8656 15.6944 13.6887 15.8309C13.4919 15.9417 13.2687 16 13.0414 16C12.8142 16 12.591 15.9417 12.3942 15.8309L9.00268 14.1645C8.8305 14.0781 8.63967 14.033 8.44605 14.033C8.25242 14.033 8.06161 14.0781 7.88943 14.1645L4.47202 15.8056C4.27024 15.9083 4.04296 15.9537 3.81603 15.9367C3.5891 15.9198 3.3716 15.8411 3.18823 15.7096C3.00486 15.5781 2.863 15.3991 2.77873 15.1929C2.69446 14.9867 2.67118 14.7616 2.71153 14.5432L3.2811 10.8821C3.31807 10.6959 3.30663 10.5036 3.24784 10.3228C3.18905 10.142 3.08478 9.97834 2.94453 9.84691L0.355578 7.19584C0.193006 7.03699 0.0799572 6.83647 0.0295498 6.61749C-0.0208577 6.39851 -0.00655882 6.17007 0.0707922 5.95869C0.141527 5.75264 0.26778 5.56886 0.436305 5.42672C0.60483 5.28458 0.809436 5.18928 1.02871 5.15072L4.80857 4.56998C4.99299 4.53212 5.16696 4.45625 5.31879 4.34737C5.47062 4.2385 5.59679 4.09914 5.68883 3.93876L7.47519 0.631213C7.58185 0.440667 7.73904 0.281555 7.93032 0.170517C8.1216 0.0594788 8.33994 0.00059178 8.56254 0C8.7884 0.000223099 9.00976 0.0617437 9.2018 0.177683C9.39384 0.293622 9.549 0.459428 9.64992 0.656486L11.4104 3.96404C11.4965 4.12888 11.6209 4.27183 11.7738 4.38143C11.9266 4.49103 12.1036 4.56424 12.2906 4.59525L16.0446 5.22646C16.2672 5.2567 16.476 5.34902 16.646 5.49237C16.8159 5.63572 16.9398 5.82401 17.0025 6.03443C17.0746 6.24237 17.0862 6.46571 17.0359 6.67967C16.9856 6.89362 16.8755 7.08975 16.7177 7.24631L14.1288 9.89745C13.9993 10.0309 13.902 10.1907 13.8437 10.3654C13.7855 10.5401 13.7679 10.7252 13.7922 10.9074L14.1806 14.6694Z" fill="url(#paint0_linear_13108_28465)"/>
<path d="M14.1806 14.6694C14.2071 14.8878 14.1759 15.1093 14.0898 15.3126C14.0036 15.5159 13.8656 15.6944 13.6887 15.8309C13.4919 15.9417 13.2687 16 13.0414 16C12.8142 16 12.591 15.9417 12.3942 15.8309L9.00268 14.1645C8.8305 14.0781 8.63967 14.033 8.44605 14.033C8.25242 14.033 8.06161 14.0781 7.88943 14.1645L4.47202 15.8056C4.27024 15.9083 4.04296 15.9537 3.81603 15.9367C3.5891 15.9198 3.3716 15.8411 3.18823 15.7096C3.00486 15.5781 2.863 15.3991 2.77873 15.1929C2.69446 14.9867 2.67118 14.7616 2.71153 14.5432L3.2811 10.8821C3.31807 10.6959 3.30663 10.5036 3.24784 10.3228C3.18905 10.142 3.08478 9.97834 2.94453 9.84691L0.355578 7.19584C0.193006 7.03699 0.0799572 6.83647 0.0295498 6.61749C-0.0208577 6.39851 -0.00655882 6.17007 0.0707922 5.95869C0.141527 5.75264 0.26778 5.56886 0.436305 5.42672C0.60483 5.28458 0.809436 5.18928 1.02871 5.15072L4.80857 4.56998C4.99299 4.53212 5.16696 4.45625 5.31879 4.34737C5.47062 4.2385 5.59679 4.09914 5.68883 3.93876L7.47519 0.631213C7.58185 0.440667 7.73904 0.281555 7.93032 0.170517C8.1216 0.0594788 8.33994 0.00059178 8.56254 0C8.7884 0.000223099 9.00976 0.0617437 9.2018 0.177683C9.39384 0.293622 9.549 0.459428 9.64992 0.656486L11.4104 3.96404C11.4965 4.12888 11.6209 4.27183 11.7738 4.38143C11.9266 4.49103 12.1036 4.56424 12.2906 4.59525L16.0446 5.22646C16.2672 5.2567 16.476 5.34902 16.646 5.49237C16.8159 5.63572 16.9398 5.82401 17.0025 6.03443C17.0746 6.24237 17.0862 6.46571 17.0359 6.67967C16.9856 6.89362 16.8755 7.08975 16.7177 7.24631L14.1288 9.89745C13.9993 10.0309 13.902 10.1907 13.8437 10.3654C13.7855 10.5401 13.7679 10.7252 13.7922 10.9074L14.1806 14.6694Z" fill="white" fill-opacity="0.5"/>
<defs>
<linearGradient id="paint0_linear_13108_28465" x1="17" y1="23.5" x2="-4.5" y2="2" gradientUnits="userSpaceOnUse">
<stop stop-color="#FF0000"/>
<stop offset="1" stop-color="#FAFF00"/>
</linearGradient>
</defs>
</svg>
