<svg width="904" height="442" viewBox="0 0 904 442" fill="none" xmlns="http://www.w3.org/2000/svg">
<g clip-path="url(#clip0_10210_4510)">
<mask id="path-1-inside-1_10210_4510" fill="white">
<path d="M18 147C18 105 26.4 67.6 43.2 34.8C60.4 1.99998 84.8 -23.4 116.4 -41.4C148 -59.8 185.2 -69 228 -69C264.8 -69 297.6 -62 326.4 -48C355.6 -34.4 379.2 -15 397.2 10.2C415.6 35.4 427.8 64.8 433.8 98.4H293.4C287 84.4 277.8 73.6 265.8 66C254.2 58 240.8 54 225.6 54C203.2 54 185.4 62.4 172.2 79.2C159.4 96 153 118.6 153 147C153 175.4 159.4 198 172.2 214.8C185.4 231.6 203.2 240 225.6 240C240.8 240 254.2 236.2 265.8 228.6C277.8 220.6 287 209.6 293.4 195.6H433.8C427.8 229.2 415.6 258.6 397.2 283.8C379.2 309 355.6 328.6 326.4 342.6C297.6 356.2 264.8 363 228 363C185.2 363 148 354 116.4 336C84.8 317.6 60.4 292 43.2 259.2C26.4 226.4 18 189 18 147ZM469.758 147C469.758 105 478.158 67.6 494.958 34.8C512.158 1.99998 536.558 -23.4 568.158 -41.4C599.758 -59.8 636.958 -69 679.758 -69C716.558 -69 749.358 -62 778.158 -48C807.358 -34.4 830.958 -15 848.958 10.2C867.358 35.4 879.558 64.8 885.558 98.4H745.158C738.758 84.4 729.558 73.6 717.558 66C705.958 58 692.558 54 677.358 54C654.958 54 637.158 62.4 623.958 79.2C611.158 96 604.758 118.6 604.758 147C604.758 175.4 611.158 198 623.958 214.8C637.158 231.6 654.958 240 677.358 240C692.558 240 705.958 236.2 717.558 228.6C729.558 220.6 738.758 209.6 745.158 195.6H885.558C879.558 229.2 867.358 258.6 848.958 283.8C830.958 309 807.358 328.6 778.158 342.6C749.358 356.2 716.558 363 679.758 363C636.958 363 599.758 354 568.158 336C536.558 317.6 512.158 292 494.958 259.2C478.158 226.4 469.758 189 469.758 147Z"/>
</mask>
<path d="M43.2 34.8L41.4288 33.8711L41.4243 33.8797L41.4199 33.8882L43.2 34.8ZM116.4 -41.4L117.39 -39.6622L117.398 -39.6669L117.406 -39.6717L116.4 -41.4ZM326.4 -48L325.526 -46.2013L325.541 -46.194L325.556 -46.187L326.4 -48ZM397.2 10.2L395.573 11.3625L395.579 11.371L395.585 11.3794L397.2 10.2ZM433.8 98.4V100.4H436.189L435.769 98.0484L433.8 98.4ZM293.4 98.4L291.581 99.2315L292.115 100.4H293.4V98.4ZM265.8 66L264.665 67.6464L264.697 67.6687L264.73 67.6896L265.8 66ZM172.2 79.2L170.627 77.9643L170.618 77.9761L170.609 77.9879L172.2 79.2ZM172.2 214.8L170.609 216.012L170.618 216.024L170.627 216.036L172.2 214.8ZM265.8 228.6L266.896 230.273L266.903 230.269L266.909 230.264L265.8 228.6ZM293.4 195.6V193.6H292.115L291.581 194.768L293.4 195.6ZM433.8 195.6L435.769 195.952L436.189 193.6H433.8V195.6ZM397.2 283.8L395.585 282.621L395.579 282.629L395.573 282.638L397.2 283.8ZM326.4 342.6L327.254 344.409L327.265 344.403L326.4 342.6ZM116.4 336L115.394 337.728L115.402 337.733L115.41 337.738L116.4 336ZM43.2 259.2L41.4199 260.112L41.4243 260.12L41.4288 260.129L43.2 259.2ZM20 147C20 105.272 28.3437 68.1924 44.9801 35.7117L41.4199 33.8882C24.4563 67.0076 16 104.728 16 147H20ZM44.9712 35.7288C61.997 3.26106 86.1288 -21.8552 117.39 -39.6622L115.41 -43.1379C83.4712 -24.9448 58.803 0.738906 41.4288 33.8711L44.9712 35.7288ZM117.406 -39.6717C148.652 -57.8655 185.493 -67 228 -67V-71C184.907 -71 147.348 -61.7346 115.394 -43.1284L117.406 -39.6717ZM228 -67C264.542 -67 297.036 -60.0504 325.526 -46.2013L327.274 -49.7987C298.164 -63.9496 265.058 -71 228 -71V-67ZM325.556 -46.187C354.456 -32.7266 377.781 -13.5453 395.573 11.3625L398.828 9.03752C380.619 -16.4548 356.744 -36.0734 327.244 -49.813L325.556 -46.187ZM395.585 11.3794C413.789 36.3115 425.879 65.4223 431.831 98.7516L435.769 98.0484C429.721 64.1777 417.411 34.4884 398.815 9.02061L395.585 11.3794ZM433.8 96.4H293.4V100.4H433.8V96.4ZM295.219 97.5685C288.672 83.2467 279.225 72.1352 266.87 64.3104L264.73 67.6896C276.375 75.0648 285.328 85.5533 291.581 99.2315L295.219 97.5685ZM266.935 64.3536C254.975 56.105 241.172 52 225.6 52V56C240.428 56 253.425 59.895 264.665 67.6464L266.935 64.3536ZM225.6 52C202.621 52 184.227 60.6553 170.627 77.9643L173.773 80.4356C186.573 64.1447 203.779 56 225.6 56V52ZM170.609 77.9879C157.465 95.239 151 118.312 151 147H155C155 118.888 161.335 96.7609 173.791 80.4121L170.609 77.9879ZM151 147C151 175.688 157.465 198.761 170.609 216.012L173.791 213.588C161.335 197.239 155 175.112 155 147H151ZM170.627 216.036C184.227 233.345 202.621 242 225.6 242V238C203.779 238 186.573 229.855 173.773 213.564L170.627 216.036ZM225.6 242C241.15 242 254.939 238.107 266.896 230.273L264.704 226.927C253.461 234.293 240.45 238 225.6 238V242ZM266.909 230.264C279.24 222.044 288.675 210.746 295.219 196.432L291.581 194.768C285.325 208.454 276.36 219.156 264.691 226.936L266.909 230.264ZM293.4 197.6H433.8V193.6H293.4V197.6ZM431.831 195.248C425.879 228.578 413.789 257.688 395.585 282.621L398.815 284.979C417.411 259.512 429.721 229.822 435.769 195.952L431.831 195.248ZM395.573 282.638C377.778 307.55 354.446 326.936 325.535 340.797L327.265 344.403C356.755 330.264 380.622 310.45 398.828 284.962L395.573 282.638ZM325.546 340.792C297.052 354.247 264.55 361 228 361V365C265.05 365 298.148 358.153 327.254 344.409L325.546 340.792ZM228 361C185.485 361 148.639 352.062 117.39 334.262L115.41 337.738C147.361 355.938 184.915 365 228 365V361ZM117.406 334.272C86.1358 316.063 61.9989 290.743 44.9712 258.271L41.4288 260.129C58.8011 293.257 83.4642 319.137 115.394 337.728L117.406 334.272ZM44.9801 258.288C28.3437 225.808 20 188.728 20 147H16C16 189.272 24.4563 226.992 41.4199 260.112L44.9801 258.288ZM494.958 34.8L493.187 33.8711L493.182 33.8797L493.178 33.8882L494.958 34.8ZM568.158 -41.4L569.148 -39.6622L569.156 -39.6669L569.164 -39.6717L568.158 -41.4ZM778.158 -48L777.283 -46.2013L777.298 -46.194L777.313 -46.187L778.158 -48ZM848.958 10.2L847.33 11.3625L847.336 11.371L847.343 11.3794L848.958 10.2ZM885.558 98.4V100.4H887.947L887.527 98.0484L885.558 98.4ZM745.158 98.4L743.339 99.2315L743.873 100.4H745.158V98.4ZM717.558 66L716.422 67.6464L716.455 67.6687L716.488 67.6896L717.558 66ZM623.958 79.2L622.385 77.9643L622.376 77.9761L622.367 77.9879L623.958 79.2ZM623.958 214.8L622.367 216.012L622.376 216.024L622.385 216.036L623.958 214.8ZM717.558 228.6L718.654 230.273L718.661 230.269L718.667 230.264L717.558 228.6ZM745.158 195.6V193.6H743.873L743.339 194.768L745.158 195.6ZM885.558 195.6L887.527 195.952L887.947 193.6H885.558V195.6ZM848.958 283.8L847.343 282.621L847.336 282.629L847.33 282.638L848.958 283.8ZM778.158 342.6L779.012 344.409L779.022 344.403L778.158 342.6ZM568.158 336L567.151 337.728L567.16 337.733L567.168 337.738L568.158 336ZM494.958 259.2L493.178 260.112L493.182 260.12L493.187 260.129L494.958 259.2ZM471.758 147C471.758 105.272 480.101 68.1924 496.738 35.7117L493.178 33.8882C476.214 67.0076 467.758 104.728 467.758 147H471.758ZM496.729 35.7288C513.755 3.26106 537.887 -21.8552 569.148 -39.6622L567.168 -43.1379C535.229 -24.9448 510.561 0.738906 493.187 33.8711L496.729 35.7288ZM569.164 -39.6717C600.41 -57.8655 637.251 -67 679.758 -67V-71C636.665 -71 599.106 -61.7346 567.151 -43.1284L569.164 -39.6717ZM679.758 -67C716.3 -67 748.794 -60.0504 777.283 -46.2013L779.032 -49.7987C749.922 -63.9496 716.816 -71 679.758 -71V-67ZM777.313 -46.187C806.214 -32.7266 829.539 -13.5453 847.33 11.3625L850.585 9.03752C832.377 -16.4548 808.502 -36.0734 779.002 -49.813L777.313 -46.187ZM847.343 11.3794C865.547 36.3115 877.637 65.4223 883.589 98.7516L887.527 98.0484C881.478 64.1777 869.169 34.4884 850.573 9.02061L847.343 11.3794ZM885.558 96.4H745.158V100.4H885.558V96.4ZM746.977 97.5685C740.43 83.2467 730.983 72.1352 718.628 64.3104L716.488 67.6896C728.133 75.0648 737.086 85.5533 743.339 99.2315L746.977 97.5685ZM718.693 64.3536C706.733 56.105 692.93 52 677.358 52V56C692.186 56 705.183 59.895 716.422 67.6464L718.693 64.3536ZM677.358 52C654.379 52 635.985 60.6553 622.385 77.9643L625.53 80.4356C638.331 64.1447 655.537 56 677.358 56V52ZM622.367 77.9879C609.223 95.239 602.758 118.312 602.758 147H606.758C606.758 118.888 613.092 96.7609 625.549 80.4121L622.367 77.9879ZM602.758 147C602.758 175.688 609.223 198.761 622.367 216.012L625.549 213.588C613.092 197.239 606.758 175.112 606.758 147H602.758ZM622.385 216.036C635.985 233.345 654.379 242 677.358 242V238C655.537 238 638.331 229.855 625.53 213.564L622.385 216.036ZM677.358 242C692.908 242 706.697 238.107 718.654 230.273L716.462 226.927C705.219 234.293 692.207 238 677.358 238V242ZM718.667 230.264C730.998 222.044 740.433 210.746 746.977 196.432L743.339 194.768C737.083 208.454 728.118 219.156 716.448 226.936L718.667 230.264ZM745.158 197.6H885.558V193.6H745.158V197.6ZM883.589 195.248C877.637 228.578 865.547 257.688 847.343 282.621L850.573 284.979C869.169 259.512 881.478 229.822 887.527 195.952L883.589 195.248ZM847.33 282.638C829.536 307.55 806.203 326.936 777.293 340.797L779.022 344.403C808.512 330.264 832.38 310.45 850.585 284.962L847.33 282.638ZM777.304 340.792C748.809 354.247 716.308 361 679.758 361V365C716.807 365 749.906 358.153 779.012 344.409L777.304 340.792ZM679.758 361C637.243 361 600.397 352.062 569.148 334.262L567.168 337.738C599.119 355.938 636.672 365 679.758 365V361ZM569.164 334.272C537.894 316.063 513.757 290.743 496.729 258.271L493.187 260.129C510.559 293.257 535.222 319.137 567.151 337.728L569.164 334.272ZM496.738 258.288C480.101 225.808 471.758 188.728 471.758 147H467.758C467.758 189.272 476.214 226.992 493.178 260.112L496.738 258.288Z" fill="white" mask="url(#path-1-inside-1_10210_4510)"/>
</g>
<defs>
<clipPath id="clip0_10210_4510">
<rect width="904" height="442" fill="white"/>
</clipPath>
</defs>
</svg>
