<svg width="868" height="387" viewBox="0 0 868 387" fill="none" xmlns="http://www.w3.org/2000/svg">
<mask id="path-1-inside-1_7603_2946" fill="white">
<path d="M7.15256e-07 171C7.15256e-07 129 8.4 91.6 25.2 58.8C42.4 26 66.8 0.599989 98.4 -17.4C130 -35.8 167.2 -45 210 -45C246.8 -45 279.6 -38 308.4 -24C337.6 -10.4 361.2 8.99999 379.2 34.2C397.6 59.4 409.8 88.8 415.8 122.4H275.4C269 108.4 259.8 97.6 247.8 90C236.2 82 222.8 78 207.6 78C185.2 78 167.4 86.4 154.2 103.2C141.4 120 135 142.6 135 171C135 199.4 141.4 222 154.2 238.8C167.4 255.6 185.2 264 207.6 264C222.8 264 236.2 260.2 247.8 252.6C259.8 244.6 269 233.6 275.4 219.6H415.8C409.8 253.2 397.6 282.6 379.2 307.8C361.2 333 337.6 352.6 308.4 366.6C279.6 380.2 246.8 387 210 387C167.2 387 130 378 98.4 360C66.8 341.6 42.4 316 25.2 283.2C8.4 250.4 7.15256e-07 213 7.15256e-07 171ZM451.758 171C451.758 129 460.158 91.6 476.958 58.8C494.158 26 518.558 0.599989 550.158 -17.4C581.758 -35.8 618.958 -45 661.758 -45C698.558 -45 731.358 -38 760.158 -24C789.358 -10.4 812.958 8.99999 830.958 34.2C849.358 59.4 861.558 88.8 867.558 122.4H727.158C720.758 108.4 711.558 97.6 699.558 90C687.958 82 674.558 78 659.358 78C636.958 78 619.158 86.4 605.958 103.2C593.158 120 586.758 142.6 586.758 171C586.758 199.4 593.158 222 605.958 238.8C619.158 255.6 636.958 264 659.358 264C674.558 264 687.958 260.2 699.558 252.6C711.558 244.6 720.758 233.6 727.158 219.6H867.558C861.558 253.2 849.358 282.6 830.958 307.8C812.958 333 789.358 352.6 760.158 366.6C731.358 380.2 698.558 387 661.758 387C618.958 387 581.758 378 550.158 360C518.558 341.6 494.158 316 476.958 283.2C460.158 250.4 451.758 213 451.758 171Z"/>
</mask>
<path d="M25.2 58.8L23.4288 57.8711L23.4243 57.8797L23.4199 57.8882L25.2 58.8ZM98.4 -17.4L99.3899 -15.6622L99.3982 -15.6669L99.4064 -15.6717L98.4 -17.4ZM308.4 -24L307.526 -22.2013L307.541 -22.194L307.556 -22.187L308.4 -24ZM379.2 34.2L377.573 35.3625L377.579 35.371L377.585 35.3794L379.2 34.2ZM415.8 122.4V124.4H418.189L417.769 122.048L415.8 122.4ZM275.4 122.4L273.581 123.232L274.115 124.4H275.4V122.4ZM247.8 90L246.665 91.6464L246.697 91.6687L246.73 91.6896L247.8 90ZM154.2 103.2L152.627 101.964L152.618 101.976L152.609 101.988L154.2 103.2ZM154.2 238.8L152.609 240.012L152.618 240.024L152.627 240.036L154.2 238.8ZM247.8 252.6L248.896 254.273L248.903 254.269L248.909 254.264L247.8 252.6ZM275.4 219.6V217.6H274.115L273.581 218.768L275.4 219.6ZM415.8 219.6L417.769 219.952L418.189 217.6H415.8V219.6ZM379.2 307.8L377.585 306.621L377.579 306.629L377.573 306.638L379.2 307.8ZM308.4 366.6L309.254 368.409L309.265 368.403L308.4 366.6ZM98.4 360L97.3936 361.728L97.4018 361.733L97.4101 361.738L98.4 360ZM25.2 283.2L23.4199 284.112L23.4243 284.12L23.4288 284.129L25.2 283.2ZM2 171C2 129.272 10.3437 92.1924 26.9801 59.7117L23.4199 57.8882C6.45633 91.0076 -2 128.728 -2 171H2ZM26.9712 59.7288C43.997 27.2611 68.1288 2.14479 99.3899 -15.6622L97.4101 -19.1379C65.4712 -0.944811 40.803 24.7389 23.4288 57.8711L26.9712 59.7288ZM99.4064 -15.6717C130.652 -33.8655 167.493 -43 210 -43V-47C166.907 -47 129.348 -37.7346 97.3936 -19.1284L99.4064 -15.6717ZM210 -43C246.542 -43 279.036 -36.0504 307.526 -22.2013L309.274 -25.7987C280.164 -39.9496 247.058 -47 210 -47V-43ZM307.556 -22.187C336.456 -8.72659 359.781 10.4547 377.573 35.3625L380.828 33.0375C362.619 7.54525 338.744 -12.0734 309.244 -25.813L307.556 -22.187ZM377.585 35.3794C395.789 60.3115 407.879 89.4223 413.831 122.752L417.769 122.048C411.721 88.1777 399.411 58.4884 380.815 33.0206L377.585 35.3794ZM415.8 120.4H275.4V124.4H415.8V120.4ZM277.219 121.568C270.672 107.247 261.225 96.1352 248.87 88.3104L246.73 91.6896C258.375 99.0648 267.328 109.553 273.581 123.232L277.219 121.568ZM248.935 88.3536C236.975 80.105 223.172 76 207.6 76V80C222.428 80 235.425 83.895 246.665 91.6464L248.935 88.3536ZM207.6 76C184.621 76 166.227 84.6553 152.627 101.964L155.773 104.436C168.573 88.1447 185.779 80 207.6 80V76ZM152.609 101.988C139.465 119.239 133 142.312 133 171H137C137 142.888 143.335 120.761 155.791 104.412L152.609 101.988ZM133 171C133 199.688 139.465 222.761 152.609 240.012L155.791 237.588C143.335 221.239 137 199.112 137 171H133ZM152.627 240.036C166.227 257.345 184.621 266 207.6 266V262C185.779 262 168.573 253.855 155.773 237.564L152.627 240.036ZM207.6 266C223.15 266 236.939 262.107 248.896 254.273L246.704 250.927C235.461 258.293 222.45 262 207.6 262V266ZM248.909 254.264C261.24 246.044 270.675 234.746 277.219 220.432L273.581 218.768C267.325 232.454 258.36 243.156 246.691 250.936L248.909 254.264ZM275.4 221.6H415.8V217.6H275.4V221.6ZM413.831 219.248C407.879 252.578 395.789 281.688 377.585 306.621L380.815 308.979C399.411 283.512 411.721 253.822 417.769 219.952L413.831 219.248ZM377.573 306.638C359.778 331.55 336.446 350.936 307.535 364.797L309.265 368.403C338.755 354.264 362.622 334.45 380.828 308.962L377.573 306.638ZM307.546 364.792C279.052 378.247 246.55 385 210 385V389C247.05 389 280.148 382.153 309.254 368.409L307.546 364.792ZM210 385C167.485 385 130.639 376.062 99.3899 358.262L97.4101 361.738C129.361 379.938 166.915 389 210 389V385ZM99.4064 358.272C68.1358 340.063 43.9989 314.743 26.9712 282.271L23.4288 284.129C40.8011 317.257 65.4642 343.137 97.3936 361.728L99.4064 358.272ZM26.9801 282.288C10.3437 249.808 2 212.728 2 171H-2C-2 213.272 6.45633 250.992 23.4199 284.112L26.9801 282.288ZM476.958 58.8L475.187 57.8711L475.182 57.8797L475.178 57.8882L476.958 58.8ZM550.158 -17.4L551.148 -15.6622L551.156 -15.6669L551.164 -15.6717L550.158 -17.4ZM760.158 -24L759.283 -22.2013L759.298 -22.194L759.313 -22.187L760.158 -24ZM830.958 34.2L829.33 35.3625L829.336 35.371L829.343 35.3794L830.958 34.2ZM867.558 122.4V124.4H869.947L869.527 122.048L867.558 122.4ZM727.158 122.4L725.339 123.232L725.873 124.4H727.158V122.4ZM699.558 90L698.422 91.6464L698.455 91.6687L698.488 91.6896L699.558 90ZM605.958 103.2L604.385 101.964L604.376 101.976L604.367 101.988L605.958 103.2ZM605.958 238.8L604.367 240.012L604.376 240.024L604.385 240.036L605.958 238.8ZM699.558 252.6L700.654 254.273L700.661 254.269L700.667 254.264L699.558 252.6ZM727.158 219.6V217.6H725.873L725.339 218.768L727.158 219.6ZM867.558 219.6L869.527 219.952L869.947 217.6H867.558V219.6ZM830.958 307.8L829.343 306.621L829.336 306.629L829.33 306.638L830.958 307.8ZM760.158 366.6L761.012 368.409L761.022 368.403L760.158 366.6ZM550.158 360L549.151 361.728L549.16 361.733L549.168 361.738L550.158 360ZM476.958 283.2L475.178 284.112L475.182 284.12L475.187 284.129L476.958 283.2ZM453.758 171C453.758 129.272 462.101 92.1924 478.738 59.7117L475.178 57.8882C458.214 91.0076 449.758 128.728 449.758 171H453.758ZM478.729 59.7288C495.755 27.2611 519.887 2.14479 551.148 -15.6622L549.168 -19.1379C517.229 -0.944811 492.561 24.7389 475.187 57.8711L478.729 59.7288ZM551.164 -15.6717C582.41 -33.8655 619.251 -43 661.758 -43V-47C618.665 -47 581.106 -37.7346 549.151 -19.1284L551.164 -15.6717ZM661.758 -43C698.3 -43 730.794 -36.0504 759.283 -22.2013L761.032 -25.7987C731.922 -39.9496 698.816 -47 661.758 -47V-43ZM759.313 -22.187C788.214 -8.72659 811.539 10.4547 829.33 35.3625L832.585 33.0375C814.377 7.54525 790.502 -12.0734 761.002 -25.813L759.313 -22.187ZM829.343 35.3794C847.547 60.3115 859.637 89.4223 865.589 122.752L869.527 122.048C863.478 88.1777 851.169 58.4884 832.573 33.0206L829.343 35.3794ZM867.558 120.4H727.158V124.4H867.558V120.4ZM728.977 121.568C722.43 107.247 712.983 96.1352 700.628 88.3104L698.488 91.6896C710.133 99.0648 719.086 109.553 725.339 123.232L728.977 121.568ZM700.693 88.3536C688.733 80.105 674.93 76 659.358 76V80C674.186 80 687.183 83.895 698.422 91.6464L700.693 88.3536ZM659.358 76C636.379 76 617.985 84.6553 604.385 101.964L607.53 104.436C620.331 88.1447 637.537 80 659.358 80V76ZM604.367 101.988C591.223 119.239 584.758 142.312 584.758 171H588.758C588.758 142.888 595.092 120.761 607.549 104.412L604.367 101.988ZM584.758 171C584.758 199.688 591.223 222.761 604.367 240.012L607.549 237.588C595.092 221.239 588.758 199.112 588.758 171H584.758ZM604.385 240.036C617.985 257.345 636.379 266 659.358 266V262C637.537 262 620.331 253.855 607.53 237.564L604.385 240.036ZM659.358 266C674.908 266 688.697 262.107 700.654 254.273L698.462 250.927C687.219 258.293 674.207 262 659.358 262V266ZM700.667 254.264C712.998 246.044 722.433 234.746 728.977 220.432L725.339 218.768C719.083 232.454 710.118 243.156 698.448 250.936L700.667 254.264ZM727.158 221.6H867.558V217.6H727.158V221.6ZM865.589 219.248C859.637 252.578 847.547 281.688 829.343 306.621L832.573 308.979C851.169 283.512 863.478 253.822 869.527 219.952L865.589 219.248ZM829.33 306.638C811.536 331.55 788.203 350.936 759.293 364.797L761.022 368.403C790.512 354.264 814.38 334.45 832.585 308.962L829.33 306.638ZM759.304 364.792C730.809 378.247 698.308 385 661.758 385V389C698.807 389 731.906 382.153 761.012 368.409L759.304 364.792ZM661.758 385C619.243 385 582.397 376.062 551.148 358.262L549.168 361.738C581.119 379.938 618.672 389 661.758 389V385ZM551.164 358.272C519.894 340.063 495.757 314.743 478.729 282.271L475.187 284.129C492.559 317.257 517.222 343.137 549.151 361.728L551.164 358.272ZM478.738 282.288C462.101 249.808 453.758 212.728 453.758 171H449.758C449.758 213.272 458.214 250.992 475.178 284.112L478.738 282.288Z" fill="white" mask="url(#path-1-inside-1_7603_2946)"/>
</svg>
