<svg width="655" height="210" viewBox="0 0 655 210" fill="none" xmlns="http://www.w3.org/2000/svg">
<path d="M122.75 42.25L122.512 42.6895L122.514 42.6907L122.75 42.25ZM155 73.5L155.436 73.2549L155.436 73.2549L155 73.5ZM155 164.5L155.437 164.743L155.437 164.743L155 164.5ZM122.75 196.5L122.992 196.937L122.994 196.936L122.75 196.5ZM0.5 208H1.86265e-07V208.5H0.5V208ZM0.5 31V30.5H1.86265e-07V31H0.5ZM99 148.25L99.3409 148.616L99.3409 148.616L99 148.25ZM99 89.75L99.3409 89.3842L99.3409 89.3842L99 89.75ZM56 79.5V79H55.5V79.5H56ZM56 158.5H55.5V159H56V158.5ZM74.25 31.5C92.6814 31.5 108.763 35.2357 122.512 42.6895L122.988 41.8104C109.07 34.2643 92.8186 30.5 74.25 30.5V31.5ZM122.514 42.6907C136.433 50.1476 147.113 60.4979 154.564 73.7451L155.436 73.2549C147.887 59.8354 137.067 49.3523 122.986 41.8092L122.514 42.6907ZM154.564 73.7451C162.018 86.9955 165.75 102.076 165.75 119H166.75C166.75 101.924 162.982 86.6711 155.436 73.2549L154.564 73.7451ZM165.75 119C165.75 135.756 162.018 150.838 154.563 164.257L155.437 164.743C162.982 151.162 166.75 135.91 166.75 119H165.75ZM154.563 164.257C147.11 177.673 136.428 188.274 122.506 196.064L122.994 196.936C137.072 189.06 147.89 178.327 155.437 164.743L154.563 164.257ZM122.508 196.063C108.76 203.682 92.6797 207.5 74.25 207.5V208.5C92.8203 208.5 109.073 204.652 122.992 196.937L122.508 196.063ZM74.25 207.5H0.5V208.5H74.25V207.5ZM1 208V31H1.86265e-07V208H1ZM0.5 31.5H74.25V30.5H0.5V31.5ZM69.25 159C81.8438 159 91.8936 155.555 99.3409 148.616L98.6591 147.884C91.4398 154.611 81.6562 158 69.25 158V159ZM99.3409 148.616C106.801 141.664 110.5 131.766 110.5 119H109.5C109.5 131.567 105.866 141.169 98.6591 147.884L99.3409 148.616ZM110.5 119C110.5 106.234 106.801 96.3357 99.3409 89.3842L98.6591 90.1158C105.866 96.8309 109.5 106.433 109.5 119H110.5ZM99.3409 89.3842C91.8936 82.4447 81.8438 79 69.25 79V80C81.6562 80 91.4398 83.3887 98.6591 90.1158L99.3409 89.3842ZM69.25 79H56V80H69.25V79ZM55.5 79.5V158.5H56.5V79.5H55.5ZM56 159H69.25V158H56V159ZM322.041 147.25V147.75H322.475L322.536 147.321L322.041 147.25ZM232.791 147.25V146.75H232.256L232.292 147.284L232.791 147.25ZM261.041 157.25V156.75H260.728L260.591 157.032L261.041 157.25ZM319.791 157.25L320.281 157.348L320.401 156.75H319.791V157.25ZM307.041 184.25L306.653 183.935L306.652 183.936L307.041 184.25ZM282.791 203L283.002 203.453L283.005 203.452L282.791 203ZM213.291 201L213.054 201.44L213.057 201.442L213.291 201ZM187.791 176L187.352 176.239L187.356 176.247L187.791 176ZM187.791 99.25L187.355 99.0055L187.354 99.0077L187.791 99.25ZM213.291 74L213.057 73.5583L213.054 73.5598L213.291 74ZM288.041 74L287.804 74.4403L287.812 74.4445L288.041 74ZM313.541 98.5L313.105 98.7451L313.108 98.7502L313.541 98.5ZM266.541 123V123.5H267.041V123H266.541ZM262.041 112.5L261.721 112.884L261.727 112.889L261.734 112.895L262.041 112.5ZM233.541 123L233.049 122.914L232.946 123.5H233.541V123ZM322.291 136.25C322.291 140.062 322.042 143.705 321.546 147.179L322.536 147.321C323.04 143.795 323.291 140.105 323.291 136.25H322.291ZM322.041 146.75H232.791V147.75H322.041V146.75ZM232.292 147.284C232.712 153.42 234.208 158.102 236.845 161.258C239.499 164.434 243.255 166 248.041 166V165C243.493 165 240.042 163.524 237.612 160.617C235.166 157.689 233.703 153.247 233.29 147.216L232.292 147.284ZM248.041 166C251.12 166 253.799 165.294 256.059 163.86C258.318 162.426 260.125 160.286 261.491 157.468L260.591 157.032C259.29 159.714 257.597 161.699 255.523 163.015C253.449 164.331 250.962 165 248.041 165V166ZM261.041 157.75H319.791V156.75H261.041V157.75ZM319.301 157.152C317.317 167.071 313.102 175.997 306.653 183.935L307.429 184.565C313.98 176.503 318.265 167.429 320.281 157.348L319.301 157.152ZM306.652 183.936C300.37 191.706 292.348 197.911 282.577 202.548L283.005 203.452C292.901 198.756 301.046 192.461 307.43 184.564L306.652 183.936ZM282.58 202.547C272.985 207.013 262.392 209.25 250.791 209.25V210.25C262.524 210.25 273.263 207.987 283.002 203.453L282.58 202.547ZM250.791 209.25C236.862 209.25 224.445 206.349 213.525 200.558L213.057 201.442C224.138 207.318 236.72 210.25 250.791 210.25V209.25ZM213.528 200.56C202.778 194.772 194.346 186.506 188.226 175.753L187.356 176.247C193.569 187.161 202.137 195.562 213.054 201.44L213.528 200.56ZM188.23 175.761C182.276 164.846 179.291 152.097 179.291 137.5H178.291C178.291 152.236 181.306 165.154 187.352 176.239L188.23 175.761ZM179.291 137.5C179.291 122.902 182.276 110.239 188.228 99.4922L187.354 99.0077C181.306 109.928 178.291 122.764 178.291 137.5H179.291ZM188.227 99.4945C194.349 88.5751 202.781 80.2274 213.528 74.4402L213.054 73.5598C202.135 79.4393 193.567 87.9248 187.355 99.0055L188.227 99.4945ZM213.525 74.4417C224.445 68.6512 236.862 65.75 250.791 65.75V64.75C236.72 64.75 224.138 67.6821 213.057 73.5583L213.525 74.4417ZM250.791 65.75C264.72 65.75 277.053 68.6513 287.804 74.4402L288.278 73.5598C277.362 67.6821 264.862 64.75 250.791 64.75V65.75ZM287.812 74.4445C298.726 80.0669 307.154 88.1647 313.105 98.7451L313.977 98.2549C307.928 87.5019 299.356 79.2664 288.27 73.5555L287.812 74.4445ZM313.108 98.7502C319.224 109.328 322.291 121.822 322.291 136.25H323.291C323.291 121.678 320.192 109.005 313.974 98.2497L313.108 98.7502ZM267.041 123C267.041 118.218 265.498 114.555 262.348 112.105L261.734 112.895C264.584 115.112 266.041 118.449 266.041 123H267.041ZM262.361 112.116C259.258 109.53 255.389 108.25 250.791 108.25V109.25C255.193 109.25 258.824 110.47 261.721 112.884L262.361 112.116ZM250.791 108.25C245.795 108.25 241.775 109.457 238.785 111.927C235.794 114.398 233.896 118.081 233.049 122.914L234.033 123.086C234.852 118.419 236.663 114.977 239.422 112.698C242.182 110.418 245.953 109.25 250.791 109.25V108.25ZM233.541 123.5H266.541V122.5H233.541V123.5ZM395.844 23H396.344V22.5H395.844V23ZM395.844 208V208.5H396.344V208H395.844ZM340.344 208H339.844V208.5H340.344V208ZM340.344 23V22.5H339.844V23H340.344ZM395.344 23V208H396.344V23H395.344ZM395.844 207.5H340.344V208.5H395.844V207.5ZM340.844 208V23H339.844V208H340.844ZM340.344 23.5H395.844V22.5H340.344V23.5ZM557.41 82.25L557.026 82.5695L557.028 82.573L557.41 82.25ZM571.16 208V208.5H571.66V208H571.16ZM515.91 208H515.41V208.5H515.91V208ZM510.41 117.5L510.034 117.829L510.041 117.838L510.049 117.846L510.41 117.5ZM481.66 117.5L482.029 117.837L482.036 117.829L481.66 117.5ZM476.41 208V208.5H476.91V208H476.41ZM420.91 208H420.41V208.5H420.91V208ZM420.91 23V22.5H420.41V23H420.91ZM476.41 23H476.91V22.5H476.41V23ZM476.41 88.5H475.91V90.1867L476.829 88.7725L476.41 88.5ZM493.66 72.25L493.413 71.8152L493.409 71.8177L493.66 72.25ZM519.66 66.5C535.703 66.5 548.135 71.8682 557.026 82.5695L557.795 81.9305C548.685 70.9651 535.951 65.5 519.66 65.5V66.5ZM557.028 82.573C566.098 93.2916 570.66 107.832 570.66 126.25H571.66C571.66 107.668 567.056 92.8751 557.792 81.927L557.028 82.573ZM570.66 126.25V208H571.66V126.25H570.66ZM571.16 207.5H515.91V208.5H571.16V207.5ZM516.41 208V133.25H515.41V208H516.41ZM516.41 133.25C516.41 126.489 514.549 121.103 510.771 117.154L510.049 117.846C513.605 121.564 515.41 126.677 515.41 133.25H516.41ZM510.786 117.171C507.179 113.048 502.284 111 496.16 111V112C502.037 112 506.642 113.952 510.034 117.829L510.786 117.171ZM496.16 111C489.875 111 484.894 113.044 481.284 117.171L482.036 117.829C485.426 113.956 490.112 112 496.16 112V111ZM481.291 117.163C477.685 121.112 475.91 126.495 475.91 133.25H476.91C476.91 126.671 478.635 121.554 482.029 117.837L481.291 117.163ZM475.91 133.25V208H476.91V133.25H475.91ZM476.41 207.5H420.91V208.5H476.41V207.5ZM421.41 208V23H420.41V208H421.41ZM420.91 23.5H476.41V22.5H420.91V23.5ZM475.91 23V88.5H476.91V23H475.91ZM476.829 88.7725C481.118 82.1743 486.81 76.8113 493.911 72.6822L493.409 71.8177C486.177 76.022 480.369 81.4923 475.991 88.2275L476.829 88.7725ZM493.907 72.6847C501.152 68.5682 509.731 66.5 519.66 66.5V65.5C509.59 65.5 500.835 67.5985 493.413 71.8153L493.907 72.6847ZM599.977 48L600.308 47.6257L600.308 47.6257L599.977 48ZM599.977 8.74999L600.308 9.12433L600.314 9.119L599.977 8.74999ZM646.227 8.74999L645.889 9.11905L645.895 9.12428L646.227 8.74999ZM646.227 48L645.895 47.6257L645.895 47.6257L646.227 48ZM650.727 67H651.227V66.5H650.727V67ZM650.727 208V208.5H651.227V208H650.727ZM595.227 208H594.727V208.5H595.227V208ZM595.227 67V66.5H594.727V67H595.227ZM623.227 55.25C613.651 55.25 606.029 52.6932 600.308 47.6257L599.645 48.3743C605.59 53.6401 613.468 56.25 623.227 56.25V55.25ZM600.308 47.6257C594.583 42.5545 591.727 36.1911 591.727 28.5H590.727C590.727 36.4756 593.704 43.1122 599.645 48.3743L600.308 47.6257ZM591.727 28.5C591.727 20.6388 594.585 14.1932 600.308 9.12428L599.645 8.37569C593.701 13.6401 590.727 20.3612 590.727 28.5H591.727ZM600.314 9.119C606.036 3.88777 613.656 1.24999 623.227 1.24999V0.249986C613.464 0.249986 605.584 2.94554 599.639 8.38097L600.314 9.119ZM623.227 1.24999C632.628 1.24999 640.166 3.88631 645.889 9.119L646.564 8.38097C640.621 2.947 632.825 0.249986 623.227 0.249986V1.24999ZM645.895 9.12428C651.618 14.1932 654.477 20.6388 654.477 28.5H655.477C655.477 20.3612 652.502 13.6401 646.558 8.37569L645.895 9.12428ZM654.477 28.5C654.477 36.1911 651.621 42.5545 645.895 47.6257L646.558 48.3743C652.499 43.1122 655.477 36.4756 655.477 28.5H654.477ZM645.895 47.6257C640.172 52.6946 632.632 55.25 623.227 55.25V56.25C632.821 56.25 640.614 53.6388 646.558 48.3743L645.895 47.6257ZM650.227 67V208H651.227V67H650.227ZM650.727 207.5H595.227V208.5H650.727V207.5ZM595.727 208V67H594.727V208H595.727ZM595.227 67.5H650.727V66.5H595.227V67.5Z" fill="black"/>
</svg>
