<svg width="655" height="210" viewBox="0 0 655 210" fill="none" xmlns="http://www.w3.org/2000/svg">
<mask id="path-1-inside-1_8741_4380" fill="white">
<path d="M74.25 31C92.75 31 108.917 34.75 122.75 42.25C136.75 49.75 147.5 60.1667 155 73.5C162.5 86.8333 166.25 102 166.25 119C166.25 135.833 162.5 151 155 164.5C147.5 178 136.75 188.667 122.75 196.5C108.917 204.167 92.75 208 74.25 208H0.5V31H74.25ZM69.25 158.5C81.75 158.5 91.6667 155.083 99 148.25C106.333 141.417 110 131.667 110 119C110 106.333 106.333 96.5833 99 89.75C91.6667 82.9167 81.75 79.5 69.25 79.5H56V158.5H69.25ZM322.791 136.25C322.791 140.083 322.541 143.75 322.041 147.25H232.791C233.624 159.417 238.708 165.5 248.041 165.5C254.041 165.5 258.374 162.75 261.041 157.25H319.791C317.791 167.25 313.541 176.25 307.041 184.25C300.708 192.083 292.624 198.333 282.791 203C273.124 207.5 262.458 209.75 250.791 209.75C236.791 209.75 224.291 206.833 213.291 201C202.458 195.167 193.958 186.833 187.791 176C181.791 165 178.791 152.167 178.791 137.5C178.791 122.833 181.791 110.083 187.791 99.25C193.958 88.25 202.458 79.8333 213.291 74C224.291 68.1667 236.791 65.25 250.791 65.25C264.791 65.25 277.208 68.1667 288.041 74C299.041 79.6667 307.541 87.8333 313.541 98.5C319.708 109.167 322.791 121.75 322.791 136.25ZM266.541 123C266.541 118.333 265.041 114.833 262.041 112.5C259.041 110 255.291 108.75 250.791 108.75C240.958 108.75 235.208 113.5 233.541 123H266.541ZM395.844 23V208H340.344V23H395.844ZM519.66 66C535.827 66 548.41 71.4167 557.41 82.25C566.577 93.0833 571.16 107.75 571.16 126.25V208H515.91V133.25C515.91 126.583 514.077 121.333 510.41 117.5C506.91 113.5 502.16 111.5 496.16 111.5C489.993 111.5 485.16 113.5 481.66 117.5C478.16 121.333 476.41 126.583 476.41 133.25V208H420.91V23H476.41V88.5C480.743 81.8333 486.493 76.4167 493.66 72.25C500.993 68.0833 509.66 66 519.66 66ZM623.227 55.75C613.56 55.75 605.81 53.1667 599.977 48C594.143 42.8333 591.227 36.3333 591.227 28.5C591.227 20.5 594.143 13.9167 599.977 8.74999C605.81 3.41665 613.56 0.749986 623.227 0.749986C632.727 0.749986 640.393 3.41665 646.227 8.74999C652.06 13.9167 654.977 20.5 654.977 28.5C654.977 36.3333 652.06 42.8333 646.227 48C640.393 53.1667 632.727 55.75 623.227 55.75ZM650.727 67V208H595.227V67H650.727Z"/>
</mask>
<path d="M122.75 42.25L121.797 44.0082L121.806 44.0129L122.75 42.25ZM155 73.5L156.743 72.5195L156.743 72.5195L155 73.5ZM155 164.5L156.748 165.471L156.748 165.471L155 164.5ZM122.75 196.5L123.72 198.249L123.727 198.245L122.75 196.5ZM0.5 208H-1.5V210H0.5V208ZM0.5 31V29H-1.5V31H0.5ZM99 148.25L100.363 149.713L100.363 149.713L99 148.25ZM99 89.75L100.363 88.2868L100.363 88.2868L99 89.75ZM56 79.5V77.5H54V79.5H56ZM56 158.5H54V160.5H56V158.5ZM74.25 33C92.4757 33 108.304 36.6927 121.797 44.0082L123.703 40.4918C109.53 32.8073 93.0243 29 74.25 29V33ZM121.806 44.0129C135.484 51.3406 145.951 61.4917 153.257 74.4805L156.743 72.5195C149.049 58.8416 138.016 48.1594 123.694 40.487L121.806 44.0129ZM153.257 74.4805C160.57 87.4822 164.25 102.304 164.25 119H168.25C168.25 101.696 164.43 86.1845 156.743 72.5195L153.257 74.4805ZM164.25 119C164.25 135.525 160.572 150.352 153.252 163.529L156.748 165.471C164.428 151.648 168.25 136.142 168.25 119H164.25ZM153.252 163.529C145.939 176.691 135.462 187.095 121.773 194.755L123.727 198.245C138.038 190.238 149.061 179.309 156.748 165.471L153.252 163.529ZM121.781 194.751C108.291 202.227 92.4687 206 74.25 206V210C93.0313 210 109.543 206.106 123.72 198.249L121.781 194.751ZM74.25 206H0.5V210H74.25V206ZM2.5 208V31H-1.5V208H2.5ZM0.5 33H74.25V29H0.5V33ZM69.25 160.5C82.1253 160.5 92.5742 156.971 100.363 149.713L97.6366 146.787C90.7591 153.195 81.3747 156.5 69.25 156.5V160.5ZM100.363 149.713C108.204 142.407 112 132.066 112 119H108C108 131.267 104.462 140.426 97.6366 146.787L100.363 149.713ZM112 119C112 105.934 108.204 95.5929 100.363 88.2868L97.6366 91.2132C104.462 97.5737 108 106.733 108 119H112ZM100.363 88.2868C92.5742 81.0286 82.1253 77.5 69.25 77.5V81.5C81.3747 81.5 90.7591 84.8047 97.6366 91.2132L100.363 88.2868ZM69.25 77.5H56V81.5H69.25V77.5ZM54 79.5V158.5H58V79.5H54ZM56 160.5H69.25V156.5H56V160.5ZM322.041 147.25V149.25H323.776L324.021 147.533L322.041 147.25ZM232.791 147.25V145.25H230.649L230.796 147.387L232.791 147.25ZM261.041 157.25V155.25H259.788L259.241 156.377L261.041 157.25ZM319.791 157.25L321.752 157.642L322.231 155.25H319.791V157.25ZM307.041 184.25L305.489 182.989L305.486 182.993L307.041 184.25ZM282.791 203L283.635 204.813L283.642 204.81L283.649 204.807L282.791 203ZM213.291 201L212.343 202.761L212.354 202.767L213.291 201ZM187.791 176L186.035 176.958L186.044 176.974L186.053 176.989L187.791 176ZM187.791 99.25L186.046 98.272L186.041 98.281L187.791 99.25ZM213.291 74L212.354 72.233L212.343 72.2391L213.291 74ZM288.041 74L287.093 75.7609L287.109 75.7696L287.125 75.7779L288.041 74ZM313.541 98.5L311.798 99.4805L311.804 99.4908L311.81 99.501L313.541 98.5ZM266.541 123V125H268.541V123H266.541ZM262.041 112.5L260.761 114.036L260.787 114.058L260.813 114.079L262.041 112.5ZM233.541 123L231.571 122.654L231.16 125H233.541V123ZM320.791 136.25C320.791 139.997 320.547 143.568 320.061 146.967L324.021 147.533C324.535 143.932 324.791 140.17 324.791 136.25H320.791ZM322.041 145.25H232.791V149.25H322.041V145.25ZM230.796 147.387C231.227 153.679 232.771 158.722 235.694 162.22C238.684 165.799 242.898 167.5 248.041 167.5V163.5C243.85 163.5 240.856 162.16 238.763 159.655C236.603 157.069 235.189 152.988 234.786 147.113L230.796 147.387ZM248.041 167.5C251.355 167.5 254.325 166.737 256.863 165.126C259.399 163.517 261.376 161.142 262.841 158.123L259.241 156.377C258.039 158.858 256.517 160.608 254.719 161.749C252.924 162.888 250.727 163.5 248.041 163.5V167.5ZM261.041 159.25H319.791V155.25H261.041V159.25ZM317.83 156.858C315.894 166.536 311.786 175.238 305.489 182.989L308.593 185.511C315.296 177.262 319.688 167.964 321.752 157.642L317.83 156.858ZM305.486 182.993C299.356 190.574 291.518 196.644 281.934 201.193L283.649 204.807C293.73 200.022 302.06 193.592 308.596 185.507L305.486 182.993ZM281.947 201.187C272.569 205.553 262.194 207.75 250.791 207.75V211.75C262.722 211.75 273.68 209.447 283.635 204.813L281.947 201.187ZM250.791 207.75C237.077 207.75 224.905 204.895 214.228 199.233L212.354 202.767C223.677 208.772 236.506 211.75 250.791 211.75V207.75ZM214.239 199.239C203.741 193.586 195.513 185.522 189.529 175.011L186.053 176.989C192.403 188.144 201.174 196.747 212.343 202.761L214.239 199.239ZM189.547 175.042C183.732 164.383 180.791 151.889 180.791 137.5H176.791C176.791 152.444 179.85 165.617 186.035 176.958L189.547 175.042ZM180.791 137.5C180.791 123.11 183.733 110.705 189.541 100.219L186.041 98.281C179.849 109.461 176.791 122.557 176.791 137.5H180.791ZM189.536 100.228C195.521 89.5506 203.749 81.4095 214.239 75.7609L212.343 72.2391C201.166 78.2571 192.394 86.9494 186.046 98.272L189.536 100.228ZM214.228 75.7669C224.905 70.1048 237.077 67.25 250.791 67.25V63.25C236.506 63.25 223.677 66.2285 212.354 72.2331L214.228 75.7669ZM250.791 67.25C264.506 67.25 276.589 70.105 287.093 75.7609L288.989 72.2391C277.826 66.2283 265.076 63.25 250.791 63.25V67.25ZM287.125 75.7779C297.781 81.2675 305.992 89.1588 311.798 99.4805L315.284 97.5195C309.09 86.5078 300.301 78.0658 288.957 72.222L287.125 75.7779ZM311.81 99.501C317.771 109.813 320.791 122.039 320.791 136.25H324.791C324.791 121.461 321.644 108.52 315.272 97.499L311.81 99.501ZM268.541 123C268.541 117.872 266.867 113.72 263.269 110.921L260.813 114.079C263.215 115.947 264.541 118.795 264.541 123H268.541ZM263.321 110.964C259.908 108.119 255.684 106.75 250.791 106.75V110.75C254.898 110.75 258.174 111.881 260.761 114.036L263.321 110.964ZM250.791 106.75C245.559 106.75 241.164 108.017 237.83 110.771C234.491 113.529 232.462 117.576 231.571 122.654L235.511 123.346C236.287 118.924 237.966 115.846 240.377 113.854C242.793 111.858 246.19 110.75 250.791 110.75V106.75ZM233.541 125H266.541V121H233.541V125ZM395.844 23H397.844V21H395.844V23ZM395.844 208V210H397.844V208H395.844ZM340.344 208H338.344V210H340.344V208ZM340.344 23V21H338.344V23H340.344ZM393.844 23V208H397.844V23H393.844ZM395.844 206H340.344V210H395.844V206ZM342.344 208V23H338.344V208H342.344ZM340.344 25H395.844V21H340.344V25ZM557.41 82.25L555.872 83.528L555.878 83.535L555.883 83.5419L557.41 82.25ZM571.16 208V210H573.16V208H571.16ZM515.91 208H513.91V210H515.91V208ZM510.41 117.5L508.905 118.817L508.934 118.85L508.965 118.882L510.41 117.5ZM481.66 117.5L483.137 118.849L483.151 118.833L483.165 118.817L481.66 117.5ZM476.41 208V210H478.41V208H476.41ZM420.91 208H418.91V210H420.91V208ZM420.91 23V21H418.91V23H420.91ZM476.41 23H478.41V21H476.41V23ZM476.41 88.5H474.41V95.2467L478.087 89.59L476.41 88.5ZM493.66 72.25L492.672 70.5111L492.664 70.516L492.655 70.521L493.66 72.25ZM519.66 68C535.331 68 547.31 73.2227 555.872 83.528L558.949 80.972C549.51 69.6106 536.323 64 519.66 64V68ZM555.883 83.5419C564.662 93.9164 569.16 108.077 569.16 126.25H573.16C573.16 107.423 568.492 92.2502 558.937 80.9581L555.883 83.5419ZM569.16 126.25V208H573.16V126.25H569.16ZM571.16 206H515.91V210H571.16V206ZM517.91 208V133.25H513.91V208H517.91ZM517.91 133.25C517.91 126.207 515.964 120.412 511.855 116.118L508.965 118.882C512.19 122.254 513.91 126.96 513.91 133.25H517.91ZM511.915 116.183C507.984 111.69 502.654 109.5 496.16 109.5V113.5C501.666 113.5 505.836 115.31 508.905 118.817L511.915 116.183ZM496.16 109.5C489.519 109.5 484.097 111.678 480.155 116.183L483.165 118.817C486.223 115.322 490.468 113.5 496.16 113.5V109.5ZM480.183 116.151C476.26 120.449 474.41 126.231 474.41 133.25H478.41C478.41 126.936 480.061 122.218 483.137 118.849L480.183 116.151ZM474.41 133.25V208H478.41V133.25H474.41ZM476.41 206H420.91V210H476.41V206ZM422.91 208V23H418.91V208H422.91ZM420.91 25H476.41V21H420.91V25ZM474.41 23V88.5H478.41V23H474.41ZM478.087 89.59C482.242 83.1973 487.758 77.9951 494.665 73.979L492.655 70.521C485.229 74.8382 479.245 80.4694 474.733 87.41L478.087 89.59ZM494.648 73.9889C501.629 70.0226 509.942 68 519.66 68V64C509.378 64 500.358 66.144 492.672 70.5111L494.648 73.9889ZM599.977 48L601.303 46.5028L601.303 46.5028L599.977 48ZM599.977 8.74999L601.303 10.2472L601.314 10.2367L601.326 10.226L599.977 8.74999ZM646.227 8.74999L644.877 10.226L644.889 10.2367L644.9 10.2472L646.227 8.74999ZM646.227 48L644.9 46.5028L644.9 46.5028L646.227 48ZM650.727 67H652.727V65H650.727V67ZM650.727 208V210H652.727V208H650.727ZM595.227 208H593.227V210H595.227V208ZM595.227 67V65H593.227V67H595.227ZM623.227 53.75C613.926 53.75 606.688 51.2727 601.303 46.5028L598.65 49.4972C604.932 55.0606 613.194 57.75 623.227 57.75V53.75ZM601.303 46.5028C595.9 41.718 593.227 35.7643 593.227 28.5H589.227C589.227 36.9024 592.386 43.9486 598.65 49.4972L601.303 46.5028ZM593.227 28.5C593.227 21.0551 595.911 15.0228 601.303 10.2472L598.65 7.25281C592.376 12.8105 589.227 19.9449 589.227 28.5H593.227ZM601.326 10.226C606.713 5.30111 613.942 2.74999 623.227 2.74999V-1.25001C613.177 -1.25001 604.907 1.5322 598.627 7.27393L601.326 10.226ZM623.227 2.74999C632.334 2.74999 639.484 5.29528 644.877 10.226L647.576 7.27393C641.302 1.53802 633.12 -1.25001 623.227 -1.25001V2.74999ZM644.9 10.2472C650.292 15.0228 652.977 21.0551 652.977 28.5H656.977C656.977 19.9449 653.827 12.8105 647.553 7.25281L644.9 10.2472ZM652.977 28.5C652.977 35.7643 650.303 41.718 644.9 46.5028L647.553 49.4972C653.817 43.9486 656.977 36.9024 656.977 28.5H652.977ZM644.9 46.5028C639.509 51.2783 632.35 53.75 623.227 53.75V57.75C633.103 57.75 641.278 55.0551 647.553 49.4972L644.9 46.5028ZM648.727 67V208H652.727V67H648.727ZM650.727 206H595.227V210H650.727V206ZM597.227 208V67H593.227V208H597.227ZM595.227 69H650.727V65H595.227V69Z" fill="black" mask="url(#path-1-inside-1_8741_4380)"/>
</svg>
