<svg width="932" height="442" viewBox="0 0 932 442" fill="none" xmlns="http://www.w3.org/2000/svg">
<g clip-path="url(#clip0_10210_4508)">
<mask id="path-1-inside-1_10210_4508" fill="white">
<path d="M189.75 -46.4C230.45 -46.4 266.017 -38.15 296.45 -21.65C327.25 -5.15002 350.9 17.7666 367.4 47.1C383.9 76.4333 392.15 109.8 392.15 147.2C392.15 184.233 383.9 217.6 367.4 247.3C350.9 277 327.25 300.467 296.45 317.7C266.017 334.567 230.45 343 189.75 343H27.5V-46.4H189.75ZM178.75 234.1C206.25 234.1 228.067 226.583 244.2 211.55C260.333 196.517 268.4 175.067 268.4 147.2C268.4 119.333 260.333 97.8833 244.2 82.85C228.067 67.8167 206.25 60.3 178.75 60.3H149.6V234.1H178.75ZM904.29 -46.4V343H782.74V148.85L722.79 343H618.29L558.34 148.85V343H436.24V-46.4H585.84L671.64 187.35L755.24 -46.4H904.29Z"/>
</mask>
<path d="M296.45 -21.65L295.497 -19.8918L295.506 -19.8871L296.45 -21.65ZM367.4 47.1L369.143 46.1194L367.4 47.1ZM367.4 247.3L369.148 248.271L367.4 247.3ZM296.45 317.7L297.42 319.449L297.427 319.445L296.45 317.7ZM27.5 343H25.5V345H27.5V343ZM27.5 -46.4V-48.4H25.5V-46.4H27.5ZM244.2 211.55L245.563 213.013L244.2 211.55ZM244.2 82.85L245.563 81.3868L244.2 82.85ZM149.6 60.3V58.3H147.6V60.3H149.6ZM149.6 234.1H147.6V236.1H149.6V234.1ZM189.75 -44.4C230.176 -44.4 265.404 -36.2074 295.497 -19.8918L297.403 -23.4082C266.63 -40.0927 230.724 -48.4 189.75 -48.4V-44.4ZM295.506 -19.8871C325.984 -3.55941 349.351 19.0917 365.657 48.0805L369.143 46.1194C352.449 16.4416 328.516 -6.74063 297.394 -23.413L295.506 -19.8871ZM365.657 48.0805C381.97 77.0822 390.15 110.104 390.15 147.2H394.15C394.15 109.496 385.83 75.7844 369.143 46.1194L365.657 48.0805ZM390.15 147.2C390.15 183.925 381.972 216.952 365.652 246.329L369.148 248.271C385.828 218.248 394.15 184.542 394.15 147.2H390.15ZM365.652 246.329C349.339 275.691 325.962 298.895 295.473 315.955L297.427 319.445C328.538 302.038 352.461 278.309 369.148 248.271L365.652 246.329ZM295.481 315.951C265.391 332.627 230.169 341 189.75 341V345C230.731 345 266.643 336.506 297.42 319.449L295.481 315.951ZM189.75 341H27.5V345H189.75V341ZM29.5 343V-46.4H25.5V343H29.5ZM27.5 -44.4H189.75V-48.4H27.5V-44.4ZM178.75 236.1C206.625 236.1 228.974 228.471 245.563 213.013L242.837 210.087C227.159 224.695 205.875 232.1 178.75 232.1V236.1ZM245.563 213.013C262.204 197.507 270.4 175.466 270.4 147.2H266.4C266.4 174.667 258.462 195.526 242.837 210.087L245.563 213.013ZM270.4 147.2C270.4 118.934 262.204 96.8929 245.563 81.3868L242.837 84.3132C258.462 98.8737 266.4 119.733 266.4 147.2H270.4ZM245.563 81.3868C228.974 65.9286 206.625 58.3 178.75 58.3V62.3C205.875 62.3 227.159 69.7047 242.837 84.3132L245.563 81.3868ZM178.75 58.3H149.6V62.3H178.75V58.3ZM147.6 60.3V234.1H151.6V60.3H147.6ZM149.6 236.1H178.75V232.1H149.6V236.1ZM904.29 -46.4H906.29V-48.4H904.29V-46.4ZM904.29 343V345H906.29V343H904.29ZM782.74 343H780.74V345H782.74V343ZM782.74 148.85H784.74L780.829 148.26L782.74 148.85ZM722.79 343V345H724.266L724.701 343.59L722.79 343ZM618.29 343L616.379 343.59L616.815 345H618.29V343ZM558.34 148.85L560.251 148.26L556.34 148.85H558.34ZM558.34 343V345H560.34V343H558.34ZM436.24 343H434.24V345H436.24V343ZM436.24 -46.4V-48.4H434.24V-46.4H436.24ZM585.84 -46.4L587.718 -47.0892L587.237 -48.4H585.84V-46.4ZM671.64 187.35L669.763 188.039L671.665 193.221L673.523 188.023L671.64 187.35ZM755.24 -46.4V-48.4H753.831L753.357 -47.0735L755.24 -46.4ZM902.29 -46.4V343H906.29V-46.4H902.29ZM904.29 341H782.74V345H904.29V341ZM784.74 343V148.85H780.74V343H784.74ZM780.829 148.26L720.879 342.41L724.701 343.59L784.651 149.44L780.829 148.26ZM722.79 341H618.29V345H722.79V341ZM620.201 342.41L560.251 148.26L556.429 149.44L616.379 343.59L620.201 342.41ZM556.34 148.85V343H560.34V148.85H556.34ZM558.34 341H436.24V345H558.34V341ZM438.24 343V-46.4H434.24V343H438.24ZM436.24 -44.4H585.84V-48.4H436.24V-44.4ZM583.963 -45.7108L669.763 188.039L673.518 186.661L587.718 -47.0892L583.963 -45.7108ZM673.523 188.023L757.123 -45.7265L753.357 -47.0735L669.757 186.676L673.523 188.023ZM755.24 -44.4H904.29V-48.4H755.24V-44.4Z" fill="white" mask="url(#path-1-inside-1_10210_4508)"/>
</g>
<defs>
<clipPath id="clip0_10210_4508">
<rect width="932" height="442" fill="white"/>
</clipPath>
</defs>
</svg>
