<svg width="878" height="367" viewBox="0 0 878 367" fill="none" xmlns="http://www.w3.org/2000/svg">
<mask id="path-1-inside-1_7603_2822" fill="white">
<path d="M162.75 -22.4C203.45 -22.4 239.017 -14.15 269.45 2.34997C300.25 18.85 323.9 41.7666 340.4 71.1C356.9 100.433 365.15 133.8 365.15 171.2C365.15 208.233 356.9 241.6 340.4 271.3C323.9 301 300.25 324.467 269.45 341.7C239.017 358.567 203.45 367 162.75 367H0.5V-22.4H162.75ZM151.75 258.1C179.25 258.1 201.067 250.583 217.2 235.55C233.333 220.517 241.4 199.067 241.4 171.2C241.4 143.333 233.333 121.883 217.2 106.85C201.067 91.8167 179.25 84.3 151.75 84.3H122.6V258.1H151.75ZM877.29 -22.4V367H755.74V172.85L695.79 367H591.29L531.34 172.85V367H409.24V-22.4H558.84L644.64 211.35L728.24 -22.4H877.29Z"/>
</mask>
<path d="M269.45 2.34997L268.497 4.10821L268.506 4.11293L269.45 2.34997ZM340.4 71.1L342.143 70.1194L340.4 71.1ZM340.4 271.3L342.148 272.271L340.4 271.3ZM269.45 341.7L270.42 343.449L270.427 343.445L269.45 341.7ZM0.5 367H-1.5V369H0.5V367ZM0.5 -22.4V-24.4H-1.5V-22.4H0.5ZM217.2 235.55L218.563 237.013L217.2 235.55ZM217.2 106.85L218.563 105.387L217.2 106.85ZM122.6 84.3V82.3H120.6V84.3H122.6ZM122.6 258.1H120.6V260.1H122.6V258.1ZM162.75 -20.4C203.176 -20.4 238.404 -12.2074 268.497 4.10819L270.403 0.591759C239.63 -16.0927 203.724 -24.4 162.75 -24.4V-20.4ZM268.506 4.11293C298.984 20.4406 322.351 43.0917 338.657 72.0805L342.143 70.1194C325.449 40.4416 301.516 17.2594 270.394 0.587015L268.506 4.11293ZM338.657 72.0805C354.97 101.082 363.15 134.104 363.15 171.2H367.15C367.15 133.496 358.83 99.7844 342.143 70.1194L338.657 72.0805ZM363.15 171.2C363.15 207.925 354.972 240.952 338.652 270.329L342.148 272.271C358.828 242.248 367.15 208.542 367.15 171.2H363.15ZM338.652 270.329C322.339 299.691 298.962 322.895 268.473 339.955L270.427 343.445C301.538 326.038 325.461 302.309 342.148 272.271L338.652 270.329ZM268.481 339.951C238.391 356.627 203.169 365 162.75 365V369C203.731 369 239.643 360.506 270.42 343.449L268.481 339.951ZM162.75 365H0.5V369H162.75V365ZM2.5 367V-22.4H-1.5V367H2.5ZM0.5 -20.4H162.75V-24.4H0.5V-20.4ZM151.75 260.1C179.625 260.1 201.974 252.471 218.563 237.013L215.837 234.087C200.159 248.695 178.875 256.1 151.75 256.1V260.1ZM218.563 237.013C235.204 221.507 243.4 199.466 243.4 171.2H239.4C239.4 198.667 231.462 219.526 215.837 234.087L218.563 237.013ZM243.4 171.2C243.4 142.934 235.204 120.893 218.563 105.387L215.837 108.313C231.462 122.874 239.4 143.733 239.4 171.2H243.4ZM218.563 105.387C201.974 89.9286 179.625 82.3 151.75 82.3V86.3C178.875 86.3 200.159 93.7047 215.837 108.313L218.563 105.387ZM151.75 82.3H122.6V86.3H151.75V82.3ZM120.6 84.3V258.1H124.6V84.3H120.6ZM122.6 260.1H151.75V256.1H122.6V260.1ZM877.29 -22.4H879.29V-24.4H877.29V-22.4ZM877.29 367V369H879.29V367H877.29ZM755.74 367H753.74V369H755.74V367ZM755.74 172.85H757.74L753.829 172.26L755.74 172.85ZM695.79 367V369H697.266L697.701 367.59L695.79 367ZM591.29 367L589.379 367.59L589.815 369H591.29V367ZM531.34 172.85L533.251 172.26L529.34 172.85H531.34ZM531.34 367V369H533.34V367H531.34ZM409.24 367H407.24V369H409.24V367ZM409.24 -22.4V-24.4H407.24V-22.4H409.24ZM558.84 -22.4L560.718 -23.0892L560.237 -24.4H558.84V-22.4ZM644.64 211.35L642.763 212.039L644.665 217.221L646.523 212.023L644.64 211.35ZM728.24 -22.4V-24.4H726.831L726.357 -23.0735L728.24 -22.4ZM875.29 -22.4V367H879.29V-22.4H875.29ZM877.29 365H755.74V369H877.29V365ZM757.74 367V172.85H753.74V367H757.74ZM753.829 172.26L693.879 366.41L697.701 367.59L757.651 173.44L753.829 172.26ZM695.79 365H591.29V369H695.79V365ZM593.201 366.41L533.251 172.26L529.429 173.44L589.379 367.59L593.201 366.41ZM529.34 172.85V367H533.34V172.85H529.34ZM531.34 365H409.24V369H531.34V365ZM411.24 367V-22.4H407.24V367H411.24ZM409.24 -20.4H558.84V-24.4H409.24V-20.4ZM556.963 -21.7108L642.763 212.039L646.518 210.661L560.718 -23.0892L556.963 -21.7108ZM646.523 212.023L730.123 -21.7265L726.357 -23.0735L642.757 210.676L646.523 212.023ZM728.24 -20.4H877.29V-24.4H728.24V-20.4Z" fill="white" mask="url(#path-1-inside-1_7603_2822)"/>
</svg>
