<svg width="147" height="36" viewBox="0 0 147 36" fill="none" xmlns="http://www.w3.org/2000/svg">
<g clip-path="url(#clip0_11708_6722)">
<path d="M89.5522 10.2371C87.1877 10.2371 85.3296 10.7334 83.4706 11.7231C83.4706 6.43871 83.4706 1.64993 83.6407 0L72.3194 1.9808V2.97194L73.502 3.13664C75.0217 3.46677 75.5332 4.29174 75.8657 6.27401C76.2058 10.2371 76.035 31.3745 75.8657 34.8427C78.9065 35.5044 82.118 35.9993 85.3288 35.9993C94.2811 35.9993 99.69 30.5495 99.69 21.9623C99.69 15.192 95.2974 10.2371 89.5522 10.2371ZM85.6666 34.1817C84.9895 34.1817 84.1439 34.1817 83.6354 34.0177C83.4654 31.7061 83.2976 21.9594 83.4654 13.3759C84.4787 13.0451 85.1543 12.8796 85.9998 12.8796C89.7192 12.8796 91.7474 17.1728 91.7474 22.4557C91.7474 29.0635 89.2114 34.1817 85.6628 34.1817H85.6666ZM29.7405 0.660267H0.00390625V2.1455L1.69355 2.31093C3.88874 2.64107 4.73507 3.9616 5.07134 7.09897C5.57989 13.0436 5.40987 23.7784 5.07134 28.8959C4.73356 32.034 3.88949 33.5207 1.69355 33.6839L0.00390625 34.0155V35.339H19.0956V34.0155L17.0681 33.6839C14.8714 33.52 14.0266 32.034 13.6888 28.8959C13.5196 26.7482 13.3503 23.2799 13.3503 18.9875L17.4052 19.1529C19.9404 19.1529 21.1222 21.1344 21.6293 23.9409H23.1504V12.2201H21.6293C21.1207 15.0273 19.9396 17.0081 17.4052 17.0081L13.3511 17.1736C13.3511 11.5591 13.5203 6.27474 13.6903 3.13737H19.6026C24.166 3.13737 26.5312 5.94387 28.2201 10.8988L29.9097 10.4033L29.7405 0.660267Z" fill="black"/>
<path d="M39.3661 9.90807C47.8151 9.90807 52.0385 15.5225 52.0385 22.9531C52.0385 30.0536 47.3073 36.0004 38.8591 36.0004C30.4109 36.0004 26.1875 30.3844 26.1875 22.9531C26.1875 15.8527 30.9179 9.90807 39.3661 9.90807ZM38.8591 11.5595C35.1413 11.5595 34.1279 16.5137 34.1279 22.9561C34.1279 29.2308 35.8176 34.3527 39.1976 34.3527C43.081 34.3527 44.0965 29.3992 44.0965 22.9561C44.0965 16.6784 42.4084 11.5595 38.8591 11.5595ZM101.88 23.1193C101.88 16.3483 106.273 9.90807 114.89 9.90807C121.984 9.90807 125.365 15.0277 125.365 21.7973H109.652C109.482 27.9073 112.523 32.366 118.604 32.366C121.308 32.366 122.659 31.7042 124.35 30.5506L125.027 31.3756C123.338 33.6872 119.621 36.0004 114.891 36.0004C107.288 36.0004 101.881 30.7153 101.881 23.1193H101.88ZM109.652 19.9819L117.593 19.8158C117.593 16.5137 117.085 11.5595 114.214 11.5595C111.342 11.5595 109.82 16.185 109.652 19.9819ZM145.475 11.2323C143.447 10.4058 140.744 9.90881 137.703 9.90881C131.453 9.90881 127.565 13.541 127.565 17.835C127.565 22.1289 130.434 23.945 134.494 25.2663C138.717 26.7515 139.9 27.9081 139.9 29.8896C139.9 31.8711 138.379 33.6843 135.675 33.6843C132.467 33.6843 130.099 31.8689 128.242 26.914L127.061 27.2471L127.231 34.513C129.262 35.3379 132.975 35.9997 136.183 35.9997C142.772 35.9997 146.997 32.6954 146.997 27.5772C146.997 24.109 145.138 22.1282 140.745 20.476C136.013 18.6599 134.325 17.5041 134.325 15.3564C134.325 13.2087 135.848 11.7234 137.876 11.7234C140.915 11.7234 142.942 13.5403 144.466 17.9989L145.647 17.6695L145.475 11.2293V11.2323ZM74.0024 10.5705C71.1309 8.92135 66.0612 9.74484 63.359 15.6909L63.5267 9.91101L52.2078 12.055V13.0462L53.3904 13.2109C54.913 13.377 55.587 14.202 55.7571 16.3497C56.0941 20.3128 55.9256 27.2493 55.7571 30.7168C55.587 32.6961 54.913 33.6872 53.3904 33.8527L52.2078 34.0189V35.3423H67.9209V34.0189L65.8934 33.8527C64.2046 33.6872 63.6968 32.6961 63.5275 30.7168C63.1897 27.5779 63.1897 21.3054 63.3597 17.3401C64.203 16.1836 67.9209 15.1939 71.2994 17.3401L74.0031 10.5683L74.0024 10.5705Z" fill="black"/>
</g>
<defs>
<clipPath id="clip0_11708_6722">
<rect width="147" height="36" fill="white"/>
</clipPath>
</defs>
</svg>
