<svg width="229" height="189" viewBox="0 0 229 189" fill="none" xmlns="http://www.w3.org/2000/svg">
<g clip-path="url(#clip0_9934_4024)">
<path d="M127.855 129L214.458 179" stroke="black" stroke-width="2"/>
<path d="M100.141 129L13.5381 179" stroke="black" stroke-width="2"/>
<path d="M114 105L114 5" stroke="black" stroke-width="2"/>
<circle cx="114" cy="121" r="45" fill="white" stroke="white" stroke-width="10"/>
<g filter="url(#filter0_i_9934_4024)">
<circle cx="114" cy="121" r="39" fill="url(#paint0_angular_9934_4024)"/>
<circle cx="114" cy="121" r="39" fill="white" fill-opacity="0.5"/>
</g>
<path d="M122 121.001C122 116.583 118.418 113.001 114 113.001C109.582 113.001 106 116.583 106 121.001C106 125.42 109.582 129.001 114 129.001C118.418 129.001 122 125.42 122 121.001Z" stroke="black" stroke-width="2" stroke-linecap="round" stroke-linejoin="round"/>
<path d="M114 113.001L114 103.001" stroke="black" stroke-width="2" stroke-linecap="square" stroke-linejoin="round"/>
<path d="M120.926 125.001L129.586 130.001" stroke="black" stroke-width="2" stroke-linecap="square" stroke-linejoin="round"/>
<path d="M107.07 125.001L98.4101 130.001" stroke="black" stroke-width="2" stroke-linecap="square" stroke-linejoin="round"/>
</g>
<defs>
<filter id="filter0_i_9934_4024" x="75" y="82" width="78" height="81" filterUnits="userSpaceOnUse" color-interpolation-filters="sRGB">
<feFlood flood-opacity="0" result="BackgroundImageFix"/>
<feBlend mode="normal" in="SourceGraphic" in2="BackgroundImageFix" result="shape"/>
<feColorMatrix in="SourceAlpha" type="matrix" values="0 0 0 0 0 0 0 0 0 0 0 0 0 0 0 0 0 0 127 0" result="hardAlpha"/>
<feOffset dy="3"/>
<feGaussianBlur stdDeviation="1.5"/>
<feComposite in2="hardAlpha" operator="arithmetic" k2="-1" k3="1"/>
<feColorMatrix type="matrix" values="0 0 0 0 0 0 0 0 0 0 0 0 0 0 0 0 0 0 0.2 0"/>
<feBlend mode="normal" in2="shape" result="effect1_innerShadow_9934_4024"/>
</filter>
<radialGradient id="paint0_angular_9934_4024" cx="0" cy="0" r="1" gradientUnits="userSpaceOnUse" gradientTransform="translate(114 121) rotate(90) scale(39)">
<stop stop-color="#FF0000"/>
<stop offset="0.161458" stop-color="#FAFF00"/>
<stop offset="0.322917" stop-color="#05FB00"/>
<stop offset="0.515625" stop-color="#00FFE0"/>
<stop offset="0.6875" stop-color="#0029FF"/>
<stop offset="0.848958" stop-color="#FF00D6"/>
<stop offset="1" stop-color="#FF0000"/>
</radialGradient>
<clipPath id="clip0_9934_4024">
<rect width="229" height="189" fill="white"/>
</clipPath>
</defs>
</svg>
