<svg width="118" height="94" viewBox="0 0 118 94" fill="none" xmlns="http://www.w3.org/2000/svg">
<g clip-path="url(#clip0_12844_27486)">
<path d="M116.526 42.437C116.944 43.725 116.988 45.1018 116.656 46.4133C116.323 47.7252 115.626 48.9216 114.64 49.867L114.626 49.8802L114.613 49.894L96.7588 68.3794C95.6772 69.3718 94.8687 70.6213 94.411 72.01C93.9549 73.3937 93.8627 74.8693 94.1429 76.2977L96.8194 101.811L96.8207 101.823L96.8222 101.835C96.9989 103.197 96.7992 104.582 96.2433 105.842C95.6933 107.09 94.8142 108.172 93.696 108.974C92.5335 109.645 91.2091 110 89.8592 110C88.4948 110 87.1564 109.638 85.9849 108.952L85.9553 108.935L85.9247 108.919L62.5148 97.2893L62.5104 97.2871C61.1821 96.6142 59.7112 96.2634 58.2192 96.2634C56.7286 96.2634 55.2588 96.6135 53.9316 97.2852L30.343 108.739L30.3081 108.756L30.2747 108.775C29.1031 109.461 27.7648 109.824 26.4003 109.824C25.0478 109.824 23.7209 109.468 22.5568 108.793C21.4331 108.015 20.5595 106.938 20.0368 105.69C19.5095 104.431 19.3608 103.051 19.6077 101.712L19.6104 101.697L19.6126 101.682L23.5442 76.1303L23.5448 76.1268C23.7785 74.6723 23.6653 73.1842 23.214 71.7807C22.7629 70.3781 21.9871 69.0994 20.949 68.0459L20.945 68.0419L3.08577 49.5511C2.15155 48.5301 1.50127 47.2899 1.19644 45.9509C0.89286 44.6174 0.941832 43.2293 1.33859 41.9199C1.81408 40.6539 2.61523 39.5298 3.6656 38.6576C4.7207 37.7815 5.99037 37.1907 7.34979 36.9449L33.2583 32.8923L33.2718 32.8903L33.2852 32.8877C34.7319 32.6208 36.1029 32.0453 37.302 31.2007C38.5012 30.3561 39.4999 29.2625 40.2274 27.9957L40.2366 27.9797L40.2451 27.9634L52.3898 4.89304C53.0804 3.721 54.0696 2.74436 55.2613 2.06115C56.4566 1.37587 57.8138 1.00992 59.1985 1C60.5717 1.02047 61.9128 1.40792 63.0789 2.11977C64.2473 2.83296 65.1953 3.84461 65.8233 5.0452L65.824 5.04641L77.7992 28.1346L77.809 28.1536L77.8197 28.1721C78.5472 29.439 79.5461 30.5324 80.7452 31.3771C81.9444 32.2217 83.3153 32.7974 84.7621 33.0643L84.7759 33.0667M116.526 42.437C116.112 41.166 115.351 40.029 114.324 39.1531M116.526 42.437L114.324 39.1531M84.7759 33.0667L110.696 37.4734L110.701 37.4742M84.7759 33.0667L110.701 37.4742M110.701 37.4742C112.043 37.6957 113.297 38.277 114.324 39.1531M110.701 37.4742L114.324 39.1531" stroke="black" stroke-width="2"/>
</g>
<defs>
<clipPath id="clip0_12844_27486">
<rect width="118" height="111" fill="white"/>
</clipPath>
</defs>
</svg>
