<svg width="267" height="21" viewBox="0 0 267 21" fill="none" xmlns="http://www.w3.org/2000/svg">
<path d="M119.569 0H113.68V4.98344H119.569V0Z" fill="black"/>
<path d="M153.62 0H147.73V4.98344H153.62V0Z" fill="black"/>
<path d="M232.593 0H226.703V4.98344H232.593V0Z" fill="black"/>
<path fill-rule="evenodd" clip-rule="evenodd" d="M13.511 6.35772H21.347V1.10938H0V6.35772H7.83604V20.0001H13.511V6.35772Z" fill="black"/>
<path fill-rule="evenodd" clip-rule="evenodd" d="M30.7027 15.9273C30.7027 13.2617 32.0554 11.904 34.2 11.904C36.3446 11.904 37.5819 13.2617 37.5819 15.9273V20.0001H43.1744V14.1557C43.1744 9.60274 40.6998 6.80472 36.4766 6.80472C35.3291 6.81337 34.2014 7.10659 33.194 7.6583C32.1867 8.21001 31.3308 9.0031 30.7027 9.96698V0.0332031H25.0938V20.0332H30.7027V15.9273Z" fill="black"/>
<path fill-rule="evenodd" clip-rule="evenodd" d="M56.8154 11.308C57.9186 11.3293 58.9703 11.7797 59.749 12.5643C60.5276 13.3488 60.9722 14.4061 60.9892 15.5133H52.5592C53.0046 12.9636 54.5059 11.308 56.8154 11.308ZM52.6252 19.0232H66.3507C66.3507 18.51 66.3507 17.9967 66.3507 17.5497C66.3507 11.9371 63.3317 6.80469 56.7329 6.80469C55.4145 6.82364 54.1132 7.10678 52.9053 7.63745C51.6974 8.16813 50.6074 8.93564 49.6991 9.89495C48.7909 10.8543 48.0828 11.986 47.6164 13.2237C47.1501 14.4615 46.9348 15.7803 46.9833 17.1027V17.1855C46.9838 18.1354 47.1058 19.0813 47.3462 20.0001H52.8397C52.7188 19.6816 52.6196 19.3552 52.5427 19.0232H52.6252Z" fill="black"/>
<path fill-rule="evenodd" clip-rule="evenodd" d="M87.7617 10.1988L94.212 20.0001H95.8287L102.345 10.0829V20.0001H107.97V1.10938H101.867L95.1028 12.0365L88.3226 1.10938H82.2188V20.0001H87.7617V10.1988Z" fill="black"/>
<path d="M119.421 7.16797H113.828V19.9991H119.421V7.16797Z" fill="black"/>
<path fill-rule="evenodd" clip-rule="evenodd" d="M130.278 15.9272C130.278 13.2617 131.647 11.904 133.776 11.904C135.904 11.904 137.174 13.2617 137.174 15.9272V20.0001H142.7V14.1557C142.7 9.6027 140.242 6.80469 136.102 6.80469C134.952 6.81353 133.822 7.1067 132.812 7.65827C131.802 8.20984 130.943 9.00281 130.311 9.96695V7.16893H124.719V20.0001H130.311L130.278 15.9272Z" fill="black"/>
<path d="M153.471 7.16797H147.879V19.9991H153.471V7.16797Z" fill="black"/>
<path fill-rule="evenodd" clip-rule="evenodd" d="M164.327 15.9264C164.327 13.2608 165.614 11.9032 167.709 11.9032C169.804 11.9032 171.008 13.2608 171.008 15.9264V19.9992H176.601V15.9264C176.601 13.2608 177.887 11.9032 179.9 11.9032C181.913 11.9032 183.199 13.2608 183.199 15.9264V19.9992H188.891V14.072C188.891 9.30382 186.383 6.80385 182.292 6.80385C181.027 6.78242 179.773 7.05348 178.629 7.5961C177.485 8.13871 176.48 8.93829 175.693 9.93296C175.163 8.931 174.358 8.1032 173.372 7.54835C172.386 6.9935 171.262 6.73506 170.134 6.80385C168.982 6.81575 167.851 7.1101 166.839 7.66127C165.827 8.21245 164.964 9.00374 164.327 9.96611V7.16809H158.734V19.9992H164.327V15.9264Z" fill="black"/>
<path fill-rule="evenodd" clip-rule="evenodd" d="M201.791 18.2445C203.018 18.2353 204.233 18.4892 205.354 18.9896V19.9829H210.666V15.4631C210.748 14.3211 210.6 13.1742 210.232 12.0906C209.864 11.0069 209.282 10.0087 208.521 9.15511C207.621 8.36769 206.575 7.76641 205.442 7.3857C204.31 7.00499 203.114 6.85235 201.923 6.93657C199.278 6.8865 196.658 7.45325 194.268 8.5922L195.654 12.8638C197.384 12.1636 199.232 11.8038 201.098 11.8041C203.902 11.8041 205.338 13.0955 205.338 15.4134V15.7611C203.793 15.2043 202.162 14.9241 200.52 14.9333C196.297 14.9333 193.229 16.5889 192.668 20.0492H198.161C198.623 18.9068 199.927 18.2942 201.84 18.2942L201.791 18.2445Z" fill="black"/>
<path d="M221.339 0H215.746V20H221.339V0Z" fill="black"/>
<path d="M232.444 7.16797H226.852V19.9991H232.444V7.16797Z" fill="black"/>
<path fill-rule="evenodd" clip-rule="evenodd" d="M246.217 15.0004C244.072 14.2554 242.192 13.7421 242.192 12.6329C242.192 11.8547 242.901 11.2587 244.27 11.2587C246.17 11.434 247.999 12.0704 249.599 13.113L251.727 9.23885C249.546 7.77719 246.991 6.97809 244.369 6.9375C240.394 6.9375 237.16 9.18917 237.16 13.2123V13.2951C237.16 17.1362 240.278 18.4276 243.05 19.2389C244.006 19.5369 244.93 19.7852 245.64 20.0667H252.106C251.628 17.1031 248.807 15.911 246.217 15.0998V15.0004Z" fill="black"/>
<path fill-rule="evenodd" clip-rule="evenodd" d="M262.334 11.9711H266.97V7.16974H262.334V2.10352H256.742V7.16974H254.383V11.9711H256.742V20.0009H262.334V11.9711Z" fill="black"/>
</svg>
