<svg width="18" height="18" viewBox="0 0 18 18" fill="none" xmlns="http://www.w3.org/2000/svg">
<g clip-path="url(#clip0_6630_2086)">
<path d="M4.20152 5.78125H0.580025C0.419297 5.78125 0.289062 5.91154 0.289062 6.07221V17.7065C0.289062 17.8673 0.419297 17.9975 0.580025 17.9975H4.20152C4.36225 17.9975 4.49248 17.8673 4.49248 17.7065V6.07221C4.49248 5.91154 4.36225 5.78125 4.20152 5.78125Z" fill="white"/>
<path d="M2.38973 0C1.07202 0 0 1.07086 0 2.38712C0 3.70396 1.07202 4.77522 2.38973 4.77522C3.7064 4.77522 4.77755 3.7039 4.77755 2.38712C4.77761 1.07086 3.7064 0 2.38973 0Z" fill="white"/>
<path d="M13.4117 5.49219C11.9572 5.49219 10.882 6.11747 10.2298 6.82794V6.07231C10.2298 5.91164 10.0996 5.78135 9.93887 5.78135H6.47065C6.30992 5.78135 6.17969 5.91164 6.17969 6.07231V17.7066C6.17969 17.8674 6.30992 17.9976 6.47065 17.9976H10.0842C10.245 17.9976 10.3752 17.8674 10.3752 17.7066V11.9503C10.3752 10.0106 10.9021 9.25492 12.2542 9.25492C13.7269 9.25492 13.8439 10.4664 13.8439 12.0501V17.7067C13.8439 17.8674 13.9741 17.9976 14.1348 17.9976H17.7498C17.9105 17.9976 18.0407 17.8674 18.0407 17.7067V11.3251C18.0407 8.44075 17.4907 5.49219 13.4117 5.49219Z" fill="white"/>
</g>
<defs>
<clipPath id="clip0_6630_2086">
<rect width="18" height="18" fill="white"/>
</clipPath>
</defs>
</svg>
