<svg width="900" height="339" viewBox="0 0 900 339" fill="none" xmlns="http://www.w3.org/2000/svg">
<mask id="path-1-inside-1_7603_3031" fill="white">
<path d="M493.58 -71.64V339H365.4V134.26L302.18 339H191.98L128.76 134.26V339H4.32134e-07V-71.64H157.76L248.24 174.86L336.4 -71.64H493.58ZM758.16 339L681.02 191.68H680.44V339H551.68V-71.64H743.08C776.333 -71.64 804.753 -65.6467 828.34 -53.66C851.926 -42.06 869.52 -26.0133 881.12 -5.52002C893.106 14.5866 899.1 37.4 899.1 62.92C899.1 90.3733 891.366 114.733 875.9 136C860.82 157.267 838.973 172.54 810.36 181.82L899.68 339H758.16ZM680.44 105.84H731.48C743.853 105.84 753.133 103.133 759.32 97.72C765.506 91.92 768.6 83.0267 768.6 71.04C768.6 60.2133 765.313 51.7067 758.74 45.52C752.553 39.3333 743.466 36.24 731.48 36.24H680.44V105.84Z"/>
</mask>
<path d="M493.58 -71.64H495.58V-73.64H493.58V-71.64ZM493.58 339V341H495.58V339H493.58ZM365.4 339H363.4V341H365.4V339ZM365.4 134.26H367.4L363.489 133.67L365.4 134.26ZM302.18 339V341H303.656L304.091 339.59L302.18 339ZM191.98 339L190.069 339.59L190.504 341H191.98V339ZM128.76 134.26L130.671 133.67L126.76 134.26H128.76ZM128.76 339V341H130.76V339H128.76ZM0 339H-2V341H0V339ZM0 -71.64V-73.64H-2V-71.64H0ZM157.76 -71.64L159.638 -72.3292L159.156 -73.64H157.76V-71.64ZM248.24 174.86L246.362 175.549L248.264 180.731L250.123 175.534L248.24 174.86ZM336.4 -71.64V-73.64H334.991L334.517 -72.3135L336.4 -71.64ZM491.58 -71.64V339H495.58V-71.64H491.58ZM493.58 337H365.4V341H493.58V337ZM367.4 339V134.26H363.4V339H367.4ZM363.489 133.67L300.269 338.41L304.091 339.59L367.311 134.85L363.489 133.67ZM302.18 337H191.98V341H302.18V337ZM193.891 338.41L130.671 133.67L126.849 134.85L190.069 339.59L193.891 338.41ZM126.76 134.26V339H130.76V134.26H126.76ZM128.76 337H0V341H128.76V337ZM2 339V-71.64H-2V339H2ZM0 -69.64H157.76V-73.64H0V-69.64ZM155.883 -70.9508L246.362 175.549L250.118 174.171L159.638 -72.3292L155.883 -70.9508ZM250.123 175.534L338.283 -70.9665L334.517 -72.3135L246.357 174.186L250.123 175.534ZM336.4 -69.64H493.58V-73.64H336.4V-69.64ZM758.16 339L756.388 339.928L756.949 341H758.16V339ZM681.02 191.68L682.792 190.752L682.23 189.68H681.02V191.68ZM680.44 191.68V189.68H678.44V191.68H680.44ZM680.44 339V341H682.44V339H680.44ZM551.68 339H549.68V341H551.68V339ZM551.68 -71.64V-73.64H549.68V-71.64H551.68ZM828.34 -53.66L827.434 -51.8771L827.445 -51.8711L827.457 -51.8653L828.34 -53.66ZM881.12 -5.52002L879.379 -4.53483L879.39 -4.51523L879.402 -4.49589L881.12 -5.52002ZM875.9 136L874.282 134.824L874.275 134.833L874.268 134.843L875.9 136ZM810.36 181.82L809.743 179.918L807.408 180.675L808.621 182.808L810.36 181.82ZM899.68 339V341H903.117L901.419 338.012L899.68 339ZM680.44 105.84H678.44V107.84H680.44V105.84ZM759.32 97.72L760.637 99.2252L760.663 99.2025L760.688 99.1791L759.32 97.72ZM758.74 45.52L757.326 46.9342L757.347 46.9556L757.369 46.9764L758.74 45.52ZM680.44 36.24V34.24H678.44V36.24H680.44ZM759.932 338.072L682.792 190.752L679.248 192.608L756.388 339.928L759.932 338.072ZM681.02 189.68H680.44V193.68H681.02V189.68ZM678.44 191.68V339H682.44V191.68H678.44ZM680.44 337H551.68V341H680.44V337ZM553.68 339V-71.64H549.68V339H553.68ZM551.68 -69.64H743.08V-73.64H551.68V-69.64ZM743.08 -69.64C776.097 -69.64 804.19 -63.6891 827.434 -51.8771L829.246 -55.443C805.316 -67.6042 776.569 -73.64 743.08 -73.64V-69.64ZM827.457 -51.8653C850.727 -40.4213 868 -24.6382 879.379 -4.53483L882.86 -6.50522C871.039 -27.3885 853.126 -43.6987 829.222 -55.4547L827.457 -51.8653ZM879.402 -4.49589C891.187 15.2734 897.1 37.727 897.1 62.92H901.1C901.1 37.073 895.025 13.8998 882.838 -6.54415L879.402 -4.49589ZM897.1 62.92C897.1 89.9705 889.489 113.915 874.282 134.824L877.517 137.176C893.244 115.552 901.1 90.7762 901.1 62.92H897.1ZM874.268 134.843C859.474 155.706 838.012 170.749 809.743 179.918L810.977 183.722C839.934 174.331 862.165 158.827 877.531 137.157L874.268 134.843ZM808.621 182.808L897.941 339.988L901.419 338.012L812.099 180.832L808.621 182.808ZM899.68 337H758.16V341H899.68V337ZM680.44 107.84H731.48V103.84H680.44V107.84ZM731.48 107.84C744.101 107.84 753.94 105.085 760.637 99.2252L758.003 96.2148C752.326 101.182 743.605 103.84 731.48 103.84V107.84ZM760.688 99.1791C767.421 92.8664 770.6 83.346 770.6 71.04H766.6C766.6 82.7073 763.592 90.9735 757.952 96.2609L760.688 99.1791ZM770.6 71.04C770.6 59.7807 767.164 50.7026 760.11 44.0636L757.369 46.9764C763.462 52.7107 766.6 60.6459 766.6 71.04H770.6ZM760.154 44.1058C753.471 37.4226 743.796 34.24 731.48 34.24V38.24C743.137 38.24 751.635 41.244 757.326 46.9342L760.154 44.1058ZM731.48 34.24H680.44V38.24H731.48V34.24ZM678.44 36.24V105.84H682.44V36.24H678.44Z" fill="white" mask="url(#path-1-inside-1_7603_3031)"/>
</svg>
