<svg width="899" height="442" viewBox="0 0 899 442" fill="none" xmlns="http://www.w3.org/2000/svg">
<g clip-path="url(#clip0_10210_4512)">
<mask id="path-1-inside-1_10210_4512" fill="white">
<path d="M360.4 6.8V290H272V148.8L228.4 290H152.4L108.8 148.8V290H20V6.8H128.8L191.2 176.8L252 6.8H360.4ZM542.869 290L489.669 188.4H489.269V290H400.469V6.8H532.469C555.402 6.8 575.002 10.9333 591.269 19.2C607.535 27.2 619.669 38.2667 627.669 52.4C635.935 66.2666 640.069 82 640.069 99.6C640.069 118.533 634.735 135.333 624.069 150C613.669 164.667 598.602 175.2 578.869 181.6L640.469 290H542.869ZM489.269 129.2H524.469C533.002 129.2 539.402 127.333 543.669 123.6C547.935 119.6 550.069 113.467 550.069 105.2C550.069 97.7333 547.802 91.8667 543.269 87.6C539.002 83.3333 532.735 81.2 524.469 81.2H489.269V129.2ZM779.238 292.8C745.371 292.8 717.371 284.933 695.238 269.2C673.371 253.2 661.504 229.867 659.638 199.2H754.037C755.371 215.467 762.571 223.6 775.638 223.6C780.438 223.6 784.438 222.533 787.638 220.4C791.104 218 792.838 214.4 792.838 209.6C792.838 202.933 789.238 197.6 782.038 193.6C774.838 189.333 763.638 184.533 748.438 179.2C730.304 172.8 715.238 166.533 703.238 160.4C691.504 154.267 681.371 145.333 672.838 133.6C664.304 121.867 660.171 106.8 660.438 88.4C660.438 70 665.104 54.4 674.438 41.6C684.038 28.5333 696.971 18.6667 713.238 12C729.771 5.33332 748.304 1.99999 768.838 1.99999C803.504 1.99999 830.971 9.99999 851.238 26C871.771 42 882.571 64.5333 883.637 93.6H788.038C787.771 85.6 785.771 79.8667 782.038 76.4C778.304 72.9333 773.771 71.2 768.438 71.2C764.704 71.2 761.638 72.5333 759.238 75.2C756.838 77.6 755.638 81.0667 755.638 85.6C755.638 92 759.104 97.3333 766.037 101.6C773.238 105.6 784.571 110.533 800.038 116.4C817.904 123.067 832.571 129.467 844.038 135.6C855.771 141.733 865.904 150.267 874.437 161.2C882.971 172.133 887.238 185.867 887.238 202.4C887.238 219.733 882.971 235.333 874.437 249.2C865.904 262.8 853.504 273.467 837.238 281.2C820.971 288.933 801.638 292.8 779.238 292.8Z"/>
</mask>
<path d="M360.4 6.8H362.4V4.8H360.4V6.8ZM360.4 290V292H362.4V290H360.4ZM272 290H270V292H272V290ZM272 148.8H274L270.089 148.21L272 148.8ZM228.4 290V292H229.876L230.311 290.59L228.4 290ZM152.4 290L150.489 290.59L150.924 292H152.4V290ZM108.8 148.8L110.711 148.21L106.8 148.8H108.8ZM108.8 290V292H110.8V290H108.8ZM20 290H18V292H20V290ZM20 6.8V4.8H18V6.8H20ZM128.8 6.8L130.678 6.11084L130.196 4.8H128.8V6.8ZM191.2 176.8L189.322 177.489L191.224 182.671L193.083 177.474L191.2 176.8ZM252 6.8V4.8H250.591L250.117 6.12648L252 6.8ZM358.4 6.8V290H362.4V6.8H358.4ZM360.4 288H272V292H360.4V288ZM274 290V148.8H270V290H274ZM270.089 148.21L226.489 289.41L230.311 290.59L273.911 149.39L270.089 148.21ZM228.4 288H152.4V292H228.4V288ZM154.311 289.41L110.711 148.21L106.889 149.39L150.489 290.59L154.311 289.41ZM106.8 148.8V290H110.8V148.8H106.8ZM108.8 288H20V292H108.8V288ZM22 290V6.8H18V290H22ZM20 8.8H128.8V4.8H20V8.8ZM126.922 7.48916L189.322 177.489L193.078 176.111L130.678 6.11084L126.922 7.48916ZM193.083 177.474L253.883 7.47351L250.117 6.12648L189.317 176.126L193.083 177.474ZM252 8.8H360.4V4.8H252V8.8ZM542.869 290L541.097 290.928L541.658 292H542.869V290ZM489.669 188.4L491.441 187.472L490.879 186.4H489.669V188.4ZM489.269 188.4V186.4H487.269V188.4H489.269ZM489.269 290V292H491.269V290H489.269ZM400.469 290H398.469V292H400.469V290ZM400.469 6.8V4.8H398.469V6.8H400.469ZM591.269 19.2L590.363 20.983L590.374 20.9889L590.386 20.9947L591.269 19.2ZM627.669 52.4L625.928 53.3852L625.939 53.4048L625.951 53.4241L627.669 52.4ZM624.069 150L622.451 148.824L622.444 148.833L622.437 148.843L624.069 150ZM578.869 181.6L578.252 179.698L575.917 180.455L577.13 182.588L578.869 181.6ZM640.469 290V292H643.906L642.208 289.012L640.469 290ZM489.269 129.2H487.269V131.2H489.269V129.2ZM543.669 123.6L544.986 125.105L545.012 125.083L545.037 125.059L543.669 123.6ZM543.269 87.6L541.855 89.0142L541.876 89.0356L541.898 89.0564L543.269 87.6ZM489.269 81.2V79.2H487.269V81.2H489.269ZM544.641 289.072L491.441 187.472L487.897 189.328L541.097 290.928L544.641 289.072ZM489.669 186.4H489.269V190.4H489.669V186.4ZM487.269 188.4V290H491.269V188.4H487.269ZM489.269 288H400.469V292H489.269V288ZM402.469 290V6.8H398.469V290H402.469ZM400.469 8.8H532.469V4.8H400.469V8.8ZM532.469 8.8C555.166 8.8 574.44 12.8909 590.363 20.983L592.175 17.417C575.565 8.97576 555.638 4.8 532.469 4.8V8.8ZM590.386 20.9947C606.336 28.8387 618.149 39.6418 625.928 53.3852L629.409 51.4148C621.189 36.8915 608.735 25.5613 592.151 17.4053L590.386 20.9947ZM625.951 53.4241C634.016 66.9534 638.069 82.327 638.069 99.6H642.069C642.069 81.673 637.854 65.5799 629.387 51.3759L625.951 53.4241ZM638.069 99.6C638.069 118.13 632.858 134.515 622.451 148.824L625.686 151.176C636.613 136.152 642.069 118.936 642.069 99.6H638.069ZM622.437 148.843C612.323 163.106 597.641 173.409 578.252 179.698L579.486 183.502C599.563 176.991 615.014 166.227 625.7 151.157L622.437 148.843ZM577.13 182.588L638.73 290.988L642.208 289.012L580.608 180.612L577.13 182.588ZM640.469 288H542.869V292H640.469V288ZM489.269 131.2H524.469V127.2H489.269V131.2ZM524.469 131.2C533.25 131.2 540.209 129.285 544.986 125.105L542.352 122.095C538.595 125.382 532.755 127.2 524.469 127.2V131.2ZM545.037 125.059C549.85 120.546 552.069 113.786 552.069 105.2H548.069C548.069 113.147 546.021 118.654 542.301 122.141L545.037 125.059ZM552.069 105.2C552.069 97.3007 549.653 90.8626 544.639 86.1436L541.898 89.0564C545.951 92.8707 548.069 98.1659 548.069 105.2H552.069ZM544.683 86.1858C539.92 81.4226 533.065 79.2 524.469 79.2V83.2C532.406 83.2 538.084 85.2441 541.855 89.0142L544.683 86.1858ZM524.469 79.2H489.269V83.2H524.469V79.2ZM487.269 81.2V129.2H491.269V81.2H487.269ZM695.237 269.2L694.056 270.814L694.068 270.822L694.079 270.83L695.237 269.2ZM659.638 199.2V197.2H657.512L657.641 199.322L659.638 199.2ZM754.037 199.2L756.031 199.037L755.88 197.2H754.037V199.2ZM787.638 220.4L788.747 222.064L788.761 222.054L788.776 222.044L787.638 220.4ZM782.038 193.6L781.018 195.321L781.042 195.335L781.066 195.348L782.038 193.6ZM748.438 179.2L747.772 181.086L747.775 181.087L748.438 179.2ZM703.237 160.4L702.311 162.172L702.319 162.177L702.327 162.181L703.237 160.4ZM672.838 133.6L674.455 132.424L672.838 133.6ZM660.438 88.4L662.437 88.429L662.438 88.4145V88.4H660.438ZM674.438 41.6L672.826 40.4158L672.821 40.4216L674.438 41.6ZM713.237 12L712.49 10.1451L712.479 10.1494L713.237 12ZM851.237 26L849.998 27.5698L850.008 27.5776L851.237 26ZM883.638 93.6V95.6H885.712L885.636 93.5266L883.638 93.6ZM788.037 93.6L786.039 93.6666L786.103 95.6H788.037V93.6ZM759.237 75.2L760.652 76.6142L760.689 76.577L760.724 76.5379L759.237 75.2ZM766.037 101.6L764.989 103.303L765.027 103.327L765.066 103.348L766.037 101.6ZM800.037 116.4L799.328 118.27L799.338 118.274L800.037 116.4ZM844.038 135.6L843.094 137.364L843.103 137.368L843.111 137.372L844.038 135.6ZM874.438 161.2L872.861 162.431L874.438 161.2ZM874.438 249.2L876.132 250.263L876.136 250.256L876.141 250.248L874.438 249.2ZM837.237 281.2L836.379 279.394L837.237 281.2ZM779.237 290.8C745.682 290.8 718.115 283.009 696.396 267.57L694.079 270.83C716.626 286.858 745.059 294.8 779.237 294.8V290.8ZM696.419 267.586C675.1 251.987 663.47 229.24 661.634 199.078L657.641 199.322C659.539 230.493 671.642 254.413 694.056 270.814L696.419 267.586ZM659.638 201.2H754.037V197.2H659.638V201.2ZM752.044 199.363C752.729 207.722 754.942 214.309 758.94 218.826C762.996 223.408 768.658 225.6 775.638 225.6V221.6C769.55 221.6 765.079 219.726 761.935 216.174C758.733 212.558 756.679 206.945 756.031 199.037L752.044 199.363ZM775.638 225.6C780.734 225.6 785.145 224.465 788.747 222.064L786.528 218.736C783.73 220.601 780.141 221.6 775.638 221.6V225.6ZM788.776 222.044C792.863 219.215 794.838 214.951 794.838 209.6H790.838C790.838 213.849 789.345 216.785 786.499 218.756L788.776 222.044ZM794.838 209.6C794.838 202.026 790.668 196.107 783.009 191.852L781.066 195.348C787.807 199.093 790.838 203.841 790.838 209.6H794.838ZM783.057 191.879C775.683 187.51 764.332 182.658 749.1 177.313L747.775 181.087C762.943 186.409 773.992 191.157 781.018 195.321L783.057 191.879ZM749.103 177.314C731.021 170.932 716.043 164.699 704.148 158.619L702.327 162.181C714.432 168.368 729.587 174.668 747.772 181.086L749.103 177.314ZM704.164 158.628C692.729 152.65 682.825 143.932 674.455 132.424L671.22 134.776C679.917 146.735 690.279 155.883 702.311 162.172L704.164 158.628ZM674.455 132.424C666.237 121.124 662.175 106.514 662.437 88.429L658.438 88.371C658.167 107.086 662.371 122.609 671.22 134.776L674.455 132.424ZM662.438 88.4C662.438 70.3527 667.008 55.183 676.054 42.7783L672.821 40.4216C663.2 53.617 658.438 69.6473 658.438 88.4H662.438ZM676.049 42.7841C685.413 30.0387 698.04 20.39 713.996 13.8506L712.479 10.1494C695.902 16.9433 682.662 27.0279 672.826 40.4158L676.049 42.7841ZM713.985 13.8549C730.248 7.29747 748.522 3.99999 768.838 3.99999V-1.14441e-05C748.086 -1.14441e-05 729.294 3.36917 712.49 10.1451L713.985 13.8549ZM768.838 3.99999C803.208 3.99999 830.189 11.9306 849.998 27.5698L852.477 24.4302C831.753 8.06935 803.8 -1.14441e-05 768.838 -1.14441e-05V3.99999ZM850.008 27.5776C870.017 43.169 880.591 65.1191 881.639 93.6733L885.636 93.5266C884.551 63.9476 873.524 40.831 852.467 24.4224L850.008 27.5776ZM883.638 91.6H788.037V95.6H883.638V91.6ZM790.036 93.5334C789.762 85.296 787.696 78.9247 783.398 74.9344L780.677 77.8656C783.846 80.8086 785.78 85.904 786.039 93.6666L790.036 93.5334ZM783.398 74.9344C779.276 71.1069 774.25 69.2 768.438 69.2V73.2C773.292 73.2 777.332 74.7597 780.677 77.8656L783.398 74.9344ZM768.438 69.2C764.163 69.2 760.547 70.7549 757.751 73.8621L760.724 76.5379C762.728 74.3117 765.245 73.2 768.438 73.2V69.2ZM757.823 73.7858C754.936 76.6734 753.638 80.72 753.638 85.6H757.638C757.638 81.4133 758.739 78.5266 760.652 76.6142L757.823 73.7858ZM753.638 85.6C753.638 92.8862 757.649 98.7859 764.989 103.303L767.086 99.8967C760.56 95.8807 757.638 91.1137 757.638 85.6H753.638ZM765.066 103.348C772.398 107.421 783.842 112.396 799.328 118.27L800.747 114.53C785.299 108.671 774.077 103.779 767.009 99.8517L765.066 103.348ZM799.338 118.274C817.156 124.922 831.733 131.287 843.094 137.364L844.981 133.836C833.408 127.646 818.652 121.211 800.737 114.526L799.338 118.274ZM843.111 137.372C854.579 143.367 864.495 151.711 872.861 162.431L876.014 159.969C867.314 148.822 856.962 140.099 844.964 133.828L843.111 137.372ZM872.861 162.431C881.07 172.948 885.237 186.224 885.237 202.4H889.237C889.237 185.509 884.872 171.318 876.014 159.969L872.861 162.431ZM885.237 202.4C885.237 219.388 881.061 234.621 872.734 248.152L876.141 250.248C884.881 236.046 889.237 220.079 889.237 202.4H885.237ZM872.743 248.137C864.436 261.377 852.345 271.803 836.379 279.394L838.096 283.006C854.663 275.13 867.372 264.223 876.132 250.263L872.743 248.137ZM836.379 279.394C820.438 286.972 801.411 290.8 779.237 290.8V294.8C801.864 294.8 821.504 290.894 838.096 283.006L836.379 279.394Z" fill="white" mask="url(#path-1-inside-1_10210_4512)"/>
</g>
<defs>
<clipPath id="clip0_10210_4512">
<rect width="899" height="442" fill="white"/>
</clipPath>
</defs>
</svg>
