<svg width="868" height="279" viewBox="0 0 868 279" fill="none" xmlns="http://www.w3.org/2000/svg">
<mask id="path-1-inside-1_7603_3031" fill="white">
<path d="M340.4 -7.2V276H252V134.8L208.4 276H132.4L88.8 134.8V276H2.98023e-07V-7.2H108.8L171.2 162.8L232 -7.2H340.4ZM522.869 276L469.669 174.4H469.269V276H380.469V-7.2H512.469C535.402 -7.2 555.002 -3.06667 571.269 5.19998C587.535 13.2 599.669 24.2667 607.669 38.4C615.935 52.2666 620.069 68 620.069 85.6C620.069 104.533 614.735 121.333 604.069 136C593.669 150.667 578.602 161.2 558.869 167.6L620.469 276H522.869ZM469.269 115.2H504.469C513.002 115.2 519.402 113.333 523.669 109.6C527.935 105.6 530.069 99.4667 530.069 91.2C530.069 83.7333 527.802 77.8667 523.269 73.6C519.002 69.3333 512.735 67.2 504.469 67.2H469.269V115.2ZM759.238 278.8C725.371 278.8 697.371 270.933 675.238 255.2C653.371 239.2 641.504 215.867 639.638 185.2H734.037C735.371 201.467 742.571 209.6 755.638 209.6C760.438 209.6 764.438 208.533 767.638 206.4C771.104 204 772.838 200.4 772.838 195.6C772.838 188.933 769.238 183.6 762.038 179.6C754.838 175.333 743.638 170.533 728.438 165.2C710.304 158.8 695.238 152.533 683.238 146.4C671.504 140.267 661.371 131.333 652.838 119.6C644.304 107.867 640.171 92.8 640.438 74.4C640.438 56 645.104 40.4 654.438 27.6C664.038 14.5333 676.971 4.66666 693.238 -2.00002C709.771 -8.66668 728.304 -12 748.838 -12C783.504 -12 810.971 -4.00001 831.238 12C851.771 28 862.571 50.5333 863.637 79.6H768.038C767.771 71.6 765.771 65.8667 762.038 62.4C758.304 58.9333 753.771 57.2 748.438 57.2C744.704 57.2 741.638 58.5333 739.238 61.2C736.838 63.6 735.638 67.0667 735.638 71.6C735.638 78 739.104 83.3333 746.037 87.6C753.238 91.6 764.571 96.5333 780.038 102.4C797.904 109.067 812.571 115.467 824.038 121.6C835.771 127.733 845.904 136.267 854.437 147.2C862.971 158.133 867.238 171.867 867.238 188.4C867.238 205.733 862.971 221.333 854.437 235.2C845.904 248.8 833.504 259.467 817.238 267.2C800.971 274.933 781.638 278.8 759.238 278.8Z"/>
</mask>
<path d="M340.4 -7.2H342.4V-9.2H340.4V-7.2ZM340.4 276V278H342.4V276H340.4ZM252 276H250V278H252V276ZM252 134.8H254L250.089 134.21L252 134.8ZM208.4 276V278H209.876L210.311 276.59L208.4 276ZM132.4 276L130.489 276.59L130.924 278H132.4V276ZM88.8 134.8L90.711 134.21L86.8 134.8H88.8ZM88.8 276V278H90.8V276H88.8ZM0 276H-2V278H0V276ZM0 -7.2V-9.2H-2V-7.2H0ZM108.8 -7.2L110.678 -7.88916L110.196 -9.2H108.8V-7.2ZM171.2 162.8L169.322 163.489L171.224 168.671L173.083 163.474L171.2 162.8ZM232 -7.2V-9.2H230.591L230.117 -7.87352L232 -7.2ZM338.4 -7.2V276H342.4V-7.2H338.4ZM340.4 274H252V278H340.4V274ZM254 276V134.8H250V276H254ZM250.089 134.21L206.489 275.41L210.311 276.59L253.911 135.39L250.089 134.21ZM208.4 274H132.4V278H208.4V274ZM134.311 275.41L90.711 134.21L86.889 135.39L130.489 276.59L134.311 275.41ZM86.8 134.8V276H90.8V134.8H86.8ZM88.8 274H0V278H88.8V274ZM2 276V-7.2H-2V276H2ZM0 -5.2H108.8V-9.2H0V-5.2ZM106.922 -6.51084L169.322 163.489L173.078 162.111L110.678 -7.88916L106.922 -6.51084ZM173.083 163.474L233.883 -6.52649L230.117 -7.87352L169.317 162.126L173.083 163.474ZM232 -5.2H340.4V-9.2H232V-5.2ZM522.869 276L521.097 276.928L521.658 278H522.869V276ZM469.669 174.4L471.441 173.472L470.879 172.4H469.669V174.4ZM469.269 174.4V172.4H467.269V174.4H469.269ZM469.269 276V278H471.269V276H469.269ZM380.469 276H378.469V278H380.469V276ZM380.469 -7.2V-9.2H378.469V-7.2H380.469ZM571.269 5.19998L570.363 6.98295L570.374 6.98889L570.386 6.99468L571.269 5.19998ZM607.669 38.4L605.928 39.3852L605.939 39.4048L605.951 39.4241L607.669 38.4ZM604.069 136L602.451 134.824L602.444 134.833L602.437 134.843L604.069 136ZM558.869 167.6L558.252 165.698L555.917 166.455L557.13 168.588L558.869 167.6ZM620.469 276V278H623.906L622.208 275.012L620.469 276ZM469.269 115.2H467.269V117.2H469.269V115.2ZM523.669 109.6L524.986 111.105L525.012 111.083L525.037 111.059L523.669 109.6ZM523.269 73.6L521.855 75.0142L521.876 75.0356L521.898 75.0564L523.269 73.6ZM469.269 67.2V65.2H467.269V67.2H469.269ZM524.641 275.072L471.441 173.472L467.897 175.328L521.097 276.928L524.641 275.072ZM469.669 172.4H469.269V176.4H469.669V172.4ZM467.269 174.4V276H471.269V174.4H467.269ZM469.269 274H380.469V278H469.269V274ZM382.469 276V-7.2H378.469V276H382.469ZM380.469 -5.2H512.469V-9.2H380.469V-5.2ZM512.469 -5.2C535.166 -5.2 554.44 -1.10911 570.363 6.98295L572.175 3.41701C555.565 -5.02424 535.638 -9.2 512.469 -9.2V-5.2ZM570.386 6.99468C586.336 14.8387 598.149 25.6418 605.928 39.3852L609.409 37.4148C601.189 22.8915 588.735 11.5613 572.151 3.40528L570.386 6.99468ZM605.951 39.4241C614.016 52.9534 618.069 68.327 618.069 85.6H622.069C622.069 67.673 617.854 51.5799 609.387 37.3759L605.951 39.4241ZM618.069 85.6C618.069 104.13 612.858 120.515 602.451 134.824L605.686 137.176C616.613 122.152 622.069 104.936 622.069 85.6H618.069ZM602.437 134.843C592.323 149.106 577.641 159.409 558.252 165.698L559.486 169.502C579.563 162.991 595.014 152.227 605.7 137.157L602.437 134.843ZM557.13 168.588L618.73 276.988L622.208 275.012L560.608 166.612L557.13 168.588ZM620.469 274H522.869V278H620.469V274ZM469.269 117.2H504.469V113.2H469.269V117.2ZM504.469 117.2C513.25 117.2 520.209 115.285 524.986 111.105L522.352 108.095C518.595 111.382 512.755 113.2 504.469 113.2V117.2ZM525.037 111.059C529.85 106.546 532.069 99.786 532.069 91.2H528.069C528.069 99.1473 526.021 104.654 522.301 108.141L525.037 111.059ZM532.069 91.2C532.069 83.3007 529.653 76.8626 524.639 72.1436L521.898 75.0564C525.951 78.8707 528.069 84.1659 528.069 91.2H532.069ZM524.683 72.1858C519.92 67.4226 513.065 65.2 504.469 65.2V69.2C512.406 69.2 518.084 71.2441 521.855 75.0142L524.683 72.1858ZM504.469 65.2H469.269V69.2H504.469V65.2ZM467.269 67.2V115.2H471.269V67.2H467.269ZM675.237 255.2L674.056 256.814L674.068 256.822L674.079 256.83L675.237 255.2ZM639.638 185.2V183.2H637.512L637.641 185.322L639.638 185.2ZM734.037 185.2L736.031 185.037L735.88 183.2H734.037V185.2ZM767.638 206.4L768.747 208.064L768.761 208.054L768.776 208.044L767.638 206.4ZM762.038 179.6L761.018 181.321L761.042 181.335L761.066 181.348L762.038 179.6ZM728.438 165.2L727.772 167.086L727.775 167.087L728.438 165.2ZM683.237 146.4L682.311 148.172L682.319 148.177L682.327 148.181L683.237 146.4ZM652.838 119.6L654.455 118.424L652.838 119.6ZM640.438 74.4L642.437 74.429L642.438 74.4145V74.4H640.438ZM654.438 27.6L652.826 26.4158L652.821 26.4216L654.438 27.6ZM693.237 -2.00002L692.49 -3.85493L692.479 -3.85063L693.237 -2.00002ZM831.237 12L829.998 13.5698L830.008 13.5776L831.237 12ZM863.638 79.6V81.6H865.712L865.636 79.5266L863.638 79.6ZM768.037 79.6L766.039 79.6666L766.103 81.6H768.037V79.6ZM739.237 61.2L740.652 62.6142L740.689 62.577L740.724 62.5379L739.237 61.2ZM746.037 87.6L744.989 89.3033L745.027 89.3267L745.066 89.3483L746.037 87.6ZM780.037 102.4L779.328 104.27L779.338 104.274L780.037 102.4ZM824.038 121.6L823.094 123.364L823.103 123.368L823.111 123.372L824.038 121.6ZM854.438 147.2L852.861 148.431L854.438 147.2ZM854.438 235.2L856.132 236.263L856.136 236.256L856.141 236.248L854.438 235.2ZM817.237 267.2L816.379 265.394L817.237 267.2ZM759.237 276.8C725.682 276.8 698.115 269.009 676.396 253.57L674.079 256.83C696.626 272.858 725.059 280.8 759.237 280.8V276.8ZM676.419 253.586C655.1 237.987 643.47 215.24 641.634 185.078L637.641 185.322C639.539 216.493 651.642 240.413 674.056 256.814L676.419 253.586ZM639.638 187.2H734.037V183.2H639.638V187.2ZM732.044 185.363C732.729 193.722 734.942 200.309 738.94 204.826C742.996 209.408 748.658 211.6 755.638 211.6V207.6C749.55 207.6 745.079 205.726 741.935 202.174C738.733 198.558 736.679 192.945 736.031 185.037L732.044 185.363ZM755.638 211.6C760.734 211.6 765.145 210.465 768.747 208.064L766.528 204.736C763.73 206.601 760.141 207.6 755.638 207.6V211.6ZM768.776 208.044C772.863 205.215 774.838 200.951 774.838 195.6H770.838C770.838 199.849 769.345 202.785 766.499 204.756L768.776 208.044ZM774.838 195.6C774.838 188.026 770.668 182.107 763.009 177.852L761.066 181.348C767.807 185.093 770.838 189.841 770.838 195.6H774.838ZM763.057 177.879C755.683 173.51 744.332 168.658 729.1 163.313L727.775 167.087C742.943 172.409 753.992 177.157 761.018 181.321L763.057 177.879ZM729.103 163.314C711.021 156.932 696.043 150.699 684.148 144.619L682.327 148.181C694.432 154.368 709.587 160.668 727.772 167.086L729.103 163.314ZM684.164 144.628C672.729 138.65 662.825 129.932 654.455 118.424L651.22 120.776C659.917 132.735 670.279 141.883 682.311 148.172L684.164 144.628ZM654.455 118.424C646.237 107.124 642.175 92.5137 642.437 74.429L638.438 74.371C638.167 93.0863 642.371 108.609 651.22 120.776L654.455 118.424ZM642.438 74.4C642.438 56.3527 647.008 41.183 656.054 28.7783L652.821 26.4216C643.2 39.617 638.438 55.6473 638.438 74.4H642.438ZM656.049 28.7841C665.413 16.0387 678.04 6.38997 693.996 -0.149411L692.479 -3.85063C675.902 2.94334 662.662 13.0279 652.826 26.4158L656.049 28.7841ZM693.985 -0.145138C710.248 -6.70253 728.522 -10 748.838 -10V-14C728.086 -14 709.294 -10.6308 692.49 -3.8549L693.985 -0.145138ZM748.838 -10C783.208 -10 810.189 -2.06938 829.998 13.5698L832.477 10.4302C811.753 -5.93065 783.8 -14 748.838 -14V-10ZM830.008 13.5776C850.017 29.169 860.591 51.1191 861.639 79.6733L865.636 79.5266C864.551 49.9476 853.524 26.831 832.467 10.4224L830.008 13.5776ZM863.638 77.6H768.037V81.6H863.638V77.6ZM770.036 79.5334C769.762 71.296 767.696 64.9247 763.398 60.9344L760.677 63.8656C763.846 66.8086 765.78 71.904 766.039 79.6666L770.036 79.5334ZM763.398 60.9344C759.276 57.1069 754.25 55.2 748.438 55.2V59.2C753.292 59.2 757.332 60.7597 760.677 63.8656L763.398 60.9344ZM748.438 55.2C744.163 55.2 740.547 56.7549 737.751 59.8621L740.724 62.5379C742.728 60.3117 745.245 59.2 748.438 59.2V55.2ZM737.823 59.7858C734.936 62.6734 733.638 66.72 733.638 71.6H737.638C737.638 67.4133 738.739 64.5266 740.652 62.6142L737.823 59.7858ZM733.638 71.6C733.638 78.8862 737.649 84.7859 744.989 89.3033L747.086 85.8967C740.56 81.8807 737.638 77.1137 737.638 71.6H733.638ZM745.066 89.3483C752.398 93.4213 763.842 98.396 779.328 104.27L780.747 100.53C765.299 94.6707 754.077 89.7786 747.009 85.8517L745.066 89.3483ZM779.338 104.274C797.156 110.922 811.733 117.287 823.094 123.364L824.981 119.836C813.408 113.646 798.652 107.211 780.737 100.526L779.338 104.274ZM823.111 123.372C834.579 129.367 844.495 137.711 852.861 148.431L856.014 145.969C847.314 134.822 836.962 126.099 824.964 119.828L823.111 123.372ZM852.861 148.431C861.07 158.948 865.237 172.224 865.237 188.4H869.237C869.237 171.509 864.872 157.318 856.014 145.969L852.861 148.431ZM865.237 188.4C865.237 205.388 861.061 220.621 852.734 234.152L856.141 236.248C864.881 222.046 869.237 206.079 869.237 188.4H865.237ZM852.743 234.137C844.436 247.377 832.345 257.803 816.379 265.394L818.096 269.006C834.663 261.13 847.372 250.223 856.132 236.263L852.743 234.137ZM816.379 265.394C800.438 272.972 781.411 276.8 759.237 276.8V280.8C781.864 280.8 801.504 276.894 818.096 269.006L816.379 265.394Z" fill="white" mask="url(#path-1-inside-1_7603_3031)"/>
</svg>
