<svg width="1082" height="210" viewBox="0 0 1082 210" fill="none" xmlns="http://www.w3.org/2000/svg">
<path d="M213.25 31H213.75V30.5H213.25V31ZM213.25 208V208.5H213.75V208H213.25ZM158 208H157.5V208.5H158V208ZM158 119.75H158.5L157.522 119.602L158 119.75ZM130.75 208V208.5H131.119L131.228 208.148L130.75 208ZM83.25 208L82.7723 208.148L82.8811 208.5H83.25V208ZM56 119.75L56.4777 119.602L55.5 119.75H56ZM56 208V208.5H56.5V208H56ZM0.5 208H1.86265e-07V208.5H0.5V208ZM0.5 31V30.5H1.86265e-07V31H0.5ZM68.5 31L68.9694 30.8277L68.8491 30.5H68.5V31ZM107.5 137.25L107.031 137.422L107.506 138.718L107.971 137.418L107.5 137.25ZM145.5 31V30.5H145.148L145.029 30.8316L145.5 31ZM212.75 31V208H213.75V31H212.75ZM213.25 207.5H158V208.5H213.25V207.5ZM158.5 208V119.75H157.5V208H158.5ZM157.522 119.602L130.272 207.852L131.228 208.148L158.478 119.898L157.522 119.602ZM130.75 207.5H83.25V208.5H130.75V207.5ZM83.7277 207.852L56.4777 119.602L55.5223 119.898L82.7723 208.148L83.7277 207.852ZM55.5 119.75V208H56.5V119.75H55.5ZM56 207.5H0.5V208.5H56V207.5ZM1 208V31H1.86265e-07V208H1ZM0.5 31.5H68.5V30.5H0.5V31.5ZM68.0306 31.1723L107.031 137.422L107.969 137.078L68.9694 30.8277L68.0306 31.1723ZM107.971 137.418L145.971 31.1684L145.029 30.8316L107.029 137.082L107.971 137.418ZM145.5 31.5H213.25V30.5H145.5V31.5ZM387.543 67H388.043V66.5H387.543V67ZM387.543 208V208.5H388.043V208H387.543ZM332.043 208H331.543V208.5H332.043V208ZM332.043 186.5H332.543V184.813L331.624 186.228L332.043 186.5ZM314.543 202.75L314.296 202.315L314.292 202.318L314.543 202.75ZM250.793 192.75L250.408 193.07L250.411 193.073L250.793 192.75ZM237.293 67V66.5H236.793V67H237.293ZM292.543 67H293.043V66.5H292.543V67ZM297.793 157.75L297.417 158.079L297.424 158.088L297.432 158.096L297.793 157.75ZM326.793 157.75L327.162 158.087L327.169 158.079L326.793 157.75ZM332.043 67V66.5H331.543V67H332.043ZM387.043 67V208H388.043V67H387.043ZM387.543 207.5H332.043V208.5H387.543V207.5ZM332.543 208V186.5H331.543V208H332.543ZM331.624 186.228C327.337 192.823 321.564 198.186 314.296 202.315L314.79 203.185C322.189 198.981 328.083 193.51 332.462 186.772L331.624 186.228ZM314.292 202.318C307.216 206.432 298.723 208.5 288.793 208.5V209.5C298.863 209.5 307.537 207.402 314.794 203.182L314.292 202.318ZM288.793 208.5C272.75 208.5 260.232 203.132 251.175 192.427L250.411 193.073C259.687 204.035 272.502 209.5 288.793 209.5V208.5ZM251.178 192.43C242.273 181.712 237.793 167.17 237.793 148.75H236.793C236.793 167.33 241.313 182.122 250.408 193.07L251.178 192.43ZM237.793 148.75V67H236.793V148.75H237.793ZM237.293 67.5H292.543V66.5H237.293V67.5ZM292.043 67V141.75H293.043V67H292.043ZM292.043 141.75C292.043 148.506 293.818 153.967 297.417 158.079L298.169 157.421C294.768 153.533 293.043 148.327 293.043 141.75H292.043ZM297.432 158.096C301.205 162.041 306.176 164 312.293 164V163C306.41 163 301.714 161.126 298.154 157.404L297.432 158.096ZM312.293 164C318.571 164 323.55 162.044 327.162 158.087L326.424 157.413C323.036 161.123 318.348 163 312.293 163V164ZM327.169 158.079C330.768 153.967 332.543 148.506 332.543 141.75H331.543C331.543 148.327 329.818 153.533 326.417 157.421L327.169 158.079ZM332.543 141.75V67H331.543V141.75H332.543ZM332.043 67.5H387.543V66.5H332.043V67.5ZM642.609 82.25L642.239 82.5861L642.242 82.5891L642.609 82.25ZM657.609 208V208.5H658.109V208H657.609ZM602.359 208H601.859V208.5H602.359V208ZM596.859 119.25L596.506 119.604L596.514 119.612L596.523 119.62L596.859 119.25ZM568.109 119.25L568.454 119.612L568.463 119.604L568.109 119.25ZM562.859 208V208.5H563.359V208H562.859ZM507.609 208H507.109V208.5H507.609V208ZM502.109 119.25L501.756 119.604L501.764 119.612L501.773 119.62L502.109 119.25ZM473.359 119.25L473.704 119.612L473.713 119.604L473.359 119.25ZM468.109 208V208.5H468.609V208H468.109ZM412.609 208H412.109V208.5H412.609V208ZM412.609 67V66.5H412.109V67H412.609ZM468.109 67H468.609V66.5H468.109V67ZM468.109 86H467.609V87.6514L468.525 86.2773L468.109 86ZM484.359 71.5L484.127 71.0571L484.123 71.0594L484.359 71.5ZM535.859 72.75L535.61 73.1836L535.617 73.1875L535.859 72.75ZM554.609 91.25L554.177 91.5019L554.57 92.1744L555.018 91.538L554.609 91.25ZM574.359 73.25L574.611 73.6819L574.618 73.6779L574.359 73.25ZM600.859 66.5C618.753 66.5 632.522 71.8805 642.239 82.586L642.98 81.9139C633.03 70.9528 618.965 65.5 600.859 65.5V66.5ZM642.242 82.5891C652.137 93.3082 657.109 107.842 657.109 126.25H658.109C658.109 107.658 653.082 92.8585 642.977 81.9109L642.242 82.5891ZM657.109 126.25V208H658.109V126.25H657.109ZM657.609 207.5H602.359V208.5H657.609V207.5ZM602.859 208V133.25H601.859V208H602.859ZM602.859 133.25C602.859 127.141 600.988 122.328 597.196 118.88L596.523 119.62C600.064 122.839 601.859 127.359 601.859 133.25H602.859ZM597.213 118.896C593.6 115.283 588.712 113.5 582.609 113.5V114.5C588.507 114.5 593.119 116.217 596.506 119.604L597.213 118.896ZM582.609 113.5C576.345 113.5 571.371 115.281 567.756 118.896L568.463 119.604C571.847 116.219 576.541 114.5 582.609 114.5V113.5ZM567.765 118.888C564.143 122.337 562.359 127.148 562.359 133.25H563.359C563.359 127.352 565.076 122.829 568.454 119.612L567.765 118.888ZM562.359 133.25V208H563.359V133.25H562.359ZM562.859 207.5H507.609V208.5H562.859V207.5ZM508.109 208V133.25H507.109V208H508.109ZM508.109 133.25C508.109 127.141 506.238 122.328 502.446 118.88L501.773 119.62C505.314 122.839 507.109 127.359 507.109 133.25H508.109ZM502.463 118.896C498.85 115.283 493.962 113.5 487.859 113.5V114.5C493.757 114.5 498.369 116.217 501.756 119.604L502.463 118.896ZM487.859 113.5C481.595 113.5 476.621 115.281 473.006 118.896L473.713 119.604C477.097 116.219 481.791 114.5 487.859 114.5V113.5ZM473.015 118.888C469.393 122.337 467.609 127.148 467.609 133.25H468.609C468.609 127.352 470.326 122.829 473.704 119.612L473.015 118.888ZM467.609 133.25V208H468.609V133.25H467.609ZM468.109 207.5H412.609V208.5H468.109V207.5ZM413.109 208V67H412.109V208H413.109ZM412.609 67.5H468.109V66.5H412.609V67.5ZM467.609 67V86H468.609V67H467.609ZM468.525 86.2773C472.476 80.3508 477.829 75.5714 484.596 71.9406L484.123 71.0594C477.223 74.7619 471.742 79.6492 467.693 85.7226L468.525 86.2773ZM484.591 71.9429C491.508 68.32 499.592 66.5 508.859 66.5V65.5C499.46 65.5 491.211 67.3467 484.127 71.0571L484.591 71.9429ZM508.859 66.5C518.95 66.5 527.862 68.7323 535.61 73.1836L536.108 72.3164C528.19 67.7677 519.102 65.5 508.859 65.5V66.5ZM535.617 73.1875C543.369 77.4757 549.555 83.5769 554.177 91.5019L555.041 90.9981C550.331 82.923 544.016 76.691 536.101 72.3125L535.617 73.1875ZM555.018 91.538C560.142 84.2652 566.671 78.3136 574.611 73.6819L574.107 72.8181C566.048 77.5197 559.41 83.5681 554.201 90.962L555.018 91.538ZM574.618 73.6779C582.537 68.8934 591.281 66.5 600.859 66.5V65.5C591.105 65.5 582.182 67.9399 574.101 72.822L574.618 73.6779ZM737.152 86.25H736.652L737.593 86.487L737.152 86.25ZM752.152 71L752.398 71.4355L752.402 71.4334L752.152 71ZM805.652 74L805.377 74.4173L805.382 74.4208L805.652 74ZM826.402 99L825.947 99.2069L825.951 99.2152L826.402 99ZM826.402 176.25L825.95 176.037L825.948 176.04L826.402 176.25ZM805.652 201.25L805.922 201.671L805.928 201.667L805.652 201.25ZM752.152 204.25L751.898 204.681L751.905 204.684L751.911 204.688L752.152 204.25ZM737.152 188.75L737.593 188.513L736.652 188.75H737.152ZM737.152 208V208.5H737.652V208H737.152ZM681.652 208H681.152V208.5H681.652V208ZM681.652 23V22.5H681.152V23H681.652ZM737.152 23H737.652V22.5H737.152V23ZM772.152 120L772.52 119.661L772.52 119.661L772.152 120ZM742.652 120L742.284 119.661L742.284 119.661L742.652 120ZM742.652 155L742.284 155.339L742.284 155.339L742.652 155ZM737.593 86.487C741.047 80.0712 745.979 75.0563 752.398 71.4355L751.907 70.5645C745.325 74.2771 740.257 79.4288 736.712 86.0129L737.593 86.487ZM752.402 71.4334C758.979 67.6514 766.806 65.75 775.902 65.75V64.75C766.665 64.75 758.659 66.6819 751.903 70.5665L752.402 71.4334ZM775.902 65.75C786.808 65.75 796.629 68.6401 805.377 74.4172L805.928 73.5828C797.009 67.6932 786.996 64.75 775.902 64.75V65.75ZM805.382 74.4208C814.123 80.028 820.981 88.281 825.947 99.2069L826.858 98.7931C821.824 87.719 814.848 79.3053 805.922 73.5791L805.382 74.4208ZM825.951 99.2152C831.079 109.967 833.652 122.724 833.652 137.5H834.652C834.652 122.609 832.059 109.699 826.854 98.7848L825.951 99.2152ZM833.652 137.5C833.652 152.276 831.079 165.117 825.95 176.037L826.855 176.463C832.059 165.383 834.652 152.391 834.652 137.5H833.652ZM825.948 176.04C820.982 186.8 814.123 195.057 805.377 200.833L805.928 201.667C814.848 195.776 821.822 187.366 826.856 176.46L825.948 176.04ZM805.382 200.829C796.634 206.442 786.811 209.25 775.902 209.25V210.25C786.993 210.25 797.004 207.392 805.922 201.671L805.382 200.829ZM775.902 209.25C766.803 209.25 758.972 207.43 752.393 203.812L751.911 204.688C758.666 208.403 766.669 210.25 775.902 210.25V209.25ZM752.406 203.819C745.983 200.031 741.048 194.931 737.593 188.513L736.712 188.987C740.256 195.569 745.322 200.802 751.898 204.681L752.406 203.819ZM736.652 188.75V208H737.652V188.75H736.652ZM737.152 207.5H681.652V208.5H737.152V207.5ZM682.152 208V23H681.152V208H682.152ZM681.652 23.5H737.152V22.5H681.652V23.5ZM736.652 23V86.25H737.652V23H736.652ZM778.402 137.5C778.402 129.916 776.463 123.947 772.52 119.661L771.784 120.339C775.508 124.386 777.402 130.084 777.402 137.5H778.402ZM772.52 119.661C768.586 115.385 763.533 113.25 757.402 113.25V114.25C763.272 114.25 768.052 116.281 771.784 120.339L772.52 119.661ZM757.402 113.25C751.272 113.25 746.219 115.385 742.284 119.661L743.02 120.339C746.753 116.281 751.533 114.25 757.402 114.25V113.25ZM742.284 119.661C738.342 123.947 736.402 129.916 736.402 137.5H737.402C737.402 130.084 739.296 124.386 743.02 120.339L742.284 119.661ZM736.402 137.5C736.402 145.084 738.342 151.053 742.284 155.339L743.02 154.661C739.296 150.614 737.402 144.916 737.402 137.5H736.402ZM742.284 155.339C746.219 159.615 751.272 161.75 757.402 161.75V160.75C751.533 160.75 746.753 158.719 743.02 154.661L742.284 155.339ZM757.402 161.75C763.533 161.75 768.586 159.615 772.52 155.339L771.784 154.661C768.052 158.719 763.272 160.75 757.402 160.75V161.75ZM772.52 155.339C776.463 151.053 778.402 145.084 778.402 137.5H777.402C777.402 144.916 775.508 150.614 771.784 154.661L772.52 155.339ZM851.574 99L851.122 98.7874L851.12 98.7905L851.574 99ZM872.574 74L872.844 74.4209L872.85 74.4172L872.574 74ZM926.074 71L925.825 71.4335L925.833 71.4381L926.074 71ZM941.324 86.25L940.884 86.487L941.824 86.25H941.324ZM941.324 67V66.5H940.824V67H941.324ZM996.574 67H997.074V66.5H996.574V67ZM996.574 208V208.5H997.074V208H996.574ZM941.324 208H940.824V208.5H941.324V208ZM941.324 188.75H941.824L940.884 188.513L941.324 188.75ZM926.074 204.25L926.315 204.688L926.323 204.683L926.074 204.25ZM872.574 201.25L872.299 201.667L872.304 201.671L872.574 201.25ZM851.574 176.25L851.119 176.457L851.123 176.465L851.574 176.25ZM935.574 120L935.942 119.661L935.942 119.661L935.574 120ZM906.074 120L905.706 119.661L905.706 119.661L906.074 120ZM844.574 137.5C844.574 122.722 847.065 109.963 852.028 99.2095L851.12 98.7905C846.083 109.703 843.574 122.611 843.574 137.5H844.574ZM852.027 99.2126C857.16 88.2841 864.102 80.029 872.844 74.4208L872.304 73.5791C863.38 79.3043 856.322 87.7159 851.122 98.7874L852.027 99.2126ZM872.85 74.4172C881.598 68.6401 891.418 65.75 902.324 65.75V64.75C891.23 64.75 881.217 67.6932 872.299 73.5828L872.85 74.4172ZM902.324 65.75C911.42 65.75 919.248 67.6514 925.825 71.4334L926.323 70.5665C919.568 66.6819 911.562 64.75 902.324 64.75V65.75ZM925.833 71.4381C932.418 75.0598 937.431 80.0746 940.884 86.487L941.764 86.0129C938.217 79.4254 933.064 74.2735 926.315 70.5619L925.833 71.4381ZM941.824 86.25V67H940.824V86.25H941.824ZM941.324 67.5H996.574V66.5H941.324V67.5ZM996.074 67V208H997.074V67H996.074ZM996.574 207.5H941.324V208.5H996.574V207.5ZM941.824 208V188.75H940.824V208H941.824ZM940.884 188.513C937.43 194.927 932.414 200.028 925.825 203.817L926.323 204.683C933.067 200.806 938.218 195.573 941.764 188.987L940.884 188.513ZM925.833 203.812C919.254 207.43 911.424 209.25 902.324 209.25V210.25C911.558 210.25 919.561 208.403 926.315 204.688L925.833 203.812ZM902.324 209.25C891.415 209.25 881.593 206.442 872.844 200.829L872.304 201.671C881.222 207.392 891.233 210.25 902.324 210.25V209.25ZM872.85 200.833C864.102 195.056 857.158 186.797 852.026 176.035L851.123 176.465C856.323 187.369 863.38 195.777 872.299 201.667L872.85 200.833ZM852.029 176.043C847.065 165.121 844.574 152.278 844.574 137.5H843.574C843.574 152.389 846.084 165.379 851.119 176.457L852.029 176.043ZM941.824 137.5C941.824 129.916 939.885 123.947 935.942 119.661L935.206 120.339C938.93 124.386 940.824 130.084 940.824 137.5H941.824ZM935.942 119.661C932.008 115.385 926.955 113.25 920.824 113.25V114.25C926.694 114.25 931.474 116.281 935.206 120.339L935.942 119.661ZM920.824 113.25C914.694 113.25 909.64 115.385 905.706 119.661L906.442 120.339C910.175 116.281 914.955 114.25 920.824 114.25V113.25ZM905.706 119.661C901.763 123.947 899.824 129.916 899.824 137.5H900.824C900.824 130.084 902.718 124.386 906.442 120.339L905.706 119.661ZM899.824 137.5C899.824 145.084 901.763 151.053 905.706 155.339L906.442 154.661C902.718 150.614 900.824 144.916 900.824 137.5H899.824ZM905.706 155.339C909.64 159.615 914.694 161.75 920.824 161.75V160.75C914.955 160.75 910.175 158.719 906.442 154.661L905.706 155.339ZM920.824 161.75C926.955 161.75 932.008 159.615 935.942 155.339L935.206 154.661C931.474 158.719 926.694 160.75 920.824 160.75V161.75ZM935.942 155.339C939.885 151.053 941.824 145.084 941.824 137.5H940.824C940.824 144.916 938.93 150.614 935.206 154.661L935.942 155.339ZM1026.25 48L1026.58 47.6257L1026.58 47.6257L1026.25 48ZM1026.25 8.74999L1026.58 9.12433L1026.58 9.119L1026.25 8.74999ZM1072.5 8.74999L1072.16 9.11905L1072.16 9.12428L1072.5 8.74999ZM1072.5 48L1072.16 47.6257L1072.16 47.6257L1072.5 48ZM1077 67H1077.5V66.5H1077V67ZM1077 208V208.5H1077.5V208H1077ZM1021.5 208H1021V208.5H1021.5V208ZM1021.5 67V66.5H1021V67H1021.5ZM1049.5 55.25C1039.92 55.25 1032.3 52.6932 1026.58 47.6257L1025.91 48.3743C1031.86 53.6401 1039.74 56.25 1049.5 56.25V55.25ZM1026.58 47.6257C1020.85 42.5545 1018 36.1911 1018 28.5H1017C1017 36.4756 1019.97 43.1122 1025.91 48.3743L1026.58 47.6257ZM1018 28.5C1018 20.6388 1020.85 14.1932 1026.58 9.12428L1025.91 8.37569C1019.97 13.6401 1017 20.3612 1017 28.5H1018ZM1026.58 9.119C1032.31 3.88777 1039.93 1.24999 1049.5 1.24999V0.249986C1039.73 0.249986 1031.85 2.94554 1025.91 8.38097L1026.58 9.119ZM1049.5 1.24999C1058.9 1.24999 1066.44 3.88631 1072.16 9.119L1072.83 8.38097C1066.89 2.947 1059.09 0.249986 1049.5 0.249986V1.24999ZM1072.16 9.12428C1077.89 14.1932 1080.75 20.6388 1080.75 28.5H1081.75C1081.75 20.3612 1078.77 13.6401 1072.83 8.37569L1072.16 9.12428ZM1080.75 28.5C1080.75 36.1911 1077.89 42.5545 1072.16 47.6257L1072.83 48.3743C1078.77 43.1122 1081.75 36.4756 1081.75 28.5H1080.75ZM1072.16 47.6257C1066.44 52.6946 1058.9 55.25 1049.5 55.25V56.25C1059.09 56.25 1066.88 53.6388 1072.83 48.3743L1072.16 47.6257ZM1076.5 67V208H1077.5V67H1076.5ZM1077 207.5H1021.5V208.5H1077V207.5ZM1022 208V67H1021V208H1022ZM1021.5 67.5H1077V66.5H1021.5V67.5Z" fill="black"/>
</svg>
