<svg width="1082" height="210" viewBox="0 0 1082 210" fill="none" xmlns="http://www.w3.org/2000/svg">
<mask id="path-1-inside-1_8741_4272" fill="white">
<path d="M213.25 31V208H158V119.75L130.75 208H83.25L56 119.75V208H0.5V31H68.5L107.5 137.25L145.5 31H213.25ZM387.543 67V208H332.043V186.5C327.71 193.167 321.876 198.583 314.543 202.75C307.376 206.917 298.793 209 288.793 209C272.626 209 259.96 203.583 250.793 192.75C241.793 181.917 237.293 167.25 237.293 148.75V67H292.543V141.75C292.543 148.417 294.293 153.75 297.793 157.75C301.46 161.583 306.293 163.5 312.293 163.5C318.46 163.5 323.293 161.583 326.793 157.75C330.293 153.75 332.043 148.417 332.043 141.75V67H387.543ZM600.859 66C618.859 66 632.776 71.4167 642.609 82.25C652.609 93.0833 657.609 107.75 657.609 126.25V208H602.359V133.25C602.359 127.25 600.526 122.583 596.859 119.25C593.359 115.75 588.609 114 582.609 114C576.443 114 571.609 115.75 568.109 119.25C564.609 122.583 562.859 127.25 562.859 133.25V208H507.609V133.25C507.609 127.25 505.776 122.583 502.109 119.25C498.609 115.75 493.859 114 487.859 114C481.693 114 476.859 115.75 473.359 119.25C469.859 122.583 468.109 127.25 468.109 133.25V208H412.609V67H468.109V86C472.109 80 477.526 75.1667 484.359 71.5C491.359 67.8333 499.526 66 508.859 66C519.026 66 528.026 68.25 535.859 72.75C543.693 77.0833 549.943 83.25 554.609 91.25C559.776 83.9167 566.359 77.9167 574.359 73.25C582.359 68.4167 591.193 66 600.859 66ZM737.152 86.25C740.652 79.75 745.652 74.6667 752.152 71C758.819 67.1667 766.736 65.25 775.902 65.25C786.902 65.25 796.819 68.1667 805.652 74C814.486 79.6667 821.402 88 826.402 99C831.569 109.833 834.152 122.667 834.152 137.5C834.152 152.333 831.569 165.25 826.402 176.25C821.402 187.083 814.486 195.417 805.652 201.25C796.819 206.917 786.902 209.75 775.902 209.75C766.736 209.75 758.819 207.917 752.152 204.25C745.652 200.417 740.652 195.25 737.152 188.75V208H681.652V23H737.152V86.25ZM777.902 137.5C777.902 130 775.986 124.167 772.152 120C768.319 115.833 763.402 113.75 757.402 113.75C751.402 113.75 746.486 115.833 742.652 120C738.819 124.167 736.902 130 736.902 137.5C736.902 145 738.819 150.833 742.652 155C746.486 159.167 751.402 161.25 757.402 161.25C763.402 161.25 768.319 159.167 772.152 155C775.986 150.833 777.902 145 777.902 137.5ZM844.074 137.5C844.074 122.667 846.574 109.833 851.574 99C856.741 88 863.741 79.6667 872.574 74C881.408 68.1667 891.324 65.25 902.324 65.25C911.491 65.25 919.408 67.1667 926.074 71C932.741 74.6667 937.824 79.75 941.324 86.25V67H996.574V208H941.324V188.75C937.824 195.25 932.741 200.417 926.074 204.25C919.408 207.917 911.491 209.75 902.324 209.75C891.324 209.75 881.408 206.917 872.574 201.25C863.741 195.417 856.741 187.083 851.574 176.25C846.574 165.25 844.074 152.333 844.074 137.5ZM941.324 137.5C941.324 130 939.408 124.167 935.574 120C931.741 115.833 926.824 113.75 920.824 113.75C914.824 113.75 909.908 115.833 906.074 120C902.241 124.167 900.324 130 900.324 137.5C900.324 145 902.241 150.833 906.074 155C909.908 159.167 914.824 161.25 920.824 161.25C926.824 161.25 931.741 159.167 935.574 155C939.408 150.833 941.324 145 941.324 137.5ZM1049.5 55.75C1039.83 55.75 1032.08 53.1667 1026.25 48C1020.41 42.8333 1017.5 36.3333 1017.5 28.5C1017.5 20.5 1020.41 13.9167 1026.25 8.74999C1032.08 3.41665 1039.83 0.749986 1049.5 0.749986C1059 0.749986 1066.66 3.41665 1072.5 8.74999C1078.33 13.9167 1081.25 20.5 1081.25 28.5C1081.25 36.3333 1078.33 42.8333 1072.5 48C1066.66 53.1667 1059 55.75 1049.5 55.75ZM1077 67V208H1021.5V67H1077Z"/>
</mask>
<path d="M213.25 31H215.25V29H213.25V31ZM213.25 208V210H215.25V208H213.25ZM158 208H156V210H158V208ZM158 119.75H160L156.089 119.16L158 119.75ZM130.75 208V210H132.226L132.661 208.59L130.75 208ZM83.25 208L81.339 208.59L81.7744 210H83.25V208ZM56 119.75L57.911 119.16L54 119.75H56ZM56 208V210H58V208H56ZM0.5 208H-1.5V210H0.5V208ZM0.5 31V29H-1.5V31H0.5ZM68.5 31L70.3775 30.3108L69.8964 29H68.5V31ZM107.5 137.25L105.622 137.939L107.524 143.121L109.383 137.924L107.5 137.25ZM145.5 31V29H144.091L143.617 30.3265L145.5 31ZM211.25 31V208H215.25V31H211.25ZM213.25 206H158V210H213.25V206ZM160 208V119.75H156V208H160ZM156.089 119.16L128.839 207.41L132.661 208.59L159.911 120.34L156.089 119.16ZM130.75 206H83.25V210H130.75V206ZM85.161 207.41L57.911 119.16L54.089 120.34L81.339 208.59L85.161 207.41ZM54 119.75V208H58V119.75H54ZM56 206H0.5V210H56V206ZM2.5 208V31H-1.5V208H2.5ZM0.5 33H68.5V29H0.5V33ZM66.6225 31.6892L105.622 137.939L109.378 136.561L70.3775 30.3108L66.6225 31.6892ZM109.383 137.924L147.383 31.6735L143.617 30.3265L105.617 136.576L109.383 137.924ZM145.5 33H213.25V29H145.5V33ZM387.543 67H389.543V65H387.543V67ZM387.543 208V210H389.543V208H387.543ZM332.043 208H330.043V210H332.043V208ZM332.043 186.5H334.043V179.753L330.366 185.41L332.043 186.5ZM314.543 202.75L313.555 201.011L313.546 201.016L313.538 201.021L314.543 202.75ZM250.793 192.75L249.255 194.028L249.26 194.035L249.266 194.042L250.793 192.75ZM237.293 67V65H235.293V67H237.293ZM292.543 67H294.543V65H292.543V67ZM297.793 157.75L296.288 159.067L296.317 159.1L296.348 159.132L297.793 157.75ZM326.793 157.75L328.27 159.099L328.284 159.083L328.298 159.067L326.793 157.75ZM332.043 67V65H330.043V67H332.043ZM385.543 67V208H389.543V67H385.543ZM387.543 206H332.043V210H387.543V206ZM334.043 208V186.5H330.043V208H334.043ZM330.366 185.41C326.218 191.792 320.627 196.993 313.555 201.011L315.531 204.489C323.125 200.174 329.202 194.541 333.72 187.59L330.366 185.41ZM313.538 201.021C306.734 204.977 298.513 207 288.793 207V211C299.073 211 308.019 208.857 315.548 204.479L313.538 201.021ZM288.793 207C273.123 207 261.051 201.777 252.32 191.458L249.266 194.042C258.868 205.39 272.13 211 288.793 211V207ZM252.331 191.472C243.712 181.097 239.293 166.931 239.293 148.75H235.293C235.293 167.569 239.874 182.736 249.255 194.028L252.331 191.472ZM239.293 148.75V67H235.293V148.75H239.293ZM237.293 69H292.543V65H237.293V69ZM290.543 67V141.75H294.543V67H290.543ZM290.543 141.75C290.543 148.774 292.394 154.617 296.288 159.067L299.298 156.433C296.192 152.883 294.543 148.06 294.543 141.75H290.543ZM296.348 159.132C300.443 163.414 305.826 165.5 312.293 165.5V161.5C306.76 161.5 302.477 159.753 299.238 156.368L296.348 159.132ZM312.293 165.5C318.906 165.5 324.32 163.425 328.27 159.099L325.316 156.401C322.266 159.742 318.013 161.5 312.293 161.5V165.5ZM328.298 159.067C332.192 154.617 334.043 148.774 334.043 141.75H330.043C330.043 148.06 328.394 152.883 325.288 156.433L328.298 159.067ZM334.043 141.75V67H330.043V141.75H334.043ZM332.043 69H387.543V65H332.043V69ZM642.609 82.25L641.128 83.5942L641.134 83.6004L641.14 83.6066L642.609 82.25ZM657.609 208V210H659.609V208H657.609ZM602.359 208H600.359V210H602.359V208ZM596.859 119.25L595.445 120.664L595.479 120.698L595.514 120.73L596.859 119.25ZM568.109 119.25L569.489 120.698L569.506 120.681L569.524 120.664L568.109 119.25ZM562.859 208V210H564.859V208H562.859ZM507.609 208H505.609V210H507.609V208ZM502.109 119.25L500.695 120.664L500.729 120.698L500.764 120.73L502.109 119.25ZM473.359 119.25L474.739 120.698L474.756 120.681L474.774 120.664L473.359 119.25ZM468.109 208V210H470.109V208H468.109ZM412.609 208H410.609V210H412.609V208ZM412.609 67V65H410.609V67H412.609ZM468.109 67H470.109V65H468.109V67ZM468.109 86H466.109V92.6055L469.773 87.1094L468.109 86ZM484.359 71.5L483.431 69.7283L483.423 69.733L483.414 69.7377L484.359 71.5ZM535.859 72.75L534.863 74.4842L534.877 74.4922L534.891 74.5001L535.859 72.75ZM554.609 91.25L552.882 92.2577L554.451 94.9475L556.244 92.4019L554.609 91.25ZM574.359 73.25L575.367 74.9775L575.38 74.9698L575.394 74.9618L574.359 73.25ZM600.859 68C618.435 68 631.759 73.2721 641.128 83.5942L644.09 80.9058C633.793 69.5613 619.283 64 600.859 64V68ZM641.14 83.6066C650.718 93.9828 655.609 108.119 655.609 126.25H659.609C659.609 107.381 654.501 92.1838 644.079 80.8934L641.14 83.6066ZM655.609 126.25V208H659.609V126.25H655.609ZM657.609 206H602.359V210H657.609V206ZM604.359 208V133.25H600.359V208H604.359ZM604.359 133.25C604.359 126.815 602.375 121.561 598.205 117.77L595.514 120.73C598.677 123.605 600.359 127.685 600.359 133.25H604.359ZM598.274 117.836C594.321 113.884 589.02 112 582.609 112V116C588.199 116 592.397 117.616 595.445 120.664L598.274 117.836ZM582.609 112C576.05 112 570.658 113.873 566.695 117.836L569.524 120.664C572.561 117.627 576.835 116 582.609 116V112ZM566.73 117.802C562.742 121.6 560.859 126.844 560.859 133.25H564.859C564.859 127.656 566.477 123.567 569.489 120.698L566.73 117.802ZM560.859 133.25V208H564.859V133.25H560.859ZM562.859 206H507.609V210H562.859V206ZM509.609 208V133.25H505.609V208H509.609ZM509.609 133.25C509.609 126.815 507.625 121.561 503.455 117.77L500.764 120.73C503.927 123.605 505.609 127.685 505.609 133.25H509.609ZM503.524 117.836C499.571 113.884 494.27 112 487.859 112V116C493.449 116 497.647 117.616 500.695 120.664L503.524 117.836ZM487.859 112C481.3 112 475.908 113.873 471.945 117.836L474.774 120.664C477.811 117.627 482.085 116 487.859 116V112ZM471.98 117.802C467.992 121.6 466.109 126.844 466.109 133.25H470.109C470.109 127.656 471.727 123.567 474.739 120.698L471.98 117.802ZM466.109 133.25V208H470.109V133.25H466.109ZM468.109 206H412.609V210H468.109V206ZM414.609 208V67H410.609V208H414.609ZM412.609 69H468.109V65H412.609V69ZM466.109 67V86H470.109V67H466.109ZM469.773 87.1094C473.578 81.4031 478.739 76.7857 485.305 73.2623L483.414 69.7377C476.313 73.5476 470.641 78.5968 466.445 84.8906L469.773 87.1094ZM485.287 73.2717C491.953 69.7799 499.791 68 508.859 68V64C499.261 64 490.765 65.8867 483.431 69.7283L485.287 73.2717ZM508.859 68C518.721 68 527.37 70.1794 534.863 74.4842L536.856 71.0158C528.683 66.3206 519.331 64 508.859 64V68ZM534.891 74.5001C542.398 78.6527 548.39 84.5578 552.882 92.2577L556.337 90.2423C551.495 81.9422 544.987 75.514 536.828 70.9999L534.891 74.5001ZM556.244 92.4019C561.24 85.3109 567.607 79.5044 575.367 74.9775L573.352 71.5224C565.112 76.3289 558.312 82.5224 552.974 90.0981L556.244 92.4019ZM575.394 74.9618C583.071 70.3237 591.544 68 600.859 68V64C590.841 64 581.648 66.5097 573.325 71.5382L575.394 74.9618ZM737.152 86.25H735.152L738.913 87.1982L737.152 86.25ZM752.152 71L753.135 72.742L753.142 72.7379L753.149 72.7338L752.152 71ZM805.652 74L804.55 75.6689L804.561 75.6762L804.572 75.6834L805.652 74ZM826.402 99L824.582 99.8276L824.589 99.8443L824.597 99.8609L826.402 99ZM826.402 176.25L824.592 175.4L824.586 175.412L826.402 176.25ZM805.652 201.25L806.732 202.933L806.743 202.926L806.754 202.919L805.652 201.25ZM752.152 204.25L751.136 205.973L751.162 205.988L751.189 206.002L752.152 204.25ZM737.152 188.75L738.913 187.802L735.152 188.75H737.152ZM737.152 208V210H739.152V208H737.152ZM681.652 208H679.652V210H681.652V208ZM681.652 23V21H679.652V23H681.652ZM737.152 23H739.152V21H737.152V23ZM772.152 120L773.624 118.646L772.152 120ZM742.652 120L741.18 118.646L742.652 120ZM742.652 155L741.18 156.354L742.652 155ZM738.913 87.1982C742.232 81.0348 746.96 76.225 753.135 72.742L751.17 69.258C744.344 73.1083 739.073 78.4652 735.391 85.3018L738.913 87.1982ZM753.149 72.7338C759.459 69.1056 767.018 67.25 775.902 67.25V63.25C766.453 63.25 758.179 65.2277 751.155 69.2662L753.149 72.7338ZM775.902 67.25C786.527 67.25 796.057 70.0603 804.55 75.6689L806.754 72.3311C797.581 66.273 787.278 63.25 775.902 63.25V67.25ZM804.572 75.6834C813.035 81.112 819.716 89.1239 824.582 99.8276L828.223 98.1724C823.088 86.8761 815.937 78.2213 806.732 72.3166L804.572 75.6834ZM824.597 99.8609C829.609 110.37 832.152 122.896 832.152 137.5H836.152C836.152 122.437 833.529 109.297 828.208 98.1391L824.597 99.8609ZM832.152 137.5C832.152 152.103 829.609 164.718 824.592 175.4L828.213 177.1C833.529 165.782 836.152 152.564 836.152 137.5H832.152ZM824.586 175.412C819.722 185.951 813.035 193.978 804.55 199.581L806.754 202.919C815.937 196.855 823.083 188.215 828.218 177.088L824.586 175.412ZM804.572 199.567C796.077 205.016 786.539 207.75 775.902 207.75V211.75C787.266 211.75 797.561 208.817 806.732 202.933L804.572 199.567ZM775.902 207.75C767.004 207.75 759.433 205.972 753.116 202.498L751.189 206.002C758.205 209.862 766.467 211.75 775.902 211.75V207.75ZM753.168 202.527C746.975 198.875 742.236 193.973 738.913 187.802L735.391 189.698C739.068 196.527 744.329 201.958 751.136 205.973L753.168 202.527ZM735.152 188.75V208H739.152V188.75H735.152ZM737.152 206H681.652V210H737.152V206ZM683.652 208V23H679.652V208H683.652ZM681.652 25H737.152V21H681.652V25ZM735.152 23V86.25H739.152V23H735.152ZM779.902 137.5C779.902 129.665 777.895 123.288 773.624 118.646L770.68 121.354C774.076 125.045 775.902 130.335 775.902 137.5H779.902ZM773.624 118.646C769.387 114.041 763.924 111.75 757.402 111.75V115.75C762.881 115.75 767.251 117.626 770.68 121.354L773.624 118.646ZM757.402 111.75C750.881 111.75 745.417 114.041 741.18 118.646L744.124 121.354C747.554 117.626 751.924 115.75 757.402 115.75V111.75ZM741.18 118.646C736.909 123.288 734.902 129.665 734.902 137.5H738.902C738.902 130.335 740.729 125.045 744.124 121.354L741.18 118.646ZM734.902 137.5C734.902 145.335 736.909 151.712 741.18 156.354L744.124 153.646C740.729 149.955 738.902 144.665 738.902 137.5H734.902ZM741.18 156.354C745.417 160.959 750.881 163.25 757.402 163.25V159.25C751.924 159.25 747.554 157.374 744.124 153.646L741.18 156.354ZM757.402 163.25C763.924 163.25 769.387 160.959 773.624 156.354L770.68 153.646C767.251 157.374 762.881 159.25 757.402 159.25V163.25ZM773.624 156.354C777.895 151.712 779.902 145.335 779.902 137.5H775.902C775.902 144.665 774.076 149.955 770.68 153.646L773.624 156.354ZM851.574 99L849.764 98.1497L849.758 98.1619L851.574 99ZM872.574 74L873.654 75.6834L873.665 75.6762L873.676 75.6689L872.574 74ZM926.074 71L925.077 72.7338L925.094 72.7433L925.11 72.7524L926.074 71ZM941.324 86.25L939.563 87.1982L943.324 86.25H941.324ZM941.324 67V65H939.324V67H941.324ZM996.574 67H998.574V65H996.574V67ZM996.574 208V210H998.574V208H996.574ZM941.324 208H939.324V210H941.324V208ZM941.324 188.75H943.324L939.563 187.802L941.324 188.75ZM926.074 204.25L927.038 206.002L927.055 205.993L927.071 205.984L926.074 204.25ZM872.574 201.25L871.472 202.919L871.483 202.926L871.494 202.933L872.574 201.25ZM851.574 176.25L849.753 177.078L849.761 177.094L849.769 177.111L851.574 176.25ZM935.574 120L937.046 118.646L935.574 120ZM906.074 120L904.602 118.646L906.074 120ZM846.074 137.5C846.074 122.888 848.537 110.353 853.39 99.8381L849.758 98.1619C844.611 109.314 842.074 122.446 842.074 137.5H846.074ZM853.384 99.8503C858.417 89.1363 865.185 81.1162 873.654 75.6834L871.494 72.3166C862.296 78.2171 855.065 86.8637 849.764 98.1497L853.384 99.8503ZM873.676 75.6689C882.169 70.0603 891.7 67.25 902.324 67.25V63.25C890.949 63.25 880.646 66.273 871.472 72.3311L873.676 75.6689ZM902.324 67.25C911.208 67.25 918.767 69.1056 925.077 72.7338L927.071 69.2662C920.048 65.2277 911.773 63.25 902.324 63.25V67.25ZM925.11 72.7524C931.45 76.2394 936.252 81.0483 939.563 87.1982L943.085 85.3018C939.397 78.4517 934.031 73.0939 927.038 69.2476L925.11 72.7524ZM943.324 86.25V67H939.324V86.25H943.324ZM941.324 69H996.574V65H941.324V69ZM994.574 67V208H998.574V67H994.574ZM996.574 206H941.324V210H996.574V206ZM943.324 208V188.75H939.324V208H943.324ZM939.563 187.802C936.247 193.96 931.435 198.86 925.077 202.516L927.071 205.984C934.047 201.973 939.401 196.54 943.085 189.698L939.563 187.802ZM925.11 202.498C918.794 205.972 911.223 207.75 902.324 207.75V211.75C911.759 211.75 920.021 209.862 927.038 206.002L925.11 202.498ZM902.324 207.75C891.688 207.75 882.149 205.016 873.654 199.567L871.494 202.933C880.666 208.817 890.961 211.75 902.324 211.75V207.75ZM873.676 199.581C865.185 193.974 858.411 185.939 853.379 175.389L849.769 177.111C855.071 188.228 862.296 196.859 871.472 202.919L873.676 199.581ZM853.395 175.422C848.537 164.734 846.074 152.111 846.074 137.5H842.074C842.074 152.555 844.612 165.766 849.753 177.078L853.395 175.422ZM943.324 137.5C943.324 129.665 941.317 123.288 937.046 118.646L934.102 121.354C937.498 125.045 939.324 130.335 939.324 137.5H943.324ZM937.046 118.646C932.809 114.041 927.346 111.75 920.824 111.75V115.75C926.302 115.75 930.672 117.626 934.102 121.354L937.046 118.646ZM920.824 111.75C914.302 111.75 908.839 114.041 904.602 118.646L907.546 121.354C910.976 117.626 915.346 115.75 920.824 115.75V111.75ZM904.602 118.646C900.331 123.288 898.324 129.665 898.324 137.5H902.324C902.324 130.335 904.15 125.045 907.546 121.354L904.602 118.646ZM898.324 137.5C898.324 145.335 900.331 151.712 904.602 156.354L907.546 153.646C904.15 149.955 902.324 144.665 902.324 137.5H898.324ZM904.602 156.354C908.839 160.959 914.302 163.25 920.824 163.25V159.25C915.346 159.25 910.976 157.374 907.546 153.646L904.602 156.354ZM920.824 163.25C927.346 163.25 932.809 160.959 937.046 156.354L934.102 153.646C930.672 157.374 926.302 159.25 920.824 159.25V163.25ZM937.046 156.354C941.317 151.712 943.324 145.335 943.324 137.5H939.324C939.324 144.665 937.498 149.955 934.102 153.646L937.046 156.354ZM1026.25 48L1027.57 46.5028V46.5028L1026.25 48ZM1026.25 8.74999L1027.57 10.2472L1027.58 10.2367L1027.6 10.226L1026.25 8.74999ZM1072.5 8.74999L1071.15 10.226L1071.16 10.2367L1071.17 10.2472L1072.5 8.74999ZM1072.5 48L1071.17 46.5028L1072.5 48ZM1077 67H1079V65H1077V67ZM1077 208V210H1079V208H1077ZM1021.5 208H1019.5V210H1021.5V208ZM1021.5 67V65H1019.5V67H1021.5ZM1049.5 53.75C1040.2 53.75 1032.96 51.2727 1027.57 46.5028L1024.92 49.4972C1031.2 55.0606 1039.46 57.75 1049.5 57.75V53.75ZM1027.57 46.5028C1022.17 41.718 1019.5 35.7643 1019.5 28.5H1015.5C1015.5 36.9024 1018.66 43.9486 1024.92 49.4972L1027.57 46.5028ZM1019.5 28.5C1019.5 21.0551 1022.18 15.0228 1027.57 10.2472L1024.92 7.25281C1018.65 12.8105 1015.5 19.9449 1015.5 28.5H1019.5ZM1027.6 10.226C1032.98 5.30111 1040.21 2.74998 1049.5 2.74998V-1.25001C1039.45 -1.25001 1031.18 1.5322 1024.9 7.27393L1027.6 10.226ZM1049.5 2.74998C1058.6 2.74998 1065.75 5.29528 1071.15 10.226L1073.85 7.27393C1067.57 1.53802 1059.39 -1.25001 1049.5 -1.25001V2.74998ZM1071.17 10.2472C1076.56 15.0228 1079.25 21.0551 1079.25 28.5H1083.25C1083.25 19.9449 1080.1 12.8105 1073.82 7.25281L1071.17 10.2472ZM1079.25 28.5C1079.25 35.7643 1076.57 41.718 1071.17 46.5028L1073.82 49.4972C1080.09 43.9486 1083.25 36.9024 1083.25 28.5H1079.25ZM1071.17 46.5028C1065.78 51.2783 1058.62 53.75 1049.5 53.75V57.75C1059.37 57.75 1067.55 55.0551 1073.82 49.4972L1071.17 46.5028ZM1075 67V208H1079V67H1075ZM1077 206H1021.5V210H1077V206ZM1023.5 208V67H1019.5V208H1023.5ZM1021.5 69H1077V65H1021.5V69Z" fill="black" mask="url(#path-1-inside-1_8741_4272)"/>
</svg>
