<svg width="499" height="667" viewBox="0 0 499 667" fill="none" xmlns="http://www.w3.org/2000/svg">
<g clip-path="url(#clip0_8234_2394)">
<path d="M377.447 250.919C417.27 225.725 455.753 198.465 492.739 169.251C495.37 162.29 496.854 154.951 497.135 147.521C496.863 147.805 496.579 148.077 496.283 148.336L496.059 148.554L496.05 148.563L496.041 148.57L495.055 149.442L494.892 149.59L494.886 149.596L494.879 149.602L493.176 151.041L493.176 151.042L493.165 151.05L492.581 151.517L492.58 151.518L490.661 153.069L490.661 153.069L490.655 153.074L489.747 153.786L489.747 153.786L487.834 155.283L487.834 155.283L487.827 155.288L486.344 156.409L484.824 157.583L484.824 157.583L484.82 157.586L482.463 159.368L482.161 158.969L482.463 159.368L481.655 159.978L481.652 159.98C466.302 171.404 442.885 187.859 422.359 202.053L422.358 202.054C410.872 209.949 400.341 217.153 392.682 222.383C388.853 224.998 385.741 227.12 383.587 228.588C382.51 229.322 381.672 229.893 381.103 230.28L380.456 230.72L380.451 230.724C380.343 237.56 379.333 244.351 377.447 250.919Z" stroke="black"/>
<path d="M496.698 146.427L496.737 146.385L496.784 146.352C496.799 146.342 496.814 146.331 496.828 146.32C497.003 146.147 497.155 145.953 497.281 145.743L497.281 145.742L497.282 145.741L497.282 145.74L497.282 145.739L497.282 145.738L497.282 145.737L497.282 145.736L497.282 145.735L497.283 145.734L497.283 145.733L497.283 145.732L497.283 145.731L497.283 145.73L497.283 145.729L497.283 145.728L497.284 145.727L497.284 145.726L497.284 145.725L497.284 145.724L497.284 145.723L497.284 145.722L497.284 145.721L497.284 145.72L497.285 145.719L497.285 145.718L497.285 145.717L497.285 145.716L497.285 145.715L497.285 145.714L497.285 145.713L497.286 145.712L497.286 145.711L497.286 145.71L497.286 145.709L497.286 145.708L497.286 145.707L497.286 145.706L497.287 145.705L497.287 145.704L497.287 145.703L497.287 145.702L497.287 145.701L497.287 145.7L497.287 145.699L497.288 145.698L497.288 145.697L497.288 145.696L497.288 145.695L497.288 145.694L497.288 145.693L497.288 145.692L497.289 145.691L497.289 145.69L497.289 145.69C497.163 145.586 496.981 145.465 496.728 145.331C496.361 145.136 495.882 144.934 495.3 144.726C494.135 144.311 492.593 143.89 490.776 143.477C487.145 142.65 482.457 141.863 477.579 141.213C472.701 140.564 467.642 140.053 463.269 139.778C458.883 139.502 455.227 139.465 453.132 139.75C452.872 139.787 452.457 139.926 451.872 140.196C451.297 140.461 450.593 140.835 449.769 141.314C448.119 142.272 446.013 143.63 443.533 145.321C438.575 148.701 432.15 153.392 424.953 158.819L424.952 158.819C407.985 171.567 386.768 188.262 370.516 201.23L370.515 201.23C363.205 207.047 356.894 212.121 352.41 215.742C350.169 217.552 348.384 218.998 347.159 219.992C346.804 220.28 346.497 220.53 346.238 220.74C357.917 221.746 369.322 224.842 379.912 229.882L380.456 229.512C380.969 229.164 381.725 228.649 382.7 227.986C384.648 226.66 387.468 224.738 390.954 222.356C397.924 217.592 407.557 210.988 418.204 203.628C439.499 188.906 464.845 171.163 481.07 159.065C481.071 159.065 481.071 159.065 481.071 159.064L481.876 158.456L482.178 158.855L481.876 158.456L484.229 156.678L484.231 156.676L485.751 155.502L485.751 155.502L485.755 155.499L487.237 154.379L489.147 152.885L489.147 152.885L490.052 152.176L491.97 150.625L491.97 150.625L491.972 150.623L492.552 150.159L494.245 148.728L495.386 147.716L495.612 147.496L495.612 147.496L495.619 147.489C496.05 147.088 496.405 146.745 496.698 146.427Z" stroke="black"/>
<path d="M422.092 201.528C399.189 217.442 379.971 230.343 379.971 230.343C379.971 230.343 448.921 183.559 481.387 159.352C466.028 170.884 442.617 187.334 422.092 201.528Z" fill="url(#paint0_linear_8234_2394)"/>
<path d="M422.092 201.528C399.189 217.442 379.971 230.343 379.971 230.343C379.971 230.343 448.921 183.559 481.387 159.352C466.028 170.884 442.617 187.334 422.092 201.528Z" fill="url(#paint1_linear_8234_2394)"/>
<path d="M206.969 440.496C310.653 408.227 386.626 343.222 376.609 295.261C376.057 292.719 375.263 290.235 374.238 287.844C380.742 299.367 406.446 353.078 362.82 419.106C362.268 419.954 361.688 420.798 361.092 421.756C347.56 441.496 328.206 459.093 305.368 473.715C268.129 497 226.215 511.76 182.622 516.94C154.612 520.533 126.187 519.086 98.6881 512.669C98.4259 512.618 98.1611 512.581 97.895 512.558C31.1818 495.828 6.82462 430.42 2.43779 416.764C17.3908 460.816 106.841 471.701 206.969 440.496Z" fill="black"/>
<path d="M1.6932 414.288C1.82851 414.897 1.99494 415.5 2.19179 416.092L1.6932 414.288Z" fill="url(#paint2_linear_8234_2394)"/>
<path d="M379.958 230.457C379.899 237.73 378.81 244.958 376.726 251.926L379.958 230.457Z" fill="url(#paint3_linear_8234_2394)"/>
<path d="M379.958 230.457C379.899 237.73 378.81 244.958 376.726 251.926L379.958 230.457Z" fill="url(#paint4_linear_8234_2394)"/>
<path d="M379.954 230.457L344.955 221.14C357.101 222.03 368.972 225.19 379.954 230.457Z" fill="url(#paint5_linear_8234_2394)"/>
<path d="M344.955 221.14C357.101 222.03 368.972 225.19 379.954 230.457L376.722 251.926C372.935 251.367 369.189 250.563 365.506 249.52C369.677 246.748 373.279 244.533 373.279 244.533L373.649 232.381C366.298 229.378 358.553 227.448 350.653 226.65C350.653 226.65 348.576 228.702 345.578 231.551C345.278 228.328 345.017 224.821 344.841 221.124L344.955 221.14Z" fill="black"/>
<path d="M373.736 232.393L373.366 244.545C373.366 244.545 369.764 246.76 365.593 249.532C362.48 248.663 359.411 247.685 356.366 246.536C364.025 239.885 373.736 232.393 373.736 232.393Z" fill="url(#paint6_linear_8234_2394)"/>
<path d="M356.366 246.536C364.025 239.885 373.736 232.393 373.736 232.393L373.366 244.545C373.366 244.545 369.764 246.76 365.593 249.532C359.606 253.525 352.448 258.655 352.873 260.16C353.589 262.195 354.473 264.166 355.515 266.053C352.282 262.941 347.633 258.184 347.272 256.225C347.034 255.035 351.241 250.967 356.366 246.536Z" fill="black"/>
<path d="M257.079 414.503C258.186 414.022 259.269 413.508 260.352 412.994C259.249 413.65 258.186 414.022 257.079 414.503Z" fill="url(#paint7_linear_8234_2394)"/>
<path d="M257.079 414.503C258.186 414.022 259.269 413.508 260.352 412.994C259.249 413.65 258.186 414.022 257.079 414.503Z" fill="url(#paint8_linear_8234_2394)"/>
<path d="M257.079 414.503C258.186 414.022 259.269 413.508 260.352 412.994C259.249 413.65 258.186 414.022 257.079 414.503Z" fill="url(#paint9_linear_8234_2394)"/>
<path d="M269.163 408.79C269.757 408.468 270.351 408.146 270.969 407.856C270.237 408.13 269.644 408.452 269.163 408.79Z" fill="url(#paint10_linear_8234_2394)"/>
<path d="M269.163 408.79C269.757 408.468 270.351 408.146 270.969 407.856C270.237 408.13 269.644 408.452 269.163 408.79Z" fill="url(#paint11_linear_8234_2394)"/>
<path d="M269.163 408.79C269.757 408.468 270.351 408.146 270.969 407.856C270.237 408.13 269.644 408.452 269.163 408.79Z" fill="url(#paint12_linear_8234_2394)"/>
<path d="M297.115 392.916C299.707 391.312 302.186 389.692 304.621 388.181C302.17 389.805 299.691 391.425 297.115 392.916Z" fill="url(#paint13_linear_8234_2394)"/>
<path d="M297.115 392.916C299.707 391.312 302.186 389.692 304.621 388.181C302.17 389.805 299.691 391.425 297.115 392.916Z" fill="url(#paint14_linear_8234_2394)"/>
<path d="M297.115 392.916C299.707 391.312 302.186 389.692 304.621 388.181C302.17 389.805 299.691 391.425 297.115 392.916Z" fill="url(#paint15_linear_8234_2394)"/>
<path d="M306.917 386.623C308.641 385.446 310.345 384.21 312 383.111C310.333 384.295 308.641 385.446 306.917 386.623Z" fill="url(#paint16_linear_8234_2394)"/>
<path d="M306.917 386.623C308.641 385.446 310.345 384.21 312 383.111C310.333 384.295 308.641 385.446 306.917 386.623Z" fill="url(#paint17_linear_8234_2394)"/>
<path d="M306.917 386.623C308.641 385.446 310.345 384.21 312 383.111C310.333 384.295 308.641 385.446 306.917 386.623Z" fill="url(#paint18_linear_8234_2394)"/>
<path d="M270.862 407.841C273.197 406.635 275.499 405.453 277.781 404.21C275.414 405.441 273.197 406.635 270.862 407.841Z" fill="url(#paint19_linear_8234_2394)"/>
<path d="M270.862 407.841C273.197 406.635 275.499 405.453 277.781 404.21C275.414 405.441 273.197 406.635 270.862 407.841Z" fill="url(#paint20_linear_8234_2394)"/>
<path d="M270.862 407.841C273.197 406.635 275.499 405.453 277.781 404.21C275.414 405.441 273.197 406.635 270.862 407.841Z" fill="url(#paint21_linear_8234_2394)"/>
<path d="M335.679 363.95C337.003 362.747 338.285 361.422 339.508 360.321C338.269 361.536 337.003 362.747 335.679 363.95Z" fill="url(#paint22_linear_8234_2394)"/>
<path d="M335.679 363.95C337.003 362.747 338.285 361.422 339.508 360.321C338.269 361.536 337.003 362.747 335.679 363.95Z" fill="url(#paint23_linear_8234_2394)"/>
<path d="M335.679 363.95C337.003 362.747 338.285 361.422 339.508 360.321C338.269 361.536 337.003 362.747 335.679 363.95Z" fill="url(#paint24_linear_8234_2394)"/>
<path d="M341.248 358.597C342.994 356.846 344.631 355.05 346.289 353.315C344.688 355.058 342.853 356.826 341.248 358.597Z" fill="url(#paint25_linear_8234_2394)"/>
<path d="M341.248 358.597C342.994 356.846 344.631 355.05 346.289 353.315C344.688 355.058 342.853 356.826 341.248 358.597Z" fill="url(#paint26_linear_8234_2394)"/>
<path d="M341.248 358.597C342.994 356.846 344.631 355.05 346.289 353.315C344.688 355.058 342.853 356.826 341.248 358.597Z" fill="url(#paint27_linear_8234_2394)"/>
<path d="M260.349 412.994C263.286 411.612 266.199 410.197 269.055 408.774C266.086 410.181 263.286 411.612 260.349 412.994Z" fill="url(#paint28_linear_8234_2394)"/>
<path d="M260.349 412.994C263.286 411.612 266.199 410.197 269.055 408.774C266.086 410.181 263.286 411.612 260.349 412.994Z" fill="url(#paint29_linear_8234_2394)"/>
<path d="M260.349 412.994C263.286 411.612 266.199 410.197 269.055 408.774C266.086 410.181 263.286 411.612 260.349 412.994Z" fill="url(#paint30_linear_8234_2394)"/>
<path d="M314.475 381.317C316.146 380.104 317.704 378.876 319.375 377.664C317.76 378.884 316.146 380.104 314.475 381.317Z" fill="url(#paint31_linear_8234_2394)"/>
<path d="M314.475 381.317C316.146 380.104 317.704 378.876 319.375 377.664C317.76 378.884 316.146 380.104 314.475 381.317Z" fill="url(#paint32_linear_8234_2394)"/>
<path d="M314.475 381.317C316.146 380.104 317.704 378.876 319.375 377.664C317.76 378.884 316.146 380.104 314.475 381.317Z" fill="url(#paint33_linear_8234_2394)"/>
<path d="M321.366 376.062C323.505 374.394 325.592 372.69 327.598 371.149C325.58 372.776 323.493 374.479 321.366 376.062Z" fill="url(#paint34_linear_8234_2394)"/>
<path d="M321.366 376.062C323.505 374.394 325.592 372.69 327.598 371.149C325.58 372.776 323.493 374.479 321.366 376.062Z" fill="url(#paint35_linear_8234_2394)"/>
<path d="M321.366 376.062C323.505 374.394 325.592 372.69 327.598 371.149C325.58 372.776 323.493 374.479 321.366 376.062Z" fill="url(#paint36_linear_8234_2394)"/>
<path d="M245.313 419.742L242.242 421.048C243.955 420.362 245.644 419.644 247.312 418.865L245.313 419.742Z" fill="url(#paint37_linear_8234_2394)"/>
<path d="M245.313 419.742L242.242 421.048C243.955 420.362 245.644 419.644 247.312 418.865L245.313 419.742Z" fill="url(#paint38_linear_8234_2394)"/>
<path d="M245.313 419.742L242.242 421.048C243.955 420.362 245.644 419.644 247.312 418.865L245.313 419.742Z" fill="url(#paint39_linear_8234_2394)"/>
<path d="M76.3222 450.632C82.95 451.356 89.9409 451.755 97.2344 451.849C89.8843 451.747 82.95 451.356 76.3222 450.632Z" fill="url(#paint40_linear_8234_2394)"/>
<path d="M76.3222 450.632C82.95 451.356 89.9409 451.755 97.2344 451.849C89.8843 451.747 82.95 451.356 76.3222 450.632Z" fill="url(#paint41_linear_8234_2394)"/>
<path d="M76.3222 450.632C82.95 451.356 89.9409 451.755 97.2344 451.849C89.8843 451.747 82.95 451.356 76.3222 450.632Z" fill="url(#paint42_linear_8234_2394)"/>
<path d="M135.337 449.657L130.295 450.196L135.867 449.587L135.337 449.657Z" fill="url(#paint43_linear_8234_2394)"/>
<path d="M135.337 449.657L130.295 450.196L135.867 449.587L135.337 449.657Z" fill="url(#paint44_linear_8234_2394)"/>
<path d="M135.337 449.657L130.295 450.196L135.867 449.587L135.337 449.657Z" fill="url(#paint45_linear_8234_2394)"/>
<path d="M137.609 449.367C160.598 446.344 183.282 441.329 205.406 434.378C183.286 441.342 160.6 446.357 137.609 449.367Z" fill="url(#paint46_linear_8234_2394)"/>
<path d="M137.609 449.367C160.598 446.344 183.282 441.329 205.406 434.378C183.286 441.342 160.6 446.357 137.609 449.367Z" fill="url(#paint47_linear_8234_2394)"/>
<path d="M137.609 449.367C160.598 446.344 183.282 441.329 205.406 434.378C183.286 441.342 160.6 446.357 137.609 449.367Z" fill="url(#paint48_linear_8234_2394)"/>
<path d="M171.28 269.393C265.394 240.095 349.486 248.611 367.054 287.592C368.185 290.097 369.039 292.718 369.6 295.41C373.226 313.268 364.294 333.363 346.285 353.316C337.413 334.145 307.651 324.548 268.52 326.192C263.173 326.428 257.657 326.842 251.992 327.497C233.756 329.647 215.763 333.512 198.25 339.042C184.888 343.188 171.815 348.22 159.12 354.105C149.074 358.745 139.322 363.997 129.919 369.833C92.285 393.203 69.6528 421.851 74.4664 444.85C74.8742 446.838 75.494 448.776 76.3151 450.632C40.2427 446.717 14.8553 433.509 8.04817 412.169C7.67255 410.931 7.32524 409.697 7.03855 408.442C-2.34899 362.796 71.1804 300.601 171.28 269.393Z" fill="black"/>
<path d="M170.979 267.349L170.98 267.348C222 251.368 270.137 246.553 307.103 251.288L307.134 251.292L307.164 251.292C309.218 251.304 312.844 251.281 316.425 251.059C318.215 250.948 320.001 250.787 321.577 250.554C323.144 250.322 324.538 250.015 325.527 249.599L325.535 249.595L325.535 249.595C326.372 249.225 327.672 248.304 329.213 247.083C330.77 245.849 332.619 244.27 334.569 242.544C338.469 239.092 342.788 235.034 346.012 231.924M170.979 267.349L345.666 231.563M170.979 267.349C119.174 283.465 74.3237 307.754 43.683 333.982C28.3623 347.096 16.6101 360.682 9.3119 373.956C2.01378 387.231 -0.814438 400.163 1.65114 412C1.72481 412.352 1.82125 412.698 1.92557 413.053C2.02832 413.403 2.14141 413.771 2.23802 414.141L2.24034 414.15L2.24234 414.159C2.37399 414.752 2.53585 415.338 2.72732 415.915L2.73378 415.934L2.73862 415.954C2.79421 416.182 2.86154 416.408 2.94036 416.629L2.9428 416.636L170.979 267.349ZM346.012 231.924C346.012 231.924 346.013 231.923 346.013 231.923L345.666 231.563M346.012 231.924C346.011 231.925 346.011 231.925 346.01 231.926L345.666 231.563M346.012 231.924C347.512 230.499 348.781 229.273 349.676 228.403C350.124 227.968 350.477 227.622 350.719 227.384C350.8 227.305 350.869 227.238 350.924 227.184M345.666 231.563C348.663 228.714 350.741 226.662 350.741 226.662M350.924 227.184C350.846 227.176 350.768 227.168 350.691 227.16L350.741 226.662M350.924 227.184C350.951 227.157 350.976 227.133 350.996 227.112L351.068 227.042L351.086 227.024L351.091 227.02L351.092 227.018L351.092 227.018L351.092 227.018L350.741 226.662M350.924 227.184L350.741 226.662M97.2272 452.349L97.2353 452.349L104.516 452.326L104.53 452.326L106.561 452.262L106.562 452.262L112.047 452.075L112.059 452.074L114.971 451.903L119.63 451.629L119.642 451.628L119.642 451.628L122.885 451.358L122.888 451.358L127.595 450.946L127.603 450.945L130.211 450.674L130.213 450.673L135.255 450.135L135.268 450.133L135.268 450.133L135.795 450.063L135.798 450.063L137.53 449.843L137.531 449.843C160.551 446.829 183.265 441.807 205.414 434.835L205.414 434.835C209.102 433.672 212.736 432.473 216.346 431.242C216.963 431.05 217.581 430.829 218.191 430.61C218.594 430.466 218.993 430.323 219.386 430.19L219.393 430.187L226.93 427.51L226.937 427.508L226.943 427.505L231.216 425.848L231.218 425.847L237.136 423.581L237.145 423.577L237.155 423.573L242.223 421.391L242.225 421.39L245.294 420.085L245.298 420.083L247.203 419.251L247.205 419.251L251.199 417.525L251.205 417.523L251.208 417.521C253.175 416.642 255.148 415.76 257.07 414.841C258.183 414.357 259.27 413.841 260.348 413.329C263.289 411.945 266.204 410.529 269.063 409.105L269.07 409.101L269.078 409.097C269.674 408.774 270.255 408.459 270.857 408.177L270.866 408.173L270.875 408.168C271.103 408.05 271.331 407.933 271.559 407.815C273.659 406.731 275.739 405.656 277.803 404.532L277.802 404.533L277.564 404.093L277.803 404.532L97.2272 452.349ZM97.2272 452.349C89.9199 452.255 82.9128 451.855 76.2672 451.129C40.1682 447.154 14.4837 433.967 7.50143 412.254L7.49902 412.246C7.12161 411.002 6.77071 409.755 6.48034 408.485L6.4782 408.475C4.09754 396.923 6.97931 384.362 14.1535 371.563C21.3279 358.764 32.8123 345.693 47.7025 333.092C77.4837 307.889 120.954 284.51 171.052 268.904L171.201 269.381L171.053 268.904C218.157 254.24 262.755 249.028 297.809 252.374C332.818 255.715 358.486 267.617 367.431 287.375L367.431 287.375L367.435 287.386C368.535 289.977 369.343 292.683 369.847 295.453C373.538 313.404 364.541 333.81 346.412 353.79L346.412 353.791L346.403 353.8C345.846 354.382 345.289 354.975 344.728 355.572C343.629 356.741 342.513 357.927 341.354 359.089L341.352 359.092L339.609 360.815L339.601 360.823L339.592 360.831C338.989 361.374 338.369 361.974 337.729 362.595L337.704 362.619C337.075 363.229 336.427 363.857 335.768 364.456C335.767 364.457 335.766 364.457 335.765 364.458L333.744 366.34L333.738 366.346L333.732 366.351L329.293 370.214L329.292 370.214L327.682 371.609L327.671 371.618L327.66 371.627C326.541 372.486 325.409 373.388 324.252 374.308C323.328 375.043 322.389 375.791 321.431 376.538L321.428 376.54L319.454 378.057L319.454 378.057L319.443 378.065C318.612 378.668 317.809 379.275 317.001 379.886L316.998 379.888C316.192 380.497 315.382 381.11 314.543 381.718L314.543 381.718L312.068 383.513L312.06 383.519L312.051 383.524C311.09 384.162 310.124 384.839 309.141 385.527C308.429 386.027 307.708 386.532 306.973 387.033L306.972 387.033L304.675 388.592L304.667 388.598M97.2272 452.349L304.667 388.598M304.667 388.598L304.658 388.603L304.667 388.598ZM373.2 232.176C373.379 232.248 373.558 232.32 373.737 232.393C373.737 232.393 373.576 232.517 373.28 232.747C373.101 232.674 372.922 232.603 372.742 232.532C372.836 232.458 372.922 232.392 372.998 232.333C373.075 232.273 373.143 232.22 373.2 232.176ZM356.039 246.158C356.039 246.158 356.04 246.158 356.04 246.157L356.367 246.536L356.039 246.158C356.039 246.158 356.039 246.158 356.039 246.158ZM346.781 256.319C346.781 256.318 346.781 256.317 346.781 256.316L347.272 256.225L346.782 256.323C346.782 256.322 346.782 256.32 346.781 256.319ZM373.9 288.061C373.9 288.06 373.899 288.059 373.899 288.058L374.358 287.861L373.901 288.065C373.901 288.064 373.9 288.062 373.9 288.061ZM286.453 399.721C286.453 399.721 286.453 399.721 286.453 399.721L286.451 399.722L286.207 399.286L286.455 399.72L286.454 399.72C286.454 399.721 286.454 399.721 286.453 399.721ZM376.729 295.278L376.24 295.384C376.24 295.383 376.24 295.382 376.24 295.382C376.24 295.381 376.24 295.381 376.24 295.38L376.729 295.278ZM288.909 397.726L289.17 398.152C289.168 398.153 289.166 398.154 289.165 398.155C289.163 398.157 289.161 398.158 289.159 398.159L288.909 397.726ZM295.945 394.071L295.936 394.076L295.689 393.642L295.955 394.065C295.952 394.067 295.949 394.069 295.945 394.071ZM296.888 392.913L297.172 393.324C297.169 393.327 297.165 393.329 297.162 393.331C297.158 393.334 297.155 393.336 297.151 393.338L296.888 392.913Z" stroke="black"/>
<path d="M102.337 411.015C93.3519 418.209 98.2385 429.628 106.847 432.249C115.457 434.87 126.856 423.185 138.128 430.799M152.691 382.967C138.839 397.565 156.038 396.007 169.368 403.725C178.465 408.992 155.162 413.582 163.542 422.857C171.36 431.51 191.056 428.622 214.934 422.304" stroke="black"/>
<path d="M99.7102 286.683C99.5745 286.859 99.5713 287.103 99.7022 287.283C99.8331 287.462 100.067 287.534 100.276 287.459L113.288 282.766C113.378 282.733 113.456 282.676 113.514 282.601L121.165 272.679C121.3 272.503 121.304 272.258 121.173 272.079C121.042 271.899 120.808 271.828 120.599 271.903L107.587 276.596C107.497 276.628 107.419 276.686 107.36 276.761L99.7102 286.683Z" fill="url(#paint49_angular_8234_2394)"/>
<path d="M99.7102 286.683C99.5745 286.859 99.5713 287.103 99.7022 287.283C99.8331 287.462 100.067 287.534 100.276 287.459L113.288 282.766C113.378 282.733 113.456 282.676 113.514 282.601L121.165 272.679C121.3 272.503 121.304 272.258 121.173 272.079C121.042 271.899 120.808 271.828 120.599 271.903L107.587 276.596C107.497 276.628 107.419 276.686 107.36 276.761L99.7102 286.683Z" fill="white" fill-opacity="0.5"/>
<path d="M99.7102 286.683C99.5745 286.859 99.5713 287.103 99.7022 287.283C99.8331 287.462 100.067 287.534 100.276 287.459L113.288 282.766C113.378 282.733 113.456 282.676 113.514 282.601L121.165 272.679C121.3 272.503 121.304 272.258 121.173 272.079C121.042 271.899 120.808 271.828 120.599 271.903L107.587 276.596C107.497 276.628 107.419 276.686 107.36 276.761L99.7102 286.683Z" stroke="black" stroke-linejoin="round"/>
<path d="M112.722 281.989C112.589 282.161 112.583 282.399 112.706 282.578L122.629 296.986C122.719 297.117 122.867 297.198 123.027 297.202C123.187 297.206 123.339 297.134 123.436 297.008L131.089 287.089C131.222 286.917 131.228 286.679 131.105 286.5L121.18 272.089C121.089 271.958 120.941 271.877 120.782 271.873C120.622 271.869 120.47 271.941 120.372 272.067L112.722 281.989Z" fill="url(#paint50_angular_8234_2394)"/>
<path d="M112.722 281.989C112.589 282.161 112.583 282.399 112.706 282.578L122.629 296.986C122.719 297.117 122.867 297.198 123.027 297.202C123.187 297.206 123.339 297.134 123.436 297.008L131.089 287.089C131.222 286.917 131.228 286.679 131.105 286.5L121.18 272.089C121.089 271.958 120.941 271.877 120.782 271.873C120.622 271.869 120.47 271.941 120.372 272.067L112.722 281.989Z" fill="white" fill-opacity="0.5"/>
<path d="M112.722 281.989C112.589 282.161 112.583 282.399 112.706 282.578L122.629 296.986C122.719 297.117 122.867 297.198 123.027 297.202C123.187 297.206 123.339 297.134 123.436 297.008L131.089 287.089C131.222 286.917 131.228 286.679 131.105 286.5L121.18 272.089C121.089 271.958 120.941 271.877 120.782 271.873C120.622 271.869 120.47 271.941 120.372 272.067L112.722 281.989Z" stroke="black" stroke-linejoin="round"/>
<path d="M113.53 282.006C113.401 281.818 113.162 281.742 112.948 281.819L99.9358 286.512C99.79 286.564 99.6768 286.682 99.6294 286.829C99.582 286.977 99.6058 287.138 99.6937 287.266L109.616 301.673C109.745 301.86 109.984 301.937 110.198 301.86L123.21 297.167C123.356 297.114 123.469 296.997 123.516 296.85C123.564 296.702 123.54 296.541 123.452 296.413L113.53 282.006Z" fill="white" stroke="black" stroke-linejoin="round"/>
<path d="M63.9531 230.611L63.9531 230.611L63.9502 230.614C63.2392 231.554 62.7533 232.647 62.5292 233.809C61.9209 236.774 62.9975 240.811 65.5649 245.745L65.5651 245.746L66.9833 248.467C67.0621 248.618 67.2126 248.718 67.3825 248.734C67.5524 248.749 67.7183 248.676 67.8225 248.541L75.4753 238.623C75.5944 238.468 75.6129 238.259 75.5228 238.086L74.1025 235.362C74.1024 235.362 74.1023 235.362 74.1022 235.362C71.5578 230.461 70.6234 226.693 71.1597 224.085L71.1597 224.085L71.1608 224.079C71.3565 223.067 71.7806 222.117 72.4001 221.3C72.5665 221.081 72.5243 220.768 72.3056 220.601C72.0869 220.433 71.7741 220.474 71.6059 220.692L71.6035 220.696L63.9531 230.611Z" fill="url(#paint51_angular_8234_2394)"/>
<path d="M63.9531 230.611L63.9531 230.611L63.9502 230.614C63.2392 231.554 62.7533 232.647 62.5292 233.809C61.9209 236.774 62.9975 240.811 65.5649 245.745L65.5651 245.746L66.9833 248.467C67.0621 248.618 67.2126 248.718 67.3825 248.734C67.5524 248.749 67.7183 248.676 67.8225 248.541L75.4753 238.623C75.5944 238.468 75.6129 238.259 75.5228 238.086L74.1025 235.362C74.1024 235.362 74.1023 235.362 74.1022 235.362C71.5578 230.461 70.6234 226.693 71.1597 224.085L71.1597 224.085L71.1608 224.079C71.3565 223.067 71.7806 222.117 72.4001 221.3C72.5665 221.081 72.5243 220.768 72.3056 220.601C72.0869 220.433 71.7741 220.474 71.6059 220.692L71.6035 220.696L63.9531 230.611Z" fill="white" fill-opacity="0.5"/>
<path d="M63.9531 230.611L63.9531 230.611L63.9502 230.614C63.2392 231.554 62.7533 232.647 62.5292 233.809C61.9209 236.774 62.9975 240.811 65.5649 245.745L65.5651 245.746L66.9833 248.467C67.0621 248.618 67.2126 248.718 67.3825 248.734C67.5524 248.749 67.7183 248.676 67.8225 248.541L75.4753 238.623C75.5944 238.468 75.6129 238.259 75.5228 238.086L74.1025 235.362C74.1024 235.362 74.1023 235.362 74.1022 235.362C71.5578 230.461 70.6234 226.693 71.1597 224.085L71.1597 224.085L71.1608 224.079C71.3565 223.067 71.7806 222.117 72.4001 221.3C72.5665 221.081 72.5243 220.768 72.3056 220.601C72.0869 220.433 71.7741 220.474 71.6059 220.692L71.6035 220.696L63.9531 230.611Z" stroke="black" stroke-linejoin="round"/>
<path d="M89.4191 205.125L89.419 205.125C81.7317 202.178 74.0477 202.05 66.5669 204.74L66.5659 204.741C62.15 206.339 58.797 208.594 56.5167 211.53L56.5158 211.531L48.8776 221.43C48.8727 221.437 48.8679 221.443 48.863 221.449C48.863 221.449 48.863 221.449 48.863 221.449C48.8629 221.45 48.8628 221.45 48.8627 221.45C48.6942 221.668 48.7349 221.982 48.9535 222.151C49.1722 222.319 49.486 222.279 49.6547 222.06L49.6549 222.06C49.6597 222.054 49.6646 222.047 49.6694 222.041C51.7937 219.293 54.983 217.127 59.2518 215.6L59.2529 215.599C66.4828 212.994 73.9244 213.12 81.3994 215.989L81.3994 215.989L81.4048 215.991C88.738 218.708 95.0735 223.642 99.5307 230.11C102.105 233.847 103.697 237.619 104.286 241.324C104.853 244.911 104.473 249.461 103.056 255.291L103.056 255.291C101.994 259.67 101.788 261.783 101.822 262.824L101.822 262.83C101.887 264.291 102.218 265.731 102.797 267.078C103.26 268.209 104.437 270.467 107.366 274.858L107.367 274.86L109.176 277.542C109.266 277.675 109.414 277.757 109.575 277.762C109.735 277.767 109.889 277.695 109.987 277.568L117.641 267.643C117.772 267.472 117.78 267.237 117.659 267.058L115.854 264.381C112.922 259.985 111.798 257.806 111.377 256.775L111.377 256.775L111.374 256.767C110.844 255.53 110.54 254.209 110.478 252.869C110.456 251.975 110.637 249.968 111.684 245.605C113.104 239.724 113.526 235.019 112.933 231.251L112.933 231.25C112.316 227.372 110.653 223.458 108.011 219.622C103.448 212.994 97.1954 208.11 89.4191 205.125Z" fill="url(#paint52_angular_8234_2394)"/>
<path d="M89.4191 205.125L89.419 205.125C81.7317 202.178 74.0477 202.05 66.5669 204.74L66.5659 204.741C62.15 206.339 58.797 208.594 56.5167 211.53L56.5158 211.531L48.8776 221.43C48.8727 221.437 48.8679 221.443 48.863 221.449C48.863 221.449 48.863 221.449 48.863 221.449C48.8629 221.45 48.8628 221.45 48.8627 221.45C48.6942 221.668 48.7349 221.982 48.9535 222.151C49.1722 222.319 49.486 222.279 49.6547 222.06L49.6549 222.06C49.6597 222.054 49.6646 222.047 49.6694 222.041C51.7937 219.293 54.983 217.127 59.2518 215.6L59.2529 215.599C66.4828 212.994 73.9244 213.12 81.3994 215.989L81.3994 215.989L81.4048 215.991C88.738 218.708 95.0735 223.642 99.5307 230.11C102.105 233.847 103.697 237.619 104.286 241.324C104.853 244.911 104.473 249.461 103.056 255.291L103.056 255.291C101.994 259.67 101.788 261.783 101.822 262.824L101.822 262.83C101.887 264.291 102.218 265.731 102.797 267.078C103.26 268.209 104.437 270.467 107.366 274.858L107.367 274.86L109.176 277.542C109.266 277.675 109.414 277.757 109.575 277.762C109.735 277.767 109.889 277.695 109.987 277.568L117.641 267.643C117.772 267.472 117.78 267.237 117.659 267.058L115.854 264.381C112.922 259.985 111.798 257.806 111.377 256.775L111.377 256.775L111.374 256.767C110.844 255.53 110.54 254.209 110.478 252.869C110.456 251.975 110.637 249.968 111.684 245.605C113.104 239.724 113.526 235.019 112.933 231.251L112.933 231.25C112.316 227.372 110.653 223.458 108.011 219.622C103.448 212.994 97.1954 208.11 89.4191 205.125Z" fill="white" fill-opacity="0.5"/>
<path d="M89.4191 205.125L89.419 205.125C81.7317 202.178 74.0477 202.05 66.5669 204.74L66.5659 204.741C62.15 206.339 58.797 208.594 56.5167 211.53L56.5158 211.531L48.8776 221.43C48.8727 221.437 48.8679 221.443 48.863 221.449C48.863 221.449 48.863 221.449 48.863 221.449C48.8629 221.45 48.8628 221.45 48.8627 221.45C48.6942 221.668 48.7349 221.982 48.9535 222.151C49.1722 222.319 49.486 222.279 49.6547 222.06L49.6549 222.06C49.6597 222.054 49.6646 222.047 49.6694 222.041C51.7937 219.293 54.983 217.127 59.2518 215.6L59.2529 215.599C66.4828 212.994 73.9244 213.12 81.3994 215.989L81.3994 215.989L81.4048 215.991C88.738 218.708 95.0735 223.642 99.5307 230.11C102.105 233.847 103.697 237.619 104.286 241.324C104.853 244.911 104.473 249.461 103.056 255.291L103.056 255.291C101.994 259.67 101.788 261.783 101.822 262.824L101.822 262.83C101.887 264.291 102.218 265.731 102.797 267.078C103.26 268.209 104.437 270.467 107.366 274.858L107.367 274.86L109.176 277.542C109.266 277.675 109.414 277.757 109.575 277.762C109.735 277.767 109.889 277.695 109.987 277.568L117.641 267.643C117.772 267.472 117.78 267.237 117.659 267.058L115.854 264.381C112.922 259.985 111.798 257.806 111.377 256.775L111.377 256.775L111.374 256.767C110.844 255.53 110.54 254.209 110.478 252.869C110.456 251.975 110.637 249.968 111.684 245.605C113.104 239.724 113.526 235.019 112.933 231.251L112.933 231.25C112.316 227.372 110.653 223.458 108.011 219.622C103.448 212.994 97.1954 208.11 89.4191 205.125Z" stroke="black" stroke-linejoin="round"/>
<path d="M67.8702 248.005L66.4522 245.285L68.4683 228.702C71.4276 227.638 74.6096 227.8 78.1832 229.28C81.7721 230.766 84.4149 232.822 86.353 235.642L86.3528 235.642L86.3605 235.652C87.3011 236.947 87.9268 238.443 88.1868 240.018C88.3453 241.098 88.3284 243.371 87.2275 247.868L87.2274 247.868C86.2264 251.961 85.6757 254.978 85.5658 257.1C85.4098 259.922 85.747 262.754 86.562 265.469L86.562 265.469C87.5903 268.892 89.5249 272.672 92.2989 276.705C92.7565 277.384 93.4542 278.353 94.3435 279.584C94.3436 279.584 94.3438 279.584 94.3439 279.584L96.2341 282.21C96.3646 282.392 96.5994 282.464 96.8095 282.389L109.752 277.721C109.897 277.668 110.01 277.552 110.058 277.406C110.106 277.259 110.083 277.099 109.997 276.971L108.189 274.29C105.259 269.898 104.136 267.718 103.712 266.683L103.712 266.683L103.709 266.675C103.177 265.439 102.874 264.119 102.813 262.779C102.794 261.888 102.975 259.88 104.019 255.514C105.439 249.633 105.862 244.928 105.265 241.156L105.265 241.155C104.649 237.277 102.988 233.367 100.346 229.531L100.346 229.531C95.7774 222.902 89.2851 217.841 81.768 215.05C74.0796 212.1 66.3913 211.964 58.927 214.654C51.8418 217.204 47.4581 221.514 45.9987 227.502C44.5462 233.461 46.1692 240.622 50.695 248.755C50.6951 248.755 50.6951 248.755 50.6952 248.755L52.2604 251.573C52.3668 251.765 52.5857 251.865 52.8003 251.82L67.5296 248.725C67.6827 248.693 67.8119 248.591 67.8788 248.45C67.9457 248.308 67.9425 248.144 67.8702 248.005ZM66.452 245.284C63.9042 240.387 62.9732 236.616 63.5095 234.008C63.7797 232.694 64.3133 231.631 65.1177 230.77C65.9249 229.907 67.027 229.222 68.4677 228.702L66.452 245.284Z" fill="white" stroke="black" stroke-linejoin="round"/>
<path d="M180.868 253.769C180.837 253.675 180.779 253.593 180.702 253.532L169.489 244.706C169.316 244.569 169.074 244.562 168.893 244.689C168.712 244.815 168.636 245.045 168.705 245.254L171.191 252.839C171.222 252.932 171.279 253.015 171.357 253.076L182.569 261.911C182.742 262.047 182.984 262.054 183.165 261.928C183.345 261.801 183.422 261.572 183.353 261.362L180.868 253.769Z" fill="url(#paint53_angular_8234_2394)"/>
<path d="M180.868 253.769C180.837 253.675 180.779 253.593 180.702 253.532L169.489 244.706C169.316 244.569 169.074 244.562 168.893 244.689C168.712 244.815 168.636 245.045 168.705 245.254L171.191 252.839C171.222 252.932 171.279 253.015 171.357 253.076L182.569 261.911C182.742 262.047 182.984 262.054 183.165 261.928C183.345 261.801 183.422 261.572 183.353 261.362L180.868 253.769Z" fill="white" fill-opacity="0.5"/>
<path d="M180.868 253.769C180.837 253.675 180.779 253.593 180.702 253.532L169.489 244.706C169.316 244.569 169.074 244.562 168.893 244.689C168.712 244.815 168.636 245.045 168.705 245.254L171.191 252.839C171.222 252.932 171.279 253.015 171.357 253.076L182.569 261.911C182.742 262.047 182.984 262.054 183.165 261.928C183.345 261.801 183.422 261.572 183.353 261.362L180.868 253.769Z" stroke="black" stroke-linejoin="round"/>
<path d="M210.982 254.863L210.981 254.86C209.877 251.557 207.584 248.782 204.547 247.072C202.69 245.921 200.624 245.145 198.466 244.791L198.466 244.791L198.459 244.789C196.764 244.538 195.04 244.571 193.356 244.884C189.4 245.598 185.326 248.148 181.26 252.366C181.26 252.366 181.259 252.366 181.259 252.367L180.064 253.596C179.935 253.73 179.89 253.924 179.948 254.101L182.434 261.685C182.489 261.851 182.626 261.977 182.797 262.017C182.967 262.056 183.146 262.003 183.268 261.878L184.464 260.647L184.465 260.645C188.455 256.507 192.35 254.123 196.021 253.461L196.021 253.461L196.024 253.461C197.598 253.167 199.21 253.137 200.794 253.371C202.825 253.701 204.769 254.432 206.514 255.52C206.515 255.521 206.517 255.522 206.519 255.523C206.523 255.526 206.528 255.529 206.532 255.531C209.355 257.127 211.487 259.708 212.518 262.779C212.606 263.04 212.888 263.181 213.149 263.095C213.411 263.008 213.553 262.726 213.467 262.465L213.466 262.461L210.982 254.863Z" fill="url(#paint54_angular_8234_2394)"/>
<path d="M210.982 254.863L210.981 254.86C209.877 251.557 207.584 248.782 204.547 247.072C202.69 245.921 200.624 245.145 198.466 244.791L198.466 244.791L198.459 244.789C196.764 244.538 195.04 244.571 193.356 244.884C189.4 245.598 185.326 248.148 181.26 252.366C181.26 252.366 181.259 252.366 181.259 252.367L180.064 253.596C179.935 253.73 179.89 253.924 179.948 254.101L182.434 261.685C182.489 261.851 182.626 261.977 182.797 262.017C182.967 262.056 183.146 262.003 183.268 261.878L184.464 260.647L184.465 260.645C188.455 256.507 192.35 254.123 196.021 253.461L196.021 253.461L196.024 253.461C197.598 253.167 199.21 253.137 200.794 253.371C202.825 253.701 204.769 254.432 206.514 255.52C206.515 255.521 206.517 255.522 206.519 255.523C206.523 255.526 206.528 255.529 206.532 255.531C209.355 257.127 211.487 259.708 212.518 262.779C212.606 263.04 212.888 263.181 213.149 263.095C213.411 263.008 213.553 262.726 213.467 262.465L213.466 262.461L210.982 254.863Z" fill="white" fill-opacity="0.5"/>
<path d="M210.982 254.863L210.981 254.86C209.877 251.557 207.584 248.782 204.547 247.072C202.69 245.921 200.624 245.145 198.466 244.791L198.466 244.791L198.459 244.789C196.764 244.538 195.04 244.571 193.356 244.884C189.4 245.598 185.326 248.148 181.26 252.366C181.26 252.366 181.259 252.366 181.259 252.367L180.064 253.596C179.935 253.73 179.89 253.924 179.948 254.101L182.434 261.685C182.489 261.851 182.626 261.977 182.797 262.017C182.967 262.056 183.146 262.003 183.268 261.878L184.464 260.647L184.465 260.645C188.455 256.507 192.35 254.123 196.021 253.461L196.021 253.461L196.024 253.461C197.598 253.167 199.21 253.137 200.794 253.371C202.825 253.701 204.769 254.432 206.514 255.52C206.515 255.521 206.517 255.522 206.519 255.523C206.523 255.526 206.528 255.529 206.532 255.531C209.355 257.127 211.487 259.708 212.518 262.779C212.606 263.04 212.888 263.181 213.149 263.095C213.411 263.008 213.553 262.726 213.467 262.465L213.466 262.461L210.982 254.863Z" stroke="black" stroke-linejoin="round"/>
<path d="M176.095 298.487C176.058 298.374 175.982 298.278 175.88 298.216L164.272 291.146C164.093 291.037 163.865 291.051 163.701 291.181C163.537 291.311 163.471 291.53 163.537 291.729L166.022 299.322C166.059 299.435 166.136 299.532 166.237 299.594L177.847 306.655C178.026 306.763 178.253 306.749 178.417 306.619C178.581 306.489 178.647 306.271 178.582 306.072L176.095 298.487Z" fill="url(#paint55_angular_8234_2394)"/>
<path d="M176.095 298.487C176.058 298.374 175.982 298.278 175.88 298.216L164.272 291.146C164.093 291.037 163.865 291.051 163.701 291.181C163.537 291.311 163.471 291.53 163.537 291.729L166.022 299.322C166.059 299.435 166.136 299.532 166.237 299.594L177.847 306.655C178.026 306.763 178.253 306.749 178.417 306.619C178.581 306.489 178.647 306.271 178.582 306.072L176.095 298.487Z" fill="white" fill-opacity="0.5"/>
<path d="M176.095 298.487C176.058 298.374 175.982 298.278 175.88 298.216L164.272 291.146C164.093 291.037 163.865 291.051 163.701 291.181C163.537 291.311 163.471 291.53 163.537 291.729L166.022 299.322C166.059 299.435 166.136 299.532 166.237 299.594L177.847 306.655C178.026 306.763 178.253 306.749 178.417 306.619C178.581 306.489 178.647 306.271 178.582 306.072L176.095 298.487Z" stroke="black" stroke-linejoin="round"/>
<path d="M225.258 252.811L227.712 260.308L225.258 252.811ZM225.258 252.811C225.248 252.779 225.238 252.748 225.227 252.716C225.227 252.715 225.227 252.715 225.227 252.715C225.14 252.453 224.858 252.31 224.596 252.396C224.334 252.483 224.191 252.765 224.277 253.027L224.277 253.028C224.287 253.059 224.298 253.091 224.308 253.122C224.468 253.615 224.61 254.113 224.734 254.618L224.734 254.618L224.736 254.628C225.586 257.804 225.709 261.13 225.095 264.359C224.481 267.588 223.147 270.637 221.191 273.281L221.191 273.28L221.184 273.29C218.898 276.542 215.844 279.18 212.292 280.971C208.735 282.759 203.514 284.193 196.188 285.328C192.983 285.738 189.818 286.411 186.724 287.34C186.712 287.343 186.701 287.347 186.691 287.351C185.038 287.976 183.504 288.88 182.158 290.024C182.151 290.03 182.145 290.036 182.138 290.042C179.928 292.13 177.945 294.445 176.221 296.949L175.191 298.333C175.094 298.464 175.066 298.633 175.117 298.787L177.602 306.381C177.66 306.558 177.813 306.688 177.997 306.718C178.181 306.749 178.367 306.673 178.479 306.523L179.514 305.132C179.515 305.13 179.516 305.128 179.518 305.127C179.52 305.123 179.523 305.12 179.525 305.116C181.205 302.669 183.141 300.408 185.301 298.371C186.551 297.306 187.976 296.465 189.513 295.886C192.551 294.972 195.659 294.312 198.807 293.913L198.807 293.913L198.82 293.911C206.184 292.77 211.565 291.31 215.228 289.457M225.258 252.811L227.713 260.309C227.893 260.855 228.052 261.408 228.189 261.968C229.076 265.287 229.204 268.763 228.562 272.138C227.921 275.513 226.527 278.7 224.484 281.464C222.104 284.848 218.924 287.593 215.228 289.457M215.228 289.457C215.228 289.457 215.228 289.457 215.227 289.457L215.002 289.011L215.228 289.457C215.228 289.457 215.228 289.457 215.228 289.457Z" fill="url(#paint56_angular_8234_2394)"/>
<path d="M225.258 252.811L227.712 260.308L225.258 252.811ZM225.258 252.811C225.248 252.779 225.238 252.748 225.227 252.716C225.227 252.715 225.227 252.715 225.227 252.715C225.14 252.453 224.858 252.31 224.596 252.396C224.334 252.483 224.191 252.765 224.277 253.027L224.277 253.028C224.287 253.059 224.298 253.091 224.308 253.122C224.468 253.615 224.61 254.113 224.734 254.618L224.734 254.618L224.736 254.628C225.586 257.804 225.709 261.13 225.095 264.359C224.481 267.588 223.147 270.637 221.191 273.281L221.191 273.28L221.184 273.29C218.898 276.542 215.844 279.18 212.292 280.971C208.735 282.759 203.514 284.193 196.188 285.328C192.983 285.738 189.818 286.411 186.724 287.34C186.712 287.343 186.701 287.347 186.691 287.351C185.038 287.976 183.504 288.88 182.158 290.024C182.151 290.03 182.145 290.036 182.138 290.042C179.928 292.13 177.945 294.445 176.221 296.949L175.191 298.333C175.094 298.464 175.066 298.633 175.117 298.787L177.602 306.381C177.66 306.558 177.813 306.688 177.997 306.718C178.181 306.749 178.367 306.673 178.479 306.523L179.514 305.132C179.515 305.13 179.516 305.128 179.518 305.127C179.52 305.123 179.523 305.12 179.525 305.116C181.205 302.669 183.141 300.408 185.301 298.371C186.551 297.306 187.976 296.465 189.513 295.886C192.551 294.972 195.659 294.312 198.807 293.913L198.807 293.913L198.82 293.911C206.184 292.77 211.565 291.31 215.228 289.457M225.258 252.811L227.713 260.309C227.893 260.855 228.052 261.408 228.189 261.968C229.076 265.287 229.204 268.763 228.562 272.138C227.921 275.513 226.527 278.7 224.484 281.464C222.104 284.848 218.924 287.593 215.228 289.457M215.228 289.457C215.228 289.457 215.228 289.457 215.227 289.457L215.002 289.011L215.228 289.457C215.228 289.457 215.228 289.457 215.228 289.457Z" fill="white" fill-opacity="0.5"/>
<path d="M225.258 252.811L227.712 260.308L225.258 252.811ZM225.258 252.811C225.248 252.779 225.238 252.748 225.227 252.716C225.227 252.715 225.227 252.715 225.227 252.715C225.14 252.453 224.858 252.31 224.596 252.396C224.334 252.483 224.191 252.765 224.277 253.027L224.277 253.028C224.287 253.059 224.298 253.091 224.308 253.122C224.468 253.615 224.61 254.113 224.734 254.618L224.734 254.618L224.736 254.628C225.586 257.804 225.709 261.13 225.095 264.359C224.481 267.588 223.147 270.637 221.191 273.281L221.191 273.28L221.184 273.29C218.898 276.542 215.844 279.18 212.292 280.971C208.735 282.759 203.514 284.193 196.188 285.328C192.983 285.738 189.818 286.411 186.724 287.34C186.712 287.343 186.701 287.347 186.691 287.351C185.038 287.976 183.504 288.88 182.158 290.024C182.151 290.03 182.145 290.036 182.138 290.042C179.928 292.13 177.945 294.445 176.221 296.949L175.191 298.333C175.094 298.464 175.066 298.633 175.117 298.787L177.602 306.381C177.66 306.558 177.813 306.688 177.997 306.718C178.181 306.749 178.367 306.673 178.479 306.523L179.514 305.132C179.515 305.13 179.516 305.128 179.518 305.127C179.52 305.123 179.523 305.12 179.525 305.116C181.205 302.669 183.141 300.408 185.301 298.371C186.551 297.306 187.976 296.465 189.513 295.886C192.551 294.972 195.659 294.312 198.807 293.913L198.807 293.913L198.82 293.911C206.184 292.77 211.565 291.31 215.228 289.457M225.258 252.811L227.713 260.309C227.893 260.855 228.052 261.408 228.189 261.968C229.076 265.287 229.204 268.763 228.562 272.138C227.921 275.513 226.527 278.7 224.484 281.464C222.104 284.848 218.924 287.593 215.228 289.457M215.228 289.457C215.228 289.457 215.228 289.457 215.227 289.457L215.002 289.011L215.228 289.457C215.228 289.457 215.228 289.457 215.228 289.457Z" stroke="black" stroke-linejoin="round"/>
<path d="M198.461 231.885L198.461 231.885L198.452 231.883C195.602 231.463 192.704 231.483 189.86 231.942C182.643 233.053 175.99 236.932 170.088 243.469C170.088 243.469 170.087 243.469 170.087 243.469L168.884 244.794C168.791 244.897 168.745 245.034 168.756 245.172C168.768 245.31 168.836 245.437 168.945 245.523L180.157 254.358C180.358 254.517 180.647 254.498 180.825 254.314L182.022 253.083L182.023 253.081C186.013 248.943 189.909 246.551 193.579 245.889L193.582 245.888C195.156 245.595 196.768 245.564 198.352 245.799C200.382 246.133 202.326 246.863 204.073 247.948C204.079 247.952 204.086 247.956 204.093 247.96C205.713 248.865 207.121 250.107 208.22 251.601C209.319 253.096 210.083 254.809 210.462 256.624C210.464 256.63 210.465 256.636 210.467 256.643C210.883 258.313 210.929 260.055 210.601 261.745C210.272 263.435 209.578 265.033 208.567 266.427L208.567 266.427L208.562 266.433C207.483 267.971 206.03 269.211 204.34 270.037L204.339 270.037C202.53 270.923 199.208 271.758 194.394 272.502C190.615 273.011 186.872 273.759 183.188 274.74L183.187 274.74L183.178 274.742C180.238 275.59 177.448 276.885 174.903 278.581L174.891 278.589C171.588 280.932 168.728 283.842 166.444 287.184C166.007 287.79 165.382 288.707 164.593 289.888L163.61 291.306C163.531 291.419 163.503 291.56 163.532 291.695C163.56 291.83 163.644 291.947 163.762 292.019L175.365 299.044C175.585 299.178 175.871 299.122 176.025 298.915L177.061 297.523L177.063 297.52C177.066 297.516 177.069 297.512 177.071 297.508C178.754 295.063 180.69 292.802 182.848 290.763C184.1 289.701 185.525 288.86 187.06 288.278C190.099 287.366 193.207 286.706 196.354 286.304L196.354 286.304L196.367 286.302C203.731 285.162 209.076 283.707 212.773 281.849L212.774 281.849C216.471 279.985 219.65 277.239 222.031 273.855C224.074 271.092 225.468 267.905 226.11 264.53C226.751 261.155 226.623 257.678 225.736 254.359C224.007 247.395 219.209 241.515 211.566 236.863C207.573 234.349 203.117 232.657 198.461 231.885Z" fill="white" stroke="black" stroke-linejoin="round"/>
<path d="M163.194 316.731C163.157 316.618 163.081 316.521 162.979 316.459L151.354 309.38C151.175 309.271 150.947 309.285 150.783 309.415C150.619 309.545 150.553 309.763 150.619 309.962L153.104 317.556C153.141 317.669 153.218 317.765 153.32 317.827L164.945 324.898C165.124 325.007 165.352 324.993 165.516 324.863C165.68 324.733 165.746 324.514 165.68 324.315L163.194 316.731Z" fill="url(#paint57_angular_8234_2394)"/>
<path d="M163.194 316.731C163.157 316.618 163.081 316.521 162.979 316.459L151.354 309.38C151.175 309.271 150.947 309.285 150.783 309.415C150.619 309.545 150.553 309.763 150.619 309.962L153.104 317.556C153.141 317.669 153.218 317.765 153.32 317.827L164.945 324.898C165.124 325.007 165.352 324.993 165.516 324.863C165.68 324.733 165.746 324.514 165.68 324.315L163.194 316.731Z" fill="white" fill-opacity="0.5"/>
<path d="M163.194 316.731C163.157 316.618 163.081 316.521 162.979 316.459L151.354 309.38C151.175 309.271 150.947 309.285 150.783 309.415C150.619 309.545 150.553 309.763 150.619 309.962L153.104 317.556C153.141 317.669 153.218 317.765 153.32 317.827L164.945 324.898C165.124 325.007 165.352 324.993 165.516 324.863C165.68 324.733 165.746 324.514 165.68 324.315L163.194 316.731Z" stroke="black" stroke-linejoin="round"/>
<path d="M171.208 305.453C171.149 305.273 170.995 305.142 170.808 305.114C170.621 305.085 170.435 305.165 170.325 305.319L162.317 316.598C162.225 316.727 162.2 316.892 162.249 317.043L164.736 324.628C164.794 324.807 164.949 324.938 165.136 324.966C165.322 324.994 165.509 324.915 165.618 324.761L173.626 313.491C173.718 313.362 173.743 313.196 173.694 313.046L171.208 305.453Z" fill="url(#paint58_angular_8234_2394)"/>
<path d="M171.208 305.453C171.149 305.273 170.995 305.142 170.808 305.114C170.621 305.085 170.435 305.165 170.325 305.319L162.317 316.598C162.225 316.727 162.2 316.892 162.249 317.043L164.736 324.628C164.794 324.807 164.949 324.938 165.136 324.966C165.322 324.994 165.509 324.915 165.618 324.761L173.626 313.491C173.718 313.362 173.743 313.196 173.694 313.046L171.208 305.453Z" fill="white" fill-opacity="0.5"/>
<path d="M171.208 305.453C171.149 305.273 170.995 305.142 170.808 305.114C170.621 305.085 170.435 305.165 170.325 305.319L162.317 316.598C162.225 316.727 162.2 316.892 162.249 317.043L164.736 324.628C164.794 324.807 164.949 324.938 165.136 324.966C165.322 324.994 165.509 324.915 165.618 324.761L173.626 313.491C173.718 313.362 173.743 313.196 173.694 313.046L171.208 305.453Z" stroke="black" stroke-linejoin="round"/>
<path d="M159.355 298.109C159.131 297.973 158.84 298.033 158.688 298.247L150.689 309.518C150.608 309.631 150.579 309.772 150.607 309.908C150.635 310.044 150.718 310.162 150.836 310.234L162.461 317.314C162.686 317.45 162.977 317.39 163.129 317.176L171.138 305.897C171.218 305.784 171.248 305.643 171.22 305.507C171.192 305.371 171.108 305.253 170.99 305.18L159.355 298.109Z" fill="white" stroke="black" stroke-linejoin="round"/>
<path d="M128.484 344.743C128.487 344.698 128.483 344.652 128.474 344.608L126.964 337.679C126.911 337.435 126.685 337.268 126.436 337.287C126.187 337.307 125.99 337.508 125.976 337.757L125.672 343.105C125.669 343.15 125.673 343.195 125.682 343.24L127.195 350.173C127.249 350.418 127.474 350.585 127.724 350.565C127.973 350.545 128.169 350.345 128.183 350.095L128.484 344.743Z" fill="url(#paint59_angular_8234_2394)"/>
<path d="M128.484 344.743C128.487 344.698 128.483 344.652 128.474 344.608L126.964 337.679C126.911 337.435 126.685 337.268 126.436 337.287C126.187 337.307 125.99 337.508 125.976 337.757L125.672 343.105C125.669 343.15 125.673 343.195 125.682 343.24L127.195 350.173C127.249 350.418 127.474 350.585 127.724 350.565C127.973 350.545 128.169 350.345 128.183 350.095L128.484 344.743Z" fill="white" fill-opacity="0.5"/>
<path d="M128.484 344.743C128.487 344.698 128.483 344.652 128.474 344.608L126.964 337.679C126.911 337.435 126.685 337.268 126.436 337.287C126.187 337.307 125.99 337.508 125.976 337.757L125.672 343.105C125.669 343.15 125.673 343.195 125.682 343.24L127.195 350.173C127.249 350.418 127.474 350.585 127.724 350.565C127.973 350.545 128.169 350.345 128.183 350.095L128.484 344.743Z" stroke="black" stroke-linejoin="round"/>
<path d="M126.487 337.286C126.333 337.282 126.187 337.349 126.089 337.467C125.992 337.586 125.954 337.742 125.986 337.892L127.496 344.821C127.545 345.046 127.742 345.209 127.973 345.214L138.884 345.476C139.037 345.479 139.183 345.412 139.281 345.294C139.379 345.176 139.417 345.019 139.384 344.87L137.875 337.937C137.826 337.712 137.629 337.549 137.398 337.544L126.487 337.286Z" fill="white" stroke="black" stroke-linejoin="round"/>
<path d="M139.398 345.005C139.406 344.87 139.358 344.737 139.267 344.638C139.175 344.538 139.047 344.48 138.911 344.477L128.001 344.216C127.731 344.209 127.505 344.418 127.489 344.687L127.188 350.04C127.181 350.175 127.228 350.307 127.32 350.407C127.412 350.506 127.54 350.564 127.676 350.567L138.587 350.825C138.857 350.832 139.083 350.623 139.098 350.354L139.398 345.005Z" fill="url(#paint60_angular_8234_2394)"/>
<path d="M139.398 345.005C139.406 344.87 139.358 344.737 139.267 344.638C139.175 344.538 139.047 344.48 138.911 344.477L128.001 344.216C127.731 344.209 127.505 344.418 127.489 344.687L127.188 350.04C127.181 350.175 127.228 350.307 127.32 350.407C127.412 350.506 127.54 350.564 127.676 350.567L138.587 350.825C138.857 350.832 139.083 350.623 139.098 350.354L139.398 345.005Z" fill="white" fill-opacity="0.5"/>
<path d="M139.398 345.005C139.406 344.87 139.358 344.737 139.267 344.638C139.175 344.538 139.047 344.48 138.911 344.477L128.001 344.216C127.731 344.209 127.505 344.418 127.489 344.687L127.188 350.04C127.181 350.175 127.228 350.307 127.32 350.407C127.412 350.506 127.54 350.564 127.676 350.567L138.587 350.825C138.857 350.832 139.083 350.623 139.098 350.354L139.398 345.005Z" stroke="black" stroke-linejoin="round"/>
<path d="M117.133 344.019L117.117 344.018C114.109 343.973 111.077 343.584 108.103 342.86C105.922 342.292 103.806 341.495 101.808 340.489C99.4227 339.223 97.1124 337.849 94.8884 336.373L94.8885 336.372L94.883 336.369C92.0242 334.524 89.7592 333.285 88.193 332.722L88.1921 332.722C86.6855 332.184 85.099 331.892 83.5226 331.865C80.7106 331.729 78.0249 332.466 75.9793 333.966C75.3656 334.408 74.8333 334.929 74.3996 335.516C74.3734 335.552 74.352 335.59 74.336 335.632C73.8525 336.392 73.5568 337.243 73.4668 338.136C73.4662 338.143 73.4656 338.15 73.4652 338.156L73.4525 338.367L73.4525 338.367L73.4524 338.369L73.1631 343.529C73.1477 343.803 73.356 344.038 73.6299 344.056C73.9037 344.074 74.1407 343.867 74.1609 343.594C74.2191 342.804 74.4935 342.057 74.9656 341.407L74.9656 341.407L74.9678 341.404C75.9184 340.075 77.6295 339.112 79.6548 338.608C81.6709 338.106 83.9332 338.077 85.9116 338.552C88.4365 339.2 90.697 340.434 92.9237 341.828C93.5826 342.241 94.242 342.67 94.9049 343.101C96.4581 344.112 98.0302 345.135 99.6594 345.987C106.323 349.864 113.734 350.54 120.973 350.412C121.235 350.407 121.448 350.201 121.463 349.94L121.768 344.593C121.776 344.454 121.725 344.317 121.628 344.217C121.532 344.117 121.397 344.061 121.258 344.064C119.764 344.095 118.399 344.079 117.133 344.019Z" fill="url(#paint61_angular_8234_2394)"/>
<path d="M117.133 344.019L117.117 344.018C114.109 343.973 111.077 343.584 108.103 342.86C105.922 342.292 103.806 341.495 101.808 340.489C99.4227 339.223 97.1124 337.849 94.8884 336.373L94.8885 336.372L94.883 336.369C92.0242 334.524 89.7592 333.285 88.193 332.722L88.1921 332.722C86.6855 332.184 85.099 331.892 83.5226 331.865C80.7106 331.729 78.0249 332.466 75.9793 333.966C75.3656 334.408 74.8333 334.929 74.3996 335.516C74.3734 335.552 74.352 335.59 74.336 335.632C73.8525 336.392 73.5568 337.243 73.4668 338.136C73.4662 338.143 73.4656 338.15 73.4652 338.156L73.4525 338.367L73.4525 338.367L73.4524 338.369L73.1631 343.529C73.1477 343.803 73.356 344.038 73.6299 344.056C73.9037 344.074 74.1407 343.867 74.1609 343.594C74.2191 342.804 74.4935 342.057 74.9656 341.407L74.9656 341.407L74.9678 341.404C75.9184 340.075 77.6295 339.112 79.6548 338.608C81.6709 338.106 83.9332 338.077 85.9116 338.552C88.4365 339.2 90.697 340.434 92.9237 341.828C93.5826 342.241 94.242 342.67 94.9049 343.101C96.4581 344.112 98.0302 345.135 99.6594 345.987C106.323 349.864 113.734 350.54 120.973 350.412C121.235 350.407 121.448 350.201 121.463 349.94L121.768 344.593C121.776 344.454 121.725 344.317 121.628 344.217C121.532 344.117 121.397 344.061 121.258 344.064C119.764 344.095 118.399 344.079 117.133 344.019Z" fill="white" fill-opacity="0.5"/>
<path d="M117.133 344.019L117.117 344.018C114.109 343.973 111.077 343.584 108.103 342.86C105.922 342.292 103.806 341.495 101.808 340.489C99.4227 339.223 97.1124 337.849 94.8884 336.373L94.8885 336.372L94.883 336.369C92.0242 334.524 89.7592 333.285 88.193 332.722L88.1921 332.722C86.6855 332.184 85.099 331.892 83.5226 331.865C80.7106 331.729 78.0249 332.466 75.9793 333.966C75.3656 334.408 74.8333 334.929 74.3996 335.516C74.3734 335.552 74.352 335.59 74.336 335.632C73.8525 336.392 73.5568 337.243 73.4668 338.136C73.4662 338.143 73.4656 338.15 73.4652 338.156L73.4525 338.367L73.4525 338.367L73.4524 338.369L73.1631 343.529C73.1477 343.803 73.356 344.038 73.6299 344.056C73.9037 344.074 74.1407 343.867 74.1609 343.594C74.2191 342.804 74.4935 342.057 74.9656 341.407L74.9656 341.407L74.9678 341.404C75.9184 340.075 77.6295 339.112 79.6548 338.608C81.6709 338.106 83.9332 338.077 85.9116 338.552C88.4365 339.2 90.697 340.434 92.9237 341.828C93.5826 342.241 94.242 342.67 94.9049 343.101C96.4581 344.112 98.0302 345.135 99.6594 345.987C106.323 349.864 113.734 350.54 120.973 350.412C121.235 350.407 121.448 350.201 121.463 349.94L121.768 344.593C121.776 344.454 121.725 344.317 121.628 344.217C121.532 344.117 121.397 344.061 121.258 344.064C119.764 344.095 118.399 344.079 117.133 344.019Z" stroke="black" stroke-linejoin="round"/>
<path d="M64.5249 336.038C64.5399 335.773 64.3467 335.543 64.084 335.512C63.8214 335.482 63.5801 335.661 63.5335 335.921C62.1352 343.74 64.2795 349.76 69.0575 353.976C73.8047 358.165 81.0913 360.521 89.8932 361.193C90.027 361.203 90.1593 361.159 90.2603 361.071C90.3613 360.982 90.4226 360.857 90.4304 360.723L90.742 355.382C90.7576 355.113 90.5587 354.881 90.2914 354.855L88.8795 354.717C88.8793 354.717 88.8791 354.717 88.8789 354.717C82.0469 354.033 76.4932 352.339 72.3725 349.674L72.3726 349.674L72.3656 349.67C70.3757 348.428 68.6772 346.876 67.377 345.117C66.077 343.359 65.2058 341.435 64.8123 339.472L64.8124 339.472L64.8102 339.462C64.5558 338.317 64.4605 337.168 64.5249 336.038Z" fill="url(#paint62_angular_8234_2394)"/>
<path d="M64.5249 336.038C64.5399 335.773 64.3467 335.543 64.084 335.512C63.8214 335.482 63.5801 335.661 63.5335 335.921C62.1352 343.74 64.2795 349.76 69.0575 353.976C73.8047 358.165 81.0913 360.521 89.8932 361.193C90.027 361.203 90.1593 361.159 90.2603 361.071C90.3613 360.982 90.4226 360.857 90.4304 360.723L90.742 355.382C90.7576 355.113 90.5587 354.881 90.2914 354.855L88.8795 354.717C88.8793 354.717 88.8791 354.717 88.8789 354.717C82.0469 354.033 76.4932 352.339 72.3725 349.674L72.3726 349.674L72.3656 349.67C70.3757 348.428 68.6772 346.876 67.377 345.117C66.077 343.359 65.2058 341.435 64.8123 339.472L64.8124 339.472L64.8102 339.462C64.5558 338.317 64.4605 337.168 64.5249 336.038Z" fill="white" fill-opacity="0.5"/>
<path d="M64.5249 336.038C64.5399 335.773 64.3467 335.543 64.084 335.512C63.8214 335.482 63.5801 335.661 63.5335 335.921C62.1352 343.74 64.2795 349.76 69.0575 353.976C73.8047 358.165 81.0913 360.521 89.8932 361.193C90.027 361.203 90.1593 361.159 90.2603 361.071C90.3613 360.982 90.4226 360.857 90.4304 360.723L90.742 355.382C90.7576 355.113 90.5587 354.881 90.2914 354.855L88.8795 354.717C88.8793 354.717 88.8791 354.717 88.8789 354.717C82.0469 354.033 76.4932 352.339 72.3725 349.674L72.3726 349.674L72.3656 349.67C70.3757 348.428 68.6772 346.876 67.377 345.117C66.077 343.359 65.2058 341.435 64.8123 339.472L64.8124 339.472L64.8102 339.462C64.5558 338.317 64.4605 337.168 64.5249 336.038Z" stroke="black" stroke-linejoin="round"/>
<path d="M90.8618 326.233L90.8642 326.234C93.8419 327.277 97.4249 329.162 101.824 331.982L101.824 331.982C104.57 333.743 106.537 334.883 107.689 335.392C108.864 335.901 110.1 336.275 111.362 336.504L111.365 336.504C112.774 336.771 115.131 336.968 118.406 337.085C118.407 337.085 118.408 337.085 118.408 337.085L119.779 337.123C120.01 337.13 120.206 337.292 120.254 337.518L121.752 344.458C121.784 344.606 121.747 344.76 121.652 344.878C121.556 344.996 121.413 345.064 121.262 345.063L119.912 345.059L119.911 345.059C118.787 345.051 117.92 345.042 117.326 345.033C117.326 345.033 117.326 345.033 117.326 345.033L90.8618 326.233ZM90.8618 326.233C87.7835 325.172 84.5565 324.599 81.3521 324.544C75.6679 324.408 70.9785 325.717 67.5462 328.435C65.8204 329.801 64.6338 331.44 64.0133 333.34C63.394 335.236 63.3488 337.358 63.8522 339.679C64.2742 341.793 65.2068 343.848 66.5822 345.713C67.9579 347.578 69.7474 349.213 71.8321 350.516C76.1347 353.284 81.8466 355.025 88.7779 355.716C88.7779 355.716 88.778 355.716 88.778 355.716L90.1901 355.857C90.3333 355.871 90.4758 355.823 90.581 355.725C90.6862 355.627 90.744 355.488 90.7396 355.344L90.5164 348.098C90.5088 347.851 90.3222 347.647 90.077 347.617L88.7214 347.452L88.721 347.452C84.1744 346.902 80.7483 345.902 78.501 344.526C76.2467 343.147 74.999 341.537 74.5819 339.618L74.5817 339.617C74.3634 338.62 74.4245 337.749 74.7416 336.973C75.0601 336.193 75.6535 335.468 76.5666 334.794C78.4062 333.446 80.862 332.756 83.48 332.883L83.4952 332.883C84.9636 332.91 86.4447 333.181 87.8536 333.682C89.31 334.206 91.4936 335.391 94.3581 337.229L90.8618 326.233Z" fill="white" stroke="black" stroke-linejoin="round"/>
</g>
<defs>
<linearGradient id="paint0_linear_8234_2394" x1="440.612" y1="101.769" x2="432.839" y2="262.353" gradientUnits="userSpaceOnUse">
<stop stop-color="#9E889E"/>
<stop offset="1" stop-color="#212552"/>
</linearGradient>
<linearGradient id="paint1_linear_8234_2394" x1="428.588" y1="132.797" x2="448.885" y2="328.946" gradientUnits="userSpaceOnUse">
<stop stop-color="#9E889E"/>
<stop offset="1" stop-color="#212552"/>
</linearGradient>
<linearGradient id="paint2_linear_8234_2394" x1="-57.82" y1="321.862" x2="158.801" y2="660.526" gradientUnits="userSpaceOnUse">
<stop offset="0.01" stop-color="#E36732"/>
<stop offset="0.99" stop-color="#8C0C3F"/>
</linearGradient>
<linearGradient id="paint3_linear_8234_2394" x1="390.55" y1="99.3714" x2="382.805" y2="259.926" gradientUnits="userSpaceOnUse">
<stop stop-color="#9E889E"/>
<stop offset="1" stop-color="#212552"/>
</linearGradient>
<linearGradient id="paint4_linear_8234_2394" x1="372.972" y1="188.942" x2="378.881" y2="222.94" gradientUnits="userSpaceOnUse">
<stop stop-color="#9E889E"/>
<stop offset="1" stop-color="#212552"/>
</linearGradient>
<linearGradient id="paint5_linear_8234_2394" x1="357.839" y1="140.106" x2="378.135" y2="336.283" gradientUnits="userSpaceOnUse">
<stop stop-color="#9E889E"/>
<stop offset="1" stop-color="#212552"/>
</linearGradient>
<linearGradient id="paint6_linear_8234_2394" x1="360.335" y1="191.155" x2="366.245" y2="225.153" gradientUnits="userSpaceOnUse">
<stop stop-color="#9E889E"/>
<stop offset="1" stop-color="#212552"/>
</linearGradient>
<linearGradient id="paint7_linear_8234_2394" x1="125.286" y1="204.745" x2="341.917" y2="543.409" gradientUnits="userSpaceOnUse">
<stop offset="0.01" stop-color="#E36732"/>
<stop offset="0.99" stop-color="#8C0C3F"/>
</linearGradient>
<linearGradient id="paint8_linear_8234_2394" x1="54.8156" y1="249.333" x2="367.795" y2="506.65" gradientUnits="userSpaceOnUse">
<stop stop-color="#B8CFCE"/>
<stop offset="0.06" stop-color="#B0CCCA"/>
<stop offset="0.41" stop-color="#83B8B6"/>
<stop offset="0.59" stop-color="#72B0AE"/>
<stop offset="0.67" stop-color="#79B3B1"/>
<stop offset="0.8" stop-color="#8DBCBB"/>
<stop offset="0.96" stop-color="#AECBCA"/>
<stop offset="1" stop-color="#B8CFCE"/>
</linearGradient>
<linearGradient id="paint9_linear_8234_2394" x1="-99.6526" y1="589.208" x2="534.021" y2="296.839" gradientUnits="userSpaceOnUse">
<stop stop-color="#9E889E"/>
<stop offset="1" stop-color="#212552"/>
</linearGradient>
<linearGradient id="paint10_linear_8234_2394" x1="135.744" y1="198.051" x2="352.38" y2="536.718" gradientUnits="userSpaceOnUse">
<stop offset="0.01" stop-color="#E36732"/>
<stop offset="0.99" stop-color="#8C0C3F"/>
</linearGradient>
<linearGradient id="paint11_linear_8234_2394" x1="62.0413" y1="240.555" x2="374.997" y2="497.874" gradientUnits="userSpaceOnUse">
<stop stop-color="#B8CFCE"/>
<stop offset="0.06" stop-color="#B0CCCA"/>
<stop offset="0.41" stop-color="#83B8B6"/>
<stop offset="0.59" stop-color="#72B0AE"/>
<stop offset="0.67" stop-color="#79B3B1"/>
<stop offset="0.8" stop-color="#8DBCBB"/>
<stop offset="0.96" stop-color="#AECBCA"/>
<stop offset="1" stop-color="#B8CFCE"/>
</linearGradient>
<linearGradient id="paint12_linear_8234_2394" x1="-99.75" y1="589.013" x2="533.932" y2="296.644" gradientUnits="userSpaceOnUse">
<stop stop-color="#9E889E"/>
<stop offset="1" stop-color="#212552"/>
</linearGradient>
<linearGradient id="paint13_linear_8234_2394" x1="165.774" y1="178.859" x2="382.379" y2="517.524" gradientUnits="userSpaceOnUse">
<stop offset="0.01" stop-color="#E36732"/>
<stop offset="0.99" stop-color="#8C0C3F"/>
</linearGradient>
<linearGradient id="paint14_linear_8234_2394" x1="83.2334" y1="214.784" x2="396.186" y2="472.102" gradientUnits="userSpaceOnUse">
<stop stop-color="#B8CFCE"/>
<stop offset="0.06" stop-color="#B0CCCA"/>
<stop offset="0.41" stop-color="#83B8B6"/>
<stop offset="0.59" stop-color="#72B0AE"/>
<stop offset="0.67" stop-color="#79B3B1"/>
<stop offset="0.8" stop-color="#8DBCBB"/>
<stop offset="0.96" stop-color="#AECBCA"/>
<stop offset="1" stop-color="#B8CFCE"/>
</linearGradient>
<linearGradient id="paint15_linear_8234_2394" x1="282.394" y1="132.355" x2="330.558" y2="680.979" gradientUnits="userSpaceOnUse">
<stop stop-color="#9E889E"/>
<stop offset="1" stop-color="#212552"/>
</linearGradient>
<linearGradient id="paint16_linear_8234_2394" x1="174.474" y1="173.281" x2="391.106" y2="511.945" gradientUnits="userSpaceOnUse">
<stop offset="0.01" stop-color="#E36732"/>
<stop offset="0.99" stop-color="#8C0C3F"/>
</linearGradient>
<linearGradient id="paint17_linear_8234_2394" x1="89.5044" y1="207.14" x2="402.485" y2="464.458" gradientUnits="userSpaceOnUse">
<stop stop-color="#B8CFCE"/>
<stop offset="0.06" stop-color="#B0CCCA"/>
<stop offset="0.41" stop-color="#83B8B6"/>
<stop offset="0.59" stop-color="#72B0AE"/>
<stop offset="0.67" stop-color="#79B3B1"/>
<stop offset="0.8" stop-color="#8DBCBB"/>
<stop offset="0.96" stop-color="#AECBCA"/>
<stop offset="1" stop-color="#B8CFCE"/>
</linearGradient>
<linearGradient id="paint18_linear_8234_2394" x1="291.406" y1="131.563" x2="339.597" y2="680.184" gradientUnits="userSpaceOnUse">
<stop stop-color="#9E889E"/>
<stop offset="1" stop-color="#212552"/>
</linearGradient>
<linearGradient id="paint19_linear_8234_2394" x1="139.874" y1="195.395" x2="356.507" y2="534.061" gradientUnits="userSpaceOnUse">
<stop offset="0.01" stop-color="#E36732"/>
<stop offset="0.99" stop-color="#8C0C3F"/>
</linearGradient>
<linearGradient id="paint20_linear_8234_2394" x1="64.9305" y1="237.053" x2="377.883" y2="494.372" gradientUnits="userSpaceOnUse">
<stop stop-color="#B8CFCE"/>
<stop offset="0.06" stop-color="#B0CCCA"/>
<stop offset="0.41" stop-color="#83B8B6"/>
<stop offset="0.59" stop-color="#72B0AE"/>
<stop offset="0.67" stop-color="#79B3B1"/>
<stop offset="0.8" stop-color="#8DBCBB"/>
<stop offset="0.96" stop-color="#AECBCA"/>
<stop offset="1" stop-color="#B8CFCE"/>
</linearGradient>
<linearGradient id="paint21_linear_8234_2394" x1="254.645" y1="134.802" x2="302.808" y2="683.397" gradientUnits="userSpaceOnUse">
<stop stop-color="#9E889E"/>
<stop offset="1" stop-color="#212552"/>
</linearGradient>
<linearGradient id="paint22_linear_8234_2394" x1="204.793" y1="153.883" x2="421.428" y2="492.547" gradientUnits="userSpaceOnUse">
<stop offset="0.01" stop-color="#E36732"/>
<stop offset="0.99" stop-color="#8C0C3F"/>
</linearGradient>
<linearGradient id="paint23_linear_8234_2394" x1="112.058" y1="179.746" x2="425.011" y2="437.062" gradientUnits="userSpaceOnUse">
<stop stop-color="#B8CFCE"/>
<stop offset="0.06" stop-color="#B0CCCA"/>
<stop offset="0.41" stop-color="#83B8B6"/>
<stop offset="0.59" stop-color="#72B0AE"/>
<stop offset="0.67" stop-color="#79B3B1"/>
<stop offset="0.8" stop-color="#8DBCBB"/>
<stop offset="0.96" stop-color="#AECBCA"/>
<stop offset="1" stop-color="#B8CFCE"/>
</linearGradient>
<linearGradient id="paint24_linear_8234_2394" x1="321.369" y1="128.945" x2="369.534" y2="677.542" gradientUnits="userSpaceOnUse">
<stop stop-color="#9E889E"/>
<stop offset="1" stop-color="#212552"/>
</linearGradient>
<linearGradient id="paint25_linear_8234_2394" x1="211.983" y1="149.266" x2="428.618" y2="487.932" gradientUnits="userSpaceOnUse">
<stop offset="0.01" stop-color="#E36732"/>
<stop offset="0.99" stop-color="#8C0C3F"/>
</linearGradient>
<linearGradient id="paint26_linear_8234_2394" x1="117.562" y1="172.997" x2="430.545" y2="430.345" gradientUnits="userSpaceOnUse">
<stop stop-color="#B8CFCE"/>
<stop offset="0.06" stop-color="#B0CCCA"/>
<stop offset="0.41" stop-color="#83B8B6"/>
<stop offset="0.59" stop-color="#72B0AE"/>
<stop offset="0.67" stop-color="#79B3B1"/>
<stop offset="0.8" stop-color="#8DBCBB"/>
<stop offset="0.96" stop-color="#AECBCA"/>
<stop offset="1" stop-color="#B8CFCE"/>
</linearGradient>
<linearGradient id="paint27_linear_8234_2394" x1="328.033" y1="128.35" x2="376.225" y2="676.976" gradientUnits="userSpaceOnUse">
<stop stop-color="#9E889E"/>
<stop offset="1" stop-color="#212552"/>
</linearGradient>
<linearGradient id="paint28_linear_8234_2394" x1="130.829" y1="201.179" x2="347.462" y2="539.846" gradientUnits="userSpaceOnUse">
<stop offset="0.01" stop-color="#E36732"/>
<stop offset="0.99" stop-color="#8C0C3F"/>
</linearGradient>
<linearGradient id="paint29_linear_8234_2394" x1="58.655" y1="244.669" x2="371.61" y2="502.017" gradientUnits="userSpaceOnUse">
<stop stop-color="#B8CFCE"/>
<stop offset="0.06" stop-color="#B0CCCA"/>
<stop offset="0.41" stop-color="#83B8B6"/>
<stop offset="0.59" stop-color="#72B0AE"/>
<stop offset="0.67" stop-color="#79B3B1"/>
<stop offset="0.8" stop-color="#8DBCBB"/>
<stop offset="0.96" stop-color="#AECBCA"/>
<stop offset="1" stop-color="#B8CFCE"/>
</linearGradient>
<linearGradient id="paint30_linear_8234_2394" x1="244.657" y1="135.692" x2="292.849" y2="684.289" gradientUnits="userSpaceOnUse">
<stop stop-color="#9E889E"/>
<stop offset="1" stop-color="#212552"/>
</linearGradient>
<linearGradient id="paint31_linear_8234_2394" x1="182.208" y1="168.314" x2="398.841" y2="506.98" gradientUnits="userSpaceOnUse">
<stop offset="0.01" stop-color="#E36732"/>
<stop offset="0.99" stop-color="#8C0C3F"/>
</linearGradient>
<linearGradient id="paint32_linear_8234_2394" x1="95.1826" y1="200.247" x2="408.137" y2="457.595" gradientUnits="userSpaceOnUse">
<stop stop-color="#B8CFCE"/>
<stop offset="0.06" stop-color="#B0CCCA"/>
<stop offset="0.41" stop-color="#83B8B6"/>
<stop offset="0.59" stop-color="#72B0AE"/>
<stop offset="0.67" stop-color="#79B3B1"/>
<stop offset="0.8" stop-color="#8DBCBB"/>
<stop offset="0.96" stop-color="#AECBCA"/>
<stop offset="1" stop-color="#B8CFCE"/>
</linearGradient>
<linearGradient id="paint33_linear_8234_2394" x1="299.303" y1="130.866" x2="347.466" y2="679.491" gradientUnits="userSpaceOnUse">
<stop stop-color="#9E889E"/>
<stop offset="1" stop-color="#212552"/>
</linearGradient>
<linearGradient id="paint34_linear_8234_2394" x1="190.262" y1="163.172" x2="406.895" y2="501.838" gradientUnits="userSpaceOnUse">
<stop offset="0.01" stop-color="#E36732"/>
<stop offset="0.99" stop-color="#8C0C3F"/>
</linearGradient>
<linearGradient id="paint35_linear_8234_2394" x1="101.122" y1="193.037" x2="414.075" y2="450.355" gradientUnits="userSpaceOnUse">
<stop stop-color="#B8CFCE"/>
<stop offset="0.06" stop-color="#B0CCCA"/>
<stop offset="0.41" stop-color="#83B8B6"/>
<stop offset="0.59" stop-color="#72B0AE"/>
<stop offset="0.67" stop-color="#79B3B1"/>
<stop offset="0.8" stop-color="#8DBCBB"/>
<stop offset="0.96" stop-color="#AECBCA"/>
<stop offset="1" stop-color="#B8CFCE"/>
</linearGradient>
<linearGradient id="paint36_linear_8234_2394" x1="307.349" y1="130.171" x2="355.512" y2="678.795" gradientUnits="userSpaceOnUse">
<stop stop-color="#9E889E"/>
<stop offset="1" stop-color="#212552"/>
</linearGradient>
<linearGradient id="paint37_linear_8234_2394" x1="112.488" y1="212.923" x2="329.122" y2="551.588" gradientUnits="userSpaceOnUse">
<stop offset="0.01" stop-color="#E36732"/>
<stop offset="0.99" stop-color="#8C0C3F"/>
</linearGradient>
<linearGradient id="paint38_linear_8234_2394" x1="46.1118" y1="259.93" x2="359.065" y2="517.276" gradientUnits="userSpaceOnUse">
<stop stop-color="#B8CFCE"/>
<stop offset="0.06" stop-color="#B0CCCA"/>
<stop offset="0.41" stop-color="#83B8B6"/>
<stop offset="0.59" stop-color="#72B0AE"/>
<stop offset="0.67" stop-color="#79B3B1"/>
<stop offset="0.8" stop-color="#8DBCBB"/>
<stop offset="0.96" stop-color="#AECBCA"/>
<stop offset="1" stop-color="#B8CFCE"/>
</linearGradient>
<linearGradient id="paint39_linear_8234_2394" x1="223.998" y1="137.483" x2="272.162" y2="686.108" gradientUnits="userSpaceOnUse">
<stop stop-color="#9E889E"/>
<stop offset="1" stop-color="#212552"/>
</linearGradient>
<linearGradient id="paint40_linear_8234_2394" x1="-13.9403" y1="293.814" x2="202.663" y2="632.479" gradientUnits="userSpaceOnUse">
<stop offset="0.01" stop-color="#E36732"/>
<stop offset="0.99" stop-color="#8C0C3F"/>
</linearGradient>
<linearGradient id="paint41_linear_8234_2394" x1="-33.0568" y1="356.186" x2="279.924" y2="613.532" gradientUnits="userSpaceOnUse">
<stop stop-color="#B8CFCE"/>
<stop offset="0.06" stop-color="#B0CCCA"/>
<stop offset="0.41" stop-color="#83B8B6"/>
<stop offset="0.59" stop-color="#72B0AE"/>
<stop offset="0.67" stop-color="#79B3B1"/>
<stop offset="0.8" stop-color="#8DBCBB"/>
<stop offset="0.96" stop-color="#AECBCA"/>
<stop offset="1" stop-color="#B8CFCE"/>
</linearGradient>
<linearGradient id="paint42_linear_8234_2394" x1="64.3362" y1="151.51" x2="112.499" y2="700.132" gradientUnits="userSpaceOnUse">
<stop stop-color="#9E889E"/>
<stop offset="1" stop-color="#212552"/>
</linearGradient>
<linearGradient id="paint43_linear_8234_2394" x1="19.5785" y1="272.378" x2="236.171" y2="611.011" gradientUnits="userSpaceOnUse">
<stop offset="0.01" stop-color="#E36732"/>
<stop offset="0.99" stop-color="#8C0C3F"/>
</linearGradient>
<linearGradient id="paint44_linear_8234_2394" x1="-13.6817" y1="332.647" x2="299.264" y2="589.968" gradientUnits="userSpaceOnUse">
<stop stop-color="#B8CFCE"/>
<stop offset="0.06" stop-color="#B0CCCA"/>
<stop offset="0.41" stop-color="#83B8B6"/>
<stop offset="0.59" stop-color="#72B0AE"/>
<stop offset="0.67" stop-color="#79B3B1"/>
<stop offset="0.8" stop-color="#8DBCBB"/>
<stop offset="0.96" stop-color="#AECBCA"/>
<stop offset="1" stop-color="#B8CFCE"/>
</linearGradient>
<linearGradient id="paint45_linear_8234_2394" x1="110.452" y1="147.483" x2="158.609" y2="696.058" gradientUnits="userSpaceOnUse">
<stop stop-color="#9E889E"/>
<stop offset="1" stop-color="#212552"/>
</linearGradient>
<linearGradient id="paint46_linear_8234_2394" x1="50.5257" y1="252.565" x2="267.16" y2="591.23" gradientUnits="userSpaceOnUse">
<stop offset="0.01" stop-color="#E36732"/>
<stop offset="0.99" stop-color="#8C0C3F"/>
</linearGradient>
<linearGradient id="paint47_linear_8234_2394" x1="5.79333" y1="308.955" x2="318.748" y2="566.302" gradientUnits="userSpaceOnUse">
<stop stop-color="#B8CFCE"/>
<stop offset="0.06" stop-color="#B0CCCA"/>
<stop offset="0.41" stop-color="#83B8B6"/>
<stop offset="0.59" stop-color="#72B0AE"/>
<stop offset="0.67" stop-color="#79B3B1"/>
<stop offset="0.8" stop-color="#8DBCBB"/>
<stop offset="0.96" stop-color="#AECBCA"/>
<stop offset="1" stop-color="#B8CFCE"/>
</linearGradient>
<linearGradient id="paint48_linear_8234_2394" x1="149.347" y1="144.062" x2="197.511" y2="692.659" gradientUnits="userSpaceOnUse">
<stop stop-color="#9E889E"/>
<stop offset="1" stop-color="#212552"/>
</linearGradient>
<radialGradient id="paint49_angular_8234_2394" cx="0" cy="0" r="1" gradientUnits="userSpaceOnUse" gradientTransform="translate(126.682 275.113) rotate(93.651) scale(28.9757)">
<stop stop-color="#FF0000"/>
<stop offset="0.161458" stop-color="#FAFF00"/>
<stop offset="0.322917" stop-color="#05FB00"/>
<stop offset="0.515625" stop-color="#00FFE0"/>
<stop offset="0.6875" stop-color="#0029FF"/>
<stop offset="0.848958" stop-color="#FF00D6"/>
<stop offset="1" stop-color="#FF0000"/>
</radialGradient>
<radialGradient id="paint50_angular_8234_2394" cx="0" cy="0" r="1" gradientUnits="userSpaceOnUse" gradientTransform="translate(137.557 272.179) rotate(143.916) scale(70.8966 70.8966)">
<stop stop-color="#FF0000"/>
<stop offset="0.161458" stop-color="#FAFF00"/>
<stop offset="0.322917" stop-color="#05FB00"/>
<stop offset="0.515625" stop-color="#00FFE0"/>
<stop offset="0.6875" stop-color="#0029FF"/>
<stop offset="0.848958" stop-color="#FF00D6"/>
<stop offset="1" stop-color="#FF0000"/>
</radialGradient>
<radialGradient id="paint51_angular_8234_2394" cx="0" cy="0" r="1" gradientUnits="userSpaceOnUse" gradientTransform="translate(75.6484 238.286) rotate(-144.967) scale(38.3209 38.3209)">
<stop stop-color="#FF0000"/>
<stop offset="0.161458" stop-color="#FAFF00"/>
<stop offset="0.322917" stop-color="#05FB00"/>
<stop offset="0.515625" stop-color="#00FFE0"/>
<stop offset="0.6875" stop-color="#0029FF"/>
<stop offset="0.848958" stop-color="#FF00D6"/>
<stop offset="1" stop-color="#FF0000"/>
</radialGradient>
<radialGradient id="paint52_angular_8234_2394" cx="0" cy="0" r="1" gradientUnits="userSpaceOnUse" gradientTransform="translate(90.6971 239.019) rotate(-81.084) scale(65.5493 65.5493)">
<stop stop-color="#FF0000"/>
<stop offset="0.161458" stop-color="#FAFF00"/>
<stop offset="0.322917" stop-color="#05FB00"/>
<stop offset="0.515625" stop-color="#00FFE0"/>
<stop offset="0.6875" stop-color="#0029FF"/>
<stop offset="0.848958" stop-color="#FF00D6"/>
<stop offset="1" stop-color="#FF0000"/>
</radialGradient>
<radialGradient id="paint53_angular_8234_2394" cx="0" cy="0" r="1" gradientUnits="userSpaceOnUse" gradientTransform="translate(160.844 252.007) rotate(-130.336) scale(36.1608)">
<stop stop-color="#FF0000"/>
<stop offset="0.161458" stop-color="#FAFF00"/>
<stop offset="0.322917" stop-color="#05FB00"/>
<stop offset="0.515625" stop-color="#00FFE0"/>
<stop offset="0.6875" stop-color="#0029FF"/>
<stop offset="0.848958" stop-color="#FF00D6"/>
<stop offset="1" stop-color="#FF0000"/>
</radialGradient>
<radialGradient id="paint54_angular_8234_2394" cx="0" cy="0" r="1" gradientUnits="userSpaceOnUse" gradientTransform="translate(174.113 262.246) rotate(4.66355) scale(69.6592 69.6592)">
<stop stop-color="#FF0000"/>
<stop offset="0.161458" stop-color="#FAFF00"/>
<stop offset="0.322917" stop-color="#05FB00"/>
<stop offset="0.515625" stop-color="#00FFE0"/>
<stop offset="0.6875" stop-color="#0029FF"/>
<stop offset="0.848958" stop-color="#FF00D6"/>
<stop offset="1" stop-color="#FF0000"/>
</radialGradient>
<radialGradient id="paint55_angular_8234_2394" cx="0" cy="0" r="1" gradientUnits="userSpaceOnUse" gradientTransform="translate(155.619 297.585) rotate(-40.3364) scale(38.4241)">
<stop stop-color="#FF0000"/>
<stop offset="0.161458" stop-color="#FAFF00"/>
<stop offset="0.322917" stop-color="#05FB00"/>
<stop offset="0.515625" stop-color="#00FFE0"/>
<stop offset="0.6875" stop-color="#0029FF"/>
<stop offset="0.848958" stop-color="#FF00D6"/>
<stop offset="1" stop-color="#FF0000"/>
</radialGradient>
<radialGradient id="paint56_angular_8234_2394" cx="0" cy="0" r="1" gradientUnits="userSpaceOnUse" gradientTransform="translate(151.433 275.236) rotate(-85.3364) scale(97.9996 97.9996)">
<stop stop-color="#FF0000"/>
<stop offset="0.161458" stop-color="#FAFF00"/>
<stop offset="0.322917" stop-color="#05FB00"/>
<stop offset="0.515625" stop-color="#00FFE0"/>
<stop offset="0.6875" stop-color="#0029FF"/>
<stop offset="0.848958" stop-color="#FF00D6"/>
<stop offset="1" stop-color="#FF0000"/>
</radialGradient>
<radialGradient id="paint57_angular_8234_2394" cx="0" cy="0" r="1" gradientUnits="userSpaceOnUse" gradientTransform="translate(142.692 315.822) rotate(-175.336) scale(50.1641 50.1641)">
<stop stop-color="#FF0000"/>
<stop offset="0.161458" stop-color="#FAFF00"/>
<stop offset="0.322917" stop-color="#05FB00"/>
<stop offset="0.515625" stop-color="#00FFE0"/>
<stop offset="0.6875" stop-color="#0029FF"/>
<stop offset="0.848958" stop-color="#FF00D6"/>
<stop offset="1" stop-color="#FF0000"/>
</radialGradient>
<radialGradient id="paint58_angular_8234_2394" cx="0" cy="0" r="1" gradientUnits="userSpaceOnUse" gradientTransform="translate(157.682 314.121) rotate(49.6636) scale(37.1794 37.1794)">
<stop stop-color="#FF0000"/>
<stop offset="0.161458" stop-color="#FAFF00"/>
<stop offset="0.322917" stop-color="#05FB00"/>
<stop offset="0.515625" stop-color="#00FFE0"/>
<stop offset="0.6875" stop-color="#0029FF"/>
<stop offset="0.848958" stop-color="#FF00D6"/>
<stop offset="1" stop-color="#FF0000"/>
</radialGradient>
<radialGradient id="paint59_angular_8234_2394" cx="0" cy="0" r="1" gradientUnits="userSpaceOnUse" gradientTransform="translate(127.08 343.926) rotate(16.4872) scale(2.70181 5.71661)">
<stop stop-color="#FF0000"/>
<stop offset="0.161458" stop-color="#FAFF00"/>
<stop offset="0.322917" stop-color="#05FB00"/>
<stop offset="0.515625" stop-color="#00FFE0"/>
<stop offset="0.6875" stop-color="#0029FF"/>
<stop offset="0.848958" stop-color="#FF00D6"/>
<stop offset="1" stop-color="#FF0000"/>
</radialGradient>
<radialGradient id="paint60_angular_8234_2394" cx="0" cy="0" r="1" gradientUnits="userSpaceOnUse" gradientTransform="translate(142.987 341.718) rotate(-157.456) scale(78 78)">
<stop stop-color="#FF0000"/>
<stop offset="0.161458" stop-color="#FAFF00"/>
<stop offset="0.322917" stop-color="#05FB00"/>
<stop offset="0.515625" stop-color="#00FFE0"/>
<stop offset="0.6875" stop-color="#0029FF"/>
<stop offset="0.848958" stop-color="#FF00D6"/>
<stop offset="1" stop-color="#FF0000"/>
</radialGradient>
<radialGradient id="paint61_angular_8234_2394" cx="0" cy="0" r="1" gradientUnits="userSpaceOnUse" gradientTransform="translate(97.7863 361.933) rotate(67.5439) scale(70.7107 70.7107)">
<stop stop-color="#FF0000"/>
<stop offset="0.161458" stop-color="#FAFF00"/>
<stop offset="0.322917" stop-color="#05FB00"/>
<stop offset="0.515625" stop-color="#00FFE0"/>
<stop offset="0.6875" stop-color="#0029FF"/>
<stop offset="0.848958" stop-color="#FF00D6"/>
<stop offset="1" stop-color="#FF0000"/>
</radialGradient>
<radialGradient id="paint62_angular_8234_2394" cx="0" cy="0" r="1" gradientUnits="userSpaceOnUse" gradientTransform="translate(76.8066 348.932) rotate(-7.80335) scale(109.922 109.922)">
<stop stop-color="#FF0000"/>
<stop offset="0.161458" stop-color="#FAFF00"/>
<stop offset="0.322917" stop-color="#05FB00"/>
<stop offset="0.515625" stop-color="#00FFE0"/>
<stop offset="0.6875" stop-color="#0029FF"/>
<stop offset="0.848958" stop-color="#FF00D6"/>
<stop offset="1" stop-color="#FF0000"/>
</radialGradient>
<clipPath id="clip0_8234_2394">
<rect width="499" height="667" fill="white" transform="matrix(-1 0 0 1 499 0)"/>
</clipPath>
</defs>
</svg>
