<svg width="836" height="507" viewBox="0 0 836 507" fill="none" xmlns="http://www.w3.org/2000/svg">
<mask id="path-1-inside-1_10210_4506" fill="white">
<path d="M377.4 146C377.4 172.8 371.2 197.2 358.8 219.2C346.4 240.8 328 258 303.6 270.8C279.6 283.6 250.4 290 216 290H163.2V425H30V0.199997H216C268 0.199997 307.8 13.4 335.4 39.8C363.4 66.2 377.4 101.6 377.4 146ZM201 185C228.6 185 242.4 172 242.4 146C242.4 120 228.6 107 201 107H163.2V185H201ZM596.648 0.199997C641.048 0.199997 679.848 9.19999 713.048 27.2C746.648 45.2 772.448 70.2 790.448 102.2C808.448 134.2 817.448 170.6 817.448 211.4C817.448 251.8 808.448 288.2 790.448 320.6C772.448 353 746.648 378.6 713.048 397.4C679.848 415.8 641.048 425 596.648 425H419.648V0.199997H596.648ZM584.648 306.2C614.648 306.2 638.448 298 656.048 281.6C673.648 265.2 682.448 241.8 682.448 211.4C682.448 181 673.648 157.6 656.048 141.2C638.448 124.8 614.648 116.6 584.648 116.6H552.848V306.2H584.648Z"/>
</mask>
<path d="M358.8 219.2L360.535 220.196L360.538 220.189L360.542 220.182L358.8 219.2ZM303.6 270.8L302.671 269.029L302.659 269.035L303.6 270.8ZM163.2 290V288H161.2V290H163.2ZM163.2 425V427H165.2V425H163.2ZM30 425H28V427H30V425ZM30 0.199997V-1.8H28V0.199997H30ZM335.4 39.8L334.018 41.2453L334.023 41.2502L334.028 41.2552L335.4 39.8ZM163.2 107V105H161.2V107H163.2ZM163.2 185H161.2V187H163.2V185ZM375.4 146C375.4 172.478 369.278 196.536 357.058 218.218L360.542 220.182C373.122 197.864 379.4 173.122 379.4 146H375.4ZM357.066 218.204C344.875 239.44 326.771 256.386 302.671 269.029L304.529 272.571C329.229 259.614 347.925 242.16 360.535 220.196L357.066 218.204ZM302.659 269.035C279.015 281.645 250.157 288 216 288V292C250.643 292 280.185 285.555 304.541 272.565L302.659 269.035ZM216 288H163.2V292H216V288ZM161.2 290V425H165.2V290H161.2ZM163.2 423H30V427H163.2V423ZM32 425V0.199997H28V425H32ZM30 2.2H216V-1.8H30V2.2ZM216 2.2C267.675 2.2 306.907 15.3137 334.018 41.2453L336.782 38.3547C308.693 11.4862 268.325 -1.8 216 -1.8V2.2ZM334.028 41.2552C361.564 67.2181 375.4 102.058 375.4 146H379.4C379.4 101.142 365.236 65.1818 336.772 38.3448L334.028 41.2552ZM201 187C215.08 187 226.011 183.686 233.421 176.706C240.854 169.704 244.4 159.34 244.4 146H240.4C240.4 158.66 237.046 167.796 230.679 173.794C224.289 179.814 214.52 183 201 183V187ZM244.4 146C244.4 132.66 240.854 122.296 233.421 115.294C226.011 108.314 215.08 105 201 105V109C214.52 109 224.289 112.186 230.679 118.206C237.046 124.204 240.4 133.34 240.4 146H244.4ZM201 105H163.2V109H201V105ZM161.2 107V185H165.2V107H161.2ZM163.2 187H201V183H163.2V187ZM713.048 27.2L712.095 28.9582L712.104 28.9629L713.048 27.2ZM790.448 102.2L792.192 101.219L790.448 102.2ZM790.448 320.6L792.197 321.571L790.448 320.6ZM713.048 397.4L714.018 399.149L714.025 399.145L713.048 397.4ZM419.648 425H417.648V427H419.648V425ZM419.648 0.199997V-1.8H417.648V0.199997H419.648ZM656.048 281.6L657.412 283.063L656.048 281.6ZM656.048 141.2L657.412 139.737L656.048 141.2ZM552.848 116.6V114.6H550.848V116.6H552.848ZM552.848 306.2H550.848V308.2H552.848V306.2ZM596.648 2.2C640.774 2.2 679.235 11.1426 712.095 28.9582L714.002 25.4418C680.461 7.25733 641.323 -1.8 596.648 -1.8V2.2ZM712.104 28.9629C745.382 46.7906 770.899 71.525 788.705 103.18L792.192 101.219C773.998 68.8749 747.915 43.6094 713.993 25.437L712.104 28.9629ZM788.705 103.18C806.519 134.849 815.448 170.904 815.448 211.4H819.448C819.448 170.296 810.378 133.551 792.192 101.219L788.705 103.18ZM815.448 211.4C815.448 251.492 806.521 287.552 788.7 319.629L792.197 321.571C810.376 288.848 819.448 252.108 819.448 211.4H815.448ZM788.7 319.629C770.888 351.691 745.361 377.029 712.072 395.655L714.025 399.145C747.936 380.171 774.009 354.309 792.197 321.571L788.7 319.629ZM712.079 395.651C679.222 413.86 640.767 423 596.648 423V427C641.33 427 680.474 417.74 714.018 399.149L712.079 395.651ZM596.648 423H419.648V427H596.648V423ZM421.648 425V0.199997H417.648V425H421.648ZM419.648 2.2H596.648V-1.8H419.648V2.2ZM584.648 308.2C615.024 308.2 639.356 299.888 657.412 283.063L654.685 280.137C637.541 296.112 614.273 304.2 584.648 304.2V308.2ZM657.412 283.063C675.519 266.19 684.448 242.199 684.448 211.4H680.448C680.448 241.401 671.778 264.21 654.685 280.137L657.412 283.063ZM684.448 211.4C684.448 180.601 675.519 156.61 657.412 139.737L654.685 142.663C671.778 158.59 680.448 181.399 680.448 211.4H684.448ZM657.412 139.737C639.356 122.912 615.024 114.6 584.648 114.6V118.6C614.273 118.6 637.541 126.688 654.685 142.663L657.412 139.737ZM584.648 114.6H552.848V118.6H584.648V114.6ZM550.848 116.6V306.2H554.848V116.6H550.848ZM552.848 308.2H584.648V304.2H552.848V308.2Z" fill="white" mask="url(#path-1-inside-1_10210_4506)"/>
</svg>
