<svg width="788" height="384" viewBox="0 0 788 384" fill="none" xmlns="http://www.w3.org/2000/svg">
<mask id="path-1-inside-1_7601_2662" fill="white">
<path d="M347.4 105C347.4 131.8 341.2 156.2 328.8 178.2C316.4 199.8 298 217 273.6 229.8C249.6 242.6 220.4 249 186 249H133.2V384H4.47035e-07V-40.8H186C238 -40.8 277.8 -27.6 305.4 -1.20001C333.4 25.2 347.4 60.6 347.4 105ZM171 144C198.6 144 212.4 131 212.4 105C212.4 79 198.6 66 171 66H133.2V144H171ZM566.648 -40.8C611.048 -40.8 649.848 -31.8 683.048 -13.8C716.648 4.19998 742.448 29.2 760.448 61.2C778.448 93.2 787.448 129.6 787.448 170.4C787.448 210.8 778.448 247.2 760.448 279.6C742.448 312 716.648 337.6 683.048 356.4C649.848 374.8 611.048 384 566.648 384H389.648V-40.8H566.648ZM554.648 265.2C584.648 265.2 608.448 257 626.048 240.6C643.648 224.2 652.448 200.8 652.448 170.4C652.448 140 643.648 116.6 626.048 100.2C608.448 83.8 584.648 75.6 554.648 75.6H522.848V265.2H554.648Z"/>
</mask>
<path d="M328.8 178.2L330.535 179.196L330.538 179.189L330.542 179.182L328.8 178.2ZM273.6 229.8L272.671 228.029L272.659 228.035L273.6 229.8ZM133.2 249V247H131.2V249H133.2ZM133.2 384V386H135.2V384H133.2ZM0 384H-2V386H0V384ZM0 -40.8V-42.8H-2V-40.8H0ZM305.4 -1.20001L304.018 0.245272L304.023 0.250238L304.028 0.255167L305.4 -1.20001ZM133.2 66V64H131.2V66H133.2ZM133.2 144H131.2V146H133.2V144ZM345.4 105C345.4 131.478 339.278 155.536 327.058 177.218L330.542 179.182C343.122 156.864 349.4 132.122 349.4 105H345.4ZM327.066 177.204C314.875 198.44 296.771 215.386 272.671 228.029L274.529 231.571C299.229 218.614 317.925 201.16 330.535 179.196L327.066 177.204ZM272.659 228.035C249.015 240.645 220.157 247 186 247V251C220.643 251 250.185 244.555 274.541 231.565L272.659 228.035ZM186 247H133.2V251H186V247ZM131.2 249V384H135.2V249H131.2ZM133.2 382H0V386H133.2V382ZM2 384V-40.8H-2V384H2ZM0 -38.8H186V-42.8H0V-38.8ZM186 -38.8C237.675 -38.8 276.907 -25.6863 304.018 0.245272L306.782 -2.6453C278.693 -29.5138 238.325 -42.8 186 -42.8V-38.8ZM304.028 0.255167C331.564 26.2181 345.4 61.0582 345.4 105H349.4C349.4 60.1418 335.236 24.1818 306.772 -2.65519L304.028 0.255167ZM171 146C185.08 146 196.011 142.686 203.421 135.706C210.854 128.704 214.4 118.34 214.4 105H210.4C210.4 117.66 207.046 126.796 200.679 132.794C194.289 138.814 184.52 142 171 142V146ZM214.4 105C214.4 91.6601 210.854 81.296 203.421 74.2942C196.011 67.3135 185.08 64 171 64V68C184.52 68 194.289 71.1864 200.679 77.2058C207.046 83.204 210.4 92.3398 210.4 105H214.4ZM171 64H133.2V68H171V64ZM131.2 66V144H135.2V66H131.2ZM133.2 146H171V142H133.2V146ZM683.048 -13.8L682.095 -12.0418L682.104 -12.0371L683.048 -13.8ZM760.448 61.2L762.192 60.2194L760.448 61.2ZM760.448 279.6L762.197 280.571L760.448 279.6ZM683.048 356.4L684.018 358.149L684.025 358.145L683.048 356.4ZM389.648 384H387.648V386H389.648V384ZM389.648 -40.8V-42.8H387.648V-40.8H389.648ZM626.048 240.6L627.412 242.063L626.048 240.6ZM626.048 100.2L627.412 98.7368L626.048 100.2ZM522.848 75.6V73.6H520.848V75.6H522.848ZM522.848 265.2H520.848V267.2H522.848V265.2ZM566.648 -38.8C610.774 -38.8 649.235 -29.8574 682.095 -12.0418L684.002 -15.5582C650.461 -33.7427 611.323 -42.8 566.648 -42.8V-38.8ZM682.104 -12.0371C715.382 5.79059 740.899 30.525 758.705 62.1805L762.192 60.2194C743.998 27.8749 717.915 2.60937 683.993 -15.563L682.104 -12.0371ZM758.705 62.1805C776.519 93.8488 785.448 129.904 785.448 170.4H789.448C789.448 129.296 780.378 92.5511 762.192 60.2194L758.705 62.1805ZM785.448 170.4C785.448 210.492 776.521 246.552 758.7 278.629L762.197 280.571C780.376 247.848 789.448 211.108 789.448 170.4H785.448ZM758.7 278.629C740.888 310.691 715.361 336.029 682.072 354.655L684.025 358.145C717.936 339.171 744.009 313.309 762.197 280.571L758.7 278.629ZM682.079 354.651C649.222 372.86 610.767 382 566.648 382V386C611.33 386 650.474 376.74 684.018 358.149L682.079 354.651ZM566.648 382H389.648V386H566.648V382ZM391.648 384V-40.8H387.648V384H391.648ZM389.648 -38.8H566.648V-42.8H389.648V-38.8ZM554.648 267.2C585.024 267.2 609.356 258.888 627.412 242.063L624.685 239.137C607.541 255.112 584.273 263.2 554.648 263.2V267.2ZM627.412 242.063C645.519 225.19 654.448 201.199 654.448 170.4H650.448C650.448 200.401 641.778 223.21 624.685 239.137L627.412 242.063ZM654.448 170.4C654.448 139.601 645.519 115.61 627.412 98.7368L624.685 101.663C641.778 117.59 650.448 140.399 650.448 170.4H654.448ZM627.412 98.7368C609.356 81.912 585.024 73.6 554.648 73.6V77.6C584.273 77.6 607.541 85.688 624.685 101.663L627.412 98.7368ZM554.648 73.6H522.848V77.6H554.648V73.6ZM520.848 75.6V265.2H524.848V75.6H520.848ZM522.848 267.2H554.648V263.2H522.848V267.2Z" fill="white" mask="url(#path-1-inside-1_7601_2662)"/>
</svg>
