<svg width="826" height="367" viewBox="0 0 826 367" fill="none" xmlns="http://www.w3.org/2000/svg">
<mask id="path-1-inside-1_7603_2895" fill="white">
<path d="M318.95 111.25C318.95 135.817 313.267 158.183 301.9 178.35C290.533 198.15 273.667 213.917 251.3 225.65C229.3 237.383 202.533 243.25 171 243.25H122.6V367H0.5V-22.4H171C218.667 -22.4 255.15 -10.3 280.45 13.9C306.117 38.1 318.95 70.55 318.95 111.25ZM157.25 147C182.55 147 195.2 135.083 195.2 111.25C195.2 87.4166 182.55 75.5 157.25 75.5H122.6V147H157.25ZM825.728 -22.4V367H704.178V172.85L644.228 367H539.728L479.778 172.85V367H357.678V-22.4H507.278L593.078 211.35L676.678 -22.4H825.728Z"/>
</mask>
<path d="M301.9 178.35L303.635 179.346L303.638 179.339L303.642 179.332L301.9 178.35ZM251.3 225.65L250.371 223.879L250.359 223.885L251.3 225.65ZM122.6 243.25V241.25H120.6V243.25H122.6ZM122.6 367V369H124.6V367H122.6ZM0.5 367H-1.5V369H0.5V367ZM0.5 -22.4V-24.4H-1.5V-22.4H0.5ZM280.45 13.9L279.068 15.3453L279.073 15.3502L279.078 15.3552L280.45 13.9ZM122.6 75.5V73.5H120.6V75.5H122.6ZM122.6 147H120.6V149H122.6V147ZM316.95 111.25C316.95 135.494 311.345 157.519 300.158 177.368L303.642 179.332C315.188 158.847 320.95 136.139 320.95 111.25H316.95ZM300.166 177.354C289.008 196.79 272.438 212.303 250.371 223.879L252.229 227.421C274.895 215.531 292.059 199.51 303.635 179.346L300.166 177.354ZM250.359 223.885C228.715 235.429 202.29 241.25 171 241.25V245.25C202.777 245.25 229.885 239.338 252.241 227.415L250.359 223.885ZM171 241.25H122.6V245.25H171V241.25ZM120.6 243.25V367H124.6V243.25H120.6ZM122.6 365H0.5V369H122.6V365ZM2.5 367V-22.4H-1.5V367H2.5ZM0.5 -20.4H171V-24.4H0.5V-20.4ZM171 -20.4C218.341 -20.4 254.257 -8.38625 279.068 15.3453L281.832 12.4547C256.043 -12.2138 218.992 -24.4 171 -24.4V-20.4ZM279.078 15.3552C304.281 39.1181 316.95 71.0082 316.95 111.25H320.95C320.95 70.0918 307.952 37.0819 281.822 12.4448L279.078 15.3552ZM157.25 149C170.18 149 180.249 145.957 187.084 139.518C193.942 133.058 197.2 123.506 197.2 111.25H193.2C193.2 122.827 190.133 131.15 184.341 136.607C178.526 142.084 169.62 145 157.25 145V149ZM197.2 111.25C197.2 98.9935 193.942 89.4418 187.084 82.9817C180.249 76.5427 170.18 73.5 157.25 73.5V77.5C169.62 77.5 178.526 80.4156 184.341 85.8933C190.133 91.3498 193.2 99.6731 193.2 111.25H197.2ZM157.25 73.5H122.6V77.5H157.25V73.5ZM120.6 75.5V147H124.6V75.5H120.6ZM122.6 149H157.25V145H122.6V149ZM825.728 -22.4H827.728V-24.4H825.728V-22.4ZM825.728 367V369H827.728V367H825.728ZM704.178 367H702.178V369H704.178V367ZM704.178 172.85H706.178L702.267 172.26L704.178 172.85ZM644.228 367V369H645.703L646.139 367.59L644.228 367ZM539.728 367L537.817 367.59L538.252 369H539.728V367ZM479.778 172.85L481.689 172.26L477.778 172.85H479.778ZM479.778 367V369H481.778V367H479.778ZM357.678 367H355.678V369H357.678V367ZM357.678 -22.4V-24.4H355.678V-22.4H357.678ZM507.278 -22.4L509.155 -23.0892L508.674 -24.4H507.278V-22.4ZM593.078 211.35L591.2 212.039L593.102 217.221L594.961 212.023L593.078 211.35ZM676.678 -22.4V-24.4H675.269L674.795 -23.0735L676.678 -22.4ZM823.728 -22.4V367H827.728V-22.4H823.728ZM825.728 365H704.178V369H825.728V365ZM706.178 367V172.85H702.178V367H706.178ZM702.267 172.26L642.317 366.41L646.139 367.59L706.089 173.44L702.267 172.26ZM644.228 365H539.728V369H644.228V365ZM541.639 366.41L481.689 172.26L477.867 173.44L537.817 367.59L541.639 366.41ZM477.778 172.85V367H481.778V172.85H477.778ZM479.778 365H357.678V369H479.778V365ZM359.678 367V-22.4H355.678V367H359.678ZM357.678 -20.4H507.278V-24.4H357.678V-20.4ZM505.4 -21.7108L591.2 212.039L594.955 210.661L509.155 -23.0892L505.4 -21.7108ZM594.961 212.023L678.561 -21.7265L674.795 -23.0735L591.195 210.676L594.961 212.023ZM676.678 -20.4H825.728V-24.4H676.678V-20.4Z" fill="white" mask="url(#path-1-inside-1_7603_2895)"/>
</svg>
