<svg width="881" height="442" viewBox="0 0 881 442" fill="none" xmlns="http://www.w3.org/2000/svg">
<g clip-path="url(#clip0_10210_4509)">
<mask id="path-1-inside-1_10210_4509" fill="white">
<path d="M345.95 87.25C345.95 111.817 340.267 134.183 328.9 154.35C317.533 174.15 300.667 189.917 278.3 201.65C256.3 213.383 229.533 219.25 198 219.25H149.6V343H27.5V-46.4H198C245.667 -46.4 282.15 -34.3 307.45 -10.1C333.117 14.1 345.95 46.55 345.95 87.25ZM184.25 123C209.55 123 222.2 111.083 222.2 87.25C222.2 63.4166 209.55 51.5 184.25 51.5H149.6V123H184.25ZM852.728 -46.4V343H731.178V148.85L671.228 343H566.728L506.778 148.85V343H384.678V-46.4H534.278L620.078 187.35L703.678 -46.4H852.728Z"/>
</mask>
<path d="M328.9 154.35L330.635 155.346L330.638 155.339L330.642 155.332L328.9 154.35ZM278.3 201.65L277.371 199.879L277.359 199.885L278.3 201.65ZM149.6 219.25V217.25H147.6V219.25H149.6ZM149.6 343V345H151.6V343H149.6ZM27.5 343H25.5V345H27.5V343ZM27.5 -46.4V-48.4H25.5V-46.4H27.5ZM307.45 -10.1L306.068 -8.65473L306.073 -8.64976L306.078 -8.64483L307.45 -10.1ZM149.6 51.5V49.5H147.6V51.5H149.6ZM149.6 123H147.6V125H149.6V123ZM343.95 87.25C343.95 111.494 338.345 133.519 327.158 153.368L330.642 155.332C342.188 134.847 347.95 112.139 347.95 87.25H343.95ZM327.166 153.354C316.008 172.79 299.438 188.303 277.371 199.879L279.229 203.421C301.895 191.531 319.059 175.51 330.635 155.346L327.166 153.354ZM277.359 199.885C255.715 211.429 229.29 217.25 198 217.25V221.25C229.777 221.25 256.885 215.338 279.241 203.415L277.359 199.885ZM198 217.25H149.6V221.25H198V217.25ZM147.6 219.25V343H151.6V219.25H147.6ZM149.6 341H27.5V345H149.6V341ZM29.5 343V-46.4H25.5V343H29.5ZM27.5 -44.4H198V-48.4H27.5V-44.4ZM198 -44.4C245.341 -44.4 281.257 -32.3862 306.068 -8.65473L308.832 -11.5453C283.043 -36.2138 245.992 -48.4 198 -48.4V-44.4ZM306.078 -8.64483C331.281 15.1181 343.95 47.0082 343.95 87.25H347.95C347.95 46.0918 334.952 13.0819 308.822 -11.5552L306.078 -8.64483ZM184.25 125C197.18 125 207.249 121.957 214.084 115.518C220.942 109.058 224.2 99.5065 224.2 87.25H220.2C220.2 98.8268 217.133 107.15 211.341 112.607C205.526 118.084 196.62 121 184.25 121V125ZM224.2 87.25C224.2 74.9935 220.942 65.4418 214.084 58.9817C207.249 52.5427 197.18 49.5 184.25 49.5V53.5C196.62 53.5 205.526 56.4156 211.341 61.8933C217.133 67.3498 220.2 75.6731 220.2 87.25H224.2ZM184.25 49.5H149.6V53.5H184.25V49.5ZM147.6 51.5V123H151.6V51.5H147.6ZM149.6 125H184.25V121H149.6V125ZM852.728 -46.4H854.728V-48.4H852.728V-46.4ZM852.728 343V345H854.728V343H852.728ZM731.178 343H729.178V345H731.178V343ZM731.178 148.85H733.178L729.267 148.26L731.178 148.85ZM671.228 343V345H672.703L673.139 343.59L671.228 343ZM566.728 343L564.817 343.59L565.252 345H566.728V343ZM506.778 148.85L508.689 148.26L504.778 148.85H506.778ZM506.778 343V345H508.778V343H506.778ZM384.678 343H382.678V345H384.678V343ZM384.678 -46.4V-48.4H382.678V-46.4H384.678ZM534.278 -46.4L536.155 -47.0892L535.674 -48.4H534.278V-46.4ZM620.078 187.35L618.2 188.039L620.102 193.221L621.961 188.023L620.078 187.35ZM703.678 -46.4V-48.4H702.269L701.795 -47.0735L703.678 -46.4ZM850.728 -46.4V343H854.728V-46.4H850.728ZM852.728 341H731.178V345H852.728V341ZM733.178 343V148.85H729.178V343H733.178ZM729.267 148.26L669.317 342.41L673.139 343.59L733.089 149.44L729.267 148.26ZM671.228 341H566.728V345H671.228V341ZM568.639 342.41L508.689 148.26L504.867 149.44L564.817 343.59L568.639 342.41ZM504.778 148.85V343H508.778V148.85H504.778ZM506.778 341H384.678V345H506.778V341ZM386.678 343V-46.4H382.678V343H386.678ZM384.678 -44.4H534.278V-48.4H384.678V-44.4ZM532.4 -45.7108L618.2 188.039L621.955 186.661L536.155 -47.0892L532.4 -45.7108ZM621.961 188.023L705.561 -45.7265L701.795 -47.0735L618.195 186.676L621.961 188.023ZM703.678 -44.4H852.728V-48.4H703.678V-44.4Z" fill="white" mask="url(#path-1-inside-1_10210_4509)"/>
</g>
<defs>
<clipPath id="clip0_10210_4509">
<rect width="881" height="442" fill="white"/>
</clipPath>
</defs>
</svg>
