<svg width="750" height="384" viewBox="0 0 750 384" fill="none" xmlns="http://www.w3.org/2000/svg">
<mask id="path-1-inside-1_7603_2967" fill="white">
<path d="M347.4 105C347.4 131.8 341.2 156.2 328.8 178.2C316.4 199.8 298 217 273.6 229.8C249.6 242.6 220.4 249 186 249H133.2V384H4.47035e-07V-40.8H186C238 -40.8 277.8 -27.6 305.4 -1.20001C333.4 25.2 347.4 60.6 347.4 105ZM171 144C198.6 144 212.4 131 212.4 105C212.4 79 198.6 66 171 66H133.2V144H171ZM603.248 384L523.448 231.6H522.848V384H389.648V-40.8H587.648C622.048 -40.8 651.448 -34.6 675.848 -22.2C700.248 -10.2 718.448 6.39999 730.448 27.6C742.848 48.4 749.048 72 749.048 98.4C749.048 126.8 741.048 152 725.048 174C709.448 196 686.848 211.8 657.248 221.4L749.648 384H603.248ZM522.848 142.8H575.648C588.448 142.8 598.048 140 604.448 134.4C610.848 128.4 614.048 119.2 614.048 106.8C614.048 95.6 610.648 86.8 603.848 80.4C597.448 74 588.048 70.8 575.648 70.8H522.848V142.8Z"/>
</mask>
<path d="M328.8 178.2L330.535 179.196L330.538 179.189L330.542 179.182L328.8 178.2ZM273.6 229.8L272.671 228.029L272.659 228.035L273.6 229.8ZM133.2 249V247H131.2V249H133.2ZM133.2 384V386H135.2V384H133.2ZM0 384H-2V386H0V384ZM0 -40.8V-42.8H-2V-40.8H0ZM305.4 -1.20001L304.018 0.245272L304.023 0.250238L304.028 0.255167L305.4 -1.20001ZM133.2 66V64H131.2V66H133.2ZM133.2 144H131.2V146H133.2V144ZM345.4 105C345.4 131.478 339.278 155.536 327.058 177.218L330.542 179.182C343.122 156.864 349.4 132.122 349.4 105H345.4ZM327.066 177.204C314.875 198.44 296.771 215.386 272.671 228.029L274.529 231.571C299.229 218.614 317.925 201.16 330.535 179.196L327.066 177.204ZM272.659 228.035C249.015 240.645 220.157 247 186 247V251C220.643 251 250.185 244.555 274.541 231.565L272.659 228.035ZM186 247H133.2V251H186V247ZM131.2 249V384H135.2V249H131.2ZM133.2 382H0V386H133.2V382ZM2 384V-40.8H-2V384H2ZM0 -38.8H186V-42.8H0V-38.8ZM186 -38.8C237.675 -38.8 276.907 -25.6863 304.018 0.245272L306.782 -2.6453C278.693 -29.5138 238.325 -42.8 186 -42.8V-38.8ZM304.028 0.255167C331.564 26.2181 345.4 61.0582 345.4 105H349.4C349.4 60.1418 335.236 24.1818 306.772 -2.65519L304.028 0.255167ZM171 146C185.08 146 196.011 142.686 203.421 135.706C210.854 128.704 214.4 118.34 214.4 105H210.4C210.4 117.66 207.046 126.796 200.679 132.794C194.289 138.814 184.52 142 171 142V146ZM214.4 105C214.4 91.6601 210.854 81.296 203.421 74.2942C196.011 67.3135 185.08 64 171 64V68C184.52 68 194.289 71.1864 200.679 77.2058C207.046 83.204 210.4 92.3398 210.4 105H214.4ZM171 64H133.2V68H171V64ZM131.2 66V144H135.2V66H131.2ZM133.2 146H171V142H133.2V146ZM603.248 384L601.477 384.928L602.038 386H603.248V384ZM523.448 231.6L525.22 230.672L524.659 229.6H523.448V231.6ZM522.848 231.6V229.6H520.848V231.6H522.848ZM522.848 384V386H524.848V384H522.848ZM389.648 384H387.648V386H389.648V384ZM389.648 -40.8V-42.8H387.648V-40.8H389.648ZM675.848 -22.2L674.942 -20.4171L674.954 -20.4111L674.966 -20.4053L675.848 -22.2ZM730.448 27.6L728.708 28.5852L728.719 28.6048L728.731 28.6241L730.448 27.6ZM725.048 174L723.431 172.824L723.424 172.833L723.417 172.843L725.048 174ZM657.248 221.4L656.631 219.498L654.297 220.255L655.51 222.388L657.248 221.4ZM749.648 384V386H753.085L751.387 383.012L749.648 384ZM522.848 142.8H520.848V144.8H522.848V142.8ZM604.448 134.4L605.765 135.905L605.791 135.883L605.816 135.859L604.448 134.4ZM603.848 80.4L602.434 81.8142L602.456 81.8356L602.478 81.8564L603.848 80.4ZM522.848 70.8V68.8H520.848V70.8H522.848ZM605.02 383.072L525.22 230.672L521.677 232.528L601.477 384.928L605.02 383.072ZM523.448 229.6H522.848V233.6H523.448V229.6ZM520.848 231.6V384H524.848V231.6H520.848ZM522.848 382H389.648V386H522.848V382ZM391.648 384V-40.8H387.648V384H391.648ZM389.648 -38.8H587.648V-42.8H389.648V-38.8ZM587.648 -38.8C621.812 -38.8 650.886 -32.6424 674.942 -20.4171L676.755 -23.983C652.011 -36.5576 622.284 -42.8 587.648 -42.8V-38.8ZM674.966 -20.4053C699.049 -8.56134 716.929 7.77514 728.708 28.5852L732.189 26.6148C719.968 5.02483 701.448 -11.8387 676.731 -23.9947L674.966 -20.4053ZM728.731 28.6241C740.929 49.0868 747.048 72.327 747.048 98.4H751.048C751.048 71.673 744.767 47.7132 732.166 26.5758L728.731 28.6241ZM747.048 98.4C747.048 126.397 739.171 151.181 723.431 172.824L726.666 175.176C742.926 152.819 751.048 127.203 751.048 98.4H747.048ZM723.417 172.843C708.103 194.44 685.887 210.009 656.631 219.498L657.865 223.302C687.81 213.591 710.794 197.56 726.68 175.157L723.417 172.843ZM655.51 222.388L747.91 384.988L751.387 383.012L658.987 220.412L655.51 222.388ZM749.648 382H603.248V386H749.648V382ZM522.848 144.8H575.648V140.8H522.848V144.8ZM575.648 144.8C588.696 144.8 598.855 141.952 605.765 135.905L603.131 132.895C597.242 138.048 588.201 140.8 575.648 140.8V144.8ZM605.816 135.859C612.763 129.346 616.048 119.519 616.048 106.8H612.048C612.048 118.881 608.934 127.454 603.081 132.941L605.816 135.859ZM616.048 106.8C616.048 95.1674 612.5 85.7959 605.219 78.9436L602.478 81.8564C608.797 87.804 612.048 96.0326 612.048 106.8H616.048ZM605.263 78.9858C598.366 72.0893 588.378 68.8 575.648 68.8V72.8C587.719 72.8 596.531 75.9107 602.434 81.8142L605.263 78.9858ZM575.648 68.8H522.848V72.8H575.648V68.8ZM520.848 70.8V142.8H524.848V70.8H520.848Z" fill="white" mask="url(#path-1-inside-1_7603_2967)"/>
</svg>
