<svg width="792" height="442" viewBox="0 0 792 442" fill="none" xmlns="http://www.w3.org/2000/svg">
<g clip-path="url(#clip0_10210_4511)">
<mask id="path-1-inside-1_10210_4511" fill="white">
<path d="M377.4 81C377.4 107.8 371.2 132.2 358.8 154.2C346.4 175.8 328 193 303.6 205.8C279.6 218.6 250.4 225 216 225H163.2V360H30V-64.8H216C268 -64.8 307.8 -51.6 335.4 -25.2C363.4 1.19998 377.4 36.6 377.4 81ZM201 120C228.6 120 242.4 107 242.4 81C242.4 55 228.6 42 201 42H163.2V120H201ZM633.248 360L553.448 207.6H552.848V360H419.648V-64.8H617.648C652.048 -64.8 681.448 -58.6 705.848 -46.2C730.248 -34.2 748.448 -17.6 760.448 3.59998C772.848 24.4 779.048 48 779.048 74.4C779.048 102.8 771.048 128 755.048 150C739.448 172 716.848 187.8 687.248 197.4L779.648 360H633.248ZM552.848 118.8H605.648C618.448 118.8 628.048 116 634.448 110.4C640.848 104.4 644.048 95.2 644.048 82.8C644.048 71.6 640.648 62.8 633.848 56.4C627.448 50 618.048 46.8 605.648 46.8H552.848V118.8Z"/>
</mask>
<path d="M358.8 154.2L360.535 155.196L360.538 155.189L360.542 155.182L358.8 154.2ZM303.6 205.8L302.671 204.029L302.659 204.035L303.6 205.8ZM163.2 225V223H161.2V225H163.2ZM163.2 360V362H165.2V360H163.2ZM30 360H28V362H30V360ZM30 -64.8V-66.8H28V-64.8H30ZM335.4 -25.2L334.018 -23.7547L334.023 -23.7498L334.028 -23.7448L335.4 -25.2ZM163.2 42V40H161.2V42H163.2ZM163.2 120H161.2V122H163.2V120ZM375.4 81C375.4 107.478 369.278 131.536 357.058 153.218L360.542 155.182C373.122 132.864 379.4 108.122 379.4 81H375.4ZM357.066 153.204C344.875 174.44 326.771 191.386 302.671 204.029L304.529 207.571C329.229 194.614 347.925 177.16 360.535 155.196L357.066 153.204ZM302.659 204.035C279.015 216.645 250.157 223 216 223V227C250.643 227 280.185 220.555 304.541 207.565L302.659 204.035ZM216 223H163.2V227H216V223ZM161.2 225V360H165.2V225H161.2ZM163.2 358H30V362H163.2V358ZM32 360V-64.8H28V360H32ZM30 -62.8H216V-66.8H30V-62.8ZM216 -62.8C267.675 -62.8 306.907 -49.6863 334.018 -23.7547L336.782 -26.6453C308.693 -53.5138 268.325 -66.8 216 -66.8V-62.8ZM334.028 -23.7448C361.564 2.21812 375.4 37.0582 375.4 81H379.4C379.4 36.1418 365.236 0.181849 336.772 -26.6552L334.028 -23.7448ZM201 122C215.08 122 226.011 118.686 233.421 111.706C240.854 104.704 244.4 94.3398 244.4 81H240.4C240.4 93.6601 237.046 102.796 230.679 108.794C224.289 114.814 214.52 118 201 118V122ZM244.4 81C244.4 67.6601 240.854 57.296 233.421 50.2942C226.011 43.3135 215.08 40 201 40V44C214.52 44 224.289 47.1864 230.679 53.2058C237.046 59.204 240.4 68.3398 240.4 81H244.4ZM201 40H163.2V44H201V40ZM161.2 42V120H165.2V42H161.2ZM163.2 122H201V118H163.2V122ZM633.248 360L631.477 360.928L632.038 362H633.248V360ZM553.448 207.6L555.22 206.672L554.659 205.6H553.448V207.6ZM552.848 207.6V205.6H550.848V207.6H552.848ZM552.848 360V362H554.848V360H552.848ZM419.648 360H417.648V362H419.648V360ZM419.648 -64.8V-66.8H417.648V-64.8H419.648ZM705.848 -46.2L704.942 -44.4171L704.954 -44.4111L704.966 -44.4053L705.848 -46.2ZM760.448 3.59998L758.708 4.58517L758.719 4.60477L758.731 4.6241L760.448 3.59998ZM755.048 150L753.431 148.824L753.424 148.833L753.417 148.843L755.048 150ZM687.248 197.4L686.631 195.498L684.297 196.255L685.51 198.388L687.248 197.4ZM779.648 360V362H783.085L781.387 359.012L779.648 360ZM552.848 118.8H550.848V120.8H552.848V118.8ZM634.448 110.4L635.765 111.905L635.791 111.883L635.816 111.859L634.448 110.4ZM633.848 56.4L632.434 57.8142L632.456 57.8356L632.478 57.8564L633.848 56.4ZM552.848 46.8V44.8H550.848V46.8H552.848ZM635.02 359.072L555.22 206.672L551.677 208.528L631.477 360.928L635.02 359.072ZM553.448 205.6H552.848V209.6H553.448V205.6ZM550.848 207.6V360H554.848V207.6H550.848ZM552.848 358H419.648V362H552.848V358ZM421.648 360V-64.8H417.648V360H421.648ZM419.648 -62.8H617.648V-66.8H419.648V-62.8ZM617.648 -62.8C651.812 -62.8 680.886 -56.6424 704.942 -44.4171L706.755 -47.983C682.011 -60.5576 652.284 -66.8 617.648 -66.8V-62.8ZM704.966 -44.4053C729.049 -32.5613 746.929 -16.2249 758.708 4.58517L762.189 2.61478C749.968 -18.9752 731.448 -35.8387 706.731 -47.9947L704.966 -44.4053ZM758.731 4.6241C770.929 25.0868 777.048 48.327 777.048 74.4H781.048C781.048 47.673 774.767 23.7132 762.166 2.57585L758.731 4.6241ZM777.048 74.4C777.048 102.397 769.171 127.181 753.431 148.824L756.666 151.176C772.926 128.819 781.048 103.203 781.048 74.4H777.048ZM753.417 148.843C738.103 170.44 715.887 186.009 686.631 195.498L687.865 199.302C717.81 189.591 740.794 173.56 756.68 151.157L753.417 148.843ZM685.51 198.388L777.91 360.988L781.387 359.012L688.987 196.412L685.51 198.388ZM779.648 358H633.248V362H779.648V358ZM552.848 120.8H605.648V116.8H552.848V120.8ZM605.648 120.8C618.696 120.8 628.855 117.952 635.765 111.905L633.131 108.895C627.242 114.048 618.201 116.8 605.648 116.8V120.8ZM635.816 111.859C642.763 105.346 646.048 95.5193 646.048 82.8H642.048C642.048 94.8807 638.934 103.454 633.081 108.941L635.816 111.859ZM646.048 82.8C646.048 71.1674 642.5 61.7959 635.219 54.9436L632.478 57.8564C638.797 63.804 642.048 72.0326 642.048 82.8H646.048ZM635.263 54.9858C628.366 48.0893 618.378 44.8 605.648 44.8V48.8C617.719 48.8 626.531 51.9107 632.434 57.8142L635.263 54.9858ZM605.648 44.8H552.848V48.8H605.648V44.8ZM550.848 46.8V118.8H554.848V46.8H550.848Z" fill="white" mask="url(#path-1-inside-1_10210_4511)"/>
</g>
<defs>
<clipPath id="clip0_10210_4511">
<rect width="792" height="442" fill="white"/>
</clipPath>
</defs>
</svg>
