<svg width="11" height="22" viewBox="0 0 11 22" fill="none" xmlns="http://www.w3.org/2000/svg">
<path d="M10.705 11.2989C10.7057 11.6494 10.5836 11.989 10.36 12.2589L2.86 21.2589C2.6054 21.5652 2.23953 21.7579 1.84289 21.7944C1.44625 21.831 1.05133 21.7085 0.745003 21.4539C0.438678 21.1993 0.246042 20.8334 0.209472 20.4368C0.172903 20.0401 0.295395 19.6452 0.550003 19.3389L7.27 11.2989L0.790004 3.2589C0.665405 3.10547 0.572357 2.92892 0.51621 2.73942C0.460062 2.54991 0.441921 2.35117 0.46283 2.15463C0.483739 1.95809 0.543284 1.76761 0.638045 1.59416C0.732806 1.4207 0.860913 1.26768 1.015 1.1439C1.16924 1.00653 1.35018 0.902493 1.54649 0.838303C1.7428 0.774115 1.95025 0.75116 2.15584 0.770874C2.36144 0.790588 2.56075 0.852549 2.74128 0.952873C2.92182 1.0532 3.07969 1.18973 3.205 1.3539L10.45 10.3539C10.6383 10.6315 10.7281 10.9643 10.705 11.2989Z" fill="#161616"/>
</svg>
