<svg width="11" height="22" viewBox="0 0 11 22" fill="none" xmlns="http://www.w3.org/2000/svg">
<path d="M0.294997 11.2989C0.294312 11.6494 0.416375 11.989 0.639997 12.2589L8.14 21.2589C8.3946 21.5652 8.76047 21.7579 9.15711 21.7944C9.55375 21.831 9.94867 21.7085 10.255 21.4539C10.5613 21.1993 10.754 20.8334 10.7905 20.4368C10.8271 20.0401 10.7046 19.6452 10.45 19.3389L3.73 11.2989L10.21 3.2589C10.3346 3.10547 10.4276 2.92893 10.4838 2.73942C10.5399 2.54991 10.5581 2.35117 10.5372 2.15463C10.5163 1.95809 10.4567 1.76761 10.362 1.59416C10.2672 1.4207 10.1391 1.26768 9.985 1.1439C9.83076 1.00653 9.64982 0.902492 9.45351 0.838303C9.2572 0.774114 9.04975 0.751159 8.84416 0.770874C8.63856 0.790589 8.43925 0.852548 8.25872 0.952873C8.07818 1.0532 7.92031 1.18973 7.795 1.3539L0.549997 10.3539C0.361723 10.6315 0.271941 10.9643 0.294997 11.2989Z" fill="#161616"/>
</svg>
