<?xml version="1.0" encoding="UTF-8"?>
<svg id="Layer_2" data-name="Layer 2" xmlns="http://www.w3.org/2000/svg" viewBox="0 0 50 50">
  <defs>
    <style>
      .cls-1, .cls-2 {
        stroke-width: 0px;
      }

      .cls-2 {
        fill: #fff;
      }
    </style>
  </defs>
  <g id="Layer_1-2" data-name="Layer 1">
    <g>
      <circle class="cls-2" cx="25" cy="25" r="25"/>
      <g>
        <path class="cls-1" d="M25,24.99c0,3.1,0,6.2,0,9.3,0,1.01-.74,1.71-1.71,1.63-.44-.04-.77-.27-1.08-.57-1.81-1.81-3.62-3.62-5.42-5.44-.15-.16-.31-.23-.53-.22-1.2.01-2.39,0-3.59,0-1.05,0-1.69-.64-1.69-1.69,0-1.99,0-3.99,0-5.98,0-1.07.63-1.71,1.7-1.71,1.21,0,2.41,0,3.62,0,.15,0,.34-.08.44-.18,1.84-1.83,3.67-3.66,5.49-5.5.51-.51,1.09-.7,1.77-.44.62.23.99.8.99,1.5,0,1.68,0,3.36,0,5.03,0,1.42,0,2.85,0,4.27Z"/>
        <path class="cls-1" d="M39.02,25.89c-.05,3.38-1.55,7.04-4.5,10.1-.63.65-1.58.68-2.21.09-.65-.6-.69-1.57-.05-2.23,1.4-1.45,2.48-3.09,3.05-5.03,1.35-4.59.44-8.71-2.72-12.31-.11-.13-.24-.25-.35-.38-.6-.67-.56-1.62.08-2.21.62-.58,1.57-.55,2.19.08,1.33,1.35,2.39,2.89,3.17,4.62.91,2.03,1.36,4.16,1.35,7.27Z"/>
        <path class="cls-1" d="M32.81,24.72c-.05,2.78-.91,4.97-2.65,6.79-.67.7-1.63.76-2.27.14-.66-.63-.66-1.57.01-2.28,1.17-1.24,1.78-2.7,1.78-4.41,0-1.68-.62-3.13-1.78-4.34-.65-.68-.67-1.59-.07-2.22.6-.63,1.58-.67,2.21-.05,1.35,1.34,2.21,2.95,2.57,4.81.12.6.16,1.21.2,1.55Z"/>
      </g>
    </g>
  </g>
</svg>