<?xml version="1.0" encoding="UTF-8"?>
<svg id="Layer_2" data-name="Layer 2" xmlns="http://www.w3.org/2000/svg" viewBox="0 0 50 50">
  <defs>
    <style>
      .cls-1, .cls-2 {
        stroke-width: 0px;
      }

      .cls-2 {
        fill: #fff;
      }

      .cls-3 {
        fill: none;
        stroke: #000;
        stroke-linecap: round;
        stroke-linejoin: round;
        stroke-width: 3px;
      }
    </style>
  </defs>
  <g id="Layer_1-2" data-name="Layer 1">
    <g>
      <circle class="cls-2" cx="25" cy="25" r="25"/>
      <g>
        <path class="cls-1" d="M25,24.99c0,3.1,0,6.2,0,9.3,0,1.01-.74,1.71-1.71,1.63-.44-.04-.77-.27-1.08-.57-1.81-1.81-3.62-3.62-5.42-5.44-.15-.16-.31-.23-.53-.22-1.2.01-2.39,0-3.59,0-1.05,0-1.69-.64-1.69-1.69,0-1.99,0-3.99,0-5.98,0-1.07.63-1.71,1.7-1.71,1.21,0,2.41,0,3.62,0,.15,0,.34-.08.44-.18,1.84-1.83,3.67-3.66,5.49-5.5.51-.51,1.09-.7,1.77-.44.62.23.99.8.99,1.5,0,1.68,0,3.36,0,5.03,0,1.42,0,2.85,0,4.27Z"/>
        <g>
          <line class="cls-3" x1="37.83" y1="20.5" x2="28.83" y2="29.5"/>
          <line class="cls-3" x1="28.83" y1="20.5" x2="37.83" y2="29.5"/>
        </g>
      </g>
    </g>
  </g>
</svg>