<svg width="625" height="507" viewBox="0 0 625 507" fill="none" xmlns="http://www.w3.org/2000/svg">
<mask id="path-1-inside-1_10210_4505" fill="white">
<path d="M160.2 0.199997V239.6C160.2 259.2 164.4 274.8 172.8 286.4C181.6 297.6 195.6 303.2 214.8 303.2C234 303.2 248.2 297.6 257.4 286.4C266.6 274.8 271.2 259.2 271.2 239.6V0.199997H403.8V239.6C403.8 280 395.4 314.6 378.6 343.4C361.8 371.8 338.8 393.2 309.6 407.6C280.4 422 247.8 429.2 211.8 429.2C175.8 429.2 143.8 422 115.8 407.6C88.2 393.2 66.6 371.8 51 343.4C35.4 315 27.6 280.4 27.6 239.6V0.199997H160.2ZM594.45 0.199997V425H461.25V0.199997H594.45Z"/>
</mask>
<path d="M160.2 0.199997H162.2V-1.8H160.2V0.199997ZM172.8 286.4L171.18 287.573L171.203 287.605L171.227 287.636L172.8 286.4ZM257.4 286.4L258.945 287.669L258.956 287.656L258.967 287.643L257.4 286.4ZM271.2 0.199997V-1.8H269.2V0.199997H271.2ZM403.8 0.199997H405.8V-1.8H403.8V0.199997ZM378.6 343.4L380.321 344.418L380.328 344.408L378.6 343.4ZM309.6 407.6L310.485 409.394L309.6 407.6ZM115.8 407.6L114.875 409.373L114.885 409.379L115.8 407.6ZM51 343.4L49.247 344.363L51 343.4ZM27.6 0.199997V-1.8H25.6V0.199997H27.6ZM158.2 0.199997V239.6H162.2V0.199997H158.2ZM158.2 239.6C158.2 259.469 162.457 275.526 171.18 287.573L174.42 285.227C166.343 274.074 162.2 258.931 162.2 239.6H158.2ZM171.227 287.636C180.528 299.473 195.215 305.2 214.8 305.2V301.2C195.985 301.2 182.672 295.727 174.373 285.164L171.227 287.636ZM214.8 305.2C234.391 305.2 249.251 299.472 258.945 287.669L255.855 285.131C247.149 295.728 233.609 301.2 214.8 301.2V305.2ZM258.967 287.643C268.527 275.589 273.2 259.505 273.2 239.6H269.2C269.2 258.895 264.673 274.011 255.833 285.157L258.967 287.643ZM273.2 239.6V0.199997H269.2V239.6H273.2ZM271.2 2.2H403.8V-1.8H271.2V2.2ZM401.8 0.199997V239.6H405.8V0.199997H401.8ZM401.8 239.6C401.8 279.721 393.46 313.957 376.872 342.392L380.328 344.408C397.34 315.243 405.8 280.279 405.8 239.6H401.8ZM376.879 342.382C360.274 370.452 337.562 391.58 308.715 405.806L310.485 409.394C340.038 394.82 363.327 373.148 380.321 344.418L376.879 342.382ZM308.715 405.806C279.819 420.057 247.526 427.2 211.8 427.2V431.2C248.074 431.2 280.981 423.943 310.485 409.394L308.715 405.806ZM211.8 427.2C176.072 427.2 144.394 420.056 116.715 405.821L114.885 409.379C143.206 423.944 175.528 431.2 211.8 431.2V427.2ZM116.725 405.827C89.4898 391.617 68.1712 370.506 52.753 342.437L49.247 344.363C65.0288 373.094 86.9102 394.783 114.875 409.373L116.725 405.827ZM52.753 342.437C37.3518 314.399 29.6 280.149 29.6 239.6H25.6C25.6 280.651 33.4482 315.601 49.247 344.363L52.753 342.437ZM29.6 239.6V0.199997H25.6V239.6H29.6ZM27.6 2.2H160.2V-1.8H27.6V2.2ZM594.45 0.199997H596.45V-1.8H594.45V0.199997ZM594.45 425V427H596.45V425H594.45ZM461.25 425H459.25V427H461.25V425ZM461.25 0.199997V-1.8H459.25V0.199997H461.25ZM592.45 0.199997V425H596.45V0.199997H592.45ZM594.45 423H461.25V427H594.45V423ZM463.25 425V0.199997H459.25V425H463.25ZM461.25 2.2H594.45V-1.8H461.25V2.2Z" fill="white" mask="url(#path-1-inside-1_10210_4505)"/>
</svg>
