<svg width="568" height="389" viewBox="0 0 568 389" fill="none" xmlns="http://www.w3.org/2000/svg">
<mask id="path-1-inside-1_7612_2210" fill="white">
<path d="M133.2 -40.8V198.6C133.2 218.2 137.4 233.8 145.8 245.4C154.6 256.6 168.6 262.2 187.8 262.2C207 262.2 221.2 256.6 230.4 245.4C239.6 233.8 244.2 218.2 244.2 198.6V-40.8H376.8V198.6C376.8 239 368.4 273.6 351.6 302.4C334.8 330.8 311.8 352.2 282.6 366.6C253.4 381 220.8 388.2 184.8 388.2C148.8 388.2 116.8 381 88.8 366.6C61.2 352.2 39.6 330.8 24 302.4C8.4 274 0.600002 239.4 0.600002 198.6V-40.8H133.2ZM567.45 -40.8V384H434.25V-40.8H567.45Z"/>
</mask>
<path d="M133.2 -40.8H135.2V-42.8H133.2V-40.8ZM145.8 245.4L144.18 246.573L144.203 246.605L144.227 246.636L145.8 245.4ZM230.4 245.4L231.945 246.669L231.956 246.656L231.967 246.643L230.4 245.4ZM244.2 -40.8V-42.8H242.2V-40.8H244.2ZM376.8 -40.8H378.8V-42.8H376.8V-40.8ZM351.6 302.4L353.321 303.418L353.328 303.408L351.6 302.4ZM282.6 366.6L283.485 368.394L282.6 366.6ZM88.8 366.6L87.8749 368.373L87.8853 368.379L88.8 366.6ZM24 302.4L22.247 303.363L24 302.4ZM0.600002 -40.8V-42.8H-1.4V-40.8H0.600002ZM131.2 -40.8V198.6H135.2V-40.8H131.2ZM131.2 198.6C131.2 218.469 135.457 234.526 144.18 246.573L147.42 244.227C139.343 233.074 135.2 217.931 135.2 198.6H131.2ZM144.227 246.636C153.528 258.473 168.215 264.2 187.8 264.2V260.2C168.985 260.2 155.672 254.727 147.373 244.164L144.227 246.636ZM187.8 264.2C207.391 264.2 222.251 258.472 231.945 246.669L228.855 244.131C220.149 254.728 206.609 260.2 187.8 260.2V264.2ZM231.967 246.643C241.527 234.589 246.2 218.505 246.2 198.6H242.2C242.2 217.895 237.673 233.011 228.833 244.157L231.967 246.643ZM246.2 198.6V-40.8H242.2V198.6H246.2ZM244.2 -38.8H376.8V-42.8H244.2V-38.8ZM374.8 -40.8V198.6H378.8V-40.8H374.8ZM374.8 198.6C374.8 238.721 366.46 272.957 349.872 301.392L353.328 303.408C370.34 274.243 378.8 239.279 378.8 198.6H374.8ZM349.879 301.382C333.274 329.452 310.562 350.58 281.715 364.806L283.485 368.394C313.038 353.82 336.327 332.148 353.321 303.418L349.879 301.382ZM281.715 364.806C252.819 379.057 220.526 386.2 184.8 386.2V390.2C221.074 390.2 253.981 382.943 283.485 368.394L281.715 364.806ZM184.8 386.2C149.072 386.2 117.394 379.056 89.7147 364.821L87.8853 368.379C116.206 382.944 148.528 390.2 184.8 390.2V386.2ZM89.7251 364.827C62.4898 350.617 41.1712 329.506 25.753 301.437L22.247 303.363C38.0288 332.094 59.9102 353.783 87.8749 368.373L89.7251 364.827ZM25.753 301.437C10.3518 273.399 2.6 239.149 2.6 198.6H-1.4C-1.4 239.651 6.44822 274.601 22.247 303.363L25.753 301.437ZM2.6 198.6V-40.8H-1.4V198.6H2.6ZM0.600002 -38.8H133.2V-42.8H0.600002V-38.8ZM567.45 -40.8H569.45V-42.8H567.45V-40.8ZM567.45 384V386H569.45V384H567.45ZM434.25 384H432.25V386H434.25V384ZM434.25 -40.8V-42.8H432.25V-40.8H434.25ZM565.45 -40.8V384H569.45V-40.8H565.45ZM567.45 382H434.25V386H567.45V382ZM436.25 384V-40.8H432.25V384H436.25ZM434.25 -38.8H567.45V-42.8H434.25V-38.8Z" fill="white" mask="url(#path-1-inside-1_7612_2210)"/>
</svg>
