<svg width="432" height="216" viewBox="0 0 432 216" fill="none" xmlns="http://www.w3.org/2000/svg">
<path d="M67.1 0.599999H69.1V-1.4H67.1V0.599999ZM73.4 143.7L71.7801 144.873L71.8031 144.905L71.8274 144.936L73.4 143.7ZM115.7 143.7L117.245 144.969L117.256 144.956L117.267 144.943L115.7 143.7ZM122.6 0.599999V-1.4H120.6V0.599999H122.6ZM188.9 0.599999H190.9V-1.4H188.9V0.599999ZM176.3 172.2L178.021 173.218L178.028 173.208L176.3 172.2ZM141.8 204.3L142.685 206.094L142.685 206.094L141.8 204.3ZM44.9 204.3L43.9749 206.073L43.9853 206.079L44.9 204.3ZM12.5 172.2L10.747 173.163L10.747 173.163L12.5 172.2ZM0.800001 0.599999V-1.4H-1.2V0.599999H0.800001ZM65.1 0.599999V120.3H69.1V0.599999H65.1ZM65.1 120.3C65.1 130.369 67.2567 138.626 71.7801 144.873L75.0199 142.527C71.1433 137.174 69.1 129.831 69.1 120.3H65.1ZM71.8274 144.936C76.7284 151.173 84.4151 154.1 94.4 154.1V150.1C85.1849 150.1 78.8716 147.427 74.9726 142.464L71.8274 144.936ZM94.4 154.1C104.391 154.1 112.151 151.172 117.245 144.969L114.155 142.431C110.049 147.428 103.609 150.1 94.4 150.1V154.1ZM117.267 144.943C122.227 138.689 124.6 130.405 124.6 120.3H120.6C120.6 129.795 118.373 137.111 114.133 142.457L117.267 144.943ZM124.6 120.3V0.599999H120.6V120.3H124.6ZM122.6 2.6H188.9V-1.4H122.6V2.6ZM186.9 0.599999V120.3H190.9V0.599999H186.9ZM186.9 120.3C186.9 140.221 182.76 157.157 174.572 171.192L178.028 173.208C186.64 158.443 190.9 140.779 190.9 120.3H186.9ZM174.579 171.182C166.374 185.052 155.162 195.48 140.915 202.506L142.685 206.094C157.638 198.72 169.426 187.748 178.021 173.218L174.579 171.182ZM140.915 202.506C126.619 209.557 110.626 213.1 92.9 213.1V217.1C111.174 217.1 127.781 213.443 142.685 206.094L140.915 202.506ZM92.9 213.1C75.1723 213.1 59.4936 209.556 45.8147 202.521L43.9853 206.079C58.3064 213.444 74.6277 217.1 92.9 217.1V213.1ZM45.8251 202.527C32.3898 195.517 21.8712 185.106 14.253 171.237L10.747 173.163C18.7288 187.694 29.8102 198.683 43.9749 206.073L45.8251 202.527ZM14.253 171.237C6.65179 157.399 2.8 140.449 2.8 120.3H-1.2C-1.2 140.951 2.74822 158.601 10.747 173.163L14.253 171.237ZM2.8 120.3V0.599999H-1.2V120.3H2.8ZM0.800001 2.6H67.1V-1.4H0.800001V2.6ZM352.925 213L351.292 214.154L351.889 215H352.925V213ZM313.925 157.8L315.558 156.646L313.77 154.114L312.2 156.788L313.925 157.8ZM281.525 213V215H282.67L283.25 214.012L281.525 213ZM205.625 213L203.939 211.924L201.976 215H205.625V213ZM275.525 103.5L277.211 104.576L277.935 103.442L277.157 102.344L275.525 103.5ZM202.625 0.599999V-1.4H198.757L200.993 1.75617L202.625 0.599999ZM281.525 0.599999L283.159 -0.55373L282.561 -1.4H281.525V0.599999ZM319.025 53.7L317.391 54.8537L319.179 57.3854L320.749 54.7132L319.025 53.7ZM350.225 0.599999V-1.4H349.08L348.501 -0.41319L350.225 0.599999ZM426.125 0.599999L427.81 1.67771L429.779 -1.4H426.125V0.599999ZM357.425 108L355.74 106.922L355.014 108.057L355.793 109.156L357.425 108ZM431.825 213V215H435.693L433.457 211.844L431.825 213ZM354.558 211.846L315.558 156.646L312.292 158.954L351.292 214.154L354.558 211.846ZM312.2 156.788L279.8 211.988L283.25 214.012L315.65 158.812L312.2 156.788ZM281.525 211H205.625V215H281.525V211ZM207.311 214.076L277.211 104.576L273.839 102.424L203.939 211.924L207.311 214.076ZM277.157 102.344L204.257 -0.556168L200.993 1.75617L273.893 104.656L277.157 102.344ZM202.625 2.6H281.525V-1.4H202.625V2.6ZM279.891 1.75373L317.391 54.8537L320.659 52.5463L283.159 -0.55373L279.891 1.75373ZM320.749 54.7132L351.949 1.61319L348.501 -0.41319L317.301 52.6868L320.749 54.7132ZM350.225 2.6H426.125V-1.4H350.225V2.6ZM424.44 -0.477708L355.74 106.922L359.11 109.078L427.81 1.67771L424.44 -0.477708ZM355.793 109.156L430.193 214.156L433.457 211.844L359.057 106.844L355.793 109.156ZM431.825 211H352.925V215H431.825V211Z" fill="white"/>
</svg>
