<svg width="432" height="216" viewBox="0 0 432 216" fill="none" xmlns="http://www.w3.org/2000/svg">
<path d="M67.1 0.599999H67.6V0.0999987H67.1V0.599999ZM73.4 143.7L72.995 143.993L73.0008 144.001L73.0068 144.009L73.4 143.7ZM115.7 143.7L116.086 144.017L116.092 144.011L115.7 143.7ZM122.6 0.599999V0.0999987H122.1V0.599999H122.6ZM188.9 0.599999H189.4V0.0999987H188.9V0.599999ZM176.3 172.2L176.73 172.455L176.732 172.452L176.3 172.2ZM141.8 204.3L142.021 204.748L142.021 204.748L141.8 204.3ZM44.9 204.3L44.6687 204.743L44.6713 204.745L44.9 204.3ZM12.5 172.2L12.0618 172.441L12.0618 172.441L12.5 172.2ZM0.800001 0.599999V0.0999987H0.300001V0.599999H0.800001ZM66.6 0.599999V120.3H67.6V0.599999H66.6ZM66.6 120.3C66.6 130.167 68.7142 138.082 72.995 143.993L73.805 143.407C69.6858 137.718 67.6 130.033 67.6 120.3H66.6ZM73.0068 144.009C77.5321 149.768 84.7038 152.6 94.4 152.6V151.6C84.8962 151.6 78.0679 148.832 73.7932 143.391L73.0068 144.009ZM94.4 152.6C104.098 152.6 111.363 149.768 116.086 144.017L115.314 143.383C110.837 148.832 103.902 151.6 94.4 151.6V152.6ZM116.092 144.011C120.782 138.097 123.1 130.176 123.1 120.3H122.1C122.1 130.024 119.818 137.703 115.308 143.389L116.092 144.011ZM123.1 120.3V0.599999H122.1V120.3H123.1ZM122.6 1.1H188.9V0.0999987H122.6V1.1ZM188.4 0.599999V120.3H189.4V0.599999H188.4ZM188.4 120.3C188.4 140.43 184.215 157.639 175.868 171.948L176.732 172.452C185.185 157.961 189.4 140.57 189.4 120.3H188.4ZM175.87 171.945C167.518 186.063 156.091 196.695 141.579 203.852L142.021 204.748C156.709 197.505 168.282 186.737 176.73 172.455L175.87 171.945ZM141.579 203.852C127.055 211.014 110.832 214.6 92.9 214.6V215.6C110.968 215.6 127.345 211.986 142.021 204.748L141.579 203.852ZM92.9 214.6C74.9681 214.6 59.0484 211.014 45.1287 203.855L44.6713 204.745C58.7516 211.986 74.8319 215.6 92.9 215.6V214.6ZM45.1313 203.857C31.4224 196.704 20.6928 186.077 12.9382 171.959L12.0618 172.441C19.9072 186.723 30.7776 197.496 44.6687 204.743L45.1313 203.857ZM12.9382 171.959C5.18795 157.85 1.3 140.637 1.3 120.3H0.300001C0.300001 140.763 4.21205 158.15 12.0618 172.441L12.9382 171.959ZM1.3 120.3V0.599999H0.300001V120.3H1.3ZM0.800001 1.1H67.1V0.0999987H0.800001V1.1ZM352.925 213L352.517 213.289L352.666 213.5H352.925V213ZM313.925 157.8L314.333 157.511L313.886 156.878L313.494 157.547L313.925 157.8ZM281.525 213V213.5H281.811L281.956 213.253L281.525 213ZM205.625 213L205.204 212.731L204.713 213.5H205.625V213ZM275.525 103.5L275.946 103.769L276.127 103.485L275.933 103.211L275.525 103.5ZM202.625 0.599999V0.0999987H201.658L202.217 0.88904L202.625 0.599999ZM281.525 0.599999L281.933 0.311567L281.784 0.0999987H281.525V0.599999ZM319.025 53.7L318.617 53.9884L319.064 54.6214L319.456 53.9533L319.025 53.7ZM350.225 0.599999V0.0999987H349.939L349.794 0.346702L350.225 0.599999ZM426.125 0.599999L426.546 0.869425L427.038 0.0999987H426.125V0.599999ZM357.425 108L357.004 107.731L356.822 108.014L357.017 108.289L357.425 108ZM431.825 213V213.5H432.792L432.233 212.711L431.825 213ZM353.333 212.711L314.333 157.511L313.517 158.089L352.517 213.289L353.333 212.711ZM313.494 157.547L281.094 212.747L281.956 213.253L314.356 158.053L313.494 157.547ZM281.525 212.5H205.625V213.5H281.525V212.5ZM206.046 213.269L275.946 103.769L275.104 103.231L205.204 212.731L206.046 213.269ZM275.933 103.211L203.033 0.310957L202.217 0.88904L275.117 103.789L275.933 103.211ZM202.625 1.1H281.525V0.0999987H202.625V1.1ZM281.117 0.888431L318.617 53.9884L319.433 53.4116L281.933 0.311567L281.117 0.888431ZM319.456 53.9533L350.656 0.853296L349.794 0.346702L318.594 53.4467L319.456 53.9533ZM350.225 1.1H426.125V0.0999987H350.225V1.1ZM425.704 0.330572L357.004 107.731L357.846 108.269L426.546 0.869425L425.704 0.330572ZM357.017 108.289L431.417 213.289L432.233 212.711L357.833 107.711L357.017 108.289ZM431.825 212.5H352.925V213.5H431.825V212.5Z" fill="white"/>
</svg>
