<svg width="863" height="430" viewBox="0 0 863 430" fill="none" xmlns="http://www.w3.org/2000/svg">
<mask id="path-1-inside-1_10210_4494" fill="white">
<path d="M133.2 0.199997V239.6C133.2 259.2 137.4 274.8 145.8 286.4C154.6 297.6 168.6 303.2 187.8 303.2C207 303.2 221.2 297.6 230.4 286.4C239.6 274.8 244.2 259.2 244.2 239.6V0.199997H376.8V239.6C376.8 280 368.4 314.6 351.6 343.4C334.8 371.8 311.8 393.2 282.6 407.6C253.4 422 220.8 429.2 184.8 429.2C148.8 429.2 116.8 422 88.8 407.6C61.2 393.2 39.6 371.8 24 343.4C8.4 315 0.600002 280.4 0.600002 239.6V0.199997H133.2ZM704.85 425L626.85 314.6L562.05 425H410.25L550.05 206L404.25 0.199997H562.05L637.05 106.4L699.45 0.199997H851.25L713.85 215L862.65 425H704.85Z"/>
</mask>
<path d="M133.2 0.199997H135.2V-1.8H133.2V0.199997ZM145.8 286.4L144.18 287.573L144.203 287.605L144.227 287.636L145.8 286.4ZM230.4 286.4L231.945 287.669L231.956 287.656L231.967 287.643L230.4 286.4ZM244.2 0.199997V-1.8H242.2V0.199997H244.2ZM376.8 0.199997H378.8V-1.8H376.8V0.199997ZM351.6 343.4L353.321 344.418L353.328 344.408L351.6 343.4ZM282.6 407.6L283.485 409.394L282.6 407.6ZM88.8 407.6L87.8749 409.373L87.8853 409.379L88.8 407.6ZM24 343.4L22.247 344.363L24 343.4ZM0.600002 0.199997V-1.8H-1.4V0.199997H0.600002ZM131.2 0.199997V239.6H135.2V0.199997H131.2ZM131.2 239.6C131.2 259.469 135.457 275.526 144.18 287.573L147.42 285.227C139.343 274.074 135.2 258.931 135.2 239.6H131.2ZM144.227 287.636C153.528 299.473 168.215 305.2 187.8 305.2V301.2C168.985 301.2 155.672 295.727 147.373 285.164L144.227 287.636ZM187.8 305.2C207.391 305.2 222.251 299.472 231.945 287.669L228.855 285.131C220.149 295.728 206.609 301.2 187.8 301.2V305.2ZM231.967 287.643C241.527 275.589 246.2 259.505 246.2 239.6H242.2C242.2 258.895 237.673 274.011 228.833 285.157L231.967 287.643ZM246.2 239.6V0.199997H242.2V239.6H246.2ZM244.2 2.2H376.8V-1.8H244.2V2.2ZM374.8 0.199997V239.6H378.8V0.199997H374.8ZM374.8 239.6C374.8 279.721 366.46 313.957 349.872 342.392L353.328 344.408C370.34 315.243 378.8 280.279 378.8 239.6H374.8ZM349.879 342.382C333.274 370.452 310.562 391.58 281.715 405.806L283.485 409.394C313.038 394.82 336.327 373.148 353.321 344.418L349.879 342.382ZM281.715 405.806C252.819 420.057 220.526 427.2 184.8 427.2V431.2C221.074 431.2 253.981 423.943 283.485 409.394L281.715 405.806ZM184.8 427.2C149.072 427.2 117.394 420.056 89.7147 405.821L87.8853 409.379C116.206 423.944 148.528 431.2 184.8 431.2V427.2ZM89.7251 405.827C62.4898 391.617 41.1712 370.506 25.753 342.437L22.247 344.363C38.0288 373.094 59.9102 394.783 87.8749 409.373L89.7251 405.827ZM25.753 342.437C10.3518 314.399 2.6 280.149 2.6 239.6H-1.4C-1.4 280.651 6.44822 315.601 22.247 344.363L25.753 342.437ZM2.6 239.6V0.199997H-1.4V239.6H2.6ZM0.600002 2.2H133.2V-1.8H0.600002V2.2ZM704.85 425L703.217 426.154L703.814 427H704.85V425ZM626.85 314.6L628.483 313.446L626.695 310.914L625.125 313.588L626.85 314.6ZM562.05 425V427H563.195L563.775 426.012L562.05 425ZM410.25 425L408.564 423.924L406.601 427H410.25V425ZM550.05 206L551.736 207.076L552.46 205.942L551.682 204.844L550.05 206ZM404.25 0.199997V-1.8H400.382L402.618 1.35616L404.25 0.199997ZM562.05 0.199997L563.684 -0.953728L563.086 -1.8H562.05V0.199997ZM637.05 106.4L635.416 107.554L637.204 110.085L638.774 107.413L637.05 106.4ZM699.45 0.199997V-1.8H698.305L697.726 -0.813194L699.45 0.199997ZM851.25 0.199997L852.935 1.27771L854.904 -1.8H851.25V0.199997ZM713.85 215L712.165 213.922L711.439 215.057L712.218 216.156L713.85 215ZM862.65 425V427H866.518L864.282 423.844L862.65 425ZM706.483 423.846L628.483 313.446L625.217 315.754L703.217 426.154L706.483 423.846ZM625.125 313.588L560.325 423.988L563.775 426.012L628.575 315.612L625.125 313.588ZM562.05 423H410.25V427H562.05V423ZM411.936 426.076L551.736 207.076L548.364 204.924L408.564 423.924L411.936 426.076ZM551.682 204.844L405.882 -0.956169L402.618 1.35616L548.418 207.156L551.682 204.844ZM404.25 2.2H562.05V-1.8H404.25V2.2ZM560.416 1.35373L635.416 107.554L638.684 105.246L563.684 -0.953728L560.416 1.35373ZM638.774 107.413L701.174 1.21318L697.726 -0.813194L635.326 105.387L638.774 107.413ZM699.45 2.2H851.25V-1.8H699.45V2.2ZM849.565 -0.877708L712.165 213.922L715.535 216.078L852.935 1.27771L849.565 -0.877708ZM712.218 216.156L861.018 426.156L864.282 423.844L715.482 213.844L712.218 216.156ZM862.65 423H704.85V427H862.65V423Z" fill="white" mask="url(#path-1-inside-1_10210_4494)"/>
</svg>
