<svg width="18" height="14" viewBox="0 0 18 14" fill="none" xmlns="http://www.w3.org/2000/svg">
<path d="M17.596 11.1771C17.4165 12.1197 16.6534 12.8379 15.7107 12.9726C14.2294 13.197 11.7606 13.4663 8.97756 13.4663C6.2394 13.4663 3.77057 13.197 2.24439 12.9726C1.30175 12.8379 0.538653 12.1197 0.359102 11.1771C0.179551 10.1446 0 8.61845 0 6.73317C0 4.84788 0.179551 3.3217 0.359102 2.28928C0.538653 1.34663 1.30175 0.628429 2.24439 0.493766C3.72569 0.269327 6.19451 0 8.97756 0C11.7606 0 14.1845 0.269327 15.7107 0.493766C16.6534 0.628429 17.4165 1.34663 17.596 2.28928C17.7756 3.3217 18 4.84788 18 6.73317C17.9551 8.61845 17.7756 10.1446 17.596 11.1771Z" fill="white"/>
<path d="M7.18359 9.87535V3.59106L12.5701 6.73321L7.18359 9.87535Z" fill="black"/>
</svg>
